<?xml version="1.0" encoding="utf-8" standalone="no"?>
<!DOCTYPE svg PUBLIC "-//W3C//DTD SVG 1.1//EN"
  "http://www.w3.org/Graphics/SVG/1.1/DTD/svg11.dtd">
<svg xmlns:xlink="http://www.w3.org/1999/xlink" width="1440pt" height="288pt" viewBox="0 0 1440 288" xmlns="http://www.w3.org/2000/svg" version="1.1">
 <metadata>
  <rdf:RDF xmlns:dc="http://purl.org/dc/elements/1.1/" xmlns:cc="http://creativecommons.org/ns#" xmlns:rdf="http://www.w3.org/1999/02/22-rdf-syntax-ns#">
   <cc:Work>
    <dc:type rdf:resource="http://purl.org/dc/dcmitype/StillImage"/>
    <dc:date>2024-11-24T10:52:03.835514</dc:date>
    <dc:format>image/svg+xml</dc:format>
    <dc:creator>
     <cc:Agent>
      <dc:title>Matplotlib v3.9.2, https://matplotlib.org/</dc:title>
     </cc:Agent>
    </dc:creator>
   </cc:Work>
  </rdf:RDF>
 </metadata>
 <defs>
  <style type="text/css">*{stroke-linejoin: round; stroke-linecap: butt}</style>
 </defs>
 <g id="figure_1">
  <g id="patch_1">
   <path d="M 0 288 
L 1440 288 
L 1440 0 
L 0 0 
z
" style="fill: #ffffff"/>
  </g>
  <g id="axes_1">
   <g id="patch_2">
    <path d="M 36.457115 246.90101 
L 279.507928 246.90101 
L 279.507928 16.638052 
L 36.457115 16.638052 
z
" style="fill: #ffffff"/>
   </g>
   <g id="patch_3">
    <path d="M 47.504879 246.90101 
L 50.079242 246.90101 
L 50.079242 245.597604 
L 47.504879 245.597604 
z
" clip-path="url(#pe966c77eba)" style="fill: #1f77b4"/>
   </g>
   <g id="patch_4">
    <path d="M 50.365283 246.90101 
L 52.939646 246.90101 
L 52.939646 243.968347 
L 50.365283 243.968347 
z
" clip-path="url(#pe966c77eba)" style="fill: #1f77b4"/>
   </g>
   <g id="patch_5">
    <path d="M 53.225686 246.90101 
L 55.80005 246.90101 
L 55.80005 240.38398 
L 53.225686 240.38398 
z
" clip-path="url(#pe966c77eba)" style="fill: #1f77b4"/>
   </g>
   <g id="patch_6">
    <path d="M 56.08609 246.90101 
L 58.660453 246.90101 
L 58.660453 232.889396 
L 56.08609 232.889396 
z
" clip-path="url(#pe966c77eba)" style="fill: #1f77b4"/>
   </g>
   <g id="patch_7">
    <path d="M 58.946494 246.90101 
L 61.520857 246.90101 
L 61.520857 220.181188 
L 58.946494 220.181188 
z
" clip-path="url(#pe966c77eba)" style="fill: #1f77b4"/>
   </g>
   <g id="patch_8">
    <path d="M 61.806897 246.90101 
L 64.38126 246.90101 
L 64.38126 186.292632 
L 61.806897 186.292632 
z
" clip-path="url(#pe966c77eba)" style="fill: #1f77b4"/>
   </g>
   <g id="patch_9">
    <path d="M 64.667301 246.90101 
L 67.241664 246.90101 
L 67.241664 161.202067 
L 64.667301 161.202067 
z
" clip-path="url(#pe966c77eba)" style="fill: #1f77b4"/>
   </g>
   <g id="patch_10">
    <path d="M 67.527704 246.90101 
L 70.102068 246.90101 
L 70.102068 112.324343 
L 67.527704 112.324343 
z
" clip-path="url(#pe966c77eba)" style="fill: #1f77b4"/>
   </g>
   <g id="patch_11">
    <path d="M 70.388108 246.90101 
L 72.962471 246.90101 
L 72.962471 83.323561 
L 70.388108 83.323561 
z
" clip-path="url(#pe966c77eba)" style="fill: #1f77b4"/>
   </g>
   <g id="patch_12">
    <path d="M 73.248512 246.90101 
L 75.822875 246.90101 
L 75.822875 43.569678 
L 73.248512 43.569678 
z
" clip-path="url(#pe966c77eba)" style="fill: #1f77b4"/>
   </g>
   <g id="patch_13">
    <path d="M 76.108915 246.90101 
L 78.683278 246.90101 
L 78.683278 27.602955 
L 76.108915 27.602955 
z
" clip-path="url(#pe966c77eba)" style="fill: #1f77b4"/>
   </g>
   <g id="patch_14">
    <path d="M 78.969319 246.90101 
L 81.543682 246.90101 
L 81.543682 45.524787 
L 78.969319 45.524787 
z
" clip-path="url(#pe966c77eba)" style="fill: #1f77b4"/>
   </g>
   <g id="patch_15">
    <path d="M 81.829722 246.90101 
L 84.404086 246.90101 
L 84.404086 70.941204 
L 81.829722 70.941204 
z
" clip-path="url(#pe966c77eba)" style="fill: #1f77b4"/>
   </g>
   <g id="patch_16">
    <path d="M 84.690126 246.90101 
L 87.264489 246.90101 
L 87.264489 108.414125 
L 84.690126 108.414125 
z
" clip-path="url(#pe966c77eba)" style="fill: #1f77b4"/>
   </g>
   <g id="patch_17">
    <path d="M 87.55053 246.90101 
L 90.124893 246.90101 
L 90.124893 145.887047 
L 87.55053 145.887047 
z
" clip-path="url(#pe966c77eba)" style="fill: #1f77b4"/>
   </g>
   <g id="patch_18">
    <path d="M 90.410933 246.90101 
L 92.985296 246.90101 
L 92.985296 199.652544 
L 90.410933 199.652544 
z
" clip-path="url(#pe966c77eba)" style="fill: #1f77b4"/>
   </g>
   <g id="patch_19">
    <path d="M 93.271337 246.90101 
L 95.8457 246.90101 
L 95.8457 220.507039 
L 93.271337 220.507039 
z
" clip-path="url(#pe966c77eba)" style="fill: #1f77b4"/>
   </g>
   <g id="patch_20">
    <path d="M 96.13174 246.90101 
L 98.706104 246.90101 
L 98.706104 236.473762 
L 96.13174 236.473762 
z
" clip-path="url(#pe966c77eba)" style="fill: #1f77b4"/>
   </g>
   <g id="patch_21">
    <path d="M 98.992144 246.90101 
L 101.566507 246.90101 
L 101.566507 241.035683 
L 98.992144 241.035683 
z
" clip-path="url(#pe966c77eba)" style="fill: #1f77b4"/>
   </g>
   <g id="patch_22">
    <path d="M 101.852547 246.90101 
L 104.426911 246.90101 
L 104.426911 244.294198 
L 101.852547 244.294198 
z
" clip-path="url(#pe966c77eba)" style="fill: #1f77b4"/>
   </g>
   <g id="patch_23">
    <path d="M 104.712951 246.90101 
L 107.287314 246.90101 
L 107.287314 246.90101 
L 104.712951 246.90101 
z
" clip-path="url(#pe966c77eba)" style="fill: #1f77b4"/>
   </g>
   <g id="patch_24">
    <path d="M 107.573355 246.90101 
L 110.147718 246.90101 
L 110.147718 246.575159 
L 107.573355 246.575159 
z
" clip-path="url(#pe966c77eba)" style="fill: #1f77b4"/>
   </g>
   <g id="patch_25">
    <path d="M 110.433758 246.90101 
L 113.008121 246.90101 
L 113.008121 246.90101 
L 110.433758 246.90101 
z
" clip-path="url(#pe966c77eba)" style="fill: #1f77b4"/>
   </g>
   <g id="patch_26">
    <path d="M 113.294162 246.90101 
L 115.868525 246.90101 
L 115.868525 246.575159 
L 113.294162 246.575159 
z
" clip-path="url(#pe966c77eba)" style="fill: #1f77b4"/>
   </g>
   <g id="patch_27">
    <path d="M 116.154565 246.90101 
L 118.728929 246.90101 
L 118.728929 246.90101 
L 116.154565 246.90101 
z
" clip-path="url(#pe966c77eba)" style="fill: #1f77b4"/>
   </g>
   <g id="patch_28">
    <path d="M 119.014969 246.90101 
L 121.589332 246.90101 
L 121.589332 246.90101 
L 119.014969 246.90101 
z
" clip-path="url(#pe966c77eba)" style="fill: #1f77b4"/>
   </g>
   <g id="patch_29">
    <path d="M 121.875373 246.90101 
L 124.449736 246.90101 
L 124.449736 246.575159 
L 121.875373 246.575159 
z
" clip-path="url(#pe966c77eba)" style="fill: #1f77b4"/>
   </g>
   <g id="patch_30">
    <path d="M 124.735776 246.90101 
L 127.310139 246.90101 
L 127.310139 246.90101 
L 124.735776 246.90101 
z
" clip-path="url(#pe966c77eba)" style="fill: #1f77b4"/>
   </g>
   <g id="patch_31">
    <path d="M 127.59618 246.90101 
L 130.170543 246.90101 
L 130.170543 246.90101 
L 127.59618 246.90101 
z
" clip-path="url(#pe966c77eba)" style="fill: #1f77b4"/>
   </g>
   <g id="patch_32">
    <path d="M 130.456583 246.90101 
L 133.030947 246.90101 
L 133.030947 246.575159 
L 130.456583 246.575159 
z
" clip-path="url(#pe966c77eba)" style="fill: #1f77b4"/>
   </g>
   <g id="matplotlib.axis_1">
    <g id="xtick_1">
     <g id="line2d_1">
      <defs>
       <path id="me4ba02488f" d="M 0 0 
L 0 3.5 
" style="stroke: #000000; stroke-width: 0.8"/>
      </defs>
      <g>
       <use xlink:href="#me4ba02488f" x="72.010829" y="246.90101" style="stroke: #000000; stroke-width: 0.8"/>
      </g>
     </g>
     <g id="text_1">
      <!-- 1.35 -->
      <g transform="translate(56.424892 264.538822) scale(0.14 -0.14)">
       <defs>
        <path id="DejaVuSans-31" d="M 794 531 
L 1825 531 
L 1825 4091 
L 703 3866 
L 703 4441 
L 1819 4666 
L 2450 4666 
L 2450 531 
L 3481 531 
L 3481 0 
L 794 0 
L 794 531 
z
" transform="scale(0.015625)"/>
        <path id="DejaVuSans-2e" d="M 684 794 
L 1344 794 
L 1344 0 
L 684 0 
L 684 794 
z
" transform="scale(0.015625)"/>
        <path id="DejaVuSans-33" d="M 2597 2516 
Q 3050 2419 3304 2112 
Q 3559 1806 3559 1356 
Q 3559 666 3084 287 
Q 2609 -91 1734 -91 
Q 1441 -91 1130 -33 
Q 819 25 488 141 
L 488 750 
Q 750 597 1062 519 
Q 1375 441 1716 441 
Q 2309 441 2620 675 
Q 2931 909 2931 1356 
Q 2931 1769 2642 2001 
Q 2353 2234 1838 2234 
L 1294 2234 
L 1294 2753 
L 1863 2753 
Q 2328 2753 2575 2939 
Q 2822 3125 2822 3475 
Q 2822 3834 2567 4026 
Q 2313 4219 1838 4219 
Q 1578 4219 1281 4162 
Q 984 4106 628 3988 
L 628 4550 
Q 988 4650 1302 4700 
Q 1616 4750 1894 4750 
Q 2613 4750 3031 4423 
Q 3450 4097 3450 3541 
Q 3450 3153 3228 2886 
Q 3006 2619 2597 2516 
z
" transform="scale(0.015625)"/>
        <path id="DejaVuSans-35" d="M 691 4666 
L 3169 4666 
L 3169 4134 
L 1269 4134 
L 1269 2991 
Q 1406 3038 1543 3061 
Q 1681 3084 1819 3084 
Q 2600 3084 3056 2656 
Q 3513 2228 3513 1497 
Q 3513 744 3044 326 
Q 2575 -91 1722 -91 
Q 1428 -91 1123 -41 
Q 819 9 494 109 
L 494 744 
Q 775 591 1075 516 
Q 1375 441 1709 441 
Q 2250 441 2565 725 
Q 2881 1009 2881 1497 
Q 2881 1984 2565 2268 
Q 2250 2553 1709 2553 
Q 1456 2553 1204 2497 
Q 953 2441 691 2322 
L 691 4666 
z
" transform="scale(0.015625)"/>
       </defs>
       <use xlink:href="#DejaVuSans-31"/>
       <use xlink:href="#DejaVuSans-2e" x="63.623047"/>
       <use xlink:href="#DejaVuSans-33" x="95.410156"/>
       <use xlink:href="#DejaVuSans-35" x="159.033203"/>
      </g>
     </g>
    </g>
    <g id="xtick_2">
     <g id="line2d_2">
      <g>
       <use xlink:href="#me4ba02488f" x="121.619247" y="246.90101" style="stroke: #000000; stroke-width: 0.8"/>
      </g>
     </g>
     <g id="text_2">
      <!-- 1.40 -->
      <g transform="translate(106.03331 264.538822) scale(0.14 -0.14)">
       <defs>
        <path id="DejaVuSans-34" d="M 2419 4116 
L 825 1625 
L 2419 1625 
L 2419 4116 
z
M 2253 4666 
L 3047 4666 
L 3047 1625 
L 3713 1625 
L 3713 1100 
L 3047 1100 
L 3047 0 
L 2419 0 
L 2419 1100 
L 313 1100 
L 313 1709 
L 2253 4666 
z
" transform="scale(0.015625)"/>
        <path id="DejaVuSans-30" d="M 2034 4250 
Q 1547 4250 1301 3770 
Q 1056 3291 1056 2328 
Q 1056 1369 1301 889 
Q 1547 409 2034 409 
Q 2525 409 2770 889 
Q 3016 1369 3016 2328 
Q 3016 3291 2770 3770 
Q 2525 4250 2034 4250 
z
M 2034 4750 
Q 2819 4750 3233 4129 
Q 3647 3509 3647 2328 
Q 3647 1150 3233 529 
Q 2819 -91 2034 -91 
Q 1250 -91 836 529 
Q 422 1150 422 2328 
Q 422 3509 836 4129 
Q 1250 4750 2034 4750 
z
" transform="scale(0.015625)"/>
       </defs>
       <use xlink:href="#DejaVuSans-31"/>
       <use xlink:href="#DejaVuSans-2e" x="63.623047"/>
       <use xlink:href="#DejaVuSans-34" x="95.410156"/>
       <use xlink:href="#DejaVuSans-30" x="159.033203"/>
      </g>
     </g>
    </g>
    <g id="xtick_3">
     <g id="line2d_3">
      <g>
       <use xlink:href="#me4ba02488f" x="171.227665" y="246.90101" style="stroke: #000000; stroke-width: 0.8"/>
      </g>
     </g>
     <g id="text_3">
      <!-- 1.45 -->
      <g transform="translate(155.641727 264.538822) scale(0.14 -0.14)">
       <use xlink:href="#DejaVuSans-31"/>
       <use xlink:href="#DejaVuSans-2e" x="63.623047"/>
       <use xlink:href="#DejaVuSans-34" x="95.410156"/>
       <use xlink:href="#DejaVuSans-35" x="159.033203"/>
      </g>
     </g>
    </g>
    <g id="xtick_4">
     <g id="line2d_4">
      <g>
       <use xlink:href="#me4ba02488f" x="220.836083" y="246.90101" style="stroke: #000000; stroke-width: 0.8"/>
      </g>
     </g>
     <g id="text_4">
      <!-- 1.50 -->
      <g transform="translate(205.250145 264.538822) scale(0.14 -0.14)">
       <use xlink:href="#DejaVuSans-31"/>
       <use xlink:href="#DejaVuSans-2e" x="63.623047"/>
       <use xlink:href="#DejaVuSans-35" x="95.410156"/>
       <use xlink:href="#DejaVuSans-30" x="159.033203"/>
      </g>
     </g>
    </g>
    <g id="xtick_5">
     <g id="line2d_5">
      <g>
       <use xlink:href="#me4ba02488f" x="270.4445" y="246.90101" style="stroke: #000000; stroke-width: 0.8"/>
      </g>
     </g>
     <g id="text_5">
      <!-- 1.55 -->
      <g transform="translate(254.858563 264.538822) scale(0.14 -0.14)">
       <use xlink:href="#DejaVuSans-31"/>
       <use xlink:href="#DejaVuSans-2e" x="63.623047"/>
       <use xlink:href="#DejaVuSans-35" x="95.410156"/>
       <use xlink:href="#DejaVuSans-35" x="159.033203"/>
      </g>
     </g>
    </g>
    <g id="text_6">
     <!-- $E_1$ [MPa] -->
     <g transform="translate(127.952521 282.088197) scale(0.14 -0.14)">
      <defs>
       <path id="DejaVuSans-Oblique-45" d="M 1081 4666 
L 4031 4666 
L 3928 4134 
L 1606 4134 
L 1338 2753 
L 3566 2753 
L 3463 2222 
L 1234 2222 
L 909 531 
L 3284 531 
L 3181 0 
L 172 0 
L 1081 4666 
z
" transform="scale(0.015625)"/>
       <path id="DejaVuSans-20" transform="scale(0.015625)"/>
       <path id="DejaVuSans-5b" d="M 550 4863 
L 1875 4863 
L 1875 4416 
L 1125 4416 
L 1125 -397 
L 1875 -397 
L 1875 -844 
L 550 -844 
L 550 4863 
z
" transform="scale(0.015625)"/>
       <path id="DejaVuSans-4d" d="M 628 4666 
L 1569 4666 
L 2759 1491 
L 3956 4666 
L 4897 4666 
L 4897 0 
L 4281 0 
L 4281 4097 
L 3078 897 
L 2444 897 
L 1241 4097 
L 1241 0 
L 628 0 
L 628 4666 
z
" transform="scale(0.015625)"/>
       <path id="DejaVuSans-50" d="M 1259 4147 
L 1259 2394 
L 2053 2394 
Q 2494 2394 2734 2622 
Q 2975 2850 2975 3272 
Q 2975 3691 2734 3919 
Q 2494 4147 2053 4147 
L 1259 4147 
z
M 628 4666 
L 2053 4666 
Q 2838 4666 3239 4311 
Q 3641 3956 3641 3272 
Q 3641 2581 3239 2228 
Q 2838 1875 2053 1875 
L 1259 1875 
L 1259 0 
L 628 0 
L 628 4666 
z
" transform="scale(0.015625)"/>
       <path id="DejaVuSans-61" d="M 2194 1759 
Q 1497 1759 1228 1600 
Q 959 1441 959 1056 
Q 959 750 1161 570 
Q 1363 391 1709 391 
Q 2188 391 2477 730 
Q 2766 1069 2766 1631 
L 2766 1759 
L 2194 1759 
z
M 3341 1997 
L 3341 0 
L 2766 0 
L 2766 531 
Q 2569 213 2275 61 
Q 1981 -91 1556 -91 
Q 1019 -91 701 211 
Q 384 513 384 1019 
Q 384 1609 779 1909 
Q 1175 2209 1959 2209 
L 2766 2209 
L 2766 2266 
Q 2766 2663 2505 2880 
Q 2244 3097 1772 3097 
Q 1472 3097 1187 3025 
Q 903 2953 641 2809 
L 641 3341 
Q 956 3463 1253 3523 
Q 1550 3584 1831 3584 
Q 2591 3584 2966 3190 
Q 3341 2797 3341 1997 
z
" transform="scale(0.015625)"/>
       <path id="DejaVuSans-5d" d="M 1947 4863 
L 1947 -844 
L 622 -844 
L 622 -397 
L 1369 -397 
L 1369 4416 
L 622 4416 
L 622 4863 
L 1947 4863 
z
" transform="scale(0.015625)"/>
      </defs>
      <use xlink:href="#DejaVuSans-Oblique-45" transform="translate(0 0.015625)"/>
      <use xlink:href="#DejaVuSans-31" transform="translate(63.183594 -16.390625) scale(0.7)"/>
      <use xlink:href="#DejaVuSans-20" transform="translate(110.454102 0.015625)"/>
      <use xlink:href="#DejaVuSans-5b" transform="translate(142.241211 0.015625)"/>
      <use xlink:href="#DejaVuSans-4d" transform="translate(181.254883 0.015625)"/>
      <use xlink:href="#DejaVuSans-50" transform="translate(267.53418 0.015625)"/>
      <use xlink:href="#DejaVuSans-61" transform="translate(327.836914 0.015625)"/>
      <use xlink:href="#DejaVuSans-5d" transform="translate(389.116211 0.015625)"/>
     </g>
    </g>
    <g id="text_7">
     <!-- 1e5 -->
     <g transform="translate(253.078553 281.088197) scale(0.14 -0.14)">
      <defs>
       <path id="DejaVuSans-65" d="M 3597 1894 
L 3597 1613 
L 953 1613 
Q 991 1019 1311 708 
Q 1631 397 2203 397 
Q 2534 397 2845 478 
Q 3156 559 3463 722 
L 3463 178 
Q 3153 47 2828 -22 
Q 2503 -91 2169 -91 
Q 1331 -91 842 396 
Q 353 884 353 1716 
Q 353 2575 817 3079 
Q 1281 3584 2069 3584 
Q 2775 3584 3186 3129 
Q 3597 2675 3597 1894 
z
M 3022 2063 
Q 3016 2534 2758 2815 
Q 2500 3097 2075 3097 
Q 1594 3097 1305 2825 
Q 1016 2553 972 2059 
L 3022 2063 
z
" transform="scale(0.015625)"/>
      </defs>
      <use xlink:href="#DejaVuSans-31"/>
      <use xlink:href="#DejaVuSans-65" x="63.623047"/>
      <use xlink:href="#DejaVuSans-35" x="125.146484"/>
     </g>
    </g>
   </g>
   <g id="matplotlib.axis_2">
    <g id="ytick_1">
     <g id="line2d_6">
      <defs>
       <path id="m6a450083c3" d="M 0 0 
L -3.5 0 
" style="stroke: #000000; stroke-width: 0.8"/>
      </defs>
      <g>
       <use xlink:href="#m6a450083c3" x="36.457115" y="246.90101" style="stroke: #000000; stroke-width: 0.8"/>
      </g>
     </g>
     <g id="text_8">
      <!-- 0 -->
      <g transform="translate(20.549615 252.219916) scale(0.14 -0.14)">
       <use xlink:href="#DejaVuSans-30"/>
      </g>
     </g>
    </g>
    <g id="ytick_2">
     <g id="line2d_7">
      <g>
       <use xlink:href="#m6a450083c3" x="36.457115" y="199.929809" style="stroke: #000000; stroke-width: 0.8"/>
      </g>
     </g>
     <g id="text_9">
      <!-- 1 -->
      <g transform="translate(20.549615 205.248715) scale(0.14 -0.14)">
       <use xlink:href="#DejaVuSans-31"/>
      </g>
     </g>
    </g>
    <g id="ytick_3">
     <g id="line2d_8">
      <g>
       <use xlink:href="#m6a450083c3" x="36.457115" y="152.958608" style="stroke: #000000; stroke-width: 0.8"/>
      </g>
     </g>
     <g id="text_10">
      <!-- 2 -->
      <g transform="translate(20.549615 158.277515) scale(0.14 -0.14)">
       <defs>
        <path id="DejaVuSans-32" d="M 1228 531 
L 3431 531 
L 3431 0 
L 469 0 
L 469 531 
Q 828 903 1448 1529 
Q 2069 2156 2228 2338 
Q 2531 2678 2651 2914 
Q 2772 3150 2772 3378 
Q 2772 3750 2511 3984 
Q 2250 4219 1831 4219 
Q 1534 4219 1204 4116 
Q 875 4013 500 3803 
L 500 4441 
Q 881 4594 1212 4672 
Q 1544 4750 1819 4750 
Q 2544 4750 2975 4387 
Q 3406 4025 3406 3419 
Q 3406 3131 3298 2873 
Q 3191 2616 2906 2266 
Q 2828 2175 2409 1742 
Q 1991 1309 1228 531 
z
" transform="scale(0.015625)"/>
       </defs>
       <use xlink:href="#DejaVuSans-32"/>
      </g>
     </g>
    </g>
    <g id="ytick_4">
     <g id="line2d_9">
      <g>
       <use xlink:href="#m6a450083c3" x="36.457115" y="105.987408" style="stroke: #000000; stroke-width: 0.8"/>
      </g>
     </g>
     <g id="text_11">
      <!-- 3 -->
      <g transform="translate(20.549615 111.306314) scale(0.14 -0.14)">
       <use xlink:href="#DejaVuSans-33"/>
      </g>
     </g>
    </g>
    <g id="ytick_5">
     <g id="line2d_10">
      <g>
       <use xlink:href="#m6a450083c3" x="36.457115" y="59.016207" style="stroke: #000000; stroke-width: 0.8"/>
      </g>
     </g>
     <g id="text_12">
      <!-- 4 -->
      <g transform="translate(20.549615 64.335113) scale(0.14 -0.14)">
       <use xlink:href="#DejaVuSans-34"/>
      </g>
     </g>
    </g>
    <g id="text_13">
     <!-- PDF -->
     <g transform="translate(13.638053 145.406406) rotate(-90) scale(0.14 -0.14)">
      <defs>
       <path id="DejaVuSans-44" d="M 1259 4147 
L 1259 519 
L 2022 519 
Q 2988 519 3436 956 
Q 3884 1394 3884 2338 
Q 3884 3275 3436 3711 
Q 2988 4147 2022 4147 
L 1259 4147 
z
M 628 4666 
L 1925 4666 
Q 3281 4666 3915 4102 
Q 4550 3538 4550 2338 
Q 4550 1131 3912 565 
Q 3275 0 1925 0 
L 628 0 
L 628 4666 
z
" transform="scale(0.015625)"/>
       <path id="DejaVuSans-46" d="M 628 4666 
L 3309 4666 
L 3309 4134 
L 1259 4134 
L 1259 2759 
L 3109 2759 
L 3109 2228 
L 1259 2228 
L 1259 0 
L 628 0 
L 628 4666 
z
" transform="scale(0.015625)"/>
      </defs>
      <use xlink:href="#DejaVuSans-50"/>
      <use xlink:href="#DejaVuSans-44" x="60.302734"/>
      <use xlink:href="#DejaVuSans-46" x="137.304688"/>
     </g>
    </g>
    <g id="text_14">
     <!-- 1e−4 -->
     <g transform="translate(36.457115 13.638052) scale(0.14 -0.14)">
      <defs>
       <path id="DejaVuSans-2212" d="M 678 2272 
L 4684 2272 
L 4684 1741 
L 678 1741 
L 678 2272 
z
" transform="scale(0.015625)"/>
      </defs>
      <use xlink:href="#DejaVuSans-31"/>
      <use xlink:href="#DejaVuSans-65" x="63.623047"/>
      <use xlink:href="#DejaVuSans-2212" x="125.146484"/>
      <use xlink:href="#DejaVuSans-34" x="208.935547"/>
     </g>
    </g>
   </g>
   <g id="line2d_11">
    <path d="M 149.399961 245.860164 
L 150.602589 245.654914 
L 151.805218 245.414659 
L 153.007846 245.134582 
L 154.210474 244.809425 
L 155.413103 244.433496 
L 156.615731 244.000672 
L 157.818359 243.504425 
L 159.020987 242.937855 
L 160.223616 242.293731 
L 161.426244 241.564557 
L 162.628872 240.742642 
L 163.831501 239.820192 
L 165.034129 238.78942 
L 166.236757 237.642665 
L 167.439386 236.372534 
L 168.642014 234.972053 
L 169.844642 233.434835 
L 171.047271 231.75526 
L 172.249899 229.928654 
L 173.452527 227.951487 
L 174.655155 225.821563 
L 175.857784 223.538207 
L 177.060412 221.102449 
L 178.26304 218.517193 
L 179.465669 215.787363 
L 180.668297 212.920035 
L 181.870925 209.924532 
L 183.073554 206.812488 
L 184.276182 203.597875 
L 185.47881 200.296984 
L 186.681439 196.928366 
L 187.884067 193.51272 
L 189.086695 190.072733 
L 190.289324 186.632873 
L 191.491952 183.219136 
L 192.69458 179.858741 
L 193.897208 176.579795 
L 195.099837 173.410913 
L 196.302465 170.380814 
L 197.505093 167.517898 
L 198.707722 164.849805 
L 199.91035 162.402977 
L 201.112978 160.202221 
L 202.315607 158.270293 
L 203.518235 156.627509 
L 204.720863 155.291385 
L 205.923492 154.27633 
L 207.12612 153.593387 
L 208.328748 153.250029 
L 209.531376 153.250029 
L 210.734005 153.593387 
L 211.936633 154.27633 
L 213.139261 155.291385 
L 214.34189 156.627509 
L 215.544518 158.270293 
L 216.747146 160.202221 
L 217.949775 162.402977 
L 219.152403 164.849805 
L 220.355031 167.517898 
L 221.55766 170.380814 
L 222.760288 173.410913 
L 223.962916 176.579795 
L 225.165544 179.858741 
L 226.368173 183.219136 
L 227.570801 186.632873 
L 228.773429 190.072733 
L 229.976058 193.51272 
L 231.178686 196.928366 
L 232.381314 200.296984 
L 233.583943 203.597875 
L 234.786571 206.812488 
L 235.989199 209.924532 
L 237.191828 212.920035 
L 238.394456 215.787363 
L 239.597084 218.517193 
L 240.799713 221.102449 
L 242.002341 223.538207 
L 243.204969 225.821563 
L 244.407597 227.951487 
L 245.610226 229.928654 
L 246.812854 231.75526 
L 248.015482 233.434835 
L 249.218111 234.972053 
L 250.420739 236.372534 
L 251.623367 237.642665 
L 252.825996 238.78942 
L 254.028624 239.820192 
L 255.231252 240.742642 
L 256.433881 241.564557 
L 257.636509 242.293731 
L 258.839137 242.937855 
L 260.041765 243.504425 
L 261.244394 244.000672 
L 262.447022 244.433496 
L 263.64965 244.809425 
L 264.852279 245.134582 
L 266.054907 245.414659 
L 267.257535 245.654914 
L 268.460164 245.860164 
" clip-path="url(#pe966c77eba)" style="fill: none; stroke: #2ca02c; stroke-width: 1.5; stroke-linecap: square"/>
   </g>
   <g id="patch_33">
    <path d="M 36.457115 246.90101 
L 36.457115 16.638052 
" style="fill: none; stroke: #000000; stroke-width: 0.8; stroke-linejoin: miter; stroke-linecap: square"/>
   </g>
   <g id="patch_34">
    <path d="M 279.507928 246.90101 
L 279.507928 16.638052 
" style="fill: none; stroke: #000000; stroke-width: 0.8; stroke-linejoin: miter; stroke-linecap: square"/>
   </g>
   <g id="patch_35">
    <path d="M 36.457115 246.90101 
L 279.507928 246.90101 
" style="fill: none; stroke: #000000; stroke-width: 0.8; stroke-linejoin: miter; stroke-linecap: square"/>
   </g>
   <g id="patch_36">
    <path d="M 36.457115 16.638052 
L 279.507928 16.638052 
" style="fill: none; stroke: #000000; stroke-width: 0.8; stroke-linejoin: miter; stroke-linecap: square"/>
   </g>
   <g id="legend_1">
    <g id="patch_37">
     <path d="M 163.045428 68.936802 
L 269.707928 68.936802 
Q 272.507928 68.936802 272.507928 66.136802 
L 272.507928 26.438053 
Q 272.507928 23.638053 269.707928 23.638053 
L 163.045428 23.638053 
Q 160.245428 23.638053 160.245428 26.438053 
L 160.245428 66.136802 
Q 160.245428 68.936802 163.045428 68.936802 
z
" style="fill: #ffffff; opacity: 0.8; stroke: #cccccc; stroke-linejoin: miter"/>
    </g>
    <g id="line2d_12">
     <path d="M 165.845428 34.975865 
L 179.845428 34.975865 
L 193.845428 34.975865 
" style="fill: none; stroke: #2ca02c; stroke-width: 1.5; stroke-linecap: square"/>
    </g>
    <g id="text_15">
     <!-- Prior -->
     <g transform="translate(205.045428 39.875865) scale(0.14 -0.14)">
      <defs>
       <path id="DejaVuSans-72" d="M 2631 2963 
Q 2534 3019 2420 3045 
Q 2306 3072 2169 3072 
Q 1681 3072 1420 2755 
Q 1159 2438 1159 1844 
L 1159 0 
L 581 0 
L 581 3500 
L 1159 3500 
L 1159 2956 
Q 1341 3275 1631 3429 
Q 1922 3584 2338 3584 
Q 2397 3584 2469 3576 
Q 2541 3569 2628 3553 
L 2631 2963 
z
" transform="scale(0.015625)"/>
       <path id="DejaVuSans-69" d="M 603 3500 
L 1178 3500 
L 1178 0 
L 603 0 
L 603 3500 
z
M 603 4863 
L 1178 4863 
L 1178 4134 
L 603 4134 
L 603 4863 
z
" transform="scale(0.015625)"/>
       <path id="DejaVuSans-6f" d="M 1959 3097 
Q 1497 3097 1228 2736 
Q 959 2375 959 1747 
Q 959 1119 1226 758 
Q 1494 397 1959 397 
Q 2419 397 2687 759 
Q 2956 1122 2956 1747 
Q 2956 2369 2687 2733 
Q 2419 3097 1959 3097 
z
M 1959 3584 
Q 2709 3584 3137 3096 
Q 3566 2609 3566 1747 
Q 3566 888 3137 398 
Q 2709 -91 1959 -91 
Q 1206 -91 779 398 
Q 353 888 353 1747 
Q 353 2609 779 3096 
Q 1206 3584 1959 3584 
z
" transform="scale(0.015625)"/>
      </defs>
      <use xlink:href="#DejaVuSans-50"/>
      <use xlink:href="#DejaVuSans-72" x="58.552734"/>
      <use xlink:href="#DejaVuSans-69" x="99.666016"/>
      <use xlink:href="#DejaVuSans-6f" x="127.449219"/>
      <use xlink:href="#DejaVuSans-72" x="188.630859"/>
     </g>
    </g>
    <g id="patch_38">
     <path d="M 165.845428 60.42524 
L 193.845428 60.42524 
L 193.845428 50.62524 
L 165.845428 50.62524 
z
" style="fill: #1f77b4"/>
    </g>
    <g id="text_16">
     <!-- Posterior -->
     <g transform="translate(205.045428 60.42524) scale(0.14 -0.14)">
      <defs>
       <path id="DejaVuSans-73" d="M 2834 3397 
L 2834 2853 
Q 2591 2978 2328 3040 
Q 2066 3103 1784 3103 
Q 1356 3103 1142 2972 
Q 928 2841 928 2578 
Q 928 2378 1081 2264 
Q 1234 2150 1697 2047 
L 1894 2003 
Q 2506 1872 2764 1633 
Q 3022 1394 3022 966 
Q 3022 478 2636 193 
Q 2250 -91 1575 -91 
Q 1294 -91 989 -36 
Q 684 19 347 128 
L 347 722 
Q 666 556 975 473 
Q 1284 391 1588 391 
Q 1994 391 2212 530 
Q 2431 669 2431 922 
Q 2431 1156 2273 1281 
Q 2116 1406 1581 1522 
L 1381 1569 
Q 847 1681 609 1914 
Q 372 2147 372 2553 
Q 372 3047 722 3315 
Q 1072 3584 1716 3584 
Q 2034 3584 2315 3537 
Q 2597 3491 2834 3397 
z
" transform="scale(0.015625)"/>
       <path id="DejaVuSans-74" d="M 1172 4494 
L 1172 3500 
L 2356 3500 
L 2356 3053 
L 1172 3053 
L 1172 1153 
Q 1172 725 1289 603 
Q 1406 481 1766 481 
L 2356 481 
L 2356 0 
L 1766 0 
Q 1100 0 847 248 
Q 594 497 594 1153 
L 594 3053 
L 172 3053 
L 172 3500 
L 594 3500 
L 594 4494 
L 1172 4494 
z
" transform="scale(0.015625)"/>
      </defs>
      <use xlink:href="#DejaVuSans-50"/>
      <use xlink:href="#DejaVuSans-6f" x="56.677734"/>
      <use xlink:href="#DejaVuSans-73" x="117.859375"/>
      <use xlink:href="#DejaVuSans-74" x="169.958984"/>
      <use xlink:href="#DejaVuSans-65" x="209.167969"/>
      <use xlink:href="#DejaVuSans-72" x="270.691406"/>
      <use xlink:href="#DejaVuSans-69" x="311.804688"/>
      <use xlink:href="#DejaVuSans-6f" x="339.587891"/>
      <use xlink:href="#DejaVuSans-72" x="400.769531"/>
     </g>
    </g>
   </g>
  </g>
  <g id="axes_2">
   <g id="patch_39">
    <path d="M 339.110301 246.90101 
L 582.161113 246.90101 
L 582.161113 16.638052 
L 339.110301 16.638052 
z
" style="fill: #ffffff"/>
   </g>
   <g id="patch_40">
    <path d="M 350.158065 246.90101 
L 356.808893 246.90101 
L 356.808893 245.618565 
L 350.158065 245.618565 
z
" clip-path="url(#pb583073660)" style="fill: #1f77b4"/>
   </g>
   <g id="patch_41">
    <path d="M 357.547874 246.90101 
L 364.198702 246.90101 
L 364.198702 246.90101 
L 357.547874 246.90101 
z
" clip-path="url(#pb583073660)" style="fill: #1f77b4"/>
   </g>
   <g id="patch_42">
    <path d="M 364.937682 246.90101 
L 371.58851 246.90101 
L 371.58851 246.90101 
L 364.937682 246.90101 
z
" clip-path="url(#pb583073660)" style="fill: #1f77b4"/>
   </g>
   <g id="patch_43">
    <path d="M 372.327491 246.90101 
L 378.978319 246.90101 
L 378.978319 244.33612 
L 372.327491 244.33612 
z
" clip-path="url(#pb583073660)" style="fill: #1f77b4"/>
   </g>
   <g id="patch_44">
    <path d="M 379.7173 246.90101 
L 386.368128 246.90101 
L 386.368128 242.626194 
L 379.7173 242.626194 
z
" clip-path="url(#pb583073660)" style="fill: #1f77b4"/>
   </g>
   <g id="patch_45">
    <path d="M 387.107109 246.90101 
L 393.757937 246.90101 
L 393.757937 236.641452 
L 387.107109 236.641452 
z
" clip-path="url(#pb583073660)" style="fill: #1f77b4"/>
   </g>
   <g id="patch_46">
    <path d="M 394.496918 246.90101 
L 401.147746 246.90101 
L 401.147746 231.084191 
L 394.496918 231.084191 
z
" clip-path="url(#pb583073660)" style="fill: #1f77b4"/>
   </g>
   <g id="patch_47">
    <path d="M 401.886727 246.90101 
L 408.537555 246.90101 
L 408.537555 218.259744 
L 401.886727 218.259744 
z
" clip-path="url(#pb583073660)" style="fill: #1f77b4"/>
   </g>
   <g id="patch_48">
    <path d="M 409.276535 246.90101 
L 415.927363 246.90101 
L 415.927363 207.145222 
L 409.276535 207.145222 
z
" clip-path="url(#pb583073660)" style="fill: #1f77b4"/>
   </g>
   <g id="patch_49">
    <path d="M 416.666344 246.90101 
L 423.317172 246.90101 
L 423.317172 180.641364 
L 416.666344 180.641364 
z
" clip-path="url(#pb583073660)" style="fill: #1f77b4"/>
   </g>
   <g id="patch_50">
    <path d="M 424.056153 246.90101 
L 430.706981 246.90101 
L 430.706981 157.129876 
L 424.056153 157.129876 
z
" clip-path="url(#pb583073660)" style="fill: #1f77b4"/>
   </g>
   <g id="patch_51">
    <path d="M 431.445962 246.90101 
L 438.09679 246.90101 
L 438.09679 119.938978 
L 431.445962 119.938978 
z
" clip-path="url(#pb583073660)" style="fill: #1f77b4"/>
   </g>
   <g id="patch_52">
    <path d="M 438.835771 246.90101 
L 445.486599 246.90101 
L 445.486599 90.87023 
L 438.835771 90.87023 
z
" clip-path="url(#pb583073660)" style="fill: #1f77b4"/>
   </g>
   <g id="patch_53">
    <path d="M 446.22558 246.90101 
L 452.876408 246.90101 
L 452.876408 84.030525 
L 446.22558 84.030525 
z
" clip-path="url(#pb583073660)" style="fill: #1f77b4"/>
   </g>
   <g id="patch_54">
    <path d="M 453.615389 246.90101 
L 460.266217 246.90101 
L 460.266217 27.602955 
L 453.615389 27.602955 
z
" clip-path="url(#pb583073660)" style="fill: #1f77b4"/>
   </g>
   <g id="patch_55">
    <path d="M 461.005197 246.90101 
L 467.656025 246.90101 
L 467.656025 39.57244 
L 461.005197 39.57244 
z
" clip-path="url(#pb583073660)" style="fill: #1f77b4"/>
   </g>
   <g id="patch_56">
    <path d="M 468.395006 246.90101 
L 475.045834 246.90101 
L 475.045834 43.419774 
L 468.395006 43.419774 
z
" clip-path="url(#pb583073660)" style="fill: #1f77b4"/>
   </g>
   <g id="patch_57">
    <path d="M 475.784815 246.90101 
L 482.435643 246.90101 
L 482.435643 58.38163 
L 475.784815 58.38163 
z
" clip-path="url(#pb583073660)" style="fill: #1f77b4"/>
   </g>
   <g id="patch_58">
    <path d="M 483.174624 246.90101 
L 489.825452 246.90101 
L 489.825452 66.931261 
L 483.174624 66.931261 
z
" clip-path="url(#pb583073660)" style="fill: #1f77b4"/>
   </g>
   <g id="patch_59">
    <path d="M 490.564433 246.90101 
L 497.215261 246.90101 
L 497.215261 113.954236 
L 490.564433 113.954236 
z
" clip-path="url(#pb583073660)" style="fill: #1f77b4"/>
   </g>
   <g id="patch_60">
    <path d="M 497.954242 246.90101 
L 504.60507 246.90101 
L 504.60507 139.603131 
L 497.954242 139.603131 
z
" clip-path="url(#pb583073660)" style="fill: #1f77b4"/>
   </g>
   <g id="patch_61">
    <path d="M 505.34405 246.90101 
L 511.994878 246.90101 
L 511.994878 172.946695 
L 505.34405 172.946695 
z
" clip-path="url(#pb583073660)" style="fill: #1f77b4"/>
   </g>
   <g id="patch_62">
    <path d="M 512.733859 246.90101 
L 519.384687 246.90101 
L 519.384687 196.885664 
L 512.733859 196.885664 
z
" clip-path="url(#pb583073660)" style="fill: #1f77b4"/>
   </g>
   <g id="patch_63">
    <path d="M 520.123668 246.90101 
L 526.774496 246.90101 
L 526.774496 213.984928 
L 520.123668 213.984928 
z
" clip-path="url(#pb583073660)" style="fill: #1f77b4"/>
   </g>
   <g id="patch_64">
    <path d="M 527.513477 246.90101 
L 534.164305 246.90101 
L 534.164305 228.519302 
L 527.513477 228.519302 
z
" clip-path="url(#pb583073660)" style="fill: #1f77b4"/>
   </g>
   <g id="patch_65">
    <path d="M 534.903286 246.90101 
L 541.554114 246.90101 
L 541.554114 239.633823 
L 534.903286 239.633823 
z
" clip-path="url(#pb583073660)" style="fill: #1f77b4"/>
   </g>
   <g id="patch_66">
    <path d="M 542.293095 246.90101 
L 548.943923 246.90101 
L 548.943923 240.916268 
L 542.293095 240.916268 
z
" clip-path="url(#pb583073660)" style="fill: #1f77b4"/>
   </g>
   <g id="patch_67">
    <path d="M 549.682904 246.90101 
L 556.333731 246.90101 
L 556.333731 243.481157 
L 549.682904 243.481157 
z
" clip-path="url(#pb583073660)" style="fill: #1f77b4"/>
   </g>
   <g id="patch_68">
    <path d="M 557.072712 246.90101 
L 563.72354 246.90101 
L 563.72354 246.046047 
L 557.072712 246.046047 
z
" clip-path="url(#pb583073660)" style="fill: #1f77b4"/>
   </g>
   <g id="patch_69">
    <path d="M 564.462521 246.90101 
L 571.113349 246.90101 
L 571.113349 245.618565 
L 564.462521 245.618565 
z
" clip-path="url(#pb583073660)" style="fill: #1f77b4"/>
   </g>
   <g id="matplotlib.axis_3">
    <g id="xtick_6">
     <g id="line2d_13">
      <g>
       <use xlink:href="#me4ba02488f" x="353.581257" y="246.90101" style="stroke: #000000; stroke-width: 0.8"/>
      </g>
     </g>
     <g id="text_17">
      <!-- 8800 -->
      <g transform="translate(335.766257 264.538822) scale(0.14 -0.14)">
       <defs>
        <path id="DejaVuSans-38" d="M 2034 2216 
Q 1584 2216 1326 1975 
Q 1069 1734 1069 1313 
Q 1069 891 1326 650 
Q 1584 409 2034 409 
Q 2484 409 2743 651 
Q 3003 894 3003 1313 
Q 3003 1734 2745 1975 
Q 2488 2216 2034 2216 
z
M 1403 2484 
Q 997 2584 770 2862 
Q 544 3141 544 3541 
Q 544 4100 942 4425 
Q 1341 4750 2034 4750 
Q 2731 4750 3128 4425 
Q 3525 4100 3525 3541 
Q 3525 3141 3298 2862 
Q 3072 2584 2669 2484 
Q 3125 2378 3379 2068 
Q 3634 1759 3634 1313 
Q 3634 634 3220 271 
Q 2806 -91 2034 -91 
Q 1263 -91 848 271 
Q 434 634 434 1313 
Q 434 1759 690 2068 
Q 947 2378 1403 2484 
z
M 1172 3481 
Q 1172 3119 1398 2916 
Q 1625 2713 2034 2713 
Q 2441 2713 2670 2916 
Q 2900 3119 2900 3481 
Q 2900 3844 2670 4047 
Q 2441 4250 2034 4250 
Q 1625 4250 1398 4047 
Q 1172 3844 1172 3481 
z
" transform="scale(0.015625)"/>
       </defs>
       <use xlink:href="#DejaVuSans-38"/>
       <use xlink:href="#DejaVuSans-38" x="63.623047"/>
       <use xlink:href="#DejaVuSans-30" x="127.246094"/>
       <use xlink:href="#DejaVuSans-30" x="190.869141"/>
      </g>
     </g>
    </g>
    <g id="xtick_7">
     <g id="line2d_14">
      <g>
       <use xlink:href="#me4ba02488f" x="411.506416" y="246.90101" style="stroke: #000000; stroke-width: 0.8"/>
      </g>
     </g>
     <g id="text_18">
      <!-- 9000 -->
      <g transform="translate(393.691416 264.538822) scale(0.14 -0.14)">
       <defs>
        <path id="DejaVuSans-39" d="M 703 97 
L 703 672 
Q 941 559 1184 500 
Q 1428 441 1663 441 
Q 2288 441 2617 861 
Q 2947 1281 2994 2138 
Q 2813 1869 2534 1725 
Q 2256 1581 1919 1581 
Q 1219 1581 811 2004 
Q 403 2428 403 3163 
Q 403 3881 828 4315 
Q 1253 4750 1959 4750 
Q 2769 4750 3195 4129 
Q 3622 3509 3622 2328 
Q 3622 1225 3098 567 
Q 2575 -91 1691 -91 
Q 1453 -91 1209 -44 
Q 966 3 703 97 
z
M 1959 2075 
Q 2384 2075 2632 2365 
Q 2881 2656 2881 3163 
Q 2881 3666 2632 3958 
Q 2384 4250 1959 4250 
Q 1534 4250 1286 3958 
Q 1038 3666 1038 3163 
Q 1038 2656 1286 2365 
Q 1534 2075 1959 2075 
z
" transform="scale(0.015625)"/>
       </defs>
       <use xlink:href="#DejaVuSans-39"/>
       <use xlink:href="#DejaVuSans-30" x="63.623047"/>
       <use xlink:href="#DejaVuSans-30" x="127.246094"/>
       <use xlink:href="#DejaVuSans-30" x="190.869141"/>
      </g>
     </g>
    </g>
    <g id="xtick_8">
     <g id="line2d_15">
      <g>
       <use xlink:href="#me4ba02488f" x="469.431576" y="246.90101" style="stroke: #000000; stroke-width: 0.8"/>
      </g>
     </g>
     <g id="text_19">
      <!-- 9200 -->
      <g transform="translate(451.616576 264.538822) scale(0.14 -0.14)">
       <use xlink:href="#DejaVuSans-39"/>
       <use xlink:href="#DejaVuSans-32" x="63.623047"/>
       <use xlink:href="#DejaVuSans-30" x="127.246094"/>
       <use xlink:href="#DejaVuSans-30" x="190.869141"/>
      </g>
     </g>
    </g>
    <g id="xtick_9">
     <g id="line2d_16">
      <g>
       <use xlink:href="#me4ba02488f" x="527.356736" y="246.90101" style="stroke: #000000; stroke-width: 0.8"/>
      </g>
     </g>
     <g id="text_20">
      <!-- 9400 -->
      <g transform="translate(509.541736 264.538822) scale(0.14 -0.14)">
       <use xlink:href="#DejaVuSans-39"/>
       <use xlink:href="#DejaVuSans-34" x="63.623047"/>
       <use xlink:href="#DejaVuSans-30" x="127.246094"/>
       <use xlink:href="#DejaVuSans-30" x="190.869141"/>
      </g>
     </g>
    </g>
    <g id="text_21">
     <!-- $E_2$ [MPa] -->
     <g transform="translate(430.605707 282.088197) scale(0.14 -0.14)">
      <use xlink:href="#DejaVuSans-Oblique-45" transform="translate(0 0.015625)"/>
      <use xlink:href="#DejaVuSans-32" transform="translate(63.183594 -16.390625) scale(0.7)"/>
      <use xlink:href="#DejaVuSans-20" transform="translate(110.454102 0.015625)"/>
      <use xlink:href="#DejaVuSans-5b" transform="translate(142.241211 0.015625)"/>
      <use xlink:href="#DejaVuSans-4d" transform="translate(181.254883 0.015625)"/>
      <use xlink:href="#DejaVuSans-50" transform="translate(267.53418 0.015625)"/>
      <use xlink:href="#DejaVuSans-61" transform="translate(327.836914 0.015625)"/>
      <use xlink:href="#DejaVuSans-5d" transform="translate(389.116211 0.015625)"/>
     </g>
    </g>
   </g>
   <g id="matplotlib.axis_4">
    <g id="ytick_6">
     <g id="line2d_17">
      <g>
       <use xlink:href="#m6a450083c3" x="339.110301" y="246.90101" style="stroke: #000000; stroke-width: 0.8"/>
      </g>
     </g>
     <g id="text_22">
      <!-- 0.000 -->
      <g transform="translate(292.030926 252.219916) scale(0.14 -0.14)">
       <use xlink:href="#DejaVuSans-30"/>
       <use xlink:href="#DejaVuSans-2e" x="63.623047"/>
       <use xlink:href="#DejaVuSans-30" x="95.410156"/>
       <use xlink:href="#DejaVuSans-30" x="159.033203"/>
       <use xlink:href="#DejaVuSans-30" x="222.65625"/>
      </g>
     </g>
    </g>
    <g id="ytick_7">
     <g id="line2d_18">
      <g>
       <use xlink:href="#m6a450083c3" x="339.110301" y="192.364998" style="stroke: #000000; stroke-width: 0.8"/>
      </g>
     </g>
     <g id="text_23">
      <!-- 0.001 -->
      <g transform="translate(292.030926 197.683904) scale(0.14 -0.14)">
       <use xlink:href="#DejaVuSans-30"/>
       <use xlink:href="#DejaVuSans-2e" x="63.623047"/>
       <use xlink:href="#DejaVuSans-30" x="95.410156"/>
       <use xlink:href="#DejaVuSans-30" x="159.033203"/>
       <use xlink:href="#DejaVuSans-31" x="222.65625"/>
      </g>
     </g>
    </g>
    <g id="ytick_8">
     <g id="line2d_19">
      <g>
       <use xlink:href="#m6a450083c3" x="339.110301" y="137.828986" style="stroke: #000000; stroke-width: 0.8"/>
      </g>
     </g>
     <g id="text_24">
      <!-- 0.002 -->
      <g transform="translate(292.030926 143.147892) scale(0.14 -0.14)">
       <use xlink:href="#DejaVuSans-30"/>
       <use xlink:href="#DejaVuSans-2e" x="63.623047"/>
       <use xlink:href="#DejaVuSans-30" x="95.410156"/>
       <use xlink:href="#DejaVuSans-30" x="159.033203"/>
       <use xlink:href="#DejaVuSans-32" x="222.65625"/>
      </g>
     </g>
    </g>
    <g id="ytick_9">
     <g id="line2d_20">
      <g>
       <use xlink:href="#m6a450083c3" x="339.110301" y="83.292973" style="stroke: #000000; stroke-width: 0.8"/>
      </g>
     </g>
     <g id="text_25">
      <!-- 0.003 -->
      <g transform="translate(292.030926 88.61188) scale(0.14 -0.14)">
       <use xlink:href="#DejaVuSans-30"/>
       <use xlink:href="#DejaVuSans-2e" x="63.623047"/>
       <use xlink:href="#DejaVuSans-30" x="95.410156"/>
       <use xlink:href="#DejaVuSans-30" x="159.033203"/>
       <use xlink:href="#DejaVuSans-33" x="222.65625"/>
      </g>
     </g>
    </g>
    <g id="ytick_10">
     <g id="line2d_21">
      <g>
       <use xlink:href="#m6a450083c3" x="339.110301" y="28.756961" style="stroke: #000000; stroke-width: 0.8"/>
      </g>
     </g>
     <g id="text_26">
      <!-- 0.004 -->
      <g transform="translate(292.030926 34.075867) scale(0.14 -0.14)">
       <use xlink:href="#DejaVuSans-30"/>
       <use xlink:href="#DejaVuSans-2e" x="63.623047"/>
       <use xlink:href="#DejaVuSans-30" x="95.410156"/>
       <use xlink:href="#DejaVuSans-30" x="159.033203"/>
       <use xlink:href="#DejaVuSans-34" x="222.65625"/>
      </g>
     </g>
    </g>
   </g>
   <g id="line2d_22">
    <path d="M 379.647579 244.484057 
L 381.402886 244.007445 
L 383.158194 243.449548 
L 384.913502 242.799179 
L 386.66881 242.044132 
L 388.424118 241.171185 
L 390.179426 240.166122 
L 391.934734 239.013786 
L 393.690042 237.698151 
L 395.445349 236.202429 
L 397.200657 234.509211 
L 398.955965 232.600637 
L 400.711273 230.458613 
L 402.466581 228.065052 
L 404.221889 225.402168 
L 405.977197 222.45279 
L 407.732504 219.200727 
L 409.487812 215.631149 
L 411.24312 211.730999 
L 412.998428 207.489429 
L 414.753736 202.898242 
L 416.509044 197.952336 
L 418.264352 192.650145 
L 420.01966 186.994063 
L 421.774967 180.990828 
L 423.530275 174.651878 
L 425.285583 167.993644 
L 427.040891 161.037774 
L 428.796199 153.811283 
L 430.551507 146.346616 
L 432.306815 138.681603 
L 434.062123 130.859322 
L 435.81743 122.927835 
L 437.572738 114.939826 
L 439.328046 106.952113 
L 441.083354 99.025059 
L 442.838662 91.221873 
L 444.59397 83.607819 
L 446.349278 76.249344 
L 448.104586 69.213139 
L 449.859893 62.565149 
L 451.615201 56.369559 
L 453.370509 50.687769 
L 455.125817 45.577384 
L 456.881125 41.091247 
L 458.636433 37.276531 
L 460.391741 34.173912 
L 462.147049 31.816849 
L 463.902356 30.230982 
L 465.657664 29.433669 
L 467.412972 29.433669 
L 469.16828 30.230982 
L 470.923588 31.816849 
L 472.678896 34.173912 
L 474.434204 37.276531 
L 476.189511 41.091247 
L 477.944819 45.577384 
L 479.700127 50.687769 
L 481.455435 56.369559 
L 483.210743 62.565149 
L 484.966051 69.213139 
L 486.721359 76.249344 
L 488.476667 83.607819 
L 490.231974 91.221873 
L 491.987282 99.025059 
L 493.74259 106.952113 
L 495.497898 114.939826 
L 497.253206 122.927835 
L 499.008514 130.859322 
L 500.763822 138.681603 
L 502.51913 146.346616 
L 504.274437 153.811283 
L 506.029745 161.037774 
L 507.785053 167.993644 
L 509.540361 174.651878 
L 511.295669 180.990828 
L 513.050977 186.994063 
L 514.806285 192.650145 
L 516.561593 197.952336 
L 518.3169 202.898242 
L 520.072208 207.489429 
L 521.827516 211.730999 
L 523.582824 215.631149 
L 525.338132 219.200727 
L 527.09344 222.45279 
L 528.848748 225.402168 
L 530.604056 228.065052 
L 532.359363 230.458613 
L 534.114671 232.600637 
L 535.869979 234.509211 
L 537.625287 236.202429 
L 539.380595 237.698151 
L 541.135903 239.013786 
L 542.891211 240.166122 
L 544.646518 241.171185 
L 546.401826 242.044132 
L 548.157134 242.799179 
L 549.912442 243.449548 
L 551.66775 244.007445 
L 553.423058 244.484057 
" clip-path="url(#pb583073660)" style="fill: none; stroke: #2ca02c; stroke-width: 1.5; stroke-linecap: square"/>
   </g>
   <g id="patch_70">
    <path d="M 339.110301 246.90101 
L 339.110301 16.638052 
" style="fill: none; stroke: #000000; stroke-width: 0.8; stroke-linejoin: miter; stroke-linecap: square"/>
   </g>
   <g id="patch_71">
    <path d="M 582.161113 246.90101 
L 582.161113 16.638052 
" style="fill: none; stroke: #000000; stroke-width: 0.8; stroke-linejoin: miter; stroke-linecap: square"/>
   </g>
   <g id="patch_72">
    <path d="M 339.110301 246.90101 
L 582.161113 246.90101 
" style="fill: none; stroke: #000000; stroke-width: 0.8; stroke-linejoin: miter; stroke-linecap: square"/>
   </g>
   <g id="patch_73">
    <path d="M 339.110301 16.638052 
L 582.161113 16.638052 
" style="fill: none; stroke: #000000; stroke-width: 0.8; stroke-linejoin: miter; stroke-linecap: square"/>
   </g>
  </g>
  <g id="axes_3">
   <g id="patch_74">
    <path d="M 612.976593 246.90101 
L 856.027406 246.90101 
L 856.027406 16.638052 
L 612.976593 16.638052 
z
" style="fill: #ffffff"/>
   </g>
   <g id="patch_75">
    <path d="M 624.024358 246.90101 
L 630.675186 246.90101 
L 630.675186 245.245057 
L 624.024358 245.245057 
z
" clip-path="url(#p53e9d118d8)" style="fill: #1f77b4"/>
   </g>
   <g id="patch_76">
    <path d="M 631.414166 246.90101 
L 638.064994 246.90101 
L 638.064994 245.659045 
L 631.414166 245.659045 
z
" clip-path="url(#p53e9d118d8)" style="fill: #1f77b4"/>
   </g>
   <g id="patch_77">
    <path d="M 638.803975 246.90101 
L 645.454803 246.90101 
L 645.454803 242.761127 
L 638.803975 242.761127 
z
" clip-path="url(#p53e9d118d8)" style="fill: #1f77b4"/>
   </g>
   <g id="patch_78">
    <path d="M 646.193784 246.90101 
L 652.844612 246.90101 
L 652.844612 238.207255 
L 646.193784 238.207255 
z
" clip-path="url(#p53e9d118d8)" style="fill: #1f77b4"/>
   </g>
   <g id="patch_79">
    <path d="M 653.583593 246.90101 
L 660.234421 246.90101 
L 660.234421 234.895349 
L 653.583593 234.895349 
z
" clip-path="url(#p53e9d118d8)" style="fill: #1f77b4"/>
   </g>
   <g id="patch_80">
    <path d="M 660.973402 246.90101 
L 667.62423 246.90101 
L 667.62423 228.685524 
L 660.973402 228.685524 
z
" clip-path="url(#p53e9d118d8)" style="fill: #1f77b4"/>
   </g>
   <g id="patch_81">
    <path d="M 668.363211 246.90101 
L 675.014039 246.90101 
L 675.014039 217.09385 
L 668.363211 217.09385 
z
" clip-path="url(#p53e9d118d8)" style="fill: #1f77b4"/>
   </g>
   <g id="patch_82">
    <path d="M 675.75302 246.90101 
L 682.403847 246.90101 
L 682.403847 202.190271 
L 675.75302 202.190271 
z
" clip-path="url(#p53e9d118d8)" style="fill: #1f77b4"/>
   </g>
   <g id="patch_83">
    <path d="M 683.142828 246.90101 
L 689.793656 246.90101 
L 689.793656 179.834901 
L 683.142828 179.834901 
z
" clip-path="url(#p53e9d118d8)" style="fill: #1f77b4"/>
   </g>
   <g id="patch_84">
    <path d="M 690.532637 246.90101 
L 697.183465 246.90101 
L 697.183465 167.001263 
L 690.532637 167.001263 
z
" clip-path="url(#p53e9d118d8)" style="fill: #1f77b4"/>
   </g>
   <g id="patch_85">
    <path d="M 697.922446 246.90101 
L 704.573274 246.90101 
L 704.573274 127.672372 
L 697.922446 127.672372 
z
" clip-path="url(#p53e9d118d8)" style="fill: #1f77b4"/>
   </g>
   <g id="patch_86">
    <path d="M 705.312255 246.90101 
L 711.963083 246.90101 
L 711.963083 106.972955 
L 705.312255 106.972955 
z
" clip-path="url(#p53e9d118d8)" style="fill: #1f77b4"/>
   </g>
   <g id="patch_87">
    <path d="M 712.702064 246.90101 
L 719.352892 246.90101 
L 719.352892 70.541983 
L 712.702064 70.541983 
z
" clip-path="url(#p53e9d118d8)" style="fill: #1f77b4"/>
   </g>
   <g id="patch_88">
    <path d="M 720.091873 246.90101 
L 726.742701 246.90101 
L 726.742701 52.740484 
L 720.091873 52.740484 
z
" clip-path="url(#p53e9d118d8)" style="fill: #1f77b4"/>
   </g>
   <g id="patch_89">
    <path d="M 727.481681 246.90101 
L 734.132509 246.90101 
L 734.132509 53.154473 
L 727.481681 53.154473 
z
" clip-path="url(#p53e9d118d8)" style="fill: #1f77b4"/>
   </g>
   <g id="patch_90">
    <path d="M 734.87149 246.90101 
L 741.522318 246.90101 
L 741.522318 60.192274 
L 734.87149 60.192274 
z
" clip-path="url(#p53e9d118d8)" style="fill: #1f77b4"/>
   </g>
   <g id="patch_91">
    <path d="M 742.261299 246.90101 
L 748.912127 246.90101 
L 748.912127 75.095854 
L 742.261299 75.095854 
z
" clip-path="url(#p53e9d118d8)" style="fill: #1f77b4"/>
   </g>
   <g id="patch_92">
    <path d="M 749.651108 246.90101 
L 756.301936 246.90101 
L 756.301936 85.445562 
L 749.651108 85.445562 
z
" clip-path="url(#p53e9d118d8)" style="fill: #1f77b4"/>
   </g>
   <g id="patch_93">
    <path d="M 757.040917 246.90101 
L 763.691745 246.90101 
L 763.691745 123.1185 
L 757.040917 123.1185 
z
" clip-path="url(#p53e9d118d8)" style="fill: #1f77b4"/>
   </g>
   <g id="patch_94">
    <path d="M 764.430726 246.90101 
L 771.081554 246.90101 
L 771.081554 138.02208 
L 764.430726 138.02208 
z
" clip-path="url(#p53e9d118d8)" style="fill: #1f77b4"/>
   </g>
   <g id="patch_95">
    <path d="M 771.820535 246.90101 
L 778.471362 246.90101 
L 778.471362 156.651555 
L 771.820535 156.651555 
z
" clip-path="url(#p53e9d118d8)" style="fill: #1f77b4"/>
   </g>
   <g id="patch_96">
    <path d="M 779.210343 246.90101 
L 785.861171 246.90101 
L 785.861171 189.356632 
L 779.210343 189.356632 
z
" clip-path="url(#p53e9d118d8)" style="fill: #1f77b4"/>
   </g>
   <g id="patch_97">
    <path d="M 786.600152 246.90101 
L 793.25098 246.90101 
L 793.25098 211.298014 
L 786.600152 211.298014 
z
" clip-path="url(#p53e9d118d8)" style="fill: #1f77b4"/>
   </g>
   <g id="patch_98">
    <path d="M 793.989961 246.90101 
L 800.640789 246.90101 
L 800.640789 228.271535 
L 793.989961 228.271535 
z
" clip-path="url(#p53e9d118d8)" style="fill: #1f77b4"/>
   </g>
   <g id="patch_99">
    <path d="M 801.37977 246.90101 
L 808.030598 246.90101 
L 808.030598 235.723325 
L 801.37977 235.723325 
z
" clip-path="url(#p53e9d118d8)" style="fill: #1f77b4"/>
   </g>
   <g id="patch_100">
    <path d="M 808.769579 246.90101 
L 815.420407 246.90101 
L 815.420407 240.277197 
L 808.769579 240.277197 
z
" clip-path="url(#p53e9d118d8)" style="fill: #1f77b4"/>
   </g>
   <g id="patch_101">
    <path d="M 816.159388 246.90101 
L 822.810216 246.90101 
L 822.810216 244.003092 
L 816.159388 244.003092 
z
" clip-path="url(#p53e9d118d8)" style="fill: #1f77b4"/>
   </g>
   <g id="patch_102">
    <path d="M 823.549196 246.90101 
L 830.200024 246.90101 
L 830.200024 245.659045 
L 823.549196 245.659045 
z
" clip-path="url(#p53e9d118d8)" style="fill: #1f77b4"/>
   </g>
   <g id="patch_103">
    <path d="M 830.939005 246.90101 
L 837.589833 246.90101 
L 837.589833 245.659045 
L 830.939005 245.659045 
z
" clip-path="url(#p53e9d118d8)" style="fill: #1f77b4"/>
   </g>
   <g id="patch_104">
    <path d="M 838.328814 246.90101 
L 844.979642 246.90101 
L 844.979642 245.659045 
L 838.328814 245.659045 
z
" clip-path="url(#p53e9d118d8)" style="fill: #1f77b4"/>
   </g>
   <g id="matplotlib.axis_5">
    <g id="xtick_10">
     <g id="line2d_23">
      <g>
       <use xlink:href="#me4ba02488f" x="616.188761" y="246.90101" style="stroke: #000000; stroke-width: 0.8"/>
      </g>
     </g>
     <g id="text_27">
      <!-- 0.30 -->
      <g transform="translate(600.602824 264.538822) scale(0.14 -0.14)">
       <use xlink:href="#DejaVuSans-30"/>
       <use xlink:href="#DejaVuSans-2e" x="63.623047"/>
       <use xlink:href="#DejaVuSans-33" x="95.410156"/>
       <use xlink:href="#DejaVuSans-30" x="159.033203"/>
      </g>
     </g>
    </g>
    <g id="xtick_11">
     <g id="line2d_24">
      <g>
       <use xlink:href="#me4ba02488f" x="671.817241" y="246.90101" style="stroke: #000000; stroke-width: 0.8"/>
      </g>
     </g>
     <g id="text_28">
      <!-- 0.32 -->
      <g transform="translate(656.231303 264.538822) scale(0.14 -0.14)">
       <use xlink:href="#DejaVuSans-30"/>
       <use xlink:href="#DejaVuSans-2e" x="63.623047"/>
       <use xlink:href="#DejaVuSans-33" x="95.410156"/>
       <use xlink:href="#DejaVuSans-32" x="159.033203"/>
      </g>
     </g>
    </g>
    <g id="xtick_12">
     <g id="line2d_25">
      <g>
       <use xlink:href="#me4ba02488f" x="727.44572" y="246.90101" style="stroke: #000000; stroke-width: 0.8"/>
      </g>
     </g>
     <g id="text_29">
      <!-- 0.34 -->
      <g transform="translate(711.859782 264.538822) scale(0.14 -0.14)">
       <use xlink:href="#DejaVuSans-30"/>
       <use xlink:href="#DejaVuSans-2e" x="63.623047"/>
       <use xlink:href="#DejaVuSans-33" x="95.410156"/>
       <use xlink:href="#DejaVuSans-34" x="159.033203"/>
      </g>
     </g>
    </g>
    <g id="xtick_13">
     <g id="line2d_26">
      <g>
       <use xlink:href="#me4ba02488f" x="783.074199" y="246.90101" style="stroke: #000000; stroke-width: 0.8"/>
      </g>
     </g>
     <g id="text_30">
      <!-- 0.36 -->
      <g transform="translate(767.488261 264.538822) scale(0.14 -0.14)">
       <defs>
        <path id="DejaVuSans-36" d="M 2113 2584 
Q 1688 2584 1439 2293 
Q 1191 2003 1191 1497 
Q 1191 994 1439 701 
Q 1688 409 2113 409 
Q 2538 409 2786 701 
Q 3034 994 3034 1497 
Q 3034 2003 2786 2293 
Q 2538 2584 2113 2584 
z
M 3366 4563 
L 3366 3988 
Q 3128 4100 2886 4159 
Q 2644 4219 2406 4219 
Q 1781 4219 1451 3797 
Q 1122 3375 1075 2522 
Q 1259 2794 1537 2939 
Q 1816 3084 2150 3084 
Q 2853 3084 3261 2657 
Q 3669 2231 3669 1497 
Q 3669 778 3244 343 
Q 2819 -91 2113 -91 
Q 1303 -91 875 529 
Q 447 1150 447 2328 
Q 447 3434 972 4092 
Q 1497 4750 2381 4750 
Q 2619 4750 2861 4703 
Q 3103 4656 3366 4563 
z
" transform="scale(0.015625)"/>
       </defs>
       <use xlink:href="#DejaVuSans-30"/>
       <use xlink:href="#DejaVuSans-2e" x="63.623047"/>
       <use xlink:href="#DejaVuSans-33" x="95.410156"/>
       <use xlink:href="#DejaVuSans-36" x="159.033203"/>
      </g>
     </g>
    </g>
    <g id="xtick_14">
     <g id="line2d_27">
      <g>
       <use xlink:href="#me4ba02488f" x="838.702678" y="246.90101" style="stroke: #000000; stroke-width: 0.8"/>
      </g>
     </g>
     <g id="text_31">
      <!-- 0.38 -->
      <g transform="translate(823.11674 264.538822) scale(0.14 -0.14)">
       <use xlink:href="#DejaVuSans-30"/>
       <use xlink:href="#DejaVuSans-2e" x="63.623047"/>
       <use xlink:href="#DejaVuSans-33" x="95.410156"/>
       <use xlink:href="#DejaVuSans-38" x="159.033203"/>
      </g>
     </g>
    </g>
    <g id="text_32">
     <!-- $\nu_{12}$ [-] -->
     <g transform="translate(713.922 282.088197) scale(0.14 -0.14)">
      <defs>
       <path id="DejaVuSans-Oblique-3bd" d="M 959 0 
L 572 3500 
L 1191 3500 
L 1522 563 
Q 1972 950 2391 1488 
Q 2706 1891 2788 2241 
Q 2825 2406 2809 2719 
Q 2794 3091 2544 3500 
L 3125 3500 
L 3125 3500 
Q 3288 3222 3353 2834 
Q 3416 2478 3369 2234 
Q 3250 1622 2719 1075 
Q 2025 363 1572 0 
L 959 0 
z
" transform="scale(0.015625)"/>
       <path id="DejaVuSans-2d" d="M 313 2009 
L 1997 2009 
L 1997 1497 
L 313 1497 
L 313 2009 
z
" transform="scale(0.015625)"/>
      </defs>
      <use xlink:href="#DejaVuSans-Oblique-3bd" transform="translate(0 0.015625)"/>
      <use xlink:href="#DejaVuSans-31" transform="translate(55.859375 -16.390625) scale(0.7)"/>
      <use xlink:href="#DejaVuSans-32" transform="translate(100.395508 -16.390625) scale(0.7)"/>
      <use xlink:href="#DejaVuSans-20" transform="translate(147.666016 0.015625)"/>
      <use xlink:href="#DejaVuSans-5b" transform="translate(179.453125 0.015625)"/>
      <use xlink:href="#DejaVuSans-2d" transform="translate(218.466797 0.015625)"/>
      <use xlink:href="#DejaVuSans-5d" transform="translate(254.550781 0.015625)"/>
     </g>
    </g>
   </g>
   <g id="matplotlib.axis_6">
    <g id="ytick_11">
     <g id="line2d_28">
      <g>
       <use xlink:href="#m6a450083c3" x="612.976593" y="246.90101" style="stroke: #000000; stroke-width: 0.8"/>
      </g>
     </g>
     <g id="text_33">
      <!-- 0 -->
      <g transform="translate(597.069093 252.219916) scale(0.14 -0.14)">
       <use xlink:href="#DejaVuSans-30"/>
      </g>
     </g>
    </g>
    <g id="ytick_12">
     <g id="line2d_29">
      <g>
       <use xlink:href="#m6a450083c3" x="612.976593" y="191.905895" style="stroke: #000000; stroke-width: 0.8"/>
      </g>
     </g>
     <g id="text_34">
      <!-- 10 -->
      <g transform="translate(588.161593 197.224801) scale(0.14 -0.14)">
       <use xlink:href="#DejaVuSans-31"/>
       <use xlink:href="#DejaVuSans-30" x="63.623047"/>
      </g>
     </g>
    </g>
    <g id="ytick_13">
     <g id="line2d_30">
      <g>
       <use xlink:href="#m6a450083c3" x="612.976593" y="136.91078" style="stroke: #000000; stroke-width: 0.8"/>
      </g>
     </g>
     <g id="text_35">
      <!-- 20 -->
      <g transform="translate(588.161593 142.229686) scale(0.14 -0.14)">
       <use xlink:href="#DejaVuSans-32"/>
       <use xlink:href="#DejaVuSans-30" x="63.623047"/>
      </g>
     </g>
    </g>
    <g id="ytick_14">
     <g id="line2d_31">
      <g>
       <use xlink:href="#m6a450083c3" x="612.976593" y="81.915665" style="stroke: #000000; stroke-width: 0.8"/>
      </g>
     </g>
     <g id="text_36">
      <!-- 30 -->
      <g transform="translate(588.161593 87.234571) scale(0.14 -0.14)">
       <use xlink:href="#DejaVuSans-33"/>
       <use xlink:href="#DejaVuSans-30" x="63.623047"/>
      </g>
     </g>
    </g>
    <g id="ytick_15">
     <g id="line2d_32">
      <g>
       <use xlink:href="#m6a450083c3" x="612.976593" y="26.92055" style="stroke: #000000; stroke-width: 0.8"/>
      </g>
     </g>
     <g id="text_37">
      <!-- 40 -->
      <g transform="translate(588.161593 32.239456) scale(0.14 -0.14)">
       <use xlink:href="#DejaVuSans-34"/>
       <use xlink:href="#DejaVuSans-30" x="63.623047"/>
      </g>
     </g>
    </g>
   </g>
   <g id="line2d_33">
    <path d="M 644.003001 244.46371 
L 645.688712 243.983086 
L 647.374424 243.420492 
L 649.060135 242.764648 
L 650.745847 242.003245 
L 652.431558 241.122949 
L 654.11727 240.109425 
L 655.802981 238.947388 
L 657.488693 237.620678 
L 659.174404 236.112365 
L 660.860116 234.404892 
L 662.545827 232.480252 
L 664.231539 230.320195 
L 665.91725 227.906485 
L 667.602962 225.221183 
L 669.288673 222.246977 
L 670.974385 218.967537 
L 672.660096 215.367908 
L 674.345808 211.434926 
L 676.031519 207.157649 
L 677.717231 202.527812 
L 679.402942 197.540269 
L 681.088654 192.193443 
L 682.774365 186.489745 
L 684.460077 180.435973 
L 686.145788 174.043661 
L 687.8315 167.329375 
L 689.517211 160.314948 
L 691.202923 153.027622 
L 692.888634 145.500114 
L 694.574346 137.770575 
L 696.260057 129.882443 
L 697.945769 121.884187 
L 699.63148 113.828932 
L 701.317192 105.773976 
L 703.002903 97.780189 
L 704.688615 89.911313 
L 706.374326 82.233161 
L 708.060038 74.81274 
L 709.745749 67.717302 
L 711.431461 61.013347 
L 713.117172 54.765601 
L 714.802884 49.035979 
L 716.488595 43.882573 
L 718.174306 39.35867 
L 719.860018 35.511841 
L 721.545729 32.383103 
L 723.231441 30.006197 
L 724.917152 28.40698 
L 726.602864 27.602955 
L 728.288575 27.602955 
L 729.974287 28.40698 
L 731.659998 30.006197 
L 733.34571 32.383103 
L 735.031421 35.511841 
L 736.717133 39.35867 
L 738.402844 43.882573 
L 740.088556 49.035979 
L 741.774267 54.765601 
L 743.459979 61.013347 
L 745.14569 67.717302 
L 746.831402 74.81274 
L 748.517113 82.233161 
L 750.202825 89.911313 
L 751.888536 97.780189 
L 753.574248 105.773976 
L 755.259959 113.828932 
L 756.945671 121.884187 
L 758.631382 129.882443 
L 760.317094 137.770575 
L 762.002805 145.500114 
L 763.688517 153.027622 
L 765.374228 160.314948 
L 767.05994 167.329375 
L 768.745651 174.043661 
L 770.431363 180.435973 
L 772.117074 186.489745 
L 773.802786 192.193443 
L 775.488497 197.540269 
L 777.174209 202.527812 
L 778.85992 207.157649 
L 780.545632 211.434926 
L 782.231343 215.367908 
L 783.917055 218.967537 
L 785.602766 222.246977 
L 787.288477 225.221183 
L 788.974189 227.906485 
L 790.6599 230.320195 
L 792.345612 232.480252 
L 794.031323 234.404892 
L 795.717035 236.112365 
L 797.402746 237.620678 
L 799.088458 238.947388 
L 800.774169 240.109425 
L 802.459881 241.122949 
L 804.145592 242.003245 
L 805.831304 242.764648 
L 807.517015 243.420492 
L 809.202727 243.983086 
L 810.888438 244.46371 
" clip-path="url(#p53e9d118d8)" style="fill: none; stroke: #2ca02c; stroke-width: 1.5; stroke-linecap: square"/>
   </g>
   <g id="patch_105">
    <path d="M 612.976593 246.90101 
L 612.976593 16.638052 
" style="fill: none; stroke: #000000; stroke-width: 0.8; stroke-linejoin: miter; stroke-linecap: square"/>
   </g>
   <g id="patch_106">
    <path d="M 856.027406 246.90101 
L 856.027406 16.638052 
" style="fill: none; stroke: #000000; stroke-width: 0.8; stroke-linejoin: miter; stroke-linecap: square"/>
   </g>
   <g id="patch_107">
    <path d="M 612.976593 246.90101 
L 856.027406 246.90101 
" style="fill: none; stroke: #000000; stroke-width: 0.8; stroke-linejoin: miter; stroke-linecap: square"/>
   </g>
   <g id="patch_108">
    <path d="M 612.976593 16.638052 
L 856.027406 16.638052 
" style="fill: none; stroke: #000000; stroke-width: 0.8; stroke-linejoin: miter; stroke-linecap: square"/>
   </g>
  </g>
  <g id="axes_4">
   <g id="patch_109">
    <path d="M 886.842886 246.90101 
L 1129.893699 246.90101 
L 1129.893699 16.638052 
L 886.842886 16.638052 
z
" style="fill: #ffffff"/>
   </g>
   <g id="patch_110">
    <path d="M 897.890651 246.90101 
L 904.541478 246.90101 
L 904.541478 246.005415 
L 897.890651 246.005415 
z
" clip-path="url(#p8e0ab5c3fb)" style="fill: #1f77b4"/>
   </g>
   <g id="patch_111">
    <path d="M 905.280459 246.90101 
L 911.931287 246.90101 
L 911.931287 245.109819 
L 905.280459 245.109819 
z
" clip-path="url(#p8e0ab5c3fb)" style="fill: #1f77b4"/>
   </g>
   <g id="patch_112">
    <path d="M 912.670268 246.90101 
L 919.321096 246.90101 
L 919.321096 243.766426 
L 912.670268 243.766426 
z
" clip-path="url(#p8e0ab5c3fb)" style="fill: #1f77b4"/>
   </g>
   <g id="patch_113">
    <path d="M 920.060077 246.90101 
L 926.710905 246.90101 
L 926.710905 241.527438 
L 920.060077 241.527438 
z
" clip-path="url(#p8e0ab5c3fb)" style="fill: #1f77b4"/>
   </g>
   <g id="patch_114">
    <path d="M 927.449886 246.90101 
L 934.100714 246.90101 
L 934.100714 237.049461 
L 927.449886 237.049461 
z
" clip-path="url(#p8e0ab5c3fb)" style="fill: #1f77b4"/>
   </g>
   <g id="patch_115">
    <path d="M 934.839695 246.90101 
L 941.490523 246.90101 
L 941.490523 229.436901 
L 934.839695 229.436901 
z
" clip-path="url(#p8e0ab5c3fb)" style="fill: #1f77b4"/>
   </g>
   <g id="patch_116">
    <path d="M 942.229504 246.90101 
L 948.880332 246.90101 
L 948.880332 216.898567 
L 942.229504 216.898567 
z
" clip-path="url(#p8e0ab5c3fb)" style="fill: #1f77b4"/>
   </g>
   <g id="patch_117">
    <path d="M 949.619312 246.90101 
L 956.27014 246.90101 
L 956.27014 205.703625 
L 949.619312 205.703625 
z
" clip-path="url(#p8e0ab5c3fb)" style="fill: #1f77b4"/>
   </g>
   <g id="patch_118">
    <path d="M 957.009121 246.90101 
L 963.659949 246.90101 
L 963.659949 189.135111 
L 957.009121 189.135111 
z
" clip-path="url(#p8e0ab5c3fb)" style="fill: #1f77b4"/>
   </g>
   <g id="patch_119">
    <path d="M 964.39893 246.90101 
L 971.049758 246.90101 
L 971.049758 162.267252 
L 964.39893 162.267252 
z
" clip-path="url(#p8e0ab5c3fb)" style="fill: #1f77b4"/>
   </g>
   <g id="patch_120">
    <path d="M 971.788739 246.90101 
L 978.439567 246.90101 
L 978.439567 140.772964 
L 971.788739 140.772964 
z
" clip-path="url(#p8e0ab5c3fb)" style="fill: #1f77b4"/>
   </g>
   <g id="patch_121">
    <path d="M 979.178548 246.90101 
L 985.829376 246.90101 
L 985.829376 99.575579 
L 979.178548 99.575579 
z
" clip-path="url(#p8e0ab5c3fb)" style="fill: #1f77b4"/>
   </g>
   <g id="patch_122">
    <path d="M 986.568357 246.90101 
L 993.219185 246.90101 
L 993.219185 82.559268 
L 986.568357 82.559268 
z
" clip-path="url(#p8e0ab5c3fb)" style="fill: #1f77b4"/>
   </g>
   <g id="patch_123">
    <path d="M 993.958165 246.90101 
L 1000.608993 246.90101 
L 1000.608993 75.842303 
L 993.958165 75.842303 
z
" clip-path="url(#p8e0ab5c3fb)" style="fill: #1f77b4"/>
   </g>
   <g id="patch_124">
    <path d="M 1001.347974 246.90101 
L 1007.998802 246.90101 
L 1007.998802 51.213431 
L 1001.347974 51.213431 
z
" clip-path="url(#p8e0ab5c3fb)" style="fill: #1f77b4"/>
   </g>
   <g id="patch_125">
    <path d="M 1008.737783 246.90101 
L 1015.388611 246.90101 
L 1015.388611 47.183252 
L 1008.737783 47.183252 
z
" clip-path="url(#p8e0ab5c3fb)" style="fill: #1f77b4"/>
   </g>
   <g id="patch_126">
    <path d="M 1016.127592 246.90101 
L 1022.77842 246.90101 
L 1022.77842 56.587003 
L 1016.127592 56.587003 
z
" clip-path="url(#p8e0ab5c3fb)" style="fill: #1f77b4"/>
   </g>
   <g id="patch_127">
    <path d="M 1023.517401 246.90101 
L 1030.168229 246.90101 
L 1030.168229 62.85617 
L 1023.517401 62.85617 
z
" clip-path="url(#p8e0ab5c3fb)" style="fill: #1f77b4"/>
   </g>
   <g id="patch_128">
    <path d="M 1030.90721 246.90101 
L 1037.558038 246.90101 
L 1037.558038 87.037244 
L 1030.90721 87.037244 
z
" clip-path="url(#p8e0ab5c3fb)" style="fill: #1f77b4"/>
   </g>
   <g id="patch_129">
    <path d="M 1038.297019 246.90101 
L 1044.947846 246.90101 
L 1044.947846 102.710162 
L 1038.297019 102.710162 
z
" clip-path="url(#p8e0ab5c3fb)" style="fill: #1f77b4"/>
   </g>
   <g id="patch_130">
    <path d="M 1045.686827 246.90101 
L 1052.337655 246.90101 
L 1052.337655 151.07231 
L 1045.686827 151.07231 
z
" clip-path="url(#p8e0ab5c3fb)" style="fill: #1f77b4"/>
   </g>
   <g id="patch_131">
    <path d="M 1053.076636 246.90101 
L 1059.727464 246.90101 
L 1059.727464 163.162847 
L 1053.076636 163.162847 
z
" clip-path="url(#p8e0ab5c3fb)" style="fill: #1f77b4"/>
   </g>
   <g id="patch_132">
    <path d="M 1060.466445 246.90101 
L 1067.117273 246.90101 
L 1067.117273 194.060886 
L 1060.466445 194.060886 
z
" clip-path="url(#p8e0ab5c3fb)" style="fill: #1f77b4"/>
   </g>
   <g id="patch_133">
    <path d="M 1067.856254 246.90101 
L 1074.507082 246.90101 
L 1074.507082 214.659578 
L 1067.856254 214.659578 
z
" clip-path="url(#p8e0ab5c3fb)" style="fill: #1f77b4"/>
   </g>
   <g id="patch_134">
    <path d="M 1075.246063 246.90101 
L 1081.896891 246.90101 
L 1081.896891 216.898567 
L 1075.246063 216.898567 
z
" clip-path="url(#p8e0ab5c3fb)" style="fill: #1f77b4"/>
   </g>
   <g id="patch_135">
    <path d="M 1082.635872 246.90101 
L 1089.2867 246.90101 
L 1089.2867 233.914878 
L 1082.635872 233.914878 
z
" clip-path="url(#p8e0ab5c3fb)" style="fill: #1f77b4"/>
   </g>
   <g id="patch_136">
    <path d="M 1090.02568 246.90101 
L 1096.676508 246.90101 
L 1096.676508 237.497259 
L 1090.02568 237.497259 
z
" clip-path="url(#p8e0ab5c3fb)" style="fill: #1f77b4"/>
   </g>
   <g id="patch_137">
    <path d="M 1097.415489 246.90101 
L 1104.066317 246.90101 
L 1104.066317 243.766426 
L 1097.415489 243.766426 
z
" clip-path="url(#p8e0ab5c3fb)" style="fill: #1f77b4"/>
   </g>
   <g id="patch_138">
    <path d="M 1104.805298 246.90101 
L 1111.456126 246.90101 
L 1111.456126 245.557617 
L 1104.805298 245.557617 
z
" clip-path="url(#p8e0ab5c3fb)" style="fill: #1f77b4"/>
   </g>
   <g id="patch_139">
    <path d="M 1112.195107 246.90101 
L 1118.845935 246.90101 
L 1118.845935 244.214224 
L 1112.195107 244.214224 
z
" clip-path="url(#p8e0ab5c3fb)" style="fill: #1f77b4"/>
   </g>
   <g id="matplotlib.axis_7">
    <g id="xtick_15">
     <g id="line2d_34">
      <g>
       <use xlink:href="#me4ba02488f" x="944.76862" y="246.90101" style="stroke: #000000; stroke-width: 0.8"/>
      </g>
     </g>
     <g id="text_38">
      <!-- 0.42 -->
      <g transform="translate(929.182682 264.538822) scale(0.14 -0.14)">
       <use xlink:href="#DejaVuSans-30"/>
       <use xlink:href="#DejaVuSans-2e" x="63.623047"/>
       <use xlink:href="#DejaVuSans-34" x="95.410156"/>
       <use xlink:href="#DejaVuSans-32" x="159.033203"/>
      </g>
     </g>
    </g>
    <g id="xtick_16">
     <g id="line2d_35">
      <g>
       <use xlink:href="#me4ba02488f" x="1004.94013" y="246.90101" style="stroke: #000000; stroke-width: 0.8"/>
      </g>
     </g>
     <g id="text_39">
      <!-- 0.44 -->
      <g transform="translate(989.354192 264.538822) scale(0.14 -0.14)">
       <use xlink:href="#DejaVuSans-30"/>
       <use xlink:href="#DejaVuSans-2e" x="63.623047"/>
       <use xlink:href="#DejaVuSans-34" x="95.410156"/>
       <use xlink:href="#DejaVuSans-34" x="159.033203"/>
      </g>
     </g>
    </g>
    <g id="xtick_17">
     <g id="line2d_36">
      <g>
       <use xlink:href="#me4ba02488f" x="1065.11164" y="246.90101" style="stroke: #000000; stroke-width: 0.8"/>
      </g>
     </g>
     <g id="text_40">
      <!-- 0.46 -->
      <g transform="translate(1049.525703 264.538822) scale(0.14 -0.14)">
       <use xlink:href="#DejaVuSans-30"/>
       <use xlink:href="#DejaVuSans-2e" x="63.623047"/>
       <use xlink:href="#DejaVuSans-34" x="95.410156"/>
       <use xlink:href="#DejaVuSans-36" x="159.033203"/>
      </g>
     </g>
    </g>
    <g id="xtick_18">
     <g id="line2d_37">
      <g>
       <use xlink:href="#me4ba02488f" x="1125.283151" y="246.90101" style="stroke: #000000; stroke-width: 0.8"/>
      </g>
     </g>
     <g id="text_41">
      <!-- 0.48 -->
      <g transform="translate(1109.697213 264.538822) scale(0.14 -0.14)">
       <use xlink:href="#DejaVuSans-30"/>
       <use xlink:href="#DejaVuSans-2e" x="63.623047"/>
       <use xlink:href="#DejaVuSans-34" x="95.410156"/>
       <use xlink:href="#DejaVuSans-38" x="159.033203"/>
      </g>
     </g>
    </g>
    <g id="text_42">
     <!-- $\nu_{23}$ [-] -->
     <g transform="translate(987.788293 282.088197) scale(0.14 -0.14)">
      <use xlink:href="#DejaVuSans-Oblique-3bd" transform="translate(0 0.015625)"/>
      <use xlink:href="#DejaVuSans-32" transform="translate(55.859375 -16.390625) scale(0.7)"/>
      <use xlink:href="#DejaVuSans-33" transform="translate(100.395508 -16.390625) scale(0.7)"/>
      <use xlink:href="#DejaVuSans-20" transform="translate(147.666016 0.015625)"/>
      <use xlink:href="#DejaVuSans-5b" transform="translate(179.453125 0.015625)"/>
      <use xlink:href="#DejaVuSans-2d" transform="translate(218.466797 0.015625)"/>
      <use xlink:href="#DejaVuSans-5d" transform="translate(254.550781 0.015625)"/>
     </g>
    </g>
   </g>
   <g id="matplotlib.axis_8">
    <g id="ytick_16">
     <g id="line2d_38">
      <g>
       <use xlink:href="#m6a450083c3" x="886.842886" y="246.90101" style="stroke: #000000; stroke-width: 0.8"/>
      </g>
     </g>
     <g id="text_43">
      <!-- 0 -->
      <g transform="translate(870.935386 252.219916) scale(0.14 -0.14)">
       <use xlink:href="#DejaVuSans-30"/>
      </g>
     </g>
    </g>
    <g id="ytick_17">
     <g id="line2d_39">
      <g>
       <use xlink:href="#m6a450083c3" x="886.842886" y="191.905895" style="stroke: #000000; stroke-width: 0.8"/>
      </g>
     </g>
     <g id="text_44">
      <!-- 10 -->
      <g transform="translate(862.027886 197.224801) scale(0.14 -0.14)">
       <use xlink:href="#DejaVuSans-31"/>
       <use xlink:href="#DejaVuSans-30" x="63.623047"/>
      </g>
     </g>
    </g>
    <g id="ytick_18">
     <g id="line2d_40">
      <g>
       <use xlink:href="#m6a450083c3" x="886.842886" y="136.91078" style="stroke: #000000; stroke-width: 0.8"/>
      </g>
     </g>
     <g id="text_45">
      <!-- 20 -->
      <g transform="translate(862.027886 142.229686) scale(0.14 -0.14)">
       <use xlink:href="#DejaVuSans-32"/>
       <use xlink:href="#DejaVuSans-30" x="63.623047"/>
      </g>
     </g>
    </g>
    <g id="ytick_19">
     <g id="line2d_41">
      <g>
       <use xlink:href="#m6a450083c3" x="886.842886" y="81.915665" style="stroke: #000000; stroke-width: 0.8"/>
      </g>
     </g>
     <g id="text_46">
      <!-- 30 -->
      <g transform="translate(862.027886 87.234571) scale(0.14 -0.14)">
       <use xlink:href="#DejaVuSans-33"/>
       <use xlink:href="#DejaVuSans-30" x="63.623047"/>
      </g>
     </g>
    </g>
    <g id="ytick_20">
     <g id="line2d_42">
      <g>
       <use xlink:href="#m6a450083c3" x="886.842886" y="26.92055" style="stroke: #000000; stroke-width: 0.8"/>
      </g>
     </g>
     <g id="text_47">
      <!-- 40 -->
      <g transform="translate(862.027886 32.239456) scale(0.14 -0.14)">
       <use xlink:href="#DejaVuSans-34"/>
       <use xlink:href="#DejaVuSans-30" x="63.623047"/>
      </g>
     </g>
    </g>
   </g>
   <g id="line2d_43">
    <path d="M 914.682864 244.46371 
L 916.506243 243.983086 
L 918.329623 243.420492 
L 920.153002 242.764648 
L 921.976381 242.003245 
L 923.79976 241.122949 
L 925.623139 240.109425 
L 927.446518 238.947388 
L 929.269897 237.620678 
L 931.093276 236.112365 
L 932.916655 234.404892 
L 934.740034 232.480252 
L 936.563414 230.320195 
L 938.386793 227.906485 
L 940.210172 225.221183 
L 942.033551 222.246977 
L 943.85693 218.967537 
L 945.680309 215.367908 
L 947.503688 211.434926 
L 949.327067 207.157649 
L 951.150446 202.527812 
L 952.973825 197.540269 
L 954.797205 192.193443 
L 956.620584 186.489745 
L 958.443963 180.435973 
L 960.267342 174.043661 
L 962.090721 167.329375 
L 963.9141 160.314948 
L 965.737479 153.027622 
L 967.560858 145.500114 
L 969.384237 137.770575 
L 971.207617 129.882443 
L 973.030996 121.884187 
L 974.854375 113.828932 
L 976.677754 105.773976 
L 978.501133 97.780189 
L 980.324512 89.911313 
L 982.147891 82.233161 
L 983.97127 74.81274 
L 985.794649 67.717302 
L 987.618028 61.013347 
L 989.441408 54.765601 
L 991.264787 49.035979 
L 993.088166 43.882573 
L 994.911545 39.35867 
L 996.734924 35.511841 
L 998.558303 32.383103 
L 1000.381682 30.006197 
L 1002.205061 28.40698 
L 1004.02844 27.602955 
L 1005.851819 27.602955 
L 1007.675199 28.40698 
L 1009.498578 30.006197 
L 1011.321957 32.383103 
L 1013.145336 35.511841 
L 1014.968715 39.35867 
L 1016.792094 43.882573 
L 1018.615473 49.035979 
L 1020.438852 54.765601 
L 1022.262231 61.013347 
L 1024.08561 67.717302 
L 1025.90899 74.81274 
L 1027.732369 82.233161 
L 1029.555748 89.911313 
L 1031.379127 97.780189 
L 1033.202506 105.773976 
L 1035.025885 113.828932 
L 1036.849264 121.884187 
L 1038.672643 129.882443 
L 1040.496022 137.770575 
L 1042.319402 145.500114 
L 1044.142781 153.027622 
L 1045.96616 160.314948 
L 1047.789539 167.329375 
L 1049.612918 174.043661 
L 1051.436297 180.435973 
L 1053.259676 186.489745 
L 1055.083055 192.193443 
L 1056.906434 197.540269 
L 1058.729813 202.527812 
L 1060.553193 207.157649 
L 1062.376572 211.434926 
L 1064.199951 215.367908 
L 1066.02333 218.967537 
L 1067.846709 222.246977 
L 1069.670088 225.221183 
L 1071.493467 227.906485 
L 1073.316846 230.320195 
L 1075.140225 232.480252 
L 1076.963604 234.404892 
L 1078.786984 236.112365 
L 1080.610363 237.620678 
L 1082.433742 238.947388 
L 1084.257121 240.109425 
L 1086.0805 241.122949 
L 1087.903879 242.003245 
L 1089.727258 242.764648 
L 1091.550637 243.420492 
L 1093.374016 243.983086 
L 1095.197396 244.46371 
" clip-path="url(#p8e0ab5c3fb)" style="fill: none; stroke: #2ca02c; stroke-width: 1.5; stroke-linecap: square"/>
   </g>
   <g id="patch_140">
    <path d="M 886.842886 246.90101 
L 886.842886 16.638052 
" style="fill: none; stroke: #000000; stroke-width: 0.8; stroke-linejoin: miter; stroke-linecap: square"/>
   </g>
   <g id="patch_141">
    <path d="M 1129.893699 246.90101 
L 1129.893699 16.638052 
" style="fill: none; stroke: #000000; stroke-width: 0.8; stroke-linejoin: miter; stroke-linecap: square"/>
   </g>
   <g id="patch_142">
    <path d="M 886.842886 246.90101 
L 1129.893699 246.90101 
" style="fill: none; stroke: #000000; stroke-width: 0.8; stroke-linejoin: miter; stroke-linecap: square"/>
   </g>
   <g id="patch_143">
    <path d="M 886.842886 16.638052 
L 1129.893699 16.638052 
" style="fill: none; stroke: #000000; stroke-width: 0.8; stroke-linejoin: miter; stroke-linecap: square"/>
   </g>
  </g>
  <g id="axes_5">
   <g id="patch_144">
    <path d="M 1193.948947 246.90101 
L 1436.99976 246.90101 
L 1436.99976 16.638052 
L 1193.948947 16.638052 
z
" style="fill: #ffffff"/>
   </g>
   <g id="patch_145">
    <path d="M 1204.996711 246.90101 
L 1211.647539 246.90101 
L 1211.647539 245.176436 
L 1204.996711 245.176436 
z
" clip-path="url(#p08ddf1ce65)" style="fill: #1f77b4"/>
   </g>
   <g id="patch_146">
    <path d="M 1212.38652 246.90101 
L 1219.037348 246.90101 
L 1219.037348 244.745293 
L 1212.38652 244.745293 
z
" clip-path="url(#p08ddf1ce65)" style="fill: #1f77b4"/>
   </g>
   <g id="patch_147">
    <path d="M 1219.776329 246.90101 
L 1226.427157 246.90101 
L 1226.427157 244.745293 
L 1219.776329 244.745293 
z
" clip-path="url(#p08ddf1ce65)" style="fill: #1f77b4"/>
   </g>
   <g id="patch_148">
    <path d="M 1227.166138 246.90101 
L 1233.816966 246.90101 
L 1233.816966 243.451862 
L 1227.166138 243.451862 
z
" clip-path="url(#p08ddf1ce65)" style="fill: #1f77b4"/>
   </g>
   <g id="patch_149">
    <path d="M 1234.555947 246.90101 
L 1241.206775 246.90101 
L 1241.206775 240.002715 
L 1234.555947 240.002715 
z
" clip-path="url(#p08ddf1ce65)" style="fill: #1f77b4"/>
   </g>
   <g id="patch_150">
    <path d="M 1241.945756 246.90101 
L 1248.596584 246.90101 
L 1248.596584 227.930698 
L 1241.945756 227.930698 
z
" clip-path="url(#p08ddf1ce65)" style="fill: #1f77b4"/>
   </g>
   <g id="patch_151">
    <path d="M 1249.335564 246.90101 
L 1255.986392 246.90101 
L 1255.986392 214.996394 
L 1249.335564 214.996394 
z
" clip-path="url(#p08ddf1ce65)" style="fill: #1f77b4"/>
   </g>
   <g id="patch_152">
    <path d="M 1256.725373 246.90101 
L 1263.376201 246.90101 
L 1263.376201 206.804668 
L 1256.725373 206.804668 
z
" clip-path="url(#p08ddf1ce65)" style="fill: #1f77b4"/>
   </g>
   <g id="patch_153">
    <path d="M 1264.115182 246.90101 
L 1270.76601 246.90101 
L 1270.76601 183.091778 
L 1264.115182 183.091778 
z
" clip-path="url(#p08ddf1ce65)" style="fill: #1f77b4"/>
   </g>
   <g id="patch_154">
    <path d="M 1271.504991 246.90101 
L 1278.155819 246.90101 
L 1278.155819 164.983753 
L 1271.504991 164.983753 
z
" clip-path="url(#p08ddf1ce65)" style="fill: #1f77b4"/>
   </g>
   <g id="patch_155">
    <path d="M 1278.8948 246.90101 
L 1285.545628 246.90101 
L 1285.545628 124.887412 
L 1278.8948 124.887412 
z
" clip-path="url(#p08ddf1ce65)" style="fill: #1f77b4"/>
   </g>
   <g id="patch_156">
    <path d="M 1286.284609 246.90101 
L 1292.935437 246.90101 
L 1292.935437 109.797391 
L 1286.284609 109.797391 
z
" clip-path="url(#p08ddf1ce65)" style="fill: #1f77b4"/>
   </g>
   <g id="patch_157">
    <path d="M 1293.674417 246.90101 
L 1300.325245 246.90101 
L 1300.325245 87.377931 
L 1293.674417 87.377931 
z
" clip-path="url(#p08ddf1ce65)" style="fill: #1f77b4"/>
   </g>
   <g id="patch_158">
    <path d="M 1301.064226 246.90101 
L 1307.715054 246.90101 
L 1307.715054 69.701049 
L 1301.064226 69.701049 
z
" clip-path="url(#p08ddf1ce65)" style="fill: #1f77b4"/>
   </g>
   <g id="patch_159">
    <path d="M 1308.454035 246.90101 
L 1315.104863 246.90101 
L 1315.104863 36.071859 
L 1308.454035 36.071859 
z
" clip-path="url(#p08ddf1ce65)" style="fill: #1f77b4"/>
   </g>
   <g id="patch_160">
    <path d="M 1315.843844 246.90101 
L 1322.494672 246.90101 
L 1322.494672 64.958471 
L 1315.843844 64.958471 
z
" clip-path="url(#p08ddf1ce65)" style="fill: #1f77b4"/>
   </g>
   <g id="patch_161">
    <path d="M 1323.233653 246.90101 
L 1329.884481 246.90101 
L 1329.884481 51.593024 
L 1323.233653 51.593024 
z
" clip-path="url(#p08ddf1ce65)" style="fill: #1f77b4"/>
   </g>
   <g id="patch_162">
    <path d="M 1330.623462 246.90101 
L 1337.27429 246.90101 
L 1337.27429 75.305914 
L 1330.623462 75.305914 
z
" clip-path="url(#p08ddf1ce65)" style="fill: #1f77b4"/>
   </g>
   <g id="patch_163">
    <path d="M 1338.013271 246.90101 
L 1344.664098 246.90101 
L 1344.664098 105.485956 
L 1338.013271 105.485956 
z
" clip-path="url(#p08ddf1ce65)" style="fill: #1f77b4"/>
   </g>
   <g id="patch_164">
    <path d="M 1345.403079 246.90101 
L 1352.053907 246.90101 
L 1352.053907 122.300551 
L 1345.403079 122.300551 
z
" clip-path="url(#p08ddf1ce65)" style="fill: #1f77b4"/>
   </g>
   <g id="patch_165">
    <path d="M 1352.792888 246.90101 
L 1359.443716 246.90101 
L 1359.443716 146.875728 
L 1352.792888 146.875728 
z
" clip-path="url(#p08ddf1ce65)" style="fill: #1f77b4"/>
   </g>
   <g id="patch_166">
    <path d="M 1360.182697 246.90101 
L 1366.833525 246.90101 
L 1366.833525 175.76234 
L 1360.182697 175.76234 
z
" clip-path="url(#p08ddf1ce65)" style="fill: #1f77b4"/>
   </g>
   <g id="patch_167">
    <path d="M 1367.572506 246.90101 
L 1374.223334 246.90101 
L 1374.223334 204.217808 
L 1367.572506 204.217808 
z
" clip-path="url(#p08ddf1ce65)" style="fill: #1f77b4"/>
   </g>
   <g id="patch_168">
    <path d="M 1374.962315 246.90101 
L 1381.613143 246.90101 
L 1381.613143 220.601259 
L 1374.962315 220.601259 
z
" clip-path="url(#p08ddf1ce65)" style="fill: #1f77b4"/>
   </g>
   <g id="patch_169">
    <path d="M 1382.352124 246.90101 
L 1389.002952 246.90101 
L 1389.002952 234.39785 
L 1382.352124 234.39785 
z
" clip-path="url(#p08ddf1ce65)" style="fill: #1f77b4"/>
   </g>
   <g id="patch_170">
    <path d="M 1389.741932 246.90101 
L 1396.39276 246.90101 
L 1396.39276 232.673276 
L 1389.741932 232.673276 
z
" clip-path="url(#p08ddf1ce65)" style="fill: #1f77b4"/>
   </g>
   <g id="patch_171">
    <path d="M 1397.131741 246.90101 
L 1403.782569 246.90101 
L 1403.782569 241.296145 
L 1397.131741 241.296145 
z
" clip-path="url(#p08ddf1ce65)" style="fill: #1f77b4"/>
   </g>
   <g id="patch_172">
    <path d="M 1404.52155 246.90101 
L 1411.172378 246.90101 
L 1411.172378 243.451862 
L 1404.52155 243.451862 
z
" clip-path="url(#p08ddf1ce65)" style="fill: #1f77b4"/>
   </g>
   <g id="patch_173">
    <path d="M 1411.911359 246.90101 
L 1418.562187 246.90101 
L 1418.562187 244.314149 
L 1411.911359 244.314149 
z
" clip-path="url(#p08ddf1ce65)" style="fill: #1f77b4"/>
   </g>
   <g id="patch_174">
    <path d="M 1419.301168 246.90101 
L 1425.951996 246.90101 
L 1425.951996 244.314149 
L 1419.301168 244.314149 
z
" clip-path="url(#p08ddf1ce65)" style="fill: #1f77b4"/>
   </g>
   <g id="matplotlib.axis_9">
    <g id="xtick_19">
     <g id="line2d_44">
      <g>
       <use xlink:href="#me4ba02488f" x="1226.666014" y="246.90101" style="stroke: #000000; stroke-width: 0.8"/>
      </g>
     </g>
     <g id="text_48">
      <!-- 4800 -->
      <g transform="translate(1208.851014 264.538822) scale(0.14 -0.14)">
       <use xlink:href="#DejaVuSans-34"/>
       <use xlink:href="#DejaVuSans-38" x="63.623047"/>
       <use xlink:href="#DejaVuSans-30" x="127.246094"/>
       <use xlink:href="#DejaVuSans-30" x="190.869141"/>
      </g>
     </g>
    </g>
    <g id="xtick_20">
     <g id="line2d_45">
      <g>
       <use xlink:href="#me4ba02488f" x="1309.428371" y="246.90101" style="stroke: #000000; stroke-width: 0.8"/>
      </g>
     </g>
     <g id="text_49">
      <!-- 5000 -->
      <g transform="translate(1291.613371 264.538822) scale(0.14 -0.14)">
       <use xlink:href="#DejaVuSans-35"/>
       <use xlink:href="#DejaVuSans-30" x="63.623047"/>
       <use xlink:href="#DejaVuSans-30" x="127.246094"/>
       <use xlink:href="#DejaVuSans-30" x="190.869141"/>
      </g>
     </g>
    </g>
    <g id="xtick_21">
     <g id="line2d_46">
      <g>
       <use xlink:href="#me4ba02488f" x="1392.190728" y="246.90101" style="stroke: #000000; stroke-width: 0.8"/>
      </g>
     </g>
     <g id="text_50">
      <!-- 5200 -->
      <g transform="translate(1374.375728 264.538822) scale(0.14 -0.14)">
       <use xlink:href="#DejaVuSans-35"/>
       <use xlink:href="#DejaVuSans-32" x="63.623047"/>
       <use xlink:href="#DejaVuSans-30" x="127.246094"/>
       <use xlink:href="#DejaVuSans-30" x="190.869141"/>
      </g>
     </g>
    </g>
    <g id="text_51">
     <!-- $G_{12}$ [MPa] -->
     <g transform="translate(1281.384354 282.088197) scale(0.14 -0.14)">
      <defs>
       <path id="DejaVuSans-Oblique-47" d="M 3494 697 
L 3738 1919 
L 2700 1919 
L 2797 2438 
L 4453 2438 
L 4050 384 
Q 3634 156 3143 32 
Q 2653 -91 2156 -91 
Q 1278 -91 783 396 
Q 288 884 288 1753 
Q 288 2475 589 3126 
Q 891 3778 1422 4213 
Q 1756 4484 2153 4617 
Q 2550 4750 3034 4750 
Q 3472 4750 3873 4639 
Q 4275 4528 4641 4306 
L 4513 3634 
Q 4231 3928 3853 4083 
Q 3475 4238 3047 4238 
Q 2550 4238 2172 4048 
Q 1794 3859 1497 3463 
Q 1244 3125 1098 2667 
Q 953 2209 953 1734 
Q 953 1081 1287 751 
Q 1622 422 2284 422 
Q 2616 422 2925 492 
Q 3234 563 3494 697 
z
" transform="scale(0.015625)"/>
      </defs>
      <use xlink:href="#DejaVuSans-Oblique-47" transform="translate(0 0.015625)"/>
      <use xlink:href="#DejaVuSans-31" transform="translate(77.490234 -16.390625) scale(0.7)"/>
      <use xlink:href="#DejaVuSans-32" transform="translate(122.026367 -16.390625) scale(0.7)"/>
      <use xlink:href="#DejaVuSans-20" transform="translate(169.296875 0.015625)"/>
      <use xlink:href="#DejaVuSans-5b" transform="translate(201.083984 0.015625)"/>
      <use xlink:href="#DejaVuSans-4d" transform="translate(240.097656 0.015625)"/>
      <use xlink:href="#DejaVuSans-50" transform="translate(326.376953 0.015625)"/>
      <use xlink:href="#DejaVuSans-61" transform="translate(386.679688 0.015625)"/>
      <use xlink:href="#DejaVuSans-5d" transform="translate(447.958984 0.015625)"/>
     </g>
    </g>
   </g>
   <g id="matplotlib.axis_10">
    <g id="ytick_21">
     <g id="line2d_47">
      <g>
       <use xlink:href="#m6a450083c3" x="1193.948947" y="246.90101" style="stroke: #000000; stroke-width: 0.8"/>
      </g>
     </g>
     <g id="text_52">
      <!-- 0.000 -->
      <g transform="translate(1146.869572 252.219916) scale(0.14 -0.14)">
       <use xlink:href="#DejaVuSans-30"/>
       <use xlink:href="#DejaVuSans-2e" x="63.623047"/>
       <use xlink:href="#DejaVuSans-30" x="95.410156"/>
       <use xlink:href="#DejaVuSans-30" x="159.033203"/>
       <use xlink:href="#DejaVuSans-30" x="222.65625"/>
      </g>
     </g>
    </g>
    <g id="ytick_22">
     <g id="line2d_48">
      <g>
       <use xlink:href="#m6a450083c3" x="1193.948947" y="208.40443" style="stroke: #000000; stroke-width: 0.8"/>
      </g>
     </g>
     <g id="text_53">
      <!-- 0.001 -->
      <g transform="translate(1146.869572 213.723336) scale(0.14 -0.14)">
       <use xlink:href="#DejaVuSans-30"/>
       <use xlink:href="#DejaVuSans-2e" x="63.623047"/>
       <use xlink:href="#DejaVuSans-30" x="95.410156"/>
       <use xlink:href="#DejaVuSans-30" x="159.033203"/>
       <use xlink:href="#DejaVuSans-31" x="222.65625"/>
      </g>
     </g>
    </g>
    <g id="ytick_23">
     <g id="line2d_49">
      <g>
       <use xlink:href="#m6a450083c3" x="1193.948947" y="169.907849" style="stroke: #000000; stroke-width: 0.8"/>
      </g>
     </g>
     <g id="text_54">
      <!-- 0.002 -->
      <g transform="translate(1146.869572 175.226755) scale(0.14 -0.14)">
       <use xlink:href="#DejaVuSans-30"/>
       <use xlink:href="#DejaVuSans-2e" x="63.623047"/>
       <use xlink:href="#DejaVuSans-30" x="95.410156"/>
       <use xlink:href="#DejaVuSans-30" x="159.033203"/>
       <use xlink:href="#DejaVuSans-32" x="222.65625"/>
      </g>
     </g>
    </g>
    <g id="ytick_24">
     <g id="line2d_50">
      <g>
       <use xlink:href="#m6a450083c3" x="1193.948947" y="131.411269" style="stroke: #000000; stroke-width: 0.8"/>
      </g>
     </g>
     <g id="text_55">
      <!-- 0.003 -->
      <g transform="translate(1146.869572 136.730175) scale(0.14 -0.14)">
       <use xlink:href="#DejaVuSans-30"/>
       <use xlink:href="#DejaVuSans-2e" x="63.623047"/>
       <use xlink:href="#DejaVuSans-30" x="95.410156"/>
       <use xlink:href="#DejaVuSans-30" x="159.033203"/>
       <use xlink:href="#DejaVuSans-33" x="222.65625"/>
      </g>
     </g>
    </g>
    <g id="ytick_25">
     <g id="line2d_51">
      <g>
       <use xlink:href="#m6a450083c3" x="1193.948947" y="92.914688" style="stroke: #000000; stroke-width: 0.8"/>
      </g>
     </g>
     <g id="text_56">
      <!-- 0.004 -->
      <g transform="translate(1146.869572 98.233594) scale(0.14 -0.14)">
       <use xlink:href="#DejaVuSans-30"/>
       <use xlink:href="#DejaVuSans-2e" x="63.623047"/>
       <use xlink:href="#DejaVuSans-30" x="95.410156"/>
       <use xlink:href="#DejaVuSans-30" x="159.033203"/>
       <use xlink:href="#DejaVuSans-34" x="222.65625"/>
      </g>
     </g>
    </g>
    <g id="ytick_26">
     <g id="line2d_52">
      <g>
       <use xlink:href="#m6a450083c3" x="1193.948947" y="54.418108" style="stroke: #000000; stroke-width: 0.8"/>
      </g>
     </g>
     <g id="text_57">
      <!-- 0.005 -->
      <g transform="translate(1146.869572 59.737014) scale(0.14 -0.14)">
       <use xlink:href="#DejaVuSans-30"/>
       <use xlink:href="#DejaVuSans-2e" x="63.623047"/>
       <use xlink:href="#DejaVuSans-30" x="95.410156"/>
       <use xlink:href="#DejaVuSans-30" x="159.033203"/>
       <use xlink:href="#DejaVuSans-35" x="222.65625"/>
      </g>
     </g>
    </g>
   </g>
   <g id="line2d_53">
    <path d="M 1247.356603 244.46371 
L 1249.112168 243.983086 
L 1250.867733 243.420492 
L 1252.623298 242.764648 
L 1254.378864 242.003245 
L 1256.134429 241.122949 
L 1257.889994 240.109425 
L 1259.645559 238.947388 
L 1261.401124 237.620678 
L 1263.156689 236.112365 
L 1264.912255 234.404892 
L 1266.66782 232.480252 
L 1268.423385 230.320195 
L 1270.17895 227.906485 
L 1271.934515 225.221183 
L 1273.69008 222.246977 
L 1275.445645 218.967537 
L 1277.201211 215.367908 
L 1278.956776 211.434926 
L 1280.712341 207.157649 
L 1282.467906 202.527812 
L 1284.223471 197.540269 
L 1285.979036 192.193443 
L 1287.734601 186.489745 
L 1289.490167 180.435973 
L 1291.245732 174.043661 
L 1293.001297 167.329375 
L 1294.756862 160.314948 
L 1296.512427 153.027622 
L 1298.267992 145.500114 
L 1300.023557 137.770575 
L 1301.779123 129.882443 
L 1303.534688 121.884187 
L 1305.290253 113.828932 
L 1307.045818 105.773976 
L 1308.801383 97.780189 
L 1310.556948 89.911313 
L 1312.312513 82.233161 
L 1314.068079 74.81274 
L 1315.823644 67.717302 
L 1317.579209 61.013347 
L 1319.334774 54.765601 
L 1321.090339 49.035979 
L 1322.845904 43.882573 
L 1324.601469 39.35867 
L 1326.357035 35.511841 
L 1328.1126 32.383103 
L 1329.868165 30.006197 
L 1331.62373 28.40698 
L 1333.379295 27.602955 
L 1335.13486 27.602955 
L 1336.890426 28.40698 
L 1338.645991 30.006197 
L 1340.401556 32.383103 
L 1342.157121 35.511841 
L 1343.912686 39.35867 
L 1345.668251 43.882573 
L 1347.423816 49.035979 
L 1349.179382 54.765601 
L 1350.934947 61.013347 
L 1352.690512 67.717302 
L 1354.446077 74.81274 
L 1356.201642 82.233161 
L 1357.957207 89.911313 
L 1359.712772 97.780189 
L 1361.468338 105.773976 
L 1363.223903 113.828932 
L 1364.979468 121.884187 
L 1366.735033 129.882443 
L 1368.490598 137.770575 
L 1370.246163 145.500114 
L 1372.001728 153.027622 
L 1373.757294 160.314948 
L 1375.512859 167.329375 
L 1377.268424 174.043661 
L 1379.023989 180.435973 
L 1380.779554 186.489745 
L 1382.535119 192.193443 
L 1384.290684 197.540269 
L 1386.04625 202.527812 
L 1387.801815 207.157649 
L 1389.55738 211.434926 
L 1391.312945 215.367908 
L 1393.06851 218.967537 
L 1394.824075 222.246977 
L 1396.579641 225.221183 
L 1398.335206 227.906485 
L 1400.090771 230.320195 
L 1401.846336 232.480252 
L 1403.601901 234.404892 
L 1405.357466 236.112365 
L 1407.113031 237.620678 
L 1408.868597 238.947388 
L 1410.624162 240.109425 
L 1412.379727 241.122949 
L 1414.135292 242.003245 
L 1415.890857 242.764648 
L 1417.646422 243.420492 
L 1419.401987 243.983086 
L 1421.157553 244.46371 
" clip-path="url(#p08ddf1ce65)" style="fill: none; stroke: #2ca02c; stroke-width: 1.5; stroke-linecap: square"/>
   </g>
   <g id="patch_175">
    <path d="M 1193.948947 246.90101 
L 1193.948947 16.638052 
" style="fill: none; stroke: #000000; stroke-width: 0.8; stroke-linejoin: miter; stroke-linecap: square"/>
   </g>
   <g id="patch_176">
    <path d="M 1436.99976 246.90101 
L 1436.99976 16.638052 
" style="fill: none; stroke: #000000; stroke-width: 0.8; stroke-linejoin: miter; stroke-linecap: square"/>
   </g>
   <g id="patch_177">
    <path d="M 1193.948947 246.90101 
L 1436.99976 246.90101 
" style="fill: none; stroke: #000000; stroke-width: 0.8; stroke-linejoin: miter; stroke-linecap: square"/>
   </g>
   <g id="patch_178">
    <path d="M 1193.948947 16.638052 
L 1436.99976 16.638052 
" style="fill: none; stroke: #000000; stroke-width: 0.8; stroke-linejoin: miter; stroke-linecap: square"/>
   </g>
  </g>
 </g>
 <defs>
  <clipPath id="pe966c77eba">
   <rect x="36.457115" y="16.638052" width="243.050813" height="230.262958"/>
  </clipPath>
  <clipPath id="pb583073660">
   <rect x="339.110301" y="16.638052" width="243.050813" height="230.262958"/>
  </clipPath>
  <clipPath id="p53e9d118d8">
   <rect x="612.976593" y="16.638052" width="243.050813" height="230.262958"/>
  </clipPath>
  <clipPath id="p8e0ab5c3fb">
   <rect x="886.842886" y="16.638052" width="243.050813" height="230.262958"/>
  </clipPath>
  <clipPath id="p08ddf1ce65">
   <rect x="1193.948947" y="16.638052" width="243.050813" height="230.262958"/>
  </clipPath>
 </defs>
</svg>
