<?xml version="1.0" encoding="utf-8" standalone="no"?>
<!DOCTYPE svg PUBLIC "-//W3C//DTD SVG 1.1//EN"
  "http://www.w3.org/Graphics/SVG/1.1/DTD/svg11.dtd">
<svg xmlns:xlink="http://www.w3.org/1999/xlink" width="1440pt" height="288pt" viewBox="0 0 1440 288" xmlns="http://www.w3.org/2000/svg" version="1.1">
 <metadata>
  <rdf:RDF xmlns:dc="http://purl.org/dc/elements/1.1/" xmlns:cc="http://creativecommons.org/ns#" xmlns:rdf="http://www.w3.org/1999/02/22-rdf-syntax-ns#">
   <cc:Work>
    <dc:type rdf:resource="http://purl.org/dc/dcmitype/StillImage"/>
    <dc:date>2024-11-24T00:21:39.589014</dc:date>
    <dc:format>image/svg+xml</dc:format>
    <dc:creator>
     <cc:Agent>
      <dc:title>Matplotlib v3.9.2, https://matplotlib.org/</dc:title>
     </cc:Agent>
    </dc:creator>
   </cc:Work>
  </rdf:RDF>
 </metadata>
 <defs>
  <style type="text/css">*{stroke-linejoin: round; stroke-linecap: butt}</style>
 </defs>
 <g id="figure_1">
  <g id="patch_1">
   <path d="M 0 288 
L 1440 288 
L 1440 0 
L 0 0 
z
" style="fill: #ffffff"/>
  </g>
  <g id="axes_1">
   <g id="patch_2">
    <path d="M 36.457115 246.90101 
L 277.556868 246.90101 
L 277.556868 16.638052 
L 36.457115 16.638052 
z
" style="fill: #ffffff"/>
   </g>
   <g id="patch_3">
    <path d="M 47.416195 246.90101 
L 49.674426 246.90101 
L 49.674426 246.531821 
L 47.416195 246.531821 
z
" clip-path="url(#p83675a6fc9)" style="fill: #1f77b4"/>
   </g>
   <g id="patch_4">
    <path d="M 49.92534 246.90101 
L 52.183571 246.90101 
L 52.183571 244.685878 
L 49.92534 244.685878 
z
" clip-path="url(#p83675a6fc9)" style="fill: #1f77b4"/>
   </g>
   <g id="patch_5">
    <path d="M 52.434486 246.90101 
L 54.692717 246.90101 
L 54.692717 242.839935 
L 52.434486 242.839935 
z
" clip-path="url(#p83675a6fc9)" style="fill: #1f77b4"/>
   </g>
   <g id="patch_6">
    <path d="M 54.943632 246.90101 
L 57.201863 246.90101 
L 57.201863 238.409671 
L 54.943632 238.409671 
z
" clip-path="url(#p83675a6fc9)" style="fill: #1f77b4"/>
   </g>
   <g id="patch_7">
    <path d="M 57.452777 246.90101 
L 59.711009 246.90101 
L 59.711009 229.918332 
L 57.452777 229.918332 
z
" clip-path="url(#p83675a6fc9)" style="fill: #1f77b4"/>
   </g>
   <g id="patch_8">
    <path d="M 59.961923 246.90101 
L 62.220154 246.90101 
L 62.220154 216.258353 
L 59.961923 216.258353 
z
" clip-path="url(#p83675a6fc9)" style="fill: #1f77b4"/>
   </g>
   <g id="patch_9">
    <path d="M 62.471069 246.90101 
L 64.7293 246.90101 
L 64.7293 187.09245 
L 62.471069 187.09245 
z
" clip-path="url(#p83675a6fc9)" style="fill: #1f77b4"/>
   </g>
   <g id="patch_10">
    <path d="M 64.980214 246.90101 
L 67.238446 246.90101 
L 67.238446 156.818981 
L 64.980214 156.818981 
z
" clip-path="url(#p83675a6fc9)" style="fill: #1f77b4"/>
   </g>
   <g id="patch_11">
    <path d="M 67.48936 246.90101 
L 69.747591 246.90101 
L 69.747591 110.301212 
L 67.48936 110.301212 
z
" clip-path="url(#p83675a6fc9)" style="fill: #1f77b4"/>
   </g>
   <g id="patch_12">
    <path d="M 69.998506 246.90101 
L 72.256737 246.90101 
L 72.256737 81.873686 
L 69.998506 81.873686 
z
" clip-path="url(#p83675a6fc9)" style="fill: #1f77b4"/>
   </g>
   <g id="patch_13">
    <path d="M 72.507651 246.90101 
L 74.765883 246.90101 
L 74.765883 51.969406 
L 72.507651 51.969406 
z
" clip-path="url(#p83675a6fc9)" style="fill: #1f77b4"/>
   </g>
   <g id="patch_14">
    <path d="M 75.016797 246.90101 
L 77.275028 246.90101 
L 77.275028 27.972144 
L 75.016797 27.972144 
z
" clip-path="url(#p83675a6fc9)" style="fill: #1f77b4"/>
   </g>
   <g id="patch_15">
    <path d="M 77.525943 246.90101 
L 79.784174 246.90101 
L 79.784174 27.602955 
L 77.525943 27.602955 
z
" clip-path="url(#p83675a6fc9)" style="fill: #1f77b4"/>
   </g>
   <g id="patch_16">
    <path d="M 80.035089 246.90101 
L 82.29332 246.90101 
L 82.29332 47.908331 
L 80.035089 47.908331 
z
" clip-path="url(#p83675a6fc9)" style="fill: #1f77b4"/>
   </g>
   <g id="patch_17">
    <path d="M 82.544234 246.90101 
L 84.802465 246.90101 
L 84.802465 75.597479 
L 82.544234 75.597479 
z
" clip-path="url(#p83675a6fc9)" style="fill: #1f77b4"/>
   </g>
   <g id="patch_18">
    <path d="M 85.05338 246.90101 
L 87.311611 246.90101 
L 87.311611 131.344964 
L 85.05338 131.344964 
z
" clip-path="url(#p83675a6fc9)" style="fill: #1f77b4"/>
   </g>
   <g id="patch_19">
    <path d="M 87.562526 246.90101 
L 89.820757 246.90101 
L 89.820757 162.35681 
L 87.562526 162.35681 
z
" clip-path="url(#p83675a6fc9)" style="fill: #1f77b4"/>
   </g>
   <g id="patch_20">
    <path d="M 90.071671 246.90101 
L 92.329902 246.90101 
L 92.329902 187.830827 
L 90.071671 187.830827 
z
" clip-path="url(#p83675a6fc9)" style="fill: #1f77b4"/>
   </g>
   <g id="patch_21">
    <path d="M 92.580817 246.90101 
L 94.839048 246.90101 
L 94.839048 218.104296 
L 92.580817 218.104296 
z
" clip-path="url(#p83675a6fc9)" style="fill: #1f77b4"/>
   </g>
   <g id="patch_22">
    <path d="M 95.089963 246.90101 
L 97.348194 246.90101 
L 97.348194 226.226446 
L 95.089963 226.226446 
z
" clip-path="url(#p83675a6fc9)" style="fill: #1f77b4"/>
   </g>
   <g id="patch_23">
    <path d="M 97.599108 246.90101 
L 99.857339 246.90101 
L 99.857339 237.671294 
L 97.599108 237.671294 
z
" clip-path="url(#p83675a6fc9)" style="fill: #1f77b4"/>
   </g>
   <g id="patch_24">
    <path d="M 100.108254 246.90101 
L 102.366485 246.90101 
L 102.366485 243.209124 
L 100.108254 243.209124 
z
" clip-path="url(#p83675a6fc9)" style="fill: #1f77b4"/>
   </g>
   <g id="patch_25">
    <path d="M 102.6174 246.90101 
L 104.875631 246.90101 
L 104.875631 243.947501 
L 102.6174 243.947501 
z
" clip-path="url(#p83675a6fc9)" style="fill: #1f77b4"/>
   </g>
   <g id="patch_26">
    <path d="M 105.126545 246.90101 
L 107.384776 246.90101 
L 107.384776 245.424255 
L 105.126545 245.424255 
z
" clip-path="url(#p83675a6fc9)" style="fill: #1f77b4"/>
   </g>
   <g id="patch_27">
    <path d="M 107.635691 246.90101 
L 109.893922 246.90101 
L 109.893922 246.162633 
L 107.635691 246.162633 
z
" clip-path="url(#p83675a6fc9)" style="fill: #1f77b4"/>
   </g>
   <g id="patch_28">
    <path d="M 110.144837 246.90101 
L 112.403068 246.90101 
L 112.403068 245.793444 
L 110.144837 245.793444 
z
" clip-path="url(#p83675a6fc9)" style="fill: #1f77b4"/>
   </g>
   <g id="patch_29">
    <path d="M 112.653982 246.90101 
L 114.912214 246.90101 
L 114.912214 246.90101 
L 112.653982 246.90101 
z
" clip-path="url(#p83675a6fc9)" style="fill: #1f77b4"/>
   </g>
   <g id="patch_30">
    <path d="M 115.163128 246.90101 
L 117.421359 246.90101 
L 117.421359 246.90101 
L 115.163128 246.90101 
z
" clip-path="url(#p83675a6fc9)" style="fill: #1f77b4"/>
   </g>
   <g id="patch_31">
    <path d="M 117.672274 246.90101 
L 119.930505 246.90101 
L 119.930505 246.90101 
L 117.672274 246.90101 
z
" clip-path="url(#p83675a6fc9)" style="fill: #1f77b4"/>
   </g>
   <g id="patch_32">
    <path d="M 120.181419 246.90101 
L 122.439651 246.90101 
L 122.439651 246.531821 
L 120.181419 246.531821 
z
" clip-path="url(#p83675a6fc9)" style="fill: #1f77b4"/>
   </g>
   <g id="matplotlib.axis_1">
    <g id="xtick_1">
     <g id="line2d_1">
      <defs>
       <path id="m1a8d9ef173" d="M 0 0 
L 0 3.5 
" style="stroke: #000000; stroke-width: 0.8"/>
      </defs>
      <g>
       <use xlink:href="#m1a8d9ef173" x="64.433026" y="246.90101" style="stroke: #000000; stroke-width: 0.8"/>
      </g>
     </g>
     <g id="text_1">
      <!-- 1.35 -->
      <g transform="translate(48.847089 264.538822) scale(0.14 -0.14)">
       <defs>
        <path id="DejaVuSans-31" d="M 794 531 
L 1825 531 
L 1825 4091 
L 703 3866 
L 703 4441 
L 1819 4666 
L 2450 4666 
L 2450 531 
L 3481 531 
L 3481 0 
L 794 0 
L 794 531 
z
" transform="scale(0.015625)"/>
        <path id="DejaVuSans-2e" d="M 684 794 
L 1344 794 
L 1344 0 
L 684 0 
L 684 794 
z
" transform="scale(0.015625)"/>
        <path id="DejaVuSans-33" d="M 2597 2516 
Q 3050 2419 3304 2112 
Q 3559 1806 3559 1356 
Q 3559 666 3084 287 
Q 2609 -91 1734 -91 
Q 1441 -91 1130 -33 
Q 819 25 488 141 
L 488 750 
Q 750 597 1062 519 
Q 1375 441 1716 441 
Q 2309 441 2620 675 
Q 2931 909 2931 1356 
Q 2931 1769 2642 2001 
Q 2353 2234 1838 2234 
L 1294 2234 
L 1294 2753 
L 1863 2753 
Q 2328 2753 2575 2939 
Q 2822 3125 2822 3475 
Q 2822 3834 2567 4026 
Q 2313 4219 1838 4219 
Q 1578 4219 1281 4162 
Q 984 4106 628 3988 
L 628 4550 
Q 988 4650 1302 4700 
Q 1616 4750 1894 4750 
Q 2613 4750 3031 4423 
Q 3450 4097 3450 3541 
Q 3450 3153 3228 2886 
Q 3006 2619 2597 2516 
z
" transform="scale(0.015625)"/>
        <path id="DejaVuSans-35" d="M 691 4666 
L 3169 4666 
L 3169 4134 
L 1269 4134 
L 1269 2991 
Q 1406 3038 1543 3061 
Q 1681 3084 1819 3084 
Q 2600 3084 3056 2656 
Q 3513 2228 3513 1497 
Q 3513 744 3044 326 
Q 2575 -91 1722 -91 
Q 1428 -91 1123 -41 
Q 819 9 494 109 
L 494 744 
Q 775 591 1075 516 
Q 1375 441 1709 441 
Q 2250 441 2565 725 
Q 2881 1009 2881 1497 
Q 2881 1984 2565 2268 
Q 2250 2553 1709 2553 
Q 1456 2553 1204 2497 
Q 953 2441 691 2322 
L 691 4666 
z
" transform="scale(0.015625)"/>
       </defs>
       <use xlink:href="#DejaVuSans-31"/>
       <use xlink:href="#DejaVuSans-2e" x="63.623047"/>
       <use xlink:href="#DejaVuSans-33" x="95.410156"/>
       <use xlink:href="#DejaVuSans-35" x="159.033203"/>
      </g>
     </g>
    </g>
    <g id="xtick_2">
     <g id="line2d_2">
      <g>
       <use xlink:href="#m1a8d9ef173" x="115.484734" y="246.90101" style="stroke: #000000; stroke-width: 0.8"/>
      </g>
     </g>
     <g id="text_2">
      <!-- 1.40 -->
      <g transform="translate(99.898796 264.538822) scale(0.14 -0.14)">
       <defs>
        <path id="DejaVuSans-34" d="M 2419 4116 
L 825 1625 
L 2419 1625 
L 2419 4116 
z
M 2253 4666 
L 3047 4666 
L 3047 1625 
L 3713 1625 
L 3713 1100 
L 3047 1100 
L 3047 0 
L 2419 0 
L 2419 1100 
L 313 1100 
L 313 1709 
L 2253 4666 
z
" transform="scale(0.015625)"/>
        <path id="DejaVuSans-30" d="M 2034 4250 
Q 1547 4250 1301 3770 
Q 1056 3291 1056 2328 
Q 1056 1369 1301 889 
Q 1547 409 2034 409 
Q 2525 409 2770 889 
Q 3016 1369 3016 2328 
Q 3016 3291 2770 3770 
Q 2525 4250 2034 4250 
z
M 2034 4750 
Q 2819 4750 3233 4129 
Q 3647 3509 3647 2328 
Q 3647 1150 3233 529 
Q 2819 -91 2034 -91 
Q 1250 -91 836 529 
Q 422 1150 422 2328 
Q 422 3509 836 4129 
Q 1250 4750 2034 4750 
z
" transform="scale(0.015625)"/>
       </defs>
       <use xlink:href="#DejaVuSans-31"/>
       <use xlink:href="#DejaVuSans-2e" x="63.623047"/>
       <use xlink:href="#DejaVuSans-34" x="95.410156"/>
       <use xlink:href="#DejaVuSans-30" x="159.033203"/>
      </g>
     </g>
    </g>
    <g id="xtick_3">
     <g id="line2d_3">
      <g>
       <use xlink:href="#m1a8d9ef173" x="166.536441" y="246.90101" style="stroke: #000000; stroke-width: 0.8"/>
      </g>
     </g>
     <g id="text_3">
      <!-- 1.45 -->
      <g transform="translate(150.950504 264.538822) scale(0.14 -0.14)">
       <use xlink:href="#DejaVuSans-31"/>
       <use xlink:href="#DejaVuSans-2e" x="63.623047"/>
       <use xlink:href="#DejaVuSans-34" x="95.410156"/>
       <use xlink:href="#DejaVuSans-35" x="159.033203"/>
      </g>
     </g>
    </g>
    <g id="xtick_4">
     <g id="line2d_4">
      <g>
       <use xlink:href="#m1a8d9ef173" x="217.588149" y="246.90101" style="stroke: #000000; stroke-width: 0.8"/>
      </g>
     </g>
     <g id="text_4">
      <!-- 1.50 -->
      <g transform="translate(202.002211 264.538822) scale(0.14 -0.14)">
       <use xlink:href="#DejaVuSans-31"/>
       <use xlink:href="#DejaVuSans-2e" x="63.623047"/>
       <use xlink:href="#DejaVuSans-35" x="95.410156"/>
       <use xlink:href="#DejaVuSans-30" x="159.033203"/>
      </g>
     </g>
    </g>
    <g id="xtick_5">
     <g id="line2d_5">
      <g>
       <use xlink:href="#m1a8d9ef173" x="268.639857" y="246.90101" style="stroke: #000000; stroke-width: 0.8"/>
      </g>
     </g>
     <g id="text_5">
      <!-- 1.55 -->
      <g transform="translate(253.053919 264.538822) scale(0.14 -0.14)">
       <use xlink:href="#DejaVuSans-31"/>
       <use xlink:href="#DejaVuSans-2e" x="63.623047"/>
       <use xlink:href="#DejaVuSans-35" x="95.410156"/>
       <use xlink:href="#DejaVuSans-35" x="159.033203"/>
      </g>
     </g>
    </g>
    <g id="text_6">
     <!-- $E_1$ [MPa] -->
     <g transform="translate(126.976991 282.088197) scale(0.14 -0.14)">
      <defs>
       <path id="DejaVuSans-Oblique-45" d="M 1081 4666 
L 4031 4666 
L 3928 4134 
L 1606 4134 
L 1338 2753 
L 3566 2753 
L 3463 2222 
L 1234 2222 
L 909 531 
L 3284 531 
L 3181 0 
L 172 0 
L 1081 4666 
z
" transform="scale(0.015625)"/>
       <path id="DejaVuSans-20" transform="scale(0.015625)"/>
       <path id="DejaVuSans-5b" d="M 550 4863 
L 1875 4863 
L 1875 4416 
L 1125 4416 
L 1125 -397 
L 1875 -397 
L 1875 -844 
L 550 -844 
L 550 4863 
z
" transform="scale(0.015625)"/>
       <path id="DejaVuSans-4d" d="M 628 4666 
L 1569 4666 
L 2759 1491 
L 3956 4666 
L 4897 4666 
L 4897 0 
L 4281 0 
L 4281 4097 
L 3078 897 
L 2444 897 
L 1241 4097 
L 1241 0 
L 628 0 
L 628 4666 
z
" transform="scale(0.015625)"/>
       <path id="DejaVuSans-50" d="M 1259 4147 
L 1259 2394 
L 2053 2394 
Q 2494 2394 2734 2622 
Q 2975 2850 2975 3272 
Q 2975 3691 2734 3919 
Q 2494 4147 2053 4147 
L 1259 4147 
z
M 628 4666 
L 2053 4666 
Q 2838 4666 3239 4311 
Q 3641 3956 3641 3272 
Q 3641 2581 3239 2228 
Q 2838 1875 2053 1875 
L 1259 1875 
L 1259 0 
L 628 0 
L 628 4666 
z
" transform="scale(0.015625)"/>
       <path id="DejaVuSans-61" d="M 2194 1759 
Q 1497 1759 1228 1600 
Q 959 1441 959 1056 
Q 959 750 1161 570 
Q 1363 391 1709 391 
Q 2188 391 2477 730 
Q 2766 1069 2766 1631 
L 2766 1759 
L 2194 1759 
z
M 3341 1997 
L 3341 0 
L 2766 0 
L 2766 531 
Q 2569 213 2275 61 
Q 1981 -91 1556 -91 
Q 1019 -91 701 211 
Q 384 513 384 1019 
Q 384 1609 779 1909 
Q 1175 2209 1959 2209 
L 2766 2209 
L 2766 2266 
Q 2766 2663 2505 2880 
Q 2244 3097 1772 3097 
Q 1472 3097 1187 3025 
Q 903 2953 641 2809 
L 641 3341 
Q 956 3463 1253 3523 
Q 1550 3584 1831 3584 
Q 2591 3584 2966 3190 
Q 3341 2797 3341 1997 
z
" transform="scale(0.015625)"/>
       <path id="DejaVuSans-5d" d="M 1947 4863 
L 1947 -844 
L 622 -844 
L 622 -397 
L 1369 -397 
L 1369 4416 
L 622 4416 
L 622 4863 
L 1947 4863 
z
" transform="scale(0.015625)"/>
      </defs>
      <use xlink:href="#DejaVuSans-Oblique-45" transform="translate(0 0.015625)"/>
      <use xlink:href="#DejaVuSans-31" transform="translate(63.183594 -16.390625) scale(0.7)"/>
      <use xlink:href="#DejaVuSans-20" transform="translate(110.454102 0.015625)"/>
      <use xlink:href="#DejaVuSans-5b" transform="translate(142.241211 0.015625)"/>
      <use xlink:href="#DejaVuSans-4d" transform="translate(181.254883 0.015625)"/>
      <use xlink:href="#DejaVuSans-50" transform="translate(267.53418 0.015625)"/>
      <use xlink:href="#DejaVuSans-61" transform="translate(327.836914 0.015625)"/>
      <use xlink:href="#DejaVuSans-5d" transform="translate(389.116211 0.015625)"/>
     </g>
    </g>
    <g id="text_7">
     <!-- 1e5 -->
     <g transform="translate(251.127493 281.088197) scale(0.14 -0.14)">
      <defs>
       <path id="DejaVuSans-65" d="M 3597 1894 
L 3597 1613 
L 953 1613 
Q 991 1019 1311 708 
Q 1631 397 2203 397 
Q 2534 397 2845 478 
Q 3156 559 3463 722 
L 3463 178 
Q 3153 47 2828 -22 
Q 2503 -91 2169 -91 
Q 1331 -91 842 396 
Q 353 884 353 1716 
Q 353 2575 817 3079 
Q 1281 3584 2069 3584 
Q 2775 3584 3186 3129 
Q 3597 2675 3597 1894 
z
M 3022 2063 
Q 3016 2534 2758 2815 
Q 2500 3097 2075 3097 
Q 1594 3097 1305 2825 
Q 1016 2553 972 2059 
L 3022 2063 
z
" transform="scale(0.015625)"/>
      </defs>
      <use xlink:href="#DejaVuSans-31"/>
      <use xlink:href="#DejaVuSans-65" x="63.623047"/>
      <use xlink:href="#DejaVuSans-35" x="125.146484"/>
     </g>
    </g>
   </g>
   <g id="matplotlib.axis_2">
    <g id="ytick_1">
     <g id="line2d_6">
      <defs>
       <path id="m1c109258fa" d="M 0 0 
L -3.5 0 
" style="stroke: #000000; stroke-width: 0.8"/>
      </defs>
      <g>
       <use xlink:href="#m1c109258fa" x="36.457115" y="246.90101" style="stroke: #000000; stroke-width: 0.8"/>
      </g>
     </g>
     <g id="text_8">
      <!-- 0 -->
      <g transform="translate(20.549615 252.219916) scale(0.14 -0.14)">
       <use xlink:href="#DejaVuSans-30"/>
      </g>
     </g>
    </g>
    <g id="ytick_2">
     <g id="line2d_7">
      <g>
       <use xlink:href="#m1c109258fa" x="36.457115" y="201.537782" style="stroke: #000000; stroke-width: 0.8"/>
      </g>
     </g>
     <g id="text_9">
      <!-- 1 -->
      <g transform="translate(20.549615 206.856689) scale(0.14 -0.14)">
       <use xlink:href="#DejaVuSans-31"/>
      </g>
     </g>
    </g>
    <g id="ytick_3">
     <g id="line2d_8">
      <g>
       <use xlink:href="#m1c109258fa" x="36.457115" y="156.174555" style="stroke: #000000; stroke-width: 0.8"/>
      </g>
     </g>
     <g id="text_10">
      <!-- 2 -->
      <g transform="translate(20.549615 161.493461) scale(0.14 -0.14)">
       <defs>
        <path id="DejaVuSans-32" d="M 1228 531 
L 3431 531 
L 3431 0 
L 469 0 
L 469 531 
Q 828 903 1448 1529 
Q 2069 2156 2228 2338 
Q 2531 2678 2651 2914 
Q 2772 3150 2772 3378 
Q 2772 3750 2511 3984 
Q 2250 4219 1831 4219 
Q 1534 4219 1204 4116 
Q 875 4013 500 3803 
L 500 4441 
Q 881 4594 1212 4672 
Q 1544 4750 1819 4750 
Q 2544 4750 2975 4387 
Q 3406 4025 3406 3419 
Q 3406 3131 3298 2873 
Q 3191 2616 2906 2266 
Q 2828 2175 2409 1742 
Q 1991 1309 1228 531 
z
" transform="scale(0.015625)"/>
       </defs>
       <use xlink:href="#DejaVuSans-32"/>
      </g>
     </g>
    </g>
    <g id="ytick_4">
     <g id="line2d_9">
      <g>
       <use xlink:href="#m1c109258fa" x="36.457115" y="110.811327" style="stroke: #000000; stroke-width: 0.8"/>
      </g>
     </g>
     <g id="text_11">
      <!-- 3 -->
      <g transform="translate(20.549615 116.130233) scale(0.14 -0.14)">
       <use xlink:href="#DejaVuSans-33"/>
      </g>
     </g>
    </g>
    <g id="ytick_5">
     <g id="line2d_10">
      <g>
       <use xlink:href="#m1c109258fa" x="36.457115" y="65.4481" style="stroke: #000000; stroke-width: 0.8"/>
      </g>
     </g>
     <g id="text_12">
      <!-- 4 -->
      <g transform="translate(20.549615 70.767006) scale(0.14 -0.14)">
       <use xlink:href="#DejaVuSans-34"/>
      </g>
     </g>
    </g>
    <g id="ytick_6">
     <g id="line2d_11">
      <g>
       <use xlink:href="#m1c109258fa" x="36.457115" y="20.084872" style="stroke: #000000; stroke-width: 0.8"/>
      </g>
     </g>
     <g id="text_13">
      <!-- 5 -->
      <g transform="translate(20.549615 25.403778) scale(0.14 -0.14)">
       <use xlink:href="#DejaVuSans-35"/>
      </g>
     </g>
    </g>
    <g id="text_14">
     <!-- PDF -->
     <g transform="translate(13.638053 145.406406) rotate(-90) scale(0.14 -0.14)">
      <defs>
       <path id="DejaVuSans-44" d="M 1259 4147 
L 1259 519 
L 2022 519 
Q 2988 519 3436 956 
Q 3884 1394 3884 2338 
Q 3884 3275 3436 3711 
Q 2988 4147 2022 4147 
L 1259 4147 
z
M 628 4666 
L 1925 4666 
Q 3281 4666 3915 4102 
Q 4550 3538 4550 2338 
Q 4550 1131 3912 565 
Q 3275 0 1925 0 
L 628 0 
L 628 4666 
z
" transform="scale(0.015625)"/>
       <path id="DejaVuSans-46" d="M 628 4666 
L 3309 4666 
L 3309 4134 
L 1259 4134 
L 1259 2759 
L 3109 2759 
L 3109 2228 
L 1259 2228 
L 1259 0 
L 628 0 
L 628 4666 
z
" transform="scale(0.015625)"/>
      </defs>
      <use xlink:href="#DejaVuSans-50"/>
      <use xlink:href="#DejaVuSans-44" x="60.302734"/>
      <use xlink:href="#DejaVuSans-46" x="137.304688"/>
     </g>
    </g>
    <g id="text_15">
     <!-- 1e−4 -->
     <g transform="translate(36.457115 13.638052) scale(0.14 -0.14)">
      <defs>
       <path id="DejaVuSans-2212" d="M 678 2272 
L 4684 2272 
L 4684 1741 
L 678 1741 
L 678 2272 
z
" transform="scale(0.015625)"/>
      </defs>
      <use xlink:href="#DejaVuSans-31"/>
      <use xlink:href="#DejaVuSans-65" x="63.623047"/>
      <use xlink:href="#DejaVuSans-2212" x="125.146484"/>
      <use xlink:href="#DejaVuSans-34" x="208.935547"/>
     </g>
    </g>
   </g>
   <g id="line2d_12">
    <path d="M 144.07369 245.895795 
L 145.311307 245.697572 
L 146.548924 245.465541 
L 147.786541 245.195052 
L 149.024159 244.881027 
L 150.261776 244.517967 
L 151.499393 244.099959 
L 152.73701 243.620701 
L 153.974627 243.073526 
L 155.212244 242.451453 
L 156.449862 241.747241 
L 157.687479 240.953462 
L 158.925096 240.062591 
L 160.162713 239.067105 
L 161.40033 237.959607 
L 162.637947 236.732957 
L 163.875564 235.380419 
L 165.113182 233.895825 
L 166.350799 232.273747 
L 167.588416 230.509671 
L 168.826033 228.600189 
L 170.06365 226.543179 
L 171.301267 224.33799 
L 172.538885 221.985616 
L 173.776502 219.488861 
L 175.014119 216.852482 
L 176.251736 214.083312 
L 177.489353 211.190354 
L 178.72697 208.184845 
L 179.964587 205.080278 
L 181.202205 201.892387 
L 182.439822 198.639088 
L 183.677439 195.34037 
L 184.915056 192.018145 
L 186.152673 188.696042 
L 187.39029 185.399168 
L 188.627908 182.153811 
L 189.865525 178.987113 
L 191.103142 175.926712 
L 192.340759 173.000343 
L 193.578376 170.235434 
L 194.815993 167.658678 
L 196.05361 165.295612 
L 197.291228 163.170195 
L 198.528845 161.304404 
L 199.766462 159.717857 
L 201.004079 158.427473 
L 202.241696 157.447167 
L 203.479313 156.787603 
L 204.716931 156.455999 
L 205.954548 156.455999 
L 207.192165 156.787603 
L 208.429782 157.447167 
L 209.667399 158.427473 
L 210.905016 159.717857 
L 212.142633 161.304404 
L 213.380251 163.170195 
L 214.617868 165.295612 
L 215.855485 167.658678 
L 217.093102 170.235434 
L 218.330719 173.000343 
L 219.568336 175.926712 
L 220.805954 178.987113 
L 222.043571 182.153811 
L 223.281188 185.399168 
L 224.518805 188.696042 
L 225.756422 192.018145 
L 226.994039 195.34037 
L 228.231656 198.639088 
L 229.469274 201.892387 
L 230.706891 205.080278 
L 231.944508 208.184845 
L 233.182125 211.190354 
L 234.419742 214.083312 
L 235.657359 216.852482 
L 236.894977 219.488861 
L 238.132594 221.985616 
L 239.370211 224.33799 
L 240.607828 226.543179 
L 241.845445 228.600189 
L 243.083062 230.509671 
L 244.320679 232.273747 
L 245.558297 233.895825 
L 246.795914 235.380419 
L 248.033531 236.732957 
L 249.271148 237.959607 
L 250.508765 239.067105 
L 251.746382 240.062591 
L 252.984 240.953462 
L 254.221617 241.747241 
L 255.459234 242.451453 
L 256.696851 243.073526 
L 257.934468 243.620701 
L 259.172085 244.099959 
L 260.409702 244.517967 
L 261.64732 244.881027 
L 262.884937 245.195052 
L 264.122554 245.465541 
L 265.360171 245.697572 
L 266.597788 245.895795 
" clip-path="url(#p83675a6fc9)" style="fill: none; stroke: #2ca02c; stroke-width: 1.5; stroke-linecap: square"/>
   </g>
   <g id="patch_33">
    <path d="M 36.457115 246.90101 
L 36.457115 16.638052 
" style="fill: none; stroke: #000000; stroke-width: 0.8; stroke-linejoin: miter; stroke-linecap: square"/>
   </g>
   <g id="patch_34">
    <path d="M 277.556868 246.90101 
L 277.556868 16.638052 
" style="fill: none; stroke: #000000; stroke-width: 0.8; stroke-linejoin: miter; stroke-linecap: square"/>
   </g>
   <g id="patch_35">
    <path d="M 36.457115 246.90101 
L 277.556868 246.90101 
" style="fill: none; stroke: #000000; stroke-width: 0.8; stroke-linejoin: miter; stroke-linecap: square"/>
   </g>
   <g id="patch_36">
    <path d="M 36.457115 16.638052 
L 277.556868 16.638052 
" style="fill: none; stroke: #000000; stroke-width: 0.8; stroke-linejoin: miter; stroke-linecap: square"/>
   </g>
   <g id="legend_1">
    <g id="patch_37">
     <path d="M 161.094368 68.936802 
L 267.756868 68.936802 
Q 270.556868 68.936802 270.556868 66.136802 
L 270.556868 26.438053 
Q 270.556868 23.638053 267.756868 23.638053 
L 161.094368 23.638053 
Q 158.294368 23.638053 158.294368 26.438053 
L 158.294368 66.136802 
Q 158.294368 68.936802 161.094368 68.936802 
z
" style="fill: #ffffff; opacity: 0.8; stroke: #cccccc; stroke-linejoin: miter"/>
    </g>
    <g id="line2d_13">
     <path d="M 163.894368 34.975865 
L 177.894368 34.975865 
L 191.894368 34.975865 
" style="fill: none; stroke: #2ca02c; stroke-width: 1.5; stroke-linecap: square"/>
    </g>
    <g id="text_16">
     <!-- Prior -->
     <g transform="translate(203.094368 39.875865) scale(0.14 -0.14)">
      <defs>
       <path id="DejaVuSans-72" d="M 2631 2963 
Q 2534 3019 2420 3045 
Q 2306 3072 2169 3072 
Q 1681 3072 1420 2755 
Q 1159 2438 1159 1844 
L 1159 0 
L 581 0 
L 581 3500 
L 1159 3500 
L 1159 2956 
Q 1341 3275 1631 3429 
Q 1922 3584 2338 3584 
Q 2397 3584 2469 3576 
Q 2541 3569 2628 3553 
L 2631 2963 
z
" transform="scale(0.015625)"/>
       <path id="DejaVuSans-69" d="M 603 3500 
L 1178 3500 
L 1178 0 
L 603 0 
L 603 3500 
z
M 603 4863 
L 1178 4863 
L 1178 4134 
L 603 4134 
L 603 4863 
z
" transform="scale(0.015625)"/>
       <path id="DejaVuSans-6f" d="M 1959 3097 
Q 1497 3097 1228 2736 
Q 959 2375 959 1747 
Q 959 1119 1226 758 
Q 1494 397 1959 397 
Q 2419 397 2687 759 
Q 2956 1122 2956 1747 
Q 2956 2369 2687 2733 
Q 2419 3097 1959 3097 
z
M 1959 3584 
Q 2709 3584 3137 3096 
Q 3566 2609 3566 1747 
Q 3566 888 3137 398 
Q 2709 -91 1959 -91 
Q 1206 -91 779 398 
Q 353 888 353 1747 
Q 353 2609 779 3096 
Q 1206 3584 1959 3584 
z
" transform="scale(0.015625)"/>
      </defs>
      <use xlink:href="#DejaVuSans-50"/>
      <use xlink:href="#DejaVuSans-72" x="58.552734"/>
      <use xlink:href="#DejaVuSans-69" x="99.666016"/>
      <use xlink:href="#DejaVuSans-6f" x="127.449219"/>
      <use xlink:href="#DejaVuSans-72" x="188.630859"/>
     </g>
    </g>
    <g id="patch_38">
     <path d="M 163.894368 60.42524 
L 191.894368 60.42524 
L 191.894368 50.62524 
L 163.894368 50.62524 
z
" style="fill: #1f77b4"/>
    </g>
    <g id="text_17">
     <!-- Posterior -->
     <g transform="translate(203.094368 60.42524) scale(0.14 -0.14)">
      <defs>
       <path id="DejaVuSans-73" d="M 2834 3397 
L 2834 2853 
Q 2591 2978 2328 3040 
Q 2066 3103 1784 3103 
Q 1356 3103 1142 2972 
Q 928 2841 928 2578 
Q 928 2378 1081 2264 
Q 1234 2150 1697 2047 
L 1894 2003 
Q 2506 1872 2764 1633 
Q 3022 1394 3022 966 
Q 3022 478 2636 193 
Q 2250 -91 1575 -91 
Q 1294 -91 989 -36 
Q 684 19 347 128 
L 347 722 
Q 666 556 975 473 
Q 1284 391 1588 391 
Q 1994 391 2212 530 
Q 2431 669 2431 922 
Q 2431 1156 2273 1281 
Q 2116 1406 1581 1522 
L 1381 1569 
Q 847 1681 609 1914 
Q 372 2147 372 2553 
Q 372 3047 722 3315 
Q 1072 3584 1716 3584 
Q 2034 3584 2315 3537 
Q 2597 3491 2834 3397 
z
" transform="scale(0.015625)"/>
       <path id="DejaVuSans-74" d="M 1172 4494 
L 1172 3500 
L 2356 3500 
L 2356 3053 
L 1172 3053 
L 1172 1153 
Q 1172 725 1289 603 
Q 1406 481 1766 481 
L 2356 481 
L 2356 0 
L 1766 0 
Q 1100 0 847 248 
Q 594 497 594 1153 
L 594 3053 
L 172 3053 
L 172 3500 
L 594 3500 
L 594 4494 
L 1172 4494 
z
" transform="scale(0.015625)"/>
      </defs>
      <use xlink:href="#DejaVuSans-50"/>
      <use xlink:href="#DejaVuSans-6f" x="56.677734"/>
      <use xlink:href="#DejaVuSans-73" x="117.859375"/>
      <use xlink:href="#DejaVuSans-74" x="169.958984"/>
      <use xlink:href="#DejaVuSans-65" x="209.167969"/>
      <use xlink:href="#DejaVuSans-72" x="270.691406"/>
      <use xlink:href="#DejaVuSans-69" x="311.804688"/>
      <use xlink:href="#DejaVuSans-6f" x="339.587891"/>
      <use xlink:href="#DejaVuSans-72" x="400.769531"/>
     </g>
    </g>
   </g>
  </g>
  <g id="axes_2">
   <g id="patch_39">
    <path d="M 337.305605 246.90101 
L 578.405358 246.90101 
L 578.405358 16.638052 
L 337.305605 16.638052 
z
" style="fill: #ffffff"/>
   </g>
   <g id="patch_40">
    <path d="M 348.264684 246.90101 
L 354.862124 246.90101 
L 354.862124 246.498602 
L 348.264684 246.498602 
z
" clip-path="url(#pbecff43b75)" style="fill: #1f77b4"/>
   </g>
   <g id="patch_41">
    <path d="M 355.595172 246.90101 
L 362.192612 246.90101 
L 362.192612 246.498602 
L 355.595172 246.498602 
z
" clip-path="url(#pbecff43b75)" style="fill: #1f77b4"/>
   </g>
   <g id="patch_42">
    <path d="M 362.92566 246.90101 
L 369.5231 246.90101 
L 369.5231 245.693787 
L 362.92566 245.693787 
z
" clip-path="url(#pbecff43b75)" style="fill: #1f77b4"/>
   </g>
   <g id="patch_43">
    <path d="M 370.256149 246.90101 
L 376.853588 246.90101 
L 376.853588 246.096195 
L 370.256149 246.096195 
z
" clip-path="url(#pbecff43b75)" style="fill: #1f77b4"/>
   </g>
   <g id="patch_44">
    <path d="M 377.586637 246.90101 
L 384.184076 246.90101 
L 384.184076 245.693787 
L 377.586637 245.693787 
z
" clip-path="url(#pbecff43b75)" style="fill: #1f77b4"/>
   </g>
   <g id="patch_45">
    <path d="M 384.917125 246.90101 
L 391.514564 246.90101 
L 391.514564 242.072117 
L 384.917125 242.072117 
z
" clip-path="url(#pbecff43b75)" style="fill: #1f77b4"/>
   </g>
   <g id="patch_46">
    <path d="M 392.247613 246.90101 
L 398.845052 246.90101 
L 398.845052 234.023962 
L 392.247613 234.023962 
z
" clip-path="url(#pbecff43b75)" style="fill: #1f77b4"/>
   </g>
   <g id="patch_47">
    <path d="M 399.578101 246.90101 
L 406.17554 246.90101 
L 406.17554 228.390254 
L 399.578101 228.390254 
z
" clip-path="url(#pbecff43b75)" style="fill: #1f77b4"/>
   </g>
   <g id="patch_48">
    <path d="M 406.908589 246.90101 
L 413.506028 246.90101 
L 413.506028 224.768584 
L 406.908589 224.768584 
z
" clip-path="url(#pbecff43b75)" style="fill: #1f77b4"/>
   </g>
   <g id="patch_49">
    <path d="M 414.239077 246.90101 
L 420.836516 246.90101 
L 420.836516 205.050605 
L 414.239077 205.050605 
z
" clip-path="url(#pbecff43b75)" style="fill: #1f77b4"/>
   </g>
   <g id="patch_50">
    <path d="M 421.569565 246.90101 
L 428.167004 246.90101 
L 428.167004 179.296509 
L 421.569565 179.296509 
z
" clip-path="url(#pbecff43b75)" style="fill: #1f77b4"/>
   </g>
   <g id="patch_51">
    <path d="M 428.900053 246.90101 
L 435.497492 246.90101 
L 435.497492 149.920744 
L 428.900053 149.920744 
z
" clip-path="url(#pbecff43b75)" style="fill: #1f77b4"/>
   </g>
   <g id="patch_52">
    <path d="M 436.230541 246.90101 
L 442.827981 246.90101 
L 442.827981 120.947387 
L 436.230541 120.947387 
z
" clip-path="url(#pbecff43b75)" style="fill: #1f77b4"/>
   </g>
   <g id="patch_53">
    <path d="M 443.561029 246.90101 
L 450.158469 246.90101 
L 450.158469 85.133098 
L 443.561029 85.133098 
z
" clip-path="url(#pbecff43b75)" style="fill: #1f77b4"/>
   </g>
   <g id="patch_54">
    <path d="M 450.891517 246.90101 
L 457.488957 246.90101 
L 457.488957 71.451235 
L 450.891517 71.451235 
z
" clip-path="url(#pbecff43b75)" style="fill: #1f77b4"/>
   </g>
   <g id="patch_55">
    <path d="M 458.222006 246.90101 
L 464.819445 246.90101 
L 464.819445 49.318809 
L 458.222006 49.318809 
z
" clip-path="url(#pbecff43b75)" style="fill: #1f77b4"/>
   </g>
   <g id="patch_56">
    <path d="M 465.552494 246.90101 
L 472.149933 246.90101 
L 472.149933 36.844169 
L 465.552494 36.844169 
z
" clip-path="url(#pbecff43b75)" style="fill: #1f77b4"/>
   </g>
   <g id="patch_57">
    <path d="M 472.882982 246.90101 
L 479.480421 246.90101 
L 479.480421 31.612868 
L 472.882982 31.612868 
z
" clip-path="url(#pbecff43b75)" style="fill: #1f77b4"/>
   </g>
   <g id="patch_58">
    <path d="M 480.21347 246.90101 
L 486.810909 246.90101 
L 486.810909 58.574187 
L 480.21347 58.574187 
z
" clip-path="url(#pbecff43b75)" style="fill: #1f77b4"/>
   </g>
   <g id="patch_59">
    <path d="M 487.543958 246.90101 
L 494.141397 246.90101 
L 494.141397 110.887193 
L 487.543958 110.887193 
z
" clip-path="url(#pbecff43b75)" style="fill: #1f77b4"/>
   </g>
   <g id="patch_60">
    <path d="M 494.874446 246.90101 
L 501.471885 246.90101 
L 501.471885 139.055735 
L 494.874446 139.055735 
z
" clip-path="url(#pbecff43b75)" style="fill: #1f77b4"/>
   </g>
   <g id="patch_61">
    <path d="M 502.204934 246.90101 
L 508.802373 246.90101 
L 508.802373 156.761676 
L 502.204934 156.761676 
z
" clip-path="url(#pbecff43b75)" style="fill: #1f77b4"/>
   </g>
   <g id="patch_62">
    <path d="M 509.535422 246.90101 
L 516.132861 246.90101 
L 516.132861 194.588004 
L 509.535422 194.588004 
z
" clip-path="url(#pbecff43b75)" style="fill: #1f77b4"/>
   </g>
   <g id="patch_63">
    <path d="M 516.86591 246.90101 
L 523.463349 246.90101 
L 523.463349 208.672275 
L 516.86591 208.672275 
z
" clip-path="url(#pbecff43b75)" style="fill: #1f77b4"/>
   </g>
   <g id="patch_64">
    <path d="M 524.196398 246.90101 
L 530.793838 246.90101 
L 530.793838 224.768584 
L 524.196398 224.768584 
z
" clip-path="url(#pbecff43b75)" style="fill: #1f77b4"/>
   </g>
   <g id="patch_65">
    <path d="M 531.526886 246.90101 
L 538.124326 246.90101 
L 538.124326 236.840816 
L 531.526886 236.840816 
z
" clip-path="url(#pbecff43b75)" style="fill: #1f77b4"/>
   </g>
   <g id="patch_66">
    <path d="M 538.857374 246.90101 
L 545.454814 246.90101 
L 545.454814 241.267302 
L 538.857374 241.267302 
z
" clip-path="url(#pbecff43b75)" style="fill: #1f77b4"/>
   </g>
   <g id="patch_67">
    <path d="M 546.187862 246.90101 
L 552.785302 246.90101 
L 552.785302 243.27934 
L 546.187862 243.27934 
z
" clip-path="url(#pbecff43b75)" style="fill: #1f77b4"/>
   </g>
   <g id="patch_68">
    <path d="M 553.518351 246.90101 
L 560.11579 246.90101 
L 560.11579 245.693787 
L 553.518351 245.693787 
z
" clip-path="url(#pbecff43b75)" style="fill: #1f77b4"/>
   </g>
   <g id="patch_69">
    <path d="M 560.848839 246.90101 
L 567.446278 246.90101 
L 567.446278 245.291379 
L 560.848839 245.291379 
z
" clip-path="url(#pbecff43b75)" style="fill: #1f77b4"/>
   </g>
   <g id="matplotlib.axis_3">
    <g id="xtick_6">
     <g id="line2d_14">
      <g>
       <use xlink:href="#m1a8d9ef173" x="362.490276" y="246.90101" style="stroke: #000000; stroke-width: 0.8"/>
      </g>
     </g>
     <g id="text_18">
      <!-- 8800 -->
      <g transform="translate(344.675276 264.538822) scale(0.14 -0.14)">
       <defs>
        <path id="DejaVuSans-38" d="M 2034 2216 
Q 1584 2216 1326 1975 
Q 1069 1734 1069 1313 
Q 1069 891 1326 650 
Q 1584 409 2034 409 
Q 2484 409 2743 651 
Q 3003 894 3003 1313 
Q 3003 1734 2745 1975 
Q 2488 2216 2034 2216 
z
M 1403 2484 
Q 997 2584 770 2862 
Q 544 3141 544 3541 
Q 544 4100 942 4425 
Q 1341 4750 2034 4750 
Q 2731 4750 3128 4425 
Q 3525 4100 3525 3541 
Q 3525 3141 3298 2862 
Q 3072 2584 2669 2484 
Q 3125 2378 3379 2068 
Q 3634 1759 3634 1313 
Q 3634 634 3220 271 
Q 2806 -91 2034 -91 
Q 1263 -91 848 271 
Q 434 634 434 1313 
Q 434 1759 690 2068 
Q 947 2378 1403 2484 
z
M 1172 3481 
Q 1172 3119 1398 2916 
Q 1625 2713 2034 2713 
Q 2441 2713 2670 2916 
Q 2900 3119 2900 3481 
Q 2900 3844 2670 4047 
Q 2441 4250 2034 4250 
Q 1625 4250 1398 4047 
Q 1172 3844 1172 3481 
z
" transform="scale(0.015625)"/>
       </defs>
       <use xlink:href="#DejaVuSans-38"/>
       <use xlink:href="#DejaVuSans-38" x="63.623047"/>
       <use xlink:href="#DejaVuSans-30" x="127.246094"/>
       <use xlink:href="#DejaVuSans-30" x="190.869141"/>
      </g>
     </g>
    </g>
    <g id="xtick_7">
     <g id="line2d_15">
      <g>
       <use xlink:href="#m1a8d9ef173" x="416.128588" y="246.90101" style="stroke: #000000; stroke-width: 0.8"/>
      </g>
     </g>
     <g id="text_19">
      <!-- 9000 -->
      <g transform="translate(398.313588 264.538822) scale(0.14 -0.14)">
       <defs>
        <path id="DejaVuSans-39" d="M 703 97 
L 703 672 
Q 941 559 1184 500 
Q 1428 441 1663 441 
Q 2288 441 2617 861 
Q 2947 1281 2994 2138 
Q 2813 1869 2534 1725 
Q 2256 1581 1919 1581 
Q 1219 1581 811 2004 
Q 403 2428 403 3163 
Q 403 3881 828 4315 
Q 1253 4750 1959 4750 
Q 2769 4750 3195 4129 
Q 3622 3509 3622 2328 
Q 3622 1225 3098 567 
Q 2575 -91 1691 -91 
Q 1453 -91 1209 -44 
Q 966 3 703 97 
z
M 1959 2075 
Q 2384 2075 2632 2365 
Q 2881 2656 2881 3163 
Q 2881 3666 2632 3958 
Q 2384 4250 1959 4250 
Q 1534 4250 1286 3958 
Q 1038 3666 1038 3163 
Q 1038 2656 1286 2365 
Q 1534 2075 1959 2075 
z
" transform="scale(0.015625)"/>
       </defs>
       <use xlink:href="#DejaVuSans-39"/>
       <use xlink:href="#DejaVuSans-30" x="63.623047"/>
       <use xlink:href="#DejaVuSans-30" x="127.246094"/>
       <use xlink:href="#DejaVuSans-30" x="190.869141"/>
      </g>
     </g>
    </g>
    <g id="xtick_8">
     <g id="line2d_16">
      <g>
       <use xlink:href="#m1a8d9ef173" x="469.7669" y="246.90101" style="stroke: #000000; stroke-width: 0.8"/>
      </g>
     </g>
     <g id="text_20">
      <!-- 9200 -->
      <g transform="translate(451.9519 264.538822) scale(0.14 -0.14)">
       <use xlink:href="#DejaVuSans-39"/>
       <use xlink:href="#DejaVuSans-32" x="63.623047"/>
       <use xlink:href="#DejaVuSans-30" x="127.246094"/>
       <use xlink:href="#DejaVuSans-30" x="190.869141"/>
      </g>
     </g>
    </g>
    <g id="xtick_9">
     <g id="line2d_17">
      <g>
       <use xlink:href="#m1a8d9ef173" x="523.405213" y="246.90101" style="stroke: #000000; stroke-width: 0.8"/>
      </g>
     </g>
     <g id="text_21">
      <!-- 9400 -->
      <g transform="translate(505.590213 264.538822) scale(0.14 -0.14)">
       <use xlink:href="#DejaVuSans-39"/>
       <use xlink:href="#DejaVuSans-34" x="63.623047"/>
       <use xlink:href="#DejaVuSans-30" x="127.246094"/>
       <use xlink:href="#DejaVuSans-30" x="190.869141"/>
      </g>
     </g>
    </g>
    <g id="xtick_10">
     <g id="line2d_18">
      <g>
       <use xlink:href="#m1a8d9ef173" x="577.043525" y="246.90101" style="stroke: #000000; stroke-width: 0.8"/>
      </g>
     </g>
     <g id="text_22">
      <!-- 9600 -->
      <g transform="translate(559.228525 264.538822) scale(0.14 -0.14)">
       <defs>
        <path id="DejaVuSans-36" d="M 2113 2584 
Q 1688 2584 1439 2293 
Q 1191 2003 1191 1497 
Q 1191 994 1439 701 
Q 1688 409 2113 409 
Q 2538 409 2786 701 
Q 3034 994 3034 1497 
Q 3034 2003 2786 2293 
Q 2538 2584 2113 2584 
z
M 3366 4563 
L 3366 3988 
Q 3128 4100 2886 4159 
Q 2644 4219 2406 4219 
Q 1781 4219 1451 3797 
Q 1122 3375 1075 2522 
Q 1259 2794 1537 2939 
Q 1816 3084 2150 3084 
Q 2853 3084 3261 2657 
Q 3669 2231 3669 1497 
Q 3669 778 3244 343 
Q 2819 -91 2113 -91 
Q 1303 -91 875 529 
Q 447 1150 447 2328 
Q 447 3434 972 4092 
Q 1497 4750 2381 4750 
Q 2619 4750 2861 4703 
Q 3103 4656 3366 4563 
z
" transform="scale(0.015625)"/>
       </defs>
       <use xlink:href="#DejaVuSans-39"/>
       <use xlink:href="#DejaVuSans-36" x="63.623047"/>
       <use xlink:href="#DejaVuSans-30" x="127.246094"/>
       <use xlink:href="#DejaVuSans-30" x="190.869141"/>
      </g>
     </g>
    </g>
    <g id="text_23">
     <!-- $E_2$ [MPa] -->
     <g transform="translate(427.825481 282.088197) scale(0.14 -0.14)">
      <use xlink:href="#DejaVuSans-Oblique-45" transform="translate(0 0.015625)"/>
      <use xlink:href="#DejaVuSans-32" transform="translate(63.183594 -16.390625) scale(0.7)"/>
      <use xlink:href="#DejaVuSans-20" transform="translate(110.454102 0.015625)"/>
      <use xlink:href="#DejaVuSans-5b" transform="translate(142.241211 0.015625)"/>
      <use xlink:href="#DejaVuSans-4d" transform="translate(181.254883 0.015625)"/>
      <use xlink:href="#DejaVuSans-50" transform="translate(267.53418 0.015625)"/>
      <use xlink:href="#DejaVuSans-61" transform="translate(327.836914 0.015625)"/>
      <use xlink:href="#DejaVuSans-5d" transform="translate(389.116211 0.015625)"/>
     </g>
    </g>
   </g>
   <g id="matplotlib.axis_4">
    <g id="ytick_7">
     <g id="line2d_19">
      <g>
       <use xlink:href="#m1c109258fa" x="337.305605" y="246.90101" style="stroke: #000000; stroke-width: 0.8"/>
      </g>
     </g>
     <g id="text_24">
      <!-- 0.000 -->
      <g transform="translate(290.22623 252.219916) scale(0.14 -0.14)">
       <use xlink:href="#DejaVuSans-30"/>
       <use xlink:href="#DejaVuSans-2e" x="63.623047"/>
       <use xlink:href="#DejaVuSans-30" x="95.410156"/>
       <use xlink:href="#DejaVuSans-30" x="159.033203"/>
       <use xlink:href="#DejaVuSans-30" x="222.65625"/>
      </g>
     </g>
    </g>
    <g id="ytick_8">
     <g id="line2d_20">
      <g>
       <use xlink:href="#m1c109258fa" x="337.305605" y="191.905895" style="stroke: #000000; stroke-width: 0.8"/>
      </g>
     </g>
     <g id="text_25">
      <!-- 0.001 -->
      <g transform="translate(290.22623 197.224801) scale(0.14 -0.14)">
       <use xlink:href="#DejaVuSans-30"/>
       <use xlink:href="#DejaVuSans-2e" x="63.623047"/>
       <use xlink:href="#DejaVuSans-30" x="95.410156"/>
       <use xlink:href="#DejaVuSans-30" x="159.033203"/>
       <use xlink:href="#DejaVuSans-31" x="222.65625"/>
      </g>
     </g>
    </g>
    <g id="ytick_9">
     <g id="line2d_21">
      <g>
       <use xlink:href="#m1c109258fa" x="337.305605" y="136.91078" style="stroke: #000000; stroke-width: 0.8"/>
      </g>
     </g>
     <g id="text_26">
      <!-- 0.002 -->
      <g transform="translate(290.22623 142.229686) scale(0.14 -0.14)">
       <use xlink:href="#DejaVuSans-30"/>
       <use xlink:href="#DejaVuSans-2e" x="63.623047"/>
       <use xlink:href="#DejaVuSans-30" x="95.410156"/>
       <use xlink:href="#DejaVuSans-30" x="159.033203"/>
       <use xlink:href="#DejaVuSans-32" x="222.65625"/>
      </g>
     </g>
    </g>
    <g id="ytick_10">
     <g id="line2d_22">
      <g>
       <use xlink:href="#m1c109258fa" x="337.305605" y="81.915665" style="stroke: #000000; stroke-width: 0.8"/>
      </g>
     </g>
     <g id="text_27">
      <!-- 0.003 -->
      <g transform="translate(290.22623 87.234571) scale(0.14 -0.14)">
       <use xlink:href="#DejaVuSans-30"/>
       <use xlink:href="#DejaVuSans-2e" x="63.623047"/>
       <use xlink:href="#DejaVuSans-30" x="95.410156"/>
       <use xlink:href="#DejaVuSans-30" x="159.033203"/>
       <use xlink:href="#DejaVuSans-33" x="222.65625"/>
      </g>
     </g>
    </g>
    <g id="ytick_11">
     <g id="line2d_23">
      <g>
       <use xlink:href="#m1c109258fa" x="337.305605" y="26.92055" style="stroke: #000000; stroke-width: 0.8"/>
      </g>
     </g>
     <g id="text_28">
      <!-- 0.004 -->
      <g transform="translate(290.22623 32.239456) scale(0.14 -0.14)">
       <use xlink:href="#DejaVuSans-30"/>
       <use xlink:href="#DejaVuSans-2e" x="63.623047"/>
       <use xlink:href="#DejaVuSans-30" x="95.410156"/>
       <use xlink:href="#DejaVuSans-30" x="159.033203"/>
       <use xlink:href="#DejaVuSans-34" x="222.65625"/>
      </g>
     </g>
    </g>
   </g>
   <g id="line2d_24">
    <path d="M 386.627516 244.46371 
L 388.25292 243.983086 
L 389.878323 243.420492 
L 391.503726 242.764648 
L 393.12913 242.003245 
L 394.754533 241.122949 
L 396.379937 240.109425 
L 398.00534 238.947388 
L 399.630743 237.620678 
L 401.256147 236.112365 
L 402.88155 234.404892 
L 404.506954 232.480252 
L 406.132357 230.320195 
L 407.75776 227.906485 
L 409.383164 225.221183 
L 411.008567 222.246977 
L 412.633971 218.967537 
L 414.259374 215.367908 
L 415.884777 211.434926 
L 417.510181 207.157649 
L 419.135584 202.527812 
L 420.760988 197.540269 
L 422.386391 192.193443 
L 424.011795 186.489745 
L 425.637198 180.435973 
L 427.262601 174.043661 
L 428.888005 167.329375 
L 430.513408 160.314948 
L 432.138812 153.027622 
L 433.764215 145.500114 
L 435.389618 137.770575 
L 437.015022 129.882443 
L 438.640425 121.884187 
L 440.265829 113.828932 
L 441.891232 105.773976 
L 443.516635 97.780189 
L 445.142039 89.911313 
L 446.767442 82.233161 
L 448.392846 74.81274 
L 450.018249 67.717302 
L 451.643652 61.013347 
L 453.269056 54.765601 
L 454.894459 49.035979 
L 456.519863 43.882573 
L 458.145266 39.35867 
L 459.770669 35.511841 
L 461.396073 32.383103 
L 463.021476 30.006197 
L 464.64688 28.40698 
L 466.272283 27.602955 
L 467.897686 27.602955 
L 469.52309 28.40698 
L 471.148493 30.006197 
L 472.773897 32.383103 
L 474.3993 35.511841 
L 476.024703 39.35867 
L 477.650107 43.882573 
L 479.27551 49.035979 
L 480.900914 54.765601 
L 482.526317 61.013347 
L 484.151721 67.717302 
L 485.777124 74.81274 
L 487.402527 82.233161 
L 489.027931 89.911313 
L 490.653334 97.780189 
L 492.278738 105.773976 
L 493.904141 113.828932 
L 495.529544 121.884187 
L 497.154948 129.882443 
L 498.780351 137.770575 
L 500.405755 145.500114 
L 502.031158 153.027622 
L 503.656561 160.314948 
L 505.281965 167.329375 
L 506.907368 174.043661 
L 508.532772 180.435973 
L 510.158175 186.489745 
L 511.783578 192.193443 
L 513.408982 197.540269 
L 515.034385 202.527812 
L 516.659789 207.157649 
L 518.285192 211.434926 
L 519.910595 215.367908 
L 521.535999 218.967537 
L 523.161402 222.246977 
L 524.786806 225.221183 
L 526.412209 227.906485 
L 528.037612 230.320195 
L 529.663016 232.480252 
L 531.288419 234.404892 
L 532.913823 236.112365 
L 534.539226 237.620678 
L 536.16463 238.947388 
L 537.790033 240.109425 
L 539.415436 241.122949 
L 541.04084 242.003245 
L 542.666243 242.764648 
L 544.291647 243.420492 
L 545.91705 243.983086 
L 547.542453 244.46371 
" clip-path="url(#pbecff43b75)" style="fill: none; stroke: #2ca02c; stroke-width: 1.5; stroke-linecap: square"/>
   </g>
   <g id="patch_70">
    <path d="M 337.305605 246.90101 
L 337.305605 16.638052 
" style="fill: none; stroke: #000000; stroke-width: 0.8; stroke-linejoin: miter; stroke-linecap: square"/>
   </g>
   <g id="patch_71">
    <path d="M 578.405358 246.90101 
L 578.405358 16.638052 
" style="fill: none; stroke: #000000; stroke-width: 0.8; stroke-linejoin: miter; stroke-linecap: square"/>
   </g>
   <g id="patch_72">
    <path d="M 337.305605 246.90101 
L 578.405358 246.90101 
" style="fill: none; stroke: #000000; stroke-width: 0.8; stroke-linejoin: miter; stroke-linecap: square"/>
   </g>
   <g id="patch_73">
    <path d="M 337.305605 16.638052 
L 578.405358 16.638052 
" style="fill: none; stroke: #000000; stroke-width: 0.8; stroke-linejoin: miter; stroke-linecap: square"/>
   </g>
  </g>
  <g id="axes_3">
   <g id="patch_74">
    <path d="M 625.673998 246.90101 
L 866.773751 246.90101 
L 866.773751 16.638052 
L 625.673998 16.638052 
z
" style="fill: #ffffff"/>
   </g>
   <g id="patch_75">
    <path d="M 636.633078 246.90101 
L 643.230517 246.90101 
L 643.230517 245.617614 
L 636.633078 245.617614 
z
" clip-path="url(#p97d1611162)" style="fill: #1f77b4"/>
   </g>
   <g id="patch_76">
    <path d="M 643.963566 246.90101 
L 650.561005 246.90101 
L 650.561005 245.617614 
L 643.963566 245.617614 
z
" clip-path="url(#p97d1611162)" style="fill: #1f77b4"/>
   </g>
   <g id="patch_77">
    <path d="M 651.294054 246.90101 
L 657.891493 246.90101 
L 657.891493 245.296765 
L 651.294054 245.296765 
z
" clip-path="url(#p97d1611162)" style="fill: #1f77b4"/>
   </g>
   <g id="patch_78">
    <path d="M 658.624542 246.90101 
L 665.221982 246.90101 
L 665.221982 246.580161 
L 658.624542 246.580161 
z
" clip-path="url(#p97d1611162)" style="fill: #1f77b4"/>
   </g>
   <g id="patch_79">
    <path d="M 665.95503 246.90101 
L 672.55247 246.90101 
L 672.55247 243.371672 
L 665.95503 243.371672 
z
" clip-path="url(#p97d1611162)" style="fill: #1f77b4"/>
   </g>
   <g id="patch_80">
    <path d="M 673.285518 246.90101 
L 679.882958 246.90101 
L 679.882958 241.125729 
L 673.285518 241.125729 
z
" clip-path="url(#p97d1611162)" style="fill: #1f77b4"/>
   </g>
   <g id="patch_81">
    <path d="M 680.616007 246.90101 
L 687.213446 246.90101 
L 687.213446 238.558938 
L 680.616007 238.558938 
z
" clip-path="url(#p97d1611162)" style="fill: #1f77b4"/>
   </g>
   <g id="patch_82">
    <path d="M 687.946495 246.90101 
L 694.543934 246.90101 
L 694.543934 227.970924 
L 687.946495 227.970924 
z
" clip-path="url(#p97d1611162)" style="fill: #1f77b4"/>
   </g>
   <g id="patch_83">
    <path d="M 695.276983 246.90101 
L 701.874422 246.90101 
L 701.874422 221.233096 
L 695.276983 221.233096 
z
" clip-path="url(#p97d1611162)" style="fill: #1f77b4"/>
   </g>
   <g id="patch_84">
    <path d="M 702.607471 246.90101 
L 709.20491 246.90101 
L 709.20491 216.099513 
L 702.607471 216.099513 
z
" clip-path="url(#p97d1611162)" style="fill: #1f77b4"/>
   </g>
   <g id="patch_85">
    <path d="M 709.937959 246.90101 
L 716.535398 246.90101 
L 716.535398 192.356693 
L 709.937959 192.356693 
z
" clip-path="url(#p97d1611162)" style="fill: #1f77b4"/>
   </g>
   <g id="patch_86">
    <path d="M 717.268447 246.90101 
L 723.865886 246.90101 
L 723.865886 173.747456 
L 717.268447 173.747456 
z
" clip-path="url(#p97d1611162)" style="fill: #1f77b4"/>
   </g>
   <g id="patch_87">
    <path d="M 724.598935 246.90101 
L 731.196374 246.90101 
L 731.196374 151.288031 
L 724.598935 151.288031 
z
" clip-path="url(#p97d1611162)" style="fill: #1f77b4"/>
   </g>
   <g id="patch_88">
    <path d="M 731.929423 246.90101 
L 738.526862 246.90101 
L 738.526862 104.444088 
L 731.929423 104.444088 
z
" clip-path="url(#p97d1611162)" style="fill: #1f77b4"/>
   </g>
   <g id="patch_89">
    <path d="M 739.259911 246.90101 
L 745.85735 246.90101 
L 745.85735 88.722491 
L 739.259911 88.722491 
z
" clip-path="url(#p97d1611162)" style="fill: #1f77b4"/>
   </g>
   <g id="patch_90">
    <path d="M 746.590399 246.90101 
L 753.187839 246.90101 
L 753.187839 81.663815 
L 746.590399 81.663815 
z
" clip-path="url(#p97d1611162)" style="fill: #1f77b4"/>
   </g>
   <g id="patch_91">
    <path d="M 753.920887 246.90101 
L 760.518327 246.90101 
L 760.518327 69.471555 
L 753.920887 69.471555 
z
" clip-path="url(#p97d1611162)" style="fill: #1f77b4"/>
   </g>
   <g id="patch_92">
    <path d="M 761.251375 246.90101 
L 767.848815 246.90101 
L 767.848815 85.193153 
L 761.251375 85.193153 
z
" clip-path="url(#p97d1611162)" style="fill: #1f77b4"/>
   </g>
   <g id="patch_93">
    <path d="M 768.581863 246.90101 
L 775.179303 246.90101 
L 775.179303 110.540218 
L 768.581863 110.540218 
z
" clip-path="url(#p97d1611162)" style="fill: #1f77b4"/>
   </g>
   <g id="patch_94">
    <path d="M 775.912352 246.90101 
L 782.509791 246.90101 
L 782.509791 135.245585 
L 775.912352 135.245585 
z
" clip-path="url(#p97d1611162)" style="fill: #1f77b4"/>
   </g>
   <g id="patch_95">
    <path d="M 783.24284 246.90101 
L 789.840279 246.90101 
L 789.840279 160.271801 
L 783.24284 160.271801 
z
" clip-path="url(#p97d1611162)" style="fill: #1f77b4"/>
   </g>
   <g id="patch_96">
    <path d="M 790.573328 246.90101 
L 797.170767 246.90101 
L 797.170767 193.960938 
L 790.573328 193.960938 
z
" clip-path="url(#p97d1611162)" style="fill: #1f77b4"/>
   </g>
   <g id="patch_97">
    <path d="M 797.903816 246.90101 
L 804.501255 246.90101 
L 804.501255 207.115744 
L 797.903816 207.115744 
z
" clip-path="url(#p97d1611162)" style="fill: #1f77b4"/>
   </g>
   <g id="patch_98">
    <path d="M 805.234304 246.90101 
L 811.831743 246.90101 
L 811.831743 223.479039 
L 805.234304 223.479039 
z
" clip-path="url(#p97d1611162)" style="fill: #1f77b4"/>
   </g>
   <g id="patch_99">
    <path d="M 812.564792 246.90101 
L 819.162231 246.90101 
L 819.162231 234.387902 
L 812.564792 234.387902 
z
" clip-path="url(#p97d1611162)" style="fill: #1f77b4"/>
   </g>
   <g id="patch_100">
    <path d="M 819.89528 246.90101 
L 826.492719 246.90101 
L 826.492719 240.163183 
L 819.89528 240.163183 
z
" clip-path="url(#p97d1611162)" style="fill: #1f77b4"/>
   </g>
   <g id="patch_101">
    <path d="M 827.225768 246.90101 
L 833.823207 246.90101 
L 833.823207 241.446578 
L 827.225768 241.446578 
z
" clip-path="url(#p97d1611162)" style="fill: #1f77b4"/>
   </g>
   <g id="patch_102">
    <path d="M 834.556256 246.90101 
L 841.153695 246.90101 
L 841.153695 245.938463 
L 834.556256 245.938463 
z
" clip-path="url(#p97d1611162)" style="fill: #1f77b4"/>
   </g>
   <g id="patch_103">
    <path d="M 841.886744 246.90101 
L 848.484184 246.90101 
L 848.484184 245.296765 
L 841.886744 245.296765 
z
" clip-path="url(#p97d1611162)" style="fill: #1f77b4"/>
   </g>
   <g id="patch_104">
    <path d="M 849.217232 246.90101 
L 855.814672 246.90101 
L 855.814672 246.580161 
L 849.217232 246.580161 
z
" clip-path="url(#p97d1611162)" style="fill: #1f77b4"/>
   </g>
   <g id="matplotlib.axis_5">
    <g id="xtick_11">
     <g id="line2d_25">
      <g>
       <use xlink:href="#m1a8d9ef173" x="661.330553" y="246.90101" style="stroke: #000000; stroke-width: 0.8"/>
      </g>
     </g>
     <g id="text_29">
      <!-- 0.300 -->
      <g transform="translate(641.290865 264.538822) scale(0.14 -0.14)">
       <use xlink:href="#DejaVuSans-30"/>
       <use xlink:href="#DejaVuSans-2e" x="63.623047"/>
       <use xlink:href="#DejaVuSans-33" x="95.410156"/>
       <use xlink:href="#DejaVuSans-30" x="159.033203"/>
       <use xlink:href="#DejaVuSans-30" x="222.65625"/>
      </g>
     </g>
    </g>
    <g id="xtick_12">
     <g id="line2d_26">
      <g>
       <use xlink:href="#m1a8d9ef173" x="714.789374" y="246.90101" style="stroke: #000000; stroke-width: 0.8"/>
      </g>
     </g>
     <g id="text_30">
      <!-- 0.325 -->
      <g transform="translate(694.749686 264.538822) scale(0.14 -0.14)">
       <use xlink:href="#DejaVuSans-30"/>
       <use xlink:href="#DejaVuSans-2e" x="63.623047"/>
       <use xlink:href="#DejaVuSans-33" x="95.410156"/>
       <use xlink:href="#DejaVuSans-32" x="159.033203"/>
       <use xlink:href="#DejaVuSans-35" x="222.65625"/>
      </g>
     </g>
    </g>
    <g id="xtick_13">
     <g id="line2d_27">
      <g>
       <use xlink:href="#m1a8d9ef173" x="768.248195" y="246.90101" style="stroke: #000000; stroke-width: 0.8"/>
      </g>
     </g>
     <g id="text_31">
      <!-- 0.350 -->
      <g transform="translate(748.208507 264.538822) scale(0.14 -0.14)">
       <use xlink:href="#DejaVuSans-30"/>
       <use xlink:href="#DejaVuSans-2e" x="63.623047"/>
       <use xlink:href="#DejaVuSans-33" x="95.410156"/>
       <use xlink:href="#DejaVuSans-35" x="159.033203"/>
       <use xlink:href="#DejaVuSans-30" x="222.65625"/>
      </g>
     </g>
    </g>
    <g id="xtick_14">
     <g id="line2d_28">
      <g>
       <use xlink:href="#m1a8d9ef173" x="821.707016" y="246.90101" style="stroke: #000000; stroke-width: 0.8"/>
      </g>
     </g>
     <g id="text_32">
      <!-- 0.375 -->
      <g transform="translate(801.667328 264.538822) scale(0.14 -0.14)">
       <defs>
        <path id="DejaVuSans-37" d="M 525 4666 
L 3525 4666 
L 3525 4397 
L 1831 0 
L 1172 0 
L 2766 4134 
L 525 4134 
L 525 4666 
z
" transform="scale(0.015625)"/>
       </defs>
       <use xlink:href="#DejaVuSans-30"/>
       <use xlink:href="#DejaVuSans-2e" x="63.623047"/>
       <use xlink:href="#DejaVuSans-33" x="95.410156"/>
       <use xlink:href="#DejaVuSans-37" x="159.033203"/>
       <use xlink:href="#DejaVuSans-35" x="222.65625"/>
      </g>
     </g>
    </g>
    <g id="text_33">
     <!-- $\nu_{12}$ [-] -->
     <g transform="translate(725.643875 282.088197) scale(0.14 -0.14)">
      <defs>
       <path id="DejaVuSans-Oblique-3bd" d="M 959 0 
L 572 3500 
L 1191 3500 
L 1522 563 
Q 1972 950 2391 1488 
Q 2706 1891 2788 2241 
Q 2825 2406 2809 2719 
Q 2794 3091 2544 3500 
L 3125 3500 
L 3125 3500 
Q 3288 3222 3353 2834 
Q 3416 2478 3369 2234 
Q 3250 1622 2719 1075 
Q 2025 363 1572 0 
L 959 0 
z
" transform="scale(0.015625)"/>
       <path id="DejaVuSans-2d" d="M 313 2009 
L 1997 2009 
L 1997 1497 
L 313 1497 
L 313 2009 
z
" transform="scale(0.015625)"/>
      </defs>
      <use xlink:href="#DejaVuSans-Oblique-3bd" transform="translate(0 0.015625)"/>
      <use xlink:href="#DejaVuSans-31" transform="translate(55.859375 -16.390625) scale(0.7)"/>
      <use xlink:href="#DejaVuSans-32" transform="translate(100.395508 -16.390625) scale(0.7)"/>
      <use xlink:href="#DejaVuSans-20" transform="translate(147.666016 0.015625)"/>
      <use xlink:href="#DejaVuSans-5b" transform="translate(179.453125 0.015625)"/>
      <use xlink:href="#DejaVuSans-2d" transform="translate(218.466797 0.015625)"/>
      <use xlink:href="#DejaVuSans-5d" transform="translate(254.550781 0.015625)"/>
     </g>
    </g>
   </g>
   <g id="matplotlib.axis_6">
    <g id="ytick_12">
     <g id="line2d_29">
      <g>
       <use xlink:href="#m1c109258fa" x="625.673998" y="246.90101" style="stroke: #000000; stroke-width: 0.8"/>
      </g>
     </g>
     <g id="text_34">
      <!-- 0 -->
      <g transform="translate(609.766498 252.219916) scale(0.14 -0.14)">
       <use xlink:href="#DejaVuSans-30"/>
      </g>
     </g>
    </g>
    <g id="ytick_13">
     <g id="line2d_30">
      <g>
       <use xlink:href="#m1c109258fa" x="625.673998" y="191.905895" style="stroke: #000000; stroke-width: 0.8"/>
      </g>
     </g>
     <g id="text_35">
      <!-- 10 -->
      <g transform="translate(600.858998 197.224801) scale(0.14 -0.14)">
       <use xlink:href="#DejaVuSans-31"/>
       <use xlink:href="#DejaVuSans-30" x="63.623047"/>
      </g>
     </g>
    </g>
    <g id="ytick_14">
     <g id="line2d_31">
      <g>
       <use xlink:href="#m1c109258fa" x="625.673998" y="136.91078" style="stroke: #000000; stroke-width: 0.8"/>
      </g>
     </g>
     <g id="text_36">
      <!-- 20 -->
      <g transform="translate(600.858998 142.229686) scale(0.14 -0.14)">
       <use xlink:href="#DejaVuSans-32"/>
       <use xlink:href="#DejaVuSans-30" x="63.623047"/>
      </g>
     </g>
    </g>
    <g id="ytick_15">
     <g id="line2d_32">
      <g>
       <use xlink:href="#m1c109258fa" x="625.673998" y="81.915665" style="stroke: #000000; stroke-width: 0.8"/>
      </g>
     </g>
     <g id="text_37">
      <!-- 30 -->
      <g transform="translate(600.858998 87.234571) scale(0.14 -0.14)">
       <use xlink:href="#DejaVuSans-33"/>
       <use xlink:href="#DejaVuSans-30" x="63.623047"/>
      </g>
     </g>
    </g>
    <g id="ytick_16">
     <g id="line2d_33">
      <g>
       <use xlink:href="#m1c109258fa" x="625.673998" y="26.92055" style="stroke: #000000; stroke-width: 0.8"/>
      </g>
     </g>
     <g id="text_38">
      <!-- 40 -->
      <g transform="translate(600.858998 32.239456) scale(0.14 -0.14)">
       <use xlink:href="#DejaVuSans-34"/>
       <use xlink:href="#DejaVuSans-30" x="63.623047"/>
      </g>
     </g>
    </g>
   </g>
   <g id="line2d_34">
    <path d="M 682.714081 244.46371 
L 684.010053 243.983086 
L 685.306024 243.420492 
L 686.601995 242.764648 
L 687.897967 242.003245 
L 689.193938 241.122949 
L 690.48991 240.109425 
L 691.785881 238.947388 
L 693.081853 237.620678 
L 694.377824 236.112365 
L 695.673795 234.404892 
L 696.969767 232.480252 
L 698.265738 230.320195 
L 699.56171 227.906485 
L 700.857681 225.221183 
L 702.153653 222.246977 
L 703.449624 218.967537 
L 704.745595 215.367908 
L 706.041567 211.434926 
L 707.337538 207.157649 
L 708.63351 202.527812 
L 709.929481 197.540269 
L 711.225452 192.193443 
L 712.521424 186.489745 
L 713.817395 180.435973 
L 715.113367 174.043661 
L 716.409338 167.329375 
L 717.70531 160.314948 
L 719.001281 153.027622 
L 720.297252 145.500114 
L 721.593224 137.770575 
L 722.889195 129.882443 
L 724.185167 121.884187 
L 725.481138 113.828932 
L 726.777109 105.773976 
L 728.073081 97.780189 
L 729.369052 89.911313 
L 730.665024 82.233161 
L 731.960995 74.81274 
L 733.256967 67.717302 
L 734.552938 61.013347 
L 735.848909 54.765601 
L 737.144881 49.035979 
L 738.440852 43.882573 
L 739.736824 39.35867 
L 741.032795 35.511841 
L 742.328767 32.383103 
L 743.624738 30.006197 
L 744.920709 28.40698 
L 746.216681 27.602955 
L 747.512652 27.602955 
L 748.808624 28.40698 
L 750.104595 30.006197 
L 751.400566 32.383103 
L 752.696538 35.511841 
L 753.992509 39.35867 
L 755.288481 43.882573 
L 756.584452 49.035979 
L 757.880424 54.765601 
L 759.176395 61.013347 
L 760.472366 67.717302 
L 761.768338 74.81274 
L 763.064309 82.233161 
L 764.360281 89.911313 
L 765.656252 97.780189 
L 766.952223 105.773976 
L 768.248195 113.828932 
L 769.544166 121.884187 
L 770.840138 129.882443 
L 772.136109 137.770575 
L 773.432081 145.500114 
L 774.728052 153.027622 
L 776.024023 160.314948 
L 777.319995 167.329375 
L 778.615966 174.043661 
L 779.911938 180.435973 
L 781.207909 186.489745 
L 782.503881 192.193443 
L 783.799852 197.540269 
L 785.095823 202.527812 
L 786.391795 207.157649 
L 787.687766 211.434926 
L 788.983738 215.367908 
L 790.279709 218.967537 
L 791.57568 222.246977 
L 792.871652 225.221183 
L 794.167623 227.906485 
L 795.463595 230.320195 
L 796.759566 232.480252 
L 798.055538 234.404892 
L 799.351509 236.112365 
L 800.64748 237.620678 
L 801.943452 238.947388 
L 803.239423 240.109425 
L 804.535395 241.122949 
L 805.831366 242.003245 
L 807.127337 242.764648 
L 808.423309 243.420492 
L 809.71928 243.983086 
L 811.015252 244.46371 
" clip-path="url(#p97d1611162)" style="fill: none; stroke: #2ca02c; stroke-width: 1.5; stroke-linecap: square"/>
   </g>
   <g id="patch_105">
    <path d="M 625.673998 246.90101 
L 625.673998 16.638052 
" style="fill: none; stroke: #000000; stroke-width: 0.8; stroke-linejoin: miter; stroke-linecap: square"/>
   </g>
   <g id="patch_106">
    <path d="M 866.773751 246.90101 
L 866.773751 16.638052 
" style="fill: none; stroke: #000000; stroke-width: 0.8; stroke-linejoin: miter; stroke-linecap: square"/>
   </g>
   <g id="patch_107">
    <path d="M 625.673998 246.90101 
L 866.773751 246.90101 
" style="fill: none; stroke: #000000; stroke-width: 0.8; stroke-linejoin: miter; stroke-linecap: square"/>
   </g>
   <g id="patch_108">
    <path d="M 625.673998 16.638052 
L 866.773751 16.638052 
" style="fill: none; stroke: #000000; stroke-width: 0.8; stroke-linejoin: miter; stroke-linecap: square"/>
   </g>
  </g>
  <g id="axes_4">
   <g id="patch_109">
    <path d="M 897.589231 246.90101 
L 1138.688984 246.90101 
L 1138.688984 16.638052 
L 897.589231 16.638052 
z
" style="fill: #ffffff"/>
   </g>
   <g id="patch_110">
    <path d="M 908.548311 246.90101 
L 915.14575 246.90101 
L 915.14575 245.685447 
L 908.548311 245.685447 
z
" clip-path="url(#p15d6fd36d1)" style="fill: #1f77b4"/>
   </g>
   <g id="patch_111">
    <path d="M 915.878799 246.90101 
L 922.476238 246.90101 
L 922.476238 245.28026 
L 915.878799 245.28026 
z
" clip-path="url(#p15d6fd36d1)" style="fill: #1f77b4"/>
   </g>
   <g id="patch_112">
    <path d="M 923.209287 246.90101 
L 929.806726 246.90101 
L 929.806726 244.875072 
L 923.209287 244.875072 
z
" clip-path="url(#p15d6fd36d1)" style="fill: #1f77b4"/>
   </g>
   <g id="patch_113">
    <path d="M 930.539775 246.90101 
L 937.137214 246.90101 
L 937.137214 243.65951 
L 930.539775 243.65951 
z
" clip-path="url(#p15d6fd36d1)" style="fill: #1f77b4"/>
   </g>
   <g id="patch_114">
    <path d="M 937.870263 246.90101 
L 944.467703 246.90101 
L 944.467703 237.581697 
L 937.870263 237.581697 
z
" clip-path="url(#p15d6fd36d1)" style="fill: #1f77b4"/>
   </g>
   <g id="patch_115">
    <path d="M 945.200751 246.90101 
L 951.798191 246.90101 
L 951.798191 235.150571 
L 945.200751 235.150571 
z
" clip-path="url(#p15d6fd36d1)" style="fill: #1f77b4"/>
   </g>
   <g id="patch_116">
    <path d="M 952.531239 246.90101 
L 959.128679 246.90101 
L 959.128679 232.314259 
L 952.531239 232.314259 
z
" clip-path="url(#p15d6fd36d1)" style="fill: #1f77b4"/>
   </g>
   <g id="patch_117">
    <path d="M 959.861728 246.90101 
L 966.459167 246.90101 
L 966.459167 222.18457 
L 959.861728 222.18457 
z
" clip-path="url(#p15d6fd36d1)" style="fill: #1f77b4"/>
   </g>
   <g id="patch_118">
    <path d="M 967.192216 246.90101 
L 973.789655 246.90101 
L 973.789655 210.434131 
L 967.192216 210.434131 
z
" clip-path="url(#p15d6fd36d1)" style="fill: #1f77b4"/>
   </g>
   <g id="patch_119">
    <path d="M 974.522704 246.90101 
L 981.120143 246.90101 
L 981.120143 186.122879 
L 974.522704 186.122879 
z
" clip-path="url(#p15d6fd36d1)" style="fill: #1f77b4"/>
   </g>
   <g id="patch_120">
    <path d="M 981.853192 246.90101 
L 988.450631 246.90101 
L 988.450631 167.889439 
L 981.853192 167.889439 
z
" clip-path="url(#p15d6fd36d1)" style="fill: #1f77b4"/>
   </g>
   <g id="patch_121">
    <path d="M 989.18368 246.90101 
L 995.781119 246.90101 
L 995.781119 144.79375 
L 989.18368 144.79375 
z
" clip-path="url(#p15d6fd36d1)" style="fill: #1f77b4"/>
   </g>
   <g id="patch_122">
    <path d="M 996.514168 246.90101 
L 1003.111607 246.90101 
L 1003.111607 117.240997 
L 996.514168 117.240997 
z
" clip-path="url(#p15d6fd36d1)" style="fill: #1f77b4"/>
   </g>
   <g id="patch_123">
    <path d="M 1003.844656 246.90101 
L 1010.442095 246.90101 
L 1010.442095 84.420806 
L 1003.844656 84.420806 
z
" clip-path="url(#p15d6fd36d1)" style="fill: #1f77b4"/>
   </g>
   <g id="patch_124">
    <path d="M 1011.175144 246.90101 
L 1017.772583 246.90101 
L 1017.772583 75.101492 
L 1011.175144 75.101492 
z
" clip-path="url(#p15d6fd36d1)" style="fill: #1f77b4"/>
   </g>
   <g id="patch_125">
    <path d="M 1018.505632 246.90101 
L 1025.103071 246.90101 
L 1025.103071 64.566616 
L 1018.505632 64.566616 
z
" clip-path="url(#p15d6fd36d1)" style="fill: #1f77b4"/>
   </g>
   <g id="patch_126">
    <path d="M 1025.83612 246.90101 
L 1032.43356 246.90101 
L 1032.43356 59.704366 
L 1025.83612 59.704366 
z
" clip-path="url(#p15d6fd36d1)" style="fill: #1f77b4"/>
   </g>
   <g id="patch_127">
    <path d="M 1033.166608 246.90101 
L 1039.764048 246.90101 
L 1039.764048 77.937805 
L 1033.166608 77.937805 
z
" clip-path="url(#p15d6fd36d1)" style="fill: #1f77b4"/>
   </g>
   <g id="patch_128">
    <path d="M 1040.497096 246.90101 
L 1047.094536 246.90101 
L 1047.094536 97.791995 
L 1040.497096 97.791995 
z
" clip-path="url(#p15d6fd36d1)" style="fill: #1f77b4"/>
   </g>
   <g id="patch_129">
    <path d="M 1047.827584 246.90101 
L 1054.425024 246.90101 
L 1054.425024 111.973559 
L 1047.827584 111.973559 
z
" clip-path="url(#p15d6fd36d1)" style="fill: #1f77b4"/>
   </g>
   <g id="patch_130">
    <path d="M 1055.158073 246.90101 
L 1061.755512 246.90101 
L 1061.755512 130.612186 
L 1055.158073 130.612186 
z
" clip-path="url(#p15d6fd36d1)" style="fill: #1f77b4"/>
   </g>
   <g id="patch_131">
    <path d="M 1062.488561 246.90101 
L 1069.086 246.90101 
L 1069.086 158.975313 
L 1062.488561 158.975313 
z
" clip-path="url(#p15d6fd36d1)" style="fill: #1f77b4"/>
   </g>
   <g id="patch_132">
    <path d="M 1069.819049 246.90101 
L 1076.416488 246.90101 
L 1076.416488 182.881378 
L 1069.819049 182.881378 
z
" clip-path="url(#p15d6fd36d1)" style="fill: #1f77b4"/>
   </g>
   <g id="patch_133">
    <path d="M 1077.149537 246.90101 
L 1083.746976 246.90101 
L 1083.746976 201.520005 
L 1077.149537 201.520005 
z
" clip-path="url(#p15d6fd36d1)" style="fill: #1f77b4"/>
   </g>
   <g id="patch_134">
    <path d="M 1084.480025 246.90101 
L 1091.077464 246.90101 
L 1091.077464 216.511944 
L 1084.480025 216.511944 
z
" clip-path="url(#p15d6fd36d1)" style="fill: #1f77b4"/>
   </g>
   <g id="patch_135">
    <path d="M 1091.810513 246.90101 
L 1098.407952 246.90101 
L 1098.407952 222.589758 
L 1091.810513 222.589758 
z
" clip-path="url(#p15d6fd36d1)" style="fill: #1f77b4"/>
   </g>
   <g id="patch_136">
    <path d="M 1099.141001 246.90101 
L 1105.73844 246.90101 
L 1105.73844 237.176509 
L 1099.141001 237.176509 
z
" clip-path="url(#p15d6fd36d1)" style="fill: #1f77b4"/>
   </g>
   <g id="patch_137">
    <path d="M 1106.471489 246.90101 
L 1113.068928 246.90101 
L 1113.068928 240.418009 
L 1106.471489 240.418009 
z
" clip-path="url(#p15d6fd36d1)" style="fill: #1f77b4"/>
   </g>
   <g id="patch_138">
    <path d="M 1113.801977 246.90101 
L 1120.399416 246.90101 
L 1120.399416 241.633572 
L 1113.801977 241.633572 
z
" clip-path="url(#p15d6fd36d1)" style="fill: #1f77b4"/>
   </g>
   <g id="patch_139">
    <path d="M 1121.132465 246.90101 
L 1127.729905 246.90101 
L 1127.729905 244.064697 
L 1121.132465 244.064697 
z
" clip-path="url(#p15d6fd36d1)" style="fill: #1f77b4"/>
   </g>
   <g id="matplotlib.axis_7">
    <g id="xtick_15">
     <g id="line2d_35">
      <g>
       <use xlink:href="#m1a8d9ef173" x="911.198906" y="246.90101" style="stroke: #000000; stroke-width: 0.8"/>
      </g>
     </g>
     <g id="text_39">
      <!-- 0.40 -->
      <g transform="translate(895.612968 264.538822) scale(0.14 -0.14)">
       <use xlink:href="#DejaVuSans-30"/>
       <use xlink:href="#DejaVuSans-2e" x="63.623047"/>
       <use xlink:href="#DejaVuSans-34" x="95.410156"/>
       <use xlink:href="#DejaVuSans-30" x="159.033203"/>
      </g>
     </g>
    </g>
    <g id="xtick_16">
     <g id="line2d_36">
      <g>
       <use xlink:href="#m1a8d9ef173" x="965.207747" y="246.90101" style="stroke: #000000; stroke-width: 0.8"/>
      </g>
     </g>
     <g id="text_40">
      <!-- 0.42 -->
      <g transform="translate(949.62181 264.538822) scale(0.14 -0.14)">
       <use xlink:href="#DejaVuSans-30"/>
       <use xlink:href="#DejaVuSans-2e" x="63.623047"/>
       <use xlink:href="#DejaVuSans-34" x="95.410156"/>
       <use xlink:href="#DejaVuSans-32" x="159.033203"/>
      </g>
     </g>
    </g>
    <g id="xtick_17">
     <g id="line2d_37">
      <g>
       <use xlink:href="#m1a8d9ef173" x="1019.216589" y="246.90101" style="stroke: #000000; stroke-width: 0.8"/>
      </g>
     </g>
     <g id="text_41">
      <!-- 0.44 -->
      <g transform="translate(1003.630651 264.538822) scale(0.14 -0.14)">
       <use xlink:href="#DejaVuSans-30"/>
       <use xlink:href="#DejaVuSans-2e" x="63.623047"/>
       <use xlink:href="#DejaVuSans-34" x="95.410156"/>
       <use xlink:href="#DejaVuSans-34" x="159.033203"/>
      </g>
     </g>
    </g>
    <g id="xtick_18">
     <g id="line2d_38">
      <g>
       <use xlink:href="#m1a8d9ef173" x="1073.22543" y="246.90101" style="stroke: #000000; stroke-width: 0.8"/>
      </g>
     </g>
     <g id="text_42">
      <!-- 0.46 -->
      <g transform="translate(1057.639493 264.538822) scale(0.14 -0.14)">
       <use xlink:href="#DejaVuSans-30"/>
       <use xlink:href="#DejaVuSans-2e" x="63.623047"/>
       <use xlink:href="#DejaVuSans-34" x="95.410156"/>
       <use xlink:href="#DejaVuSans-36" x="159.033203"/>
      </g>
     </g>
    </g>
    <g id="xtick_19">
     <g id="line2d_39">
      <g>
       <use xlink:href="#m1a8d9ef173" x="1127.234272" y="246.90101" style="stroke: #000000; stroke-width: 0.8"/>
      </g>
     </g>
     <g id="text_43">
      <!-- 0.48 -->
      <g transform="translate(1111.648334 264.538822) scale(0.14 -0.14)">
       <use xlink:href="#DejaVuSans-30"/>
       <use xlink:href="#DejaVuSans-2e" x="63.623047"/>
       <use xlink:href="#DejaVuSans-34" x="95.410156"/>
       <use xlink:href="#DejaVuSans-38" x="159.033203"/>
      </g>
     </g>
    </g>
    <g id="text_44">
     <!-- $\nu_{23}$ [-] -->
     <g transform="translate(997.559108 282.088197) scale(0.14 -0.14)">
      <use xlink:href="#DejaVuSans-Oblique-3bd" transform="translate(0 0.015625)"/>
      <use xlink:href="#DejaVuSans-32" transform="translate(55.859375 -16.390625) scale(0.7)"/>
      <use xlink:href="#DejaVuSans-33" transform="translate(100.395508 -16.390625) scale(0.7)"/>
      <use xlink:href="#DejaVuSans-20" transform="translate(147.666016 0.015625)"/>
      <use xlink:href="#DejaVuSans-5b" transform="translate(179.453125 0.015625)"/>
      <use xlink:href="#DejaVuSans-2d" transform="translate(218.466797 0.015625)"/>
      <use xlink:href="#DejaVuSans-5d" transform="translate(254.550781 0.015625)"/>
     </g>
    </g>
   </g>
   <g id="matplotlib.axis_8">
    <g id="ytick_17">
     <g id="line2d_40">
      <g>
       <use xlink:href="#m1c109258fa" x="897.589231" y="246.90101" style="stroke: #000000; stroke-width: 0.8"/>
      </g>
     </g>
     <g id="text_45">
      <!-- 0 -->
      <g transform="translate(881.681731 252.219916) scale(0.14 -0.14)">
       <use xlink:href="#DejaVuSans-30"/>
      </g>
     </g>
    </g>
    <g id="ytick_18">
     <g id="line2d_41">
      <g>
       <use xlink:href="#m1c109258fa" x="897.589231" y="191.905895" style="stroke: #000000; stroke-width: 0.8"/>
      </g>
     </g>
     <g id="text_46">
      <!-- 10 -->
      <g transform="translate(872.774231 197.224801) scale(0.14 -0.14)">
       <use xlink:href="#DejaVuSans-31"/>
       <use xlink:href="#DejaVuSans-30" x="63.623047"/>
      </g>
     </g>
    </g>
    <g id="ytick_19">
     <g id="line2d_42">
      <g>
       <use xlink:href="#m1c109258fa" x="897.589231" y="136.91078" style="stroke: #000000; stroke-width: 0.8"/>
      </g>
     </g>
     <g id="text_47">
      <!-- 20 -->
      <g transform="translate(872.774231 142.229686) scale(0.14 -0.14)">
       <use xlink:href="#DejaVuSans-32"/>
       <use xlink:href="#DejaVuSans-30" x="63.623047"/>
      </g>
     </g>
    </g>
    <g id="ytick_20">
     <g id="line2d_43">
      <g>
       <use xlink:href="#m1c109258fa" x="897.589231" y="81.915665" style="stroke: #000000; stroke-width: 0.8"/>
      </g>
     </g>
     <g id="text_48">
      <!-- 30 -->
      <g transform="translate(872.774231 87.234571) scale(0.14 -0.14)">
       <use xlink:href="#DejaVuSans-33"/>
       <use xlink:href="#DejaVuSans-30" x="63.623047"/>
      </g>
     </g>
    </g>
    <g id="ytick_21">
     <g id="line2d_44">
      <g>
       <use xlink:href="#m1c109258fa" x="897.589231" y="26.92055" style="stroke: #000000; stroke-width: 0.8"/>
      </g>
     </g>
     <g id="text_49">
      <!-- 40 -->
      <g transform="translate(872.774231 32.239456) scale(0.14 -0.14)">
       <use xlink:href="#DejaVuSans-34"/>
       <use xlink:href="#DejaVuSans-30" x="63.623047"/>
      </g>
     </g>
    </g>
   </g>
   <g id="line2d_45">
    <path d="M 938.203327 244.46371 
L 939.839958 243.983086 
L 941.47659 243.420492 
L 943.113221 242.764648 
L 944.749853 242.003245 
L 946.386484 241.122949 
L 948.023116 240.109425 
L 949.659747 238.947388 
L 951.296379 237.620678 
L 952.933011 236.112365 
L 954.569642 234.404892 
L 956.206274 232.480252 
L 957.842905 230.320195 
L 959.479537 227.906485 
L 961.116168 225.221183 
L 962.7528 222.246977 
L 964.389431 218.967537 
L 966.026063 215.367908 
L 967.662695 211.434926 
L 969.299326 207.157649 
L 970.935958 202.527812 
L 972.572589 197.540269 
L 974.209221 192.193443 
L 975.845852 186.489745 
L 977.482484 180.435973 
L 979.119115 174.043661 
L 980.755747 167.329375 
L 982.392379 160.314948 
L 984.02901 153.027622 
L 985.665642 145.500114 
L 987.302273 137.770575 
L 988.938905 129.882443 
L 990.575536 121.884187 
L 992.212168 113.828932 
L 993.8488 105.773976 
L 995.485431 97.780189 
L 997.122063 89.911313 
L 998.758694 82.233161 
L 1000.395326 74.81274 
L 1002.031957 67.717302 
L 1003.668589 61.013347 
L 1005.30522 54.765601 
L 1006.941852 49.035979 
L 1008.578484 43.882573 
L 1010.215115 39.35867 
L 1011.851747 35.511841 
L 1013.488378 32.383103 
L 1015.12501 30.006197 
L 1016.761641 28.40698 
L 1018.398273 27.602955 
L 1020.034904 27.602955 
L 1021.671536 28.40698 
L 1023.308168 30.006197 
L 1024.944799 32.383103 
L 1026.581431 35.511841 
L 1028.218062 39.35867 
L 1029.854694 43.882573 
L 1031.491325 49.035979 
L 1033.127957 54.765601 
L 1034.764589 61.013347 
L 1036.40122 67.717302 
L 1038.037852 74.81274 
L 1039.674483 82.233161 
L 1041.311115 89.911313 
L 1042.947746 97.780189 
L 1044.584378 105.773976 
L 1046.221009 113.828932 
L 1047.857641 121.884187 
L 1049.494273 129.882443 
L 1051.130904 137.770575 
L 1052.767536 145.500114 
L 1054.404167 153.027622 
L 1056.040799 160.314948 
L 1057.67743 167.329375 
L 1059.314062 174.043661 
L 1060.950693 180.435973 
L 1062.587325 186.489745 
L 1064.223957 192.193443 
L 1065.860588 197.540269 
L 1067.49722 202.527812 
L 1069.133851 207.157649 
L 1070.770483 211.434926 
L 1072.407114 215.367908 
L 1074.043746 218.967537 
L 1075.680377 222.246977 
L 1077.317009 225.221183 
L 1078.953641 227.906485 
L 1080.590272 230.320195 
L 1082.226904 232.480252 
L 1083.863535 234.404892 
L 1085.500167 236.112365 
L 1087.136798 237.620678 
L 1088.77343 238.947388 
L 1090.410062 240.109425 
L 1092.046693 241.122949 
L 1093.683325 242.003245 
L 1095.319956 242.764648 
L 1096.956588 243.420492 
L 1098.593219 243.983086 
L 1100.229851 244.46371 
" clip-path="url(#p15d6fd36d1)" style="fill: none; stroke: #2ca02c; stroke-width: 1.5; stroke-linecap: square"/>
   </g>
   <g id="patch_140">
    <path d="M 897.589231 246.90101 
L 897.589231 16.638052 
" style="fill: none; stroke: #000000; stroke-width: 0.8; stroke-linejoin: miter; stroke-linecap: square"/>
   </g>
   <g id="patch_141">
    <path d="M 1138.688984 246.90101 
L 1138.688984 16.638052 
" style="fill: none; stroke: #000000; stroke-width: 0.8; stroke-linejoin: miter; stroke-linecap: square"/>
   </g>
   <g id="patch_142">
    <path d="M 897.589231 246.90101 
L 1138.688984 246.90101 
" style="fill: none; stroke: #000000; stroke-width: 0.8; stroke-linejoin: miter; stroke-linecap: square"/>
   </g>
   <g id="patch_143">
    <path d="M 897.589231 16.638052 
L 1138.688984 16.638052 
" style="fill: none; stroke: #000000; stroke-width: 0.8; stroke-linejoin: miter; stroke-linecap: square"/>
   </g>
  </g>
  <g id="axes_5">
   <g id="patch_144">
    <path d="M 1195.900007 246.90101 
L 1436.99976 246.90101 
L 1436.99976 16.638052 
L 1195.900007 16.638052 
z
" style="fill: #ffffff"/>
   </g>
   <g id="patch_145">
    <path d="M 1206.859087 246.90101 
L 1213.456526 246.90101 
L 1213.456526 246.104329 
L 1206.859087 246.104329 
z
" clip-path="url(#p03aa004010)" style="fill: #1f77b4"/>
   </g>
   <g id="patch_146">
    <path d="M 1214.189575 246.90101 
L 1220.787014 246.90101 
L 1220.787014 246.50267 
L 1214.189575 246.50267 
z
" clip-path="url(#p03aa004010)" style="fill: #1f77b4"/>
   </g>
   <g id="patch_147">
    <path d="M 1221.520063 246.90101 
L 1228.117502 246.90101 
L 1228.117502 245.705989 
L 1221.520063 245.705989 
z
" clip-path="url(#p03aa004010)" style="fill: #1f77b4"/>
   </g>
   <g id="patch_148">
    <path d="M 1228.850551 246.90101 
L 1235.44799 246.90101 
L 1235.44799 246.104329 
L 1228.850551 246.104329 
z
" clip-path="url(#p03aa004010)" style="fill: #1f77b4"/>
   </g>
   <g id="patch_149">
    <path d="M 1236.181039 246.90101 
L 1242.778478 246.90101 
L 1242.778478 245.705989 
L 1236.181039 245.705989 
z
" clip-path="url(#p03aa004010)" style="fill: #1f77b4"/>
   </g>
   <g id="patch_150">
    <path d="M 1243.511527 246.90101 
L 1250.108966 246.90101 
L 1250.108966 241.722587 
L 1243.511527 241.722587 
z
" clip-path="url(#p03aa004010)" style="fill: #1f77b4"/>
   </g>
   <g id="patch_151">
    <path d="M 1250.842015 246.90101 
L 1257.439454 246.90101 
L 1257.439454 234.154122 
L 1250.842015 234.154122 
z
" clip-path="url(#p03aa004010)" style="fill: #1f77b4"/>
   </g>
   <g id="patch_152">
    <path d="M 1258.172503 246.90101 
L 1264.769943 246.90101 
L 1264.769943 232.162421 
L 1258.172503 232.162421 
z
" clip-path="url(#p03aa004010)" style="fill: #1f77b4"/>
   </g>
   <g id="patch_153">
    <path d="M 1265.502991 246.90101 
L 1272.100431 246.90101 
L 1272.100431 215.83047 
L 1265.502991 215.83047 
z
" clip-path="url(#p03aa004010)" style="fill: #1f77b4"/>
   </g>
   <g id="patch_154">
    <path d="M 1272.833479 246.90101 
L 1279.430919 246.90101 
L 1279.430919 200.693541 
L 1272.833479 200.693541 
z
" clip-path="url(#p03aa004010)" style="fill: #1f77b4"/>
   </g>
   <g id="patch_155">
    <path d="M 1280.163968 246.90101 
L 1286.761407 246.90101 
L 1286.761407 181.971549 
L 1280.163968 181.971549 
z
" clip-path="url(#p03aa004010)" style="fill: #1f77b4"/>
   </g>
   <g id="patch_156">
    <path d="M 1287.494456 246.90101 
L 1294.091895 246.90101 
L 1294.091895 156.876113 
L 1287.494456 156.876113 
z
" clip-path="url(#p03aa004010)" style="fill: #1f77b4"/>
   </g>
   <g id="patch_157">
    <path d="M 1294.824944 246.90101 
L 1301.422383 246.90101 
L 1301.422383 126.602254 
L 1294.824944 126.602254 
z
" clip-path="url(#p03aa004010)" style="fill: #1f77b4"/>
   </g>
   <g id="patch_158">
    <path d="M 1302.155432 246.90101 
L 1308.752871 246.90101 
L 1308.752871 121.025491 
L 1302.155432 121.025491 
z
" clip-path="url(#p03aa004010)" style="fill: #1f77b4"/>
   </g>
   <g id="patch_159">
    <path d="M 1309.48592 246.90101 
L 1316.083359 246.90101 
L 1316.083359 85.573209 
L 1309.48592 85.573209 
z
" clip-path="url(#p03aa004010)" style="fill: #1f77b4"/>
   </g>
   <g id="patch_160">
    <path d="M 1316.816408 246.90101 
L 1323.413847 246.90101 
L 1323.413847 70.834619 
L 1316.816408 70.834619 
z
" clip-path="url(#p03aa004010)" style="fill: #1f77b4"/>
   </g>
   <g id="patch_161">
    <path d="M 1324.146896 246.90101 
L 1330.744335 246.90101 
L 1330.744335 54.502669 
L 1324.146896 54.502669 
z
" clip-path="url(#p03aa004010)" style="fill: #1f77b4"/>
   </g>
   <g id="patch_162">
    <path d="M 1331.477384 246.90101 
L 1338.074823 246.90101 
L 1338.074823 58.486072 
L 1331.477384 58.486072 
z
" clip-path="url(#p03aa004010)" style="fill: #1f77b4"/>
   </g>
   <g id="patch_163">
    <path d="M 1338.807872 246.90101 
L 1345.405311 246.90101 
L 1345.405311 72.42798 
L 1338.807872 72.42798 
z
" clip-path="url(#p03aa004010)" style="fill: #1f77b4"/>
   </g>
   <g id="patch_164">
    <path d="M 1346.13836 246.90101 
L 1352.7358 246.90101 
L 1352.7358 87.56491 
L 1346.13836 87.56491 
z
" clip-path="url(#p03aa004010)" style="fill: #1f77b4"/>
   </g>
   <g id="patch_165">
    <path d="M 1353.468848 246.90101 
L 1360.066288 246.90101 
L 1360.066288 109.871964 
L 1353.468848 109.871964 
z
" clip-path="url(#p03aa004010)" style="fill: #1f77b4"/>
   </g>
   <g id="patch_166">
    <path d="M 1360.799336 246.90101 
L 1367.396776 246.90101 
L 1367.396776 148.112628 
L 1360.799336 148.112628 
z
" clip-path="url(#p03aa004010)" style="fill: #1f77b4"/>
   </g>
   <g id="patch_167">
    <path d="M 1368.129824 246.90101 
L 1374.727264 246.90101 
L 1374.727264 172.411383 
L 1368.129824 172.411383 
z
" clip-path="url(#p03aa004010)" style="fill: #1f77b4"/>
   </g>
   <g id="patch_168">
    <path d="M 1375.460313 246.90101 
L 1382.057752 246.90101 
L 1382.057752 196.710138 
L 1375.460313 196.710138 
z
" clip-path="url(#p03aa004010)" style="fill: #1f77b4"/>
   </g>
   <g id="patch_169">
    <path d="M 1382.790801 246.90101 
L 1389.38824 246.90101 
L 1389.38824 224.593956 
L 1382.790801 224.593956 
z
" clip-path="url(#p03aa004010)" style="fill: #1f77b4"/>
   </g>
   <g id="patch_170">
    <path d="M 1390.121289 246.90101 
L 1396.718728 246.90101 
L 1396.718728 230.170719 
L 1390.121289 230.170719 
z
" clip-path="url(#p03aa004010)" style="fill: #1f77b4"/>
   </g>
   <g id="patch_171">
    <path d="M 1397.451777 246.90101 
L 1404.049216 246.90101 
L 1404.049216 234.950802 
L 1397.451777 234.950802 
z
" clip-path="url(#p03aa004010)" style="fill: #1f77b4"/>
   </g>
   <g id="patch_172">
    <path d="M 1404.782265 246.90101 
L 1411.379704 246.90101 
L 1411.379704 240.129226 
L 1404.782265 240.129226 
z
" clip-path="url(#p03aa004010)" style="fill: #1f77b4"/>
   </g>
   <g id="patch_173">
    <path d="M 1412.112753 246.90101 
L 1418.710192 246.90101 
L 1418.710192 243.315948 
L 1412.112753 243.315948 
z
" clip-path="url(#p03aa004010)" style="fill: #1f77b4"/>
   </g>
   <g id="patch_174">
    <path d="M 1419.443241 246.90101 
L 1426.04068 246.90101 
L 1426.04068 244.510968 
L 1419.443241 244.510968 
z
" clip-path="url(#p03aa004010)" style="fill: #1f77b4"/>
   </g>
   <g id="matplotlib.axis_9">
    <g id="xtick_20">
     <g id="line2d_46">
      <g>
       <use xlink:href="#m1a8d9ef173" x="1235.928909" y="246.90101" style="stroke: #000000; stroke-width: 0.8"/>
      </g>
     </g>
     <g id="text_50">
      <!-- 4800 -->
      <g transform="translate(1218.113909 264.538822) scale(0.14 -0.14)">
       <use xlink:href="#DejaVuSans-34"/>
       <use xlink:href="#DejaVuSans-38" x="63.623047"/>
       <use xlink:href="#DejaVuSans-30" x="127.246094"/>
       <use xlink:href="#DejaVuSans-30" x="190.869141"/>
      </g>
     </g>
    </g>
    <g id="xtick_21">
     <g id="line2d_47">
      <g>
       <use xlink:href="#m1a8d9ef173" x="1311.780541" y="246.90101" style="stroke: #000000; stroke-width: 0.8"/>
      </g>
     </g>
     <g id="text_51">
      <!-- 5000 -->
      <g transform="translate(1293.965541 264.538822) scale(0.14 -0.14)">
       <use xlink:href="#DejaVuSans-35"/>
       <use xlink:href="#DejaVuSans-30" x="63.623047"/>
       <use xlink:href="#DejaVuSans-30" x="127.246094"/>
       <use xlink:href="#DejaVuSans-30" x="190.869141"/>
      </g>
     </g>
    </g>
    <g id="xtick_22">
     <g id="line2d_48">
      <g>
       <use xlink:href="#m1a8d9ef173" x="1387.632173" y="246.90101" style="stroke: #000000; stroke-width: 0.8"/>
      </g>
     </g>
     <g id="text_52">
      <!-- 5200 -->
      <g transform="translate(1369.817173 264.538822) scale(0.14 -0.14)">
       <use xlink:href="#DejaVuSans-35"/>
       <use xlink:href="#DejaVuSans-32" x="63.623047"/>
       <use xlink:href="#DejaVuSans-30" x="127.246094"/>
       <use xlink:href="#DejaVuSans-30" x="190.869141"/>
      </g>
     </g>
    </g>
    <g id="text_53">
     <!-- $G_{12}$ [MPa] -->
     <g transform="translate(1282.359884 282.088197) scale(0.14 -0.14)">
      <defs>
       <path id="DejaVuSans-Oblique-47" d="M 3494 697 
L 3738 1919 
L 2700 1919 
L 2797 2438 
L 4453 2438 
L 4050 384 
Q 3634 156 3143 32 
Q 2653 -91 2156 -91 
Q 1278 -91 783 396 
Q 288 884 288 1753 
Q 288 2475 589 3126 
Q 891 3778 1422 4213 
Q 1756 4484 2153 4617 
Q 2550 4750 3034 4750 
Q 3472 4750 3873 4639 
Q 4275 4528 4641 4306 
L 4513 3634 
Q 4231 3928 3853 4083 
Q 3475 4238 3047 4238 
Q 2550 4238 2172 4048 
Q 1794 3859 1497 3463 
Q 1244 3125 1098 2667 
Q 953 2209 953 1734 
Q 953 1081 1287 751 
Q 1622 422 2284 422 
Q 2616 422 2925 492 
Q 3234 563 3494 697 
z
" transform="scale(0.015625)"/>
      </defs>
      <use xlink:href="#DejaVuSans-Oblique-47" transform="translate(0 0.015625)"/>
      <use xlink:href="#DejaVuSans-31" transform="translate(77.490234 -16.390625) scale(0.7)"/>
      <use xlink:href="#DejaVuSans-32" transform="translate(122.026367 -16.390625) scale(0.7)"/>
      <use xlink:href="#DejaVuSans-20" transform="translate(169.296875 0.015625)"/>
      <use xlink:href="#DejaVuSans-5b" transform="translate(201.083984 0.015625)"/>
      <use xlink:href="#DejaVuSans-4d" transform="translate(240.097656 0.015625)"/>
      <use xlink:href="#DejaVuSans-50" transform="translate(326.376953 0.015625)"/>
      <use xlink:href="#DejaVuSans-61" transform="translate(386.679688 0.015625)"/>
      <use xlink:href="#DejaVuSans-5d" transform="translate(447.958984 0.015625)"/>
     </g>
    </g>
   </g>
   <g id="matplotlib.axis_10">
    <g id="ytick_22">
     <g id="line2d_49">
      <g>
       <use xlink:href="#m1c109258fa" x="1195.900007" y="246.90101" style="stroke: #000000; stroke-width: 0.8"/>
      </g>
     </g>
     <g id="text_54">
      <!-- 0.000 -->
      <g transform="translate(1148.820632 252.219916) scale(0.14 -0.14)">
       <use xlink:href="#DejaVuSans-30"/>
       <use xlink:href="#DejaVuSans-2e" x="63.623047"/>
       <use xlink:href="#DejaVuSans-30" x="95.410156"/>
       <use xlink:href="#DejaVuSans-30" x="159.033203"/>
       <use xlink:href="#DejaVuSans-30" x="222.65625"/>
      </g>
     </g>
    </g>
    <g id="ytick_23">
     <g id="line2d_50">
      <g>
       <use xlink:href="#m1c109258fa" x="1195.900007" y="208.40443" style="stroke: #000000; stroke-width: 0.8"/>
      </g>
     </g>
     <g id="text_55">
      <!-- 0.001 -->
      <g transform="translate(1148.820632 213.723336) scale(0.14 -0.14)">
       <use xlink:href="#DejaVuSans-30"/>
       <use xlink:href="#DejaVuSans-2e" x="63.623047"/>
       <use xlink:href="#DejaVuSans-30" x="95.410156"/>
       <use xlink:href="#DejaVuSans-30" x="159.033203"/>
       <use xlink:href="#DejaVuSans-31" x="222.65625"/>
      </g>
     </g>
    </g>
    <g id="ytick_24">
     <g id="line2d_51">
      <g>
       <use xlink:href="#m1c109258fa" x="1195.900007" y="169.907849" style="stroke: #000000; stroke-width: 0.8"/>
      </g>
     </g>
     <g id="text_56">
      <!-- 0.002 -->
      <g transform="translate(1148.820632 175.226755) scale(0.14 -0.14)">
       <use xlink:href="#DejaVuSans-30"/>
       <use xlink:href="#DejaVuSans-2e" x="63.623047"/>
       <use xlink:href="#DejaVuSans-30" x="95.410156"/>
       <use xlink:href="#DejaVuSans-30" x="159.033203"/>
       <use xlink:href="#DejaVuSans-32" x="222.65625"/>
      </g>
     </g>
    </g>
    <g id="ytick_25">
     <g id="line2d_52">
      <g>
       <use xlink:href="#m1c109258fa" x="1195.900007" y="131.411269" style="stroke: #000000; stroke-width: 0.8"/>
      </g>
     </g>
     <g id="text_57">
      <!-- 0.003 -->
      <g transform="translate(1148.820632 136.730175) scale(0.14 -0.14)">
       <use xlink:href="#DejaVuSans-30"/>
       <use xlink:href="#DejaVuSans-2e" x="63.623047"/>
       <use xlink:href="#DejaVuSans-30" x="95.410156"/>
       <use xlink:href="#DejaVuSans-30" x="159.033203"/>
       <use xlink:href="#DejaVuSans-33" x="222.65625"/>
      </g>
     </g>
    </g>
    <g id="ytick_26">
     <g id="line2d_53">
      <g>
       <use xlink:href="#m1c109258fa" x="1195.900007" y="92.914688" style="stroke: #000000; stroke-width: 0.8"/>
      </g>
     </g>
     <g id="text_58">
      <!-- 0.004 -->
      <g transform="translate(1148.820632 98.233594) scale(0.14 -0.14)">
       <use xlink:href="#DejaVuSans-30"/>
       <use xlink:href="#DejaVuSans-2e" x="63.623047"/>
       <use xlink:href="#DejaVuSans-30" x="95.410156"/>
       <use xlink:href="#DejaVuSans-30" x="159.033203"/>
       <use xlink:href="#DejaVuSans-34" x="222.65625"/>
      </g>
     </g>
    </g>
    <g id="ytick_27">
     <g id="line2d_54">
      <g>
       <use xlink:href="#m1c109258fa" x="1195.900007" y="54.418108" style="stroke: #000000; stroke-width: 0.8"/>
      </g>
     </g>
     <g id="text_59">
      <!-- 0.005 -->
      <g transform="translate(1148.820632 59.737014) scale(0.14 -0.14)">
       <use xlink:href="#DejaVuSans-30"/>
       <use xlink:href="#DejaVuSans-2e" x="63.623047"/>
       <use xlink:href="#DejaVuSans-30" x="95.410156"/>
       <use xlink:href="#DejaVuSans-30" x="159.033203"/>
       <use xlink:href="#DejaVuSans-35" x="222.65625"/>
      </g>
     </g>
    </g>
   </g>
   <g id="line2d_55">
    <path d="M 1254.891817 244.46371 
L 1256.500791 243.983086 
L 1258.109765 243.420492 
L 1259.718739 242.764648 
L 1261.327713 242.003245 
L 1262.936687 241.122949 
L 1264.545661 240.109425 
L 1266.154635 238.947388 
L 1267.763609 237.620678 
L 1269.372583 236.112365 
L 1270.981557 234.404892 
L 1272.590531 232.480252 
L 1274.199505 230.320195 
L 1275.808479 227.906485 
L 1277.417453 225.221183 
L 1279.026427 222.246977 
L 1280.635401 218.967537 
L 1282.244375 215.367908 
L 1283.853349 211.434926 
L 1285.462323 207.157649 
L 1287.071297 202.527812 
L 1288.680271 197.540269 
L 1290.289245 192.193443 
L 1291.898219 186.489745 
L 1293.507193 180.435973 
L 1295.116167 174.043661 
L 1296.725141 167.329375 
L 1298.334115 160.314948 
L 1299.943089 153.027622 
L 1301.552063 145.500114 
L 1303.161037 137.770575 
L 1304.770011 129.882443 
L 1306.378985 121.884187 
L 1307.987959 113.828932 
L 1309.596933 105.773976 
L 1311.205907 97.780189 
L 1312.814881 89.911313 
L 1314.423855 82.233161 
L 1316.032829 74.81274 
L 1317.641803 67.717302 
L 1319.250777 61.013347 
L 1320.859751 54.765601 
L 1322.468725 49.035979 
L 1324.077699 43.882573 
L 1325.686673 39.35867 
L 1327.295647 35.511841 
L 1328.904622 32.383103 
L 1330.513596 30.006197 
L 1332.12257 28.40698 
L 1333.731544 27.602955 
L 1335.340518 27.602955 
L 1336.949492 28.40698 
L 1338.558466 30.006197 
L 1340.16744 32.383103 
L 1341.776414 35.511841 
L 1343.385388 39.35867 
L 1344.994362 43.882573 
L 1346.603336 49.035979 
L 1348.21231 54.765601 
L 1349.821284 61.013347 
L 1351.430258 67.717302 
L 1353.039232 74.81274 
L 1354.648206 82.233161 
L 1356.25718 89.911313 
L 1357.866154 97.780189 
L 1359.475128 105.773976 
L 1361.084102 113.828932 
L 1362.693076 121.884187 
L 1364.30205 129.882443 
L 1365.911024 137.770575 
L 1367.519998 145.500114 
L 1369.128972 153.027622 
L 1370.737946 160.314948 
L 1372.34692 167.329375 
L 1373.955894 174.043661 
L 1375.564868 180.435973 
L 1377.173842 186.489745 
L 1378.782816 192.193443 
L 1380.39179 197.540269 
L 1382.000764 202.527812 
L 1383.609738 207.157649 
L 1385.218712 211.434926 
L 1386.827686 215.367908 
L 1388.43666 218.967537 
L 1390.045634 222.246977 
L 1391.654608 225.221183 
L 1393.263582 227.906485 
L 1394.872556 230.320195 
L 1396.48153 232.480252 
L 1398.090504 234.404892 
L 1399.699478 236.112365 
L 1401.308452 237.620678 
L 1402.917426 238.947388 
L 1404.5264 240.109425 
L 1406.135374 241.122949 
L 1407.744348 242.003245 
L 1409.353322 242.764648 
L 1410.962296 243.420492 
L 1412.57127 243.983086 
L 1414.180244 244.46371 
" clip-path="url(#p03aa004010)" style="fill: none; stroke: #2ca02c; stroke-width: 1.5; stroke-linecap: square"/>
   </g>
   <g id="patch_175">
    <path d="M 1195.900007 246.90101 
L 1195.900007 16.638052 
" style="fill: none; stroke: #000000; stroke-width: 0.8; stroke-linejoin: miter; stroke-linecap: square"/>
   </g>
   <g id="patch_176">
    <path d="M 1436.99976 246.90101 
L 1436.99976 16.638052 
" style="fill: none; stroke: #000000; stroke-width: 0.8; stroke-linejoin: miter; stroke-linecap: square"/>
   </g>
   <g id="patch_177">
    <path d="M 1195.900007 246.90101 
L 1436.99976 246.90101 
" style="fill: none; stroke: #000000; stroke-width: 0.8; stroke-linejoin: miter; stroke-linecap: square"/>
   </g>
   <g id="patch_178">
    <path d="M 1195.900007 16.638052 
L 1436.99976 16.638052 
" style="fill: none; stroke: #000000; stroke-width: 0.8; stroke-linejoin: miter; stroke-linecap: square"/>
   </g>
  </g>
 </g>
 <defs>
  <clipPath id="p83675a6fc9">
   <rect x="36.457115" y="16.638052" width="241.099753" height="230.262958"/>
  </clipPath>
  <clipPath id="pbecff43b75">
   <rect x="337.305605" y="16.638052" width="241.099753" height="230.262958"/>
  </clipPath>
  <clipPath id="p97d1611162">
   <rect x="625.673998" y="16.638052" width="241.099753" height="230.262958"/>
  </clipPath>
  <clipPath id="p15d6fd36d1">
   <rect x="897.589231" y="16.638052" width="241.099753" height="230.262958"/>
  </clipPath>
  <clipPath id="p03aa004010">
   <rect x="1195.900007" y="16.638052" width="241.099753" height="230.262958"/>
  </clipPath>
 </defs>
</svg>
