<?xml version="1.0" encoding="utf-8" standalone="no"?>
<!DOCTYPE svg PUBLIC "-//W3C//DTD SVG 1.1//EN"
  "http://www.w3.org/Graphics/SVG/1.1/DTD/svg11.dtd">
<svg xmlns:xlink="http://www.w3.org/1999/xlink" width="1440pt" height="288pt" viewBox="0 0 1440 288" xmlns="http://www.w3.org/2000/svg" version="1.1">
 <metadata>
  <rdf:RDF xmlns:dc="http://purl.org/dc/elements/1.1/" xmlns:cc="http://creativecommons.org/ns#" xmlns:rdf="http://www.w3.org/1999/02/22-rdf-syntax-ns#">
   <cc:Work>
    <dc:type rdf:resource="http://purl.org/dc/dcmitype/StillImage"/>
    <dc:date>2024-08-27T19:41:25.756034</dc:date>
    <dc:format>image/svg+xml</dc:format>
    <dc:creator>
     <cc:Agent>
      <dc:title>Matplotlib v3.9.1, https://matplotlib.org/</dc:title>
     </cc:Agent>
    </dc:creator>
   </cc:Work>
  </rdf:RDF>
 </metadata>
 <defs>
  <style type="text/css">*{stroke-linejoin: round; stroke-linecap: butt}</style>
 </defs>
 <g id="figure_1">
  <g id="patch_1">
   <path d="M 0 288 
L 1440 288 
L 1440 0 
L 0 0 
z
" style="fill: #ffffff"/>
  </g>
  <g id="axes_1">
   <g id="patch_2">
    <path d="M 36.457115 246.90101 
L 277.556865 246.90101 
L 277.556865 16.638052 
L 36.457115 16.638052 
z
" style="fill: #ffffff"/>
   </g>
   <g id="patch_3">
    <path d="M 47.416195 246.90101 
L 49.674426 246.90101 
L 49.674426 246.531821 
L 47.416195 246.531821 
z
" clip-path="url(#pe87a786886)" style="fill: #1f77b4"/>
   </g>
   <g id="patch_4">
    <path d="M 49.92534 246.90101 
L 52.183571 246.90101 
L 52.183571 244.685878 
L 49.92534 244.685878 
z
" clip-path="url(#pe87a786886)" style="fill: #1f77b4"/>
   </g>
   <g id="patch_5">
    <path d="M 52.434486 246.90101 
L 54.692717 246.90101 
L 54.692717 242.839935 
L 52.434486 242.839935 
z
" clip-path="url(#pe87a786886)" style="fill: #1f77b4"/>
   </g>
   <g id="patch_6">
    <path d="M 54.943631 246.90101 
L 57.201863 246.90101 
L 57.201863 238.409671 
L 54.943631 238.409671 
z
" clip-path="url(#pe87a786886)" style="fill: #1f77b4"/>
   </g>
   <g id="patch_7">
    <path d="M 57.452777 246.90101 
L 59.711008 246.90101 
L 59.711008 229.918332 
L 57.452777 229.918332 
z
" clip-path="url(#pe87a786886)" style="fill: #1f77b4"/>
   </g>
   <g id="patch_8">
    <path d="M 59.961923 246.90101 
L 62.220154 246.90101 
L 62.220154 216.258353 
L 59.961923 216.258353 
z
" clip-path="url(#pe87a786886)" style="fill: #1f77b4"/>
   </g>
   <g id="patch_9">
    <path d="M 62.471068 246.90101 
L 64.7293 246.90101 
L 64.7293 187.09245 
L 62.471068 187.09245 
z
" clip-path="url(#pe87a786886)" style="fill: #1f77b4"/>
   </g>
   <g id="patch_10">
    <path d="M 64.980214 246.90101 
L 67.238445 246.90101 
L 67.238445 156.818981 
L 64.980214 156.818981 
z
" clip-path="url(#pe87a786886)" style="fill: #1f77b4"/>
   </g>
   <g id="patch_11">
    <path d="M 67.48936 246.90101 
L 69.747591 246.90101 
L 69.747591 110.301212 
L 67.48936 110.301212 
z
" clip-path="url(#pe87a786886)" style="fill: #1f77b4"/>
   </g>
   <g id="patch_12">
    <path d="M 69.998505 246.90101 
L 72.256736 246.90101 
L 72.256736 81.873686 
L 69.998505 81.873686 
z
" clip-path="url(#pe87a786886)" style="fill: #1f77b4"/>
   </g>
   <g id="patch_13">
    <path d="M 72.507651 246.90101 
L 74.765882 246.90101 
L 74.765882 51.969406 
L 72.507651 51.969406 
z
" clip-path="url(#pe87a786886)" style="fill: #1f77b4"/>
   </g>
   <g id="patch_14">
    <path d="M 75.016797 246.90101 
L 77.275028 246.90101 
L 77.275028 27.972144 
L 75.016797 27.972144 
z
" clip-path="url(#pe87a786886)" style="fill: #1f77b4"/>
   </g>
   <g id="patch_15">
    <path d="M 77.525942 246.90101 
L 79.784173 246.90101 
L 79.784173 27.602955 
L 77.525942 27.602955 
z
" clip-path="url(#pe87a786886)" style="fill: #1f77b4"/>
   </g>
   <g id="patch_16">
    <path d="M 80.035088 246.90101 
L 82.293319 246.90101 
L 82.293319 47.908331 
L 80.035088 47.908331 
z
" clip-path="url(#pe87a786886)" style="fill: #1f77b4"/>
   </g>
   <g id="patch_17">
    <path d="M 82.544234 246.90101 
L 84.802465 246.90101 
L 84.802465 75.597479 
L 82.544234 75.597479 
z
" clip-path="url(#pe87a786886)" style="fill: #1f77b4"/>
   </g>
   <g id="patch_18">
    <path d="M 85.053379 246.90101 
L 87.31161 246.90101 
L 87.31161 131.344964 
L 85.053379 131.344964 
z
" clip-path="url(#pe87a786886)" style="fill: #1f77b4"/>
   </g>
   <g id="patch_19">
    <path d="M 87.562525 246.90101 
L 89.820756 246.90101 
L 89.820756 162.35681 
L 87.562525 162.35681 
z
" clip-path="url(#pe87a786886)" style="fill: #1f77b4"/>
   </g>
   <g id="patch_20">
    <path d="M 90.071671 246.90101 
L 92.329902 246.90101 
L 92.329902 187.830827 
L 90.071671 187.830827 
z
" clip-path="url(#pe87a786886)" style="fill: #1f77b4"/>
   </g>
   <g id="patch_21">
    <path d="M 92.580816 246.90101 
L 94.839047 246.90101 
L 94.839047 218.104296 
L 92.580816 218.104296 
z
" clip-path="url(#pe87a786886)" style="fill: #1f77b4"/>
   </g>
   <g id="patch_22">
    <path d="M 95.089962 246.90101 
L 97.348193 246.90101 
L 97.348193 226.226446 
L 95.089962 226.226446 
z
" clip-path="url(#pe87a786886)" style="fill: #1f77b4"/>
   </g>
   <g id="patch_23">
    <path d="M 97.599108 246.90101 
L 99.857339 246.90101 
L 99.857339 237.671294 
L 97.599108 237.671294 
z
" clip-path="url(#pe87a786886)" style="fill: #1f77b4"/>
   </g>
   <g id="patch_24">
    <path d="M 100.108253 246.90101 
L 102.366484 246.90101 
L 102.366484 243.209124 
L 100.108253 243.209124 
z
" clip-path="url(#pe87a786886)" style="fill: #1f77b4"/>
   </g>
   <g id="patch_25">
    <path d="M 102.617399 246.90101 
L 104.87563 246.90101 
L 104.87563 243.947501 
L 102.617399 243.947501 
z
" clip-path="url(#pe87a786886)" style="fill: #1f77b4"/>
   </g>
   <g id="patch_26">
    <path d="M 105.126545 246.90101 
L 107.384776 246.90101 
L 107.384776 245.424255 
L 105.126545 245.424255 
z
" clip-path="url(#pe87a786886)" style="fill: #1f77b4"/>
   </g>
   <g id="patch_27">
    <path d="M 107.63569 246.90101 
L 109.893921 246.90101 
L 109.893921 246.162633 
L 107.63569 246.162633 
z
" clip-path="url(#pe87a786886)" style="fill: #1f77b4"/>
   </g>
   <g id="patch_28">
    <path d="M 110.144836 246.90101 
L 112.403067 246.90101 
L 112.403067 245.793444 
L 110.144836 245.793444 
z
" clip-path="url(#pe87a786886)" style="fill: #1f77b4"/>
   </g>
   <g id="patch_29">
    <path d="M 112.653981 246.90101 
L 114.912213 246.90101 
L 114.912213 246.90101 
L 112.653981 246.90101 
z
" clip-path="url(#pe87a786886)" style="fill: #1f77b4"/>
   </g>
   <g id="patch_30">
    <path d="M 115.163127 246.90101 
L 117.421358 246.90101 
L 117.421358 246.90101 
L 115.163127 246.90101 
z
" clip-path="url(#pe87a786886)" style="fill: #1f77b4"/>
   </g>
   <g id="patch_31">
    <path d="M 117.672273 246.90101 
L 119.930504 246.90101 
L 119.930504 246.90101 
L 117.672273 246.90101 
z
" clip-path="url(#pe87a786886)" style="fill: #1f77b4"/>
   </g>
   <g id="patch_32">
    <path d="M 120.181418 246.90101 
L 122.43965 246.90101 
L 122.43965 246.531821 
L 120.181418 246.531821 
z
" clip-path="url(#pe87a786886)" style="fill: #1f77b4"/>
   </g>
   <g id="matplotlib.axis_1">
    <g id="xtick_1">
     <g id="line2d_1">
      <defs>
       <path id="m0bec683254" d="M 0 0 
L 0 3.5 
" style="stroke: #000000; stroke-width: 0.8"/>
      </defs>
      <g>
       <use xlink:href="#m0bec683254" x="64.433026" y="246.90101" style="stroke: #000000; stroke-width: 0.8"/>
      </g>
     </g>
     <g id="text_1">
      <!-- 1.35 -->
      <g transform="translate(48.847088 264.538822) scale(0.14 -0.14)">
       <defs>
        <path id="DejaVuSans-31" d="M 794 531 
L 1825 531 
L 1825 4091 
L 703 3866 
L 703 4441 
L 1819 4666 
L 2450 4666 
L 2450 531 
L 3481 531 
L 3481 0 
L 794 0 
L 794 531 
z
" transform="scale(0.015625)"/>
        <path id="DejaVuSans-2e" d="M 684 794 
L 1344 794 
L 1344 0 
L 684 0 
L 684 794 
z
" transform="scale(0.015625)"/>
        <path id="DejaVuSans-33" d="M 2597 2516 
Q 3050 2419 3304 2112 
Q 3559 1806 3559 1356 
Q 3559 666 3084 287 
Q 2609 -91 1734 -91 
Q 1441 -91 1130 -33 
Q 819 25 488 141 
L 488 750 
Q 750 597 1062 519 
Q 1375 441 1716 441 
Q 2309 441 2620 675 
Q 2931 909 2931 1356 
Q 2931 1769 2642 2001 
Q 2353 2234 1838 2234 
L 1294 2234 
L 1294 2753 
L 1863 2753 
Q 2328 2753 2575 2939 
Q 2822 3125 2822 3475 
Q 2822 3834 2567 4026 
Q 2313 4219 1838 4219 
Q 1578 4219 1281 4162 
Q 984 4106 628 3988 
L 628 4550 
Q 988 4650 1302 4700 
Q 1616 4750 1894 4750 
Q 2613 4750 3031 4423 
Q 3450 4097 3450 3541 
Q 3450 3153 3228 2886 
Q 3006 2619 2597 2516 
z
" transform="scale(0.015625)"/>
        <path id="DejaVuSans-35" d="M 691 4666 
L 3169 4666 
L 3169 4134 
L 1269 4134 
L 1269 2991 
Q 1406 3038 1543 3061 
Q 1681 3084 1819 3084 
Q 2600 3084 3056 2656 
Q 3513 2228 3513 1497 
Q 3513 744 3044 326 
Q 2575 -91 1722 -91 
Q 1428 -91 1123 -41 
Q 819 9 494 109 
L 494 744 
Q 775 591 1075 516 
Q 1375 441 1709 441 
Q 2250 441 2565 725 
Q 2881 1009 2881 1497 
Q 2881 1984 2565 2268 
Q 2250 2553 1709 2553 
Q 1456 2553 1204 2497 
Q 953 2441 691 2322 
L 691 4666 
z
" transform="scale(0.015625)"/>
       </defs>
       <use xlink:href="#DejaVuSans-31"/>
       <use xlink:href="#DejaVuSans-2e" x="63.623047"/>
       <use xlink:href="#DejaVuSans-33" x="95.410156"/>
       <use xlink:href="#DejaVuSans-35" x="159.033203"/>
      </g>
     </g>
    </g>
    <g id="xtick_2">
     <g id="line2d_2">
      <g>
       <use xlink:href="#m0bec683254" x="115.484733" y="246.90101" style="stroke: #000000; stroke-width: 0.8"/>
      </g>
     </g>
     <g id="text_2">
      <!-- 1.40 -->
      <g transform="translate(99.898795 264.538822) scale(0.14 -0.14)">
       <defs>
        <path id="DejaVuSans-34" d="M 2419 4116 
L 825 1625 
L 2419 1625 
L 2419 4116 
z
M 2253 4666 
L 3047 4666 
L 3047 1625 
L 3713 1625 
L 3713 1100 
L 3047 1100 
L 3047 0 
L 2419 0 
L 2419 1100 
L 313 1100 
L 313 1709 
L 2253 4666 
z
" transform="scale(0.015625)"/>
        <path id="DejaVuSans-30" d="M 2034 4250 
Q 1547 4250 1301 3770 
Q 1056 3291 1056 2328 
Q 1056 1369 1301 889 
Q 1547 409 2034 409 
Q 2525 409 2770 889 
Q 3016 1369 3016 2328 
Q 3016 3291 2770 3770 
Q 2525 4250 2034 4250 
z
M 2034 4750 
Q 2819 4750 3233 4129 
Q 3647 3509 3647 2328 
Q 3647 1150 3233 529 
Q 2819 -91 2034 -91 
Q 1250 -91 836 529 
Q 422 1150 422 2328 
Q 422 3509 836 4129 
Q 1250 4750 2034 4750 
z
" transform="scale(0.015625)"/>
       </defs>
       <use xlink:href="#DejaVuSans-31"/>
       <use xlink:href="#DejaVuSans-2e" x="63.623047"/>
       <use xlink:href="#DejaVuSans-34" x="95.410156"/>
       <use xlink:href="#DejaVuSans-30" x="159.033203"/>
      </g>
     </g>
    </g>
    <g id="xtick_3">
     <g id="line2d_3">
      <g>
       <use xlink:href="#m0bec683254" x="166.53644" y="246.90101" style="stroke: #000000; stroke-width: 0.8"/>
      </g>
     </g>
     <g id="text_3">
      <!-- 1.45 -->
      <g transform="translate(150.950502 264.538822) scale(0.14 -0.14)">
       <use xlink:href="#DejaVuSans-31"/>
       <use xlink:href="#DejaVuSans-2e" x="63.623047"/>
       <use xlink:href="#DejaVuSans-34" x="95.410156"/>
       <use xlink:href="#DejaVuSans-35" x="159.033203"/>
      </g>
     </g>
    </g>
    <g id="xtick_4">
     <g id="line2d_4">
      <g>
       <use xlink:href="#m0bec683254" x="217.588147" y="246.90101" style="stroke: #000000; stroke-width: 0.8"/>
      </g>
     </g>
     <g id="text_4">
      <!-- 1.50 -->
      <g transform="translate(202.002209 264.538822) scale(0.14 -0.14)">
       <use xlink:href="#DejaVuSans-31"/>
       <use xlink:href="#DejaVuSans-2e" x="63.623047"/>
       <use xlink:href="#DejaVuSans-35" x="95.410156"/>
       <use xlink:href="#DejaVuSans-30" x="159.033203"/>
      </g>
     </g>
    </g>
    <g id="xtick_5">
     <g id="line2d_5">
      <g>
       <use xlink:href="#m0bec683254" x="268.639854" y="246.90101" style="stroke: #000000; stroke-width: 0.8"/>
      </g>
     </g>
     <g id="text_5">
      <!-- 1.55 -->
      <g transform="translate(253.053916 264.538822) scale(0.14 -0.14)">
       <use xlink:href="#DejaVuSans-31"/>
       <use xlink:href="#DejaVuSans-2e" x="63.623047"/>
       <use xlink:href="#DejaVuSans-35" x="95.410156"/>
       <use xlink:href="#DejaVuSans-35" x="159.033203"/>
      </g>
     </g>
    </g>
    <g id="text_6">
     <!-- $E_1$ [MPa] -->
     <g transform="translate(126.97699 282.088197) scale(0.14 -0.14)">
      <defs>
       <path id="DejaVuSans-Oblique-45" d="M 1081 4666 
L 4031 4666 
L 3928 4134 
L 1606 4134 
L 1338 2753 
L 3566 2753 
L 3463 2222 
L 1234 2222 
L 909 531 
L 3284 531 
L 3181 0 
L 172 0 
L 1081 4666 
z
" transform="scale(0.015625)"/>
       <path id="DejaVuSans-20" transform="scale(0.015625)"/>
       <path id="DejaVuSans-5b" d="M 550 4863 
L 1875 4863 
L 1875 4416 
L 1125 4416 
L 1125 -397 
L 1875 -397 
L 1875 -844 
L 550 -844 
L 550 4863 
z
" transform="scale(0.015625)"/>
       <path id="DejaVuSans-4d" d="M 628 4666 
L 1569 4666 
L 2759 1491 
L 3956 4666 
L 4897 4666 
L 4897 0 
L 4281 0 
L 4281 4097 
L 3078 897 
L 2444 897 
L 1241 4097 
L 1241 0 
L 628 0 
L 628 4666 
z
" transform="scale(0.015625)"/>
       <path id="DejaVuSans-50" d="M 1259 4147 
L 1259 2394 
L 2053 2394 
Q 2494 2394 2734 2622 
Q 2975 2850 2975 3272 
Q 2975 3691 2734 3919 
Q 2494 4147 2053 4147 
L 1259 4147 
z
M 628 4666 
L 2053 4666 
Q 2838 4666 3239 4311 
Q 3641 3956 3641 3272 
Q 3641 2581 3239 2228 
Q 2838 1875 2053 1875 
L 1259 1875 
L 1259 0 
L 628 0 
L 628 4666 
z
" transform="scale(0.015625)"/>
       <path id="DejaVuSans-61" d="M 2194 1759 
Q 1497 1759 1228 1600 
Q 959 1441 959 1056 
Q 959 750 1161 570 
Q 1363 391 1709 391 
Q 2188 391 2477 730 
Q 2766 1069 2766 1631 
L 2766 1759 
L 2194 1759 
z
M 3341 1997 
L 3341 0 
L 2766 0 
L 2766 531 
Q 2569 213 2275 61 
Q 1981 -91 1556 -91 
Q 1019 -91 701 211 
Q 384 513 384 1019 
Q 384 1609 779 1909 
Q 1175 2209 1959 2209 
L 2766 2209 
L 2766 2266 
Q 2766 2663 2505 2880 
Q 2244 3097 1772 3097 
Q 1472 3097 1187 3025 
Q 903 2953 641 2809 
L 641 3341 
Q 956 3463 1253 3523 
Q 1550 3584 1831 3584 
Q 2591 3584 2966 3190 
Q 3341 2797 3341 1997 
z
" transform="scale(0.015625)"/>
       <path id="DejaVuSans-5d" d="M 1947 4863 
L 1947 -844 
L 622 -844 
L 622 -397 
L 1369 -397 
L 1369 4416 
L 622 4416 
L 622 4863 
L 1947 4863 
z
" transform="scale(0.015625)"/>
      </defs>
      <use xlink:href="#DejaVuSans-Oblique-45" transform="translate(0 0.015625)"/>
      <use xlink:href="#DejaVuSans-31" transform="translate(63.183594 -16.390625) scale(0.7)"/>
      <use xlink:href="#DejaVuSans-20" transform="translate(110.454102 0.015625)"/>
      <use xlink:href="#DejaVuSans-5b" transform="translate(142.241211 0.015625)"/>
      <use xlink:href="#DejaVuSans-4d" transform="translate(181.254883 0.015625)"/>
      <use xlink:href="#DejaVuSans-50" transform="translate(267.53418 0.015625)"/>
      <use xlink:href="#DejaVuSans-61" transform="translate(327.836914 0.015625)"/>
      <use xlink:href="#DejaVuSans-5d" transform="translate(389.116211 0.015625)"/>
     </g>
    </g>
    <g id="text_7">
     <!-- 1e5 -->
     <g transform="translate(251.12749 281.088197) scale(0.14 -0.14)">
      <defs>
       <path id="DejaVuSans-65" d="M 3597 1894 
L 3597 1613 
L 953 1613 
Q 991 1019 1311 708 
Q 1631 397 2203 397 
Q 2534 397 2845 478 
Q 3156 559 3463 722 
L 3463 178 
Q 3153 47 2828 -22 
Q 2503 -91 2169 -91 
Q 1331 -91 842 396 
Q 353 884 353 1716 
Q 353 2575 817 3079 
Q 1281 3584 2069 3584 
Q 2775 3584 3186 3129 
Q 3597 2675 3597 1894 
z
M 3022 2063 
Q 3016 2534 2758 2815 
Q 2500 3097 2075 3097 
Q 1594 3097 1305 2825 
Q 1016 2553 972 2059 
L 3022 2063 
z
" transform="scale(0.015625)"/>
      </defs>
      <use xlink:href="#DejaVuSans-31"/>
      <use xlink:href="#DejaVuSans-65" x="63.623047"/>
      <use xlink:href="#DejaVuSans-35" x="125.146484"/>
     </g>
    </g>
   </g>
   <g id="matplotlib.axis_2">
    <g id="ytick_1">
     <g id="line2d_6">
      <defs>
       <path id="m251cee5ad3" d="M 0 0 
L -3.5 0 
" style="stroke: #000000; stroke-width: 0.8"/>
      </defs>
      <g>
       <use xlink:href="#m251cee5ad3" x="36.457115" y="246.90101" style="stroke: #000000; stroke-width: 0.8"/>
      </g>
     </g>
     <g id="text_8">
      <!-- 0 -->
      <g transform="translate(20.549615 252.219916) scale(0.14 -0.14)">
       <use xlink:href="#DejaVuSans-30"/>
      </g>
     </g>
    </g>
    <g id="ytick_2">
     <g id="line2d_7">
      <g>
       <use xlink:href="#m251cee5ad3" x="36.457115" y="201.537782" style="stroke: #000000; stroke-width: 0.8"/>
      </g>
     </g>
     <g id="text_9">
      <!-- 1 -->
      <g transform="translate(20.549615 206.856689) scale(0.14 -0.14)">
       <use xlink:href="#DejaVuSans-31"/>
      </g>
     </g>
    </g>
    <g id="ytick_3">
     <g id="line2d_8">
      <g>
       <use xlink:href="#m251cee5ad3" x="36.457115" y="156.174555" style="stroke: #000000; stroke-width: 0.8"/>
      </g>
     </g>
     <g id="text_10">
      <!-- 2 -->
      <g transform="translate(20.549615 161.493461) scale(0.14 -0.14)">
       <defs>
        <path id="DejaVuSans-32" d="M 1228 531 
L 3431 531 
L 3431 0 
L 469 0 
L 469 531 
Q 828 903 1448 1529 
Q 2069 2156 2228 2338 
Q 2531 2678 2651 2914 
Q 2772 3150 2772 3378 
Q 2772 3750 2511 3984 
Q 2250 4219 1831 4219 
Q 1534 4219 1204 4116 
Q 875 4013 500 3803 
L 500 4441 
Q 881 4594 1212 4672 
Q 1544 4750 1819 4750 
Q 2544 4750 2975 4387 
Q 3406 4025 3406 3419 
Q 3406 3131 3298 2873 
Q 3191 2616 2906 2266 
Q 2828 2175 2409 1742 
Q 1991 1309 1228 531 
z
" transform="scale(0.015625)"/>
       </defs>
       <use xlink:href="#DejaVuSans-32"/>
      </g>
     </g>
    </g>
    <g id="ytick_4">
     <g id="line2d_9">
      <g>
       <use xlink:href="#m251cee5ad3" x="36.457115" y="110.811327" style="stroke: #000000; stroke-width: 0.8"/>
      </g>
     </g>
     <g id="text_11">
      <!-- 3 -->
      <g transform="translate(20.549615 116.130233) scale(0.14 -0.14)">
       <use xlink:href="#DejaVuSans-33"/>
      </g>
     </g>
    </g>
    <g id="ytick_5">
     <g id="line2d_10">
      <g>
       <use xlink:href="#m251cee5ad3" x="36.457115" y="65.4481" style="stroke: #000000; stroke-width: 0.8"/>
      </g>
     </g>
     <g id="text_12">
      <!-- 4 -->
      <g transform="translate(20.549615 70.767006) scale(0.14 -0.14)">
       <use xlink:href="#DejaVuSans-34"/>
      </g>
     </g>
    </g>
    <g id="ytick_6">
     <g id="line2d_11">
      <g>
       <use xlink:href="#m251cee5ad3" x="36.457115" y="20.084872" style="stroke: #000000; stroke-width: 0.8"/>
      </g>
     </g>
     <g id="text_13">
      <!-- 5 -->
      <g transform="translate(20.549615 25.403778) scale(0.14 -0.14)">
       <use xlink:href="#DejaVuSans-35"/>
      </g>
     </g>
    </g>
    <g id="text_14">
     <!-- PDF -->
     <g transform="translate(13.638053 145.406406) rotate(-90) scale(0.14 -0.14)">
      <defs>
       <path id="DejaVuSans-44" d="M 1259 4147 
L 1259 519 
L 2022 519 
Q 2988 519 3436 956 
Q 3884 1394 3884 2338 
Q 3884 3275 3436 3711 
Q 2988 4147 2022 4147 
L 1259 4147 
z
M 628 4666 
L 1925 4666 
Q 3281 4666 3915 4102 
Q 4550 3538 4550 2338 
Q 4550 1131 3912 565 
Q 3275 0 1925 0 
L 628 0 
L 628 4666 
z
" transform="scale(0.015625)"/>
       <path id="DejaVuSans-46" d="M 628 4666 
L 3309 4666 
L 3309 4134 
L 1259 4134 
L 1259 2759 
L 3109 2759 
L 3109 2228 
L 1259 2228 
L 1259 0 
L 628 0 
L 628 4666 
z
" transform="scale(0.015625)"/>
      </defs>
      <use xlink:href="#DejaVuSans-50"/>
      <use xlink:href="#DejaVuSans-44" x="60.302734"/>
      <use xlink:href="#DejaVuSans-46" x="137.304688"/>
     </g>
    </g>
    <g id="text_15">
     <!-- 1e−4 -->
     <g transform="translate(36.457115 13.638052) scale(0.14 -0.14)">
      <defs>
       <path id="DejaVuSans-2212" d="M 678 2272 
L 4684 2272 
L 4684 1741 
L 678 1741 
L 678 2272 
z
" transform="scale(0.015625)"/>
      </defs>
      <use xlink:href="#DejaVuSans-31"/>
      <use xlink:href="#DejaVuSans-65" x="63.623047"/>
      <use xlink:href="#DejaVuSans-2212" x="125.146484"/>
      <use xlink:href="#DejaVuSans-34" x="208.935547"/>
     </g>
    </g>
   </g>
   <g id="line2d_12">
    <path d="M 144.073689 245.895795 
L 145.311306 245.697572 
L 146.548923 245.465541 
L 147.78654 245.195052 
L 149.024157 244.881027 
L 150.261774 244.517967 
L 151.499392 244.099959 
L 152.737009 243.620701 
L 153.974626 243.073526 
L 155.212243 242.451453 
L 156.44986 241.747241 
L 157.687477 240.953462 
L 158.925094 240.062591 
L 160.162711 239.067105 
L 161.400329 237.959607 
L 162.637946 236.732957 
L 163.875563 235.380419 
L 165.11318 233.895825 
L 166.350797 232.273747 
L 167.588414 230.509671 
L 168.826031 228.600189 
L 170.063649 226.543179 
L 171.301266 224.33799 
L 172.538883 221.985616 
L 173.7765 219.488861 
L 175.014117 216.852482 
L 176.251734 214.083312 
L 177.489351 211.190354 
L 178.726969 208.184845 
L 179.964586 205.080278 
L 181.202203 201.892387 
L 182.43982 198.639088 
L 183.677437 195.34037 
L 184.915054 192.018145 
L 186.152671 188.696042 
L 187.390289 185.399168 
L 188.627906 182.153811 
L 189.865523 178.987113 
L 191.10314 175.926712 
L 192.340757 173.000343 
L 193.578374 170.235434 
L 194.815991 167.658678 
L 196.053609 165.295612 
L 197.291226 163.170195 
L 198.528843 161.304404 
L 199.76646 159.717857 
L 201.004077 158.427473 
L 202.241694 157.447167 
L 203.479311 156.787603 
L 204.716928 156.455999 
L 205.954546 156.455999 
L 207.192163 156.787603 
L 208.42978 157.447167 
L 209.667397 158.427473 
L 210.905014 159.717857 
L 212.142631 161.304404 
L 213.380248 163.170195 
L 214.617866 165.295612 
L 215.855483 167.658678 
L 217.0931 170.235434 
L 218.330717 173.000343 
L 219.568334 175.926712 
L 220.805951 178.987113 
L 222.043568 182.153811 
L 223.281186 185.399168 
L 224.518803 188.696042 
L 225.75642 192.018145 
L 226.994037 195.34037 
L 228.231654 198.639088 
L 229.469271 201.892387 
L 230.706888 205.080278 
L 231.944506 208.184845 
L 233.182123 211.190354 
L 234.41974 214.083312 
L 235.657357 216.852482 
L 236.894974 219.488861 
L 238.132591 221.985616 
L 239.370208 224.33799 
L 240.607826 226.543179 
L 241.845443 228.600189 
L 243.08306 230.509671 
L 244.320677 232.273747 
L 245.558294 233.895825 
L 246.795911 235.380419 
L 248.033528 236.732957 
L 249.271145 237.959607 
L 250.508763 239.067105 
L 251.74638 240.062591 
L 252.983997 240.953462 
L 254.221614 241.747241 
L 255.459231 242.451453 
L 256.696848 243.073526 
L 257.934465 243.620701 
L 259.172083 244.099959 
L 260.4097 244.517967 
L 261.647317 244.881027 
L 262.884934 245.195052 
L 264.122551 245.465541 
L 265.360168 245.697572 
L 266.597785 245.895795 
" clip-path="url(#pe87a786886)" style="fill: none; stroke: #2ca02c; stroke-width: 1.5; stroke-linecap: square"/>
   </g>
   <g id="patch_33">
    <path d="M 36.457115 246.90101 
L 36.457115 16.638052 
" style="fill: none; stroke: #000000; stroke-width: 0.8; stroke-linejoin: miter; stroke-linecap: square"/>
   </g>
   <g id="patch_34">
    <path d="M 277.556865 246.90101 
L 277.556865 16.638052 
" style="fill: none; stroke: #000000; stroke-width: 0.8; stroke-linejoin: miter; stroke-linecap: square"/>
   </g>
   <g id="patch_35">
    <path d="M 36.457115 246.90101 
L 277.556865 246.90101 
" style="fill: none; stroke: #000000; stroke-width: 0.8; stroke-linejoin: miter; stroke-linecap: square"/>
   </g>
   <g id="patch_36">
    <path d="M 36.457115 16.638052 
L 277.556865 16.638052 
" style="fill: none; stroke: #000000; stroke-width: 0.8; stroke-linejoin: miter; stroke-linecap: square"/>
   </g>
   <g id="legend_1">
    <g id="patch_37">
     <path d="M 161.094365 68.936802 
L 267.756865 68.936802 
Q 270.556865 68.936802 270.556865 66.136802 
L 270.556865 26.438053 
Q 270.556865 23.638053 267.756865 23.638053 
L 161.094365 23.638053 
Q 158.294365 23.638053 158.294365 26.438053 
L 158.294365 66.136802 
Q 158.294365 68.936802 161.094365 68.936802 
z
" style="fill: #ffffff; opacity: 0.8; stroke: #cccccc; stroke-linejoin: miter"/>
    </g>
    <g id="line2d_13">
     <path d="M 163.894365 34.975865 
L 177.894365 34.975865 
L 191.894365 34.975865 
" style="fill: none; stroke: #2ca02c; stroke-width: 1.5; stroke-linecap: square"/>
    </g>
    <g id="text_16">
     <!-- Prior -->
     <g transform="translate(203.094365 39.875865) scale(0.14 -0.14)">
      <defs>
       <path id="DejaVuSans-72" d="M 2631 2963 
Q 2534 3019 2420 3045 
Q 2306 3072 2169 3072 
Q 1681 3072 1420 2755 
Q 1159 2438 1159 1844 
L 1159 0 
L 581 0 
L 581 3500 
L 1159 3500 
L 1159 2956 
Q 1341 3275 1631 3429 
Q 1922 3584 2338 3584 
Q 2397 3584 2469 3576 
Q 2541 3569 2628 3553 
L 2631 2963 
z
" transform="scale(0.015625)"/>
       <path id="DejaVuSans-69" d="M 603 3500 
L 1178 3500 
L 1178 0 
L 603 0 
L 603 3500 
z
M 603 4863 
L 1178 4863 
L 1178 4134 
L 603 4134 
L 603 4863 
z
" transform="scale(0.015625)"/>
       <path id="DejaVuSans-6f" d="M 1959 3097 
Q 1497 3097 1228 2736 
Q 959 2375 959 1747 
Q 959 1119 1226 758 
Q 1494 397 1959 397 
Q 2419 397 2687 759 
Q 2956 1122 2956 1747 
Q 2956 2369 2687 2733 
Q 2419 3097 1959 3097 
z
M 1959 3584 
Q 2709 3584 3137 3096 
Q 3566 2609 3566 1747 
Q 3566 888 3137 398 
Q 2709 -91 1959 -91 
Q 1206 -91 779 398 
Q 353 888 353 1747 
Q 353 2609 779 3096 
Q 1206 3584 1959 3584 
z
" transform="scale(0.015625)"/>
      </defs>
      <use xlink:href="#DejaVuSans-50"/>
      <use xlink:href="#DejaVuSans-72" x="58.552734"/>
      <use xlink:href="#DejaVuSans-69" x="99.666016"/>
      <use xlink:href="#DejaVuSans-6f" x="127.449219"/>
      <use xlink:href="#DejaVuSans-72" x="188.630859"/>
     </g>
    </g>
    <g id="patch_38">
     <path d="M 163.894365 60.42524 
L 191.894365 60.42524 
L 191.894365 50.62524 
L 163.894365 50.62524 
z
" style="fill: #1f77b4"/>
    </g>
    <g id="text_17">
     <!-- Posterior -->
     <g transform="translate(203.094365 60.42524) scale(0.14 -0.14)">
      <defs>
       <path id="DejaVuSans-73" d="M 2834 3397 
L 2834 2853 
Q 2591 2978 2328 3040 
Q 2066 3103 1784 3103 
Q 1356 3103 1142 2972 
Q 928 2841 928 2578 
Q 928 2378 1081 2264 
Q 1234 2150 1697 2047 
L 1894 2003 
Q 2506 1872 2764 1633 
Q 3022 1394 3022 966 
Q 3022 478 2636 193 
Q 2250 -91 1575 -91 
Q 1294 -91 989 -36 
Q 684 19 347 128 
L 347 722 
Q 666 556 975 473 
Q 1284 391 1588 391 
Q 1994 391 2212 530 
Q 2431 669 2431 922 
Q 2431 1156 2273 1281 
Q 2116 1406 1581 1522 
L 1381 1569 
Q 847 1681 609 1914 
Q 372 2147 372 2553 
Q 372 3047 722 3315 
Q 1072 3584 1716 3584 
Q 2034 3584 2315 3537 
Q 2597 3491 2834 3397 
z
" transform="scale(0.015625)"/>
       <path id="DejaVuSans-74" d="M 1172 4494 
L 1172 3500 
L 2356 3500 
L 2356 3053 
L 1172 3053 
L 1172 1153 
Q 1172 725 1289 603 
Q 1406 481 1766 481 
L 2356 481 
L 2356 0 
L 1766 0 
Q 1100 0 847 248 
Q 594 497 594 1153 
L 594 3053 
L 172 3053 
L 172 3500 
L 594 3500 
L 594 4494 
L 1172 4494 
z
" transform="scale(0.015625)"/>
      </defs>
      <use xlink:href="#DejaVuSans-50"/>
      <use xlink:href="#DejaVuSans-6f" x="56.677734"/>
      <use xlink:href="#DejaVuSans-73" x="117.859375"/>
      <use xlink:href="#DejaVuSans-74" x="169.958984"/>
      <use xlink:href="#DejaVuSans-65" x="209.167969"/>
      <use xlink:href="#DejaVuSans-72" x="270.691406"/>
      <use xlink:href="#DejaVuSans-69" x="311.804688"/>
      <use xlink:href="#DejaVuSans-6f" x="339.587891"/>
      <use xlink:href="#DejaVuSans-72" x="400.769531"/>
     </g>
    </g>
   </g>
  </g>
  <g id="axes_2">
   <g id="patch_39">
    <path d="M 337.305608 246.90101 
L 578.405358 246.90101 
L 578.405358 16.638052 
L 337.305608 16.638052 
z
" style="fill: #ffffff"/>
   </g>
   <g id="patch_40">
    <path d="M 348.264687 246.90101 
L 354.862127 246.90101 
L 354.862127 246.498602 
L 348.264687 246.498602 
z
" clip-path="url(#p018a4504f3)" style="fill: #1f77b4"/>
   </g>
   <g id="patch_41">
    <path d="M 355.595175 246.90101 
L 362.192615 246.90101 
L 362.192615 246.498602 
L 355.595175 246.498602 
z
" clip-path="url(#p018a4504f3)" style="fill: #1f77b4"/>
   </g>
   <g id="patch_42">
    <path d="M 362.925663 246.90101 
L 369.523102 246.90101 
L 369.523102 245.693787 
L 362.925663 245.693787 
z
" clip-path="url(#p018a4504f3)" style="fill: #1f77b4"/>
   </g>
   <g id="patch_43">
    <path d="M 370.256151 246.90101 
L 376.85359 246.90101 
L 376.85359 246.096195 
L 370.256151 246.096195 
z
" clip-path="url(#p018a4504f3)" style="fill: #1f77b4"/>
   </g>
   <g id="patch_44">
    <path d="M 377.586639 246.90101 
L 384.184078 246.90101 
L 384.184078 245.693787 
L 377.586639 245.693787 
z
" clip-path="url(#p018a4504f3)" style="fill: #1f77b4"/>
   </g>
   <g id="patch_45">
    <path d="M 384.917127 246.90101 
L 391.514566 246.90101 
L 391.514566 242.072117 
L 384.917127 242.072117 
z
" clip-path="url(#p018a4504f3)" style="fill: #1f77b4"/>
   </g>
   <g id="patch_46">
    <path d="M 392.247615 246.90101 
L 398.845054 246.90101 
L 398.845054 234.023962 
L 392.247615 234.023962 
z
" clip-path="url(#p018a4504f3)" style="fill: #1f77b4"/>
   </g>
   <g id="patch_47">
    <path d="M 399.578103 246.90101 
L 406.175542 246.90101 
L 406.175542 228.390254 
L 399.578103 228.390254 
z
" clip-path="url(#p018a4504f3)" style="fill: #1f77b4"/>
   </g>
   <g id="patch_48">
    <path d="M 406.908591 246.90101 
L 413.50603 246.90101 
L 413.50603 224.768584 
L 406.908591 224.768584 
z
" clip-path="url(#p018a4504f3)" style="fill: #1f77b4"/>
   </g>
   <g id="patch_49">
    <path d="M 414.239079 246.90101 
L 420.836518 246.90101 
L 420.836518 205.050605 
L 414.239079 205.050605 
z
" clip-path="url(#p018a4504f3)" style="fill: #1f77b4"/>
   </g>
   <g id="patch_50">
    <path d="M 421.569567 246.90101 
L 428.167006 246.90101 
L 428.167006 179.296509 
L 421.569567 179.296509 
z
" clip-path="url(#p018a4504f3)" style="fill: #1f77b4"/>
   </g>
   <g id="patch_51">
    <path d="M 428.900055 246.90101 
L 435.497494 246.90101 
L 435.497494 149.920744 
L 428.900055 149.920744 
z
" clip-path="url(#p018a4504f3)" style="fill: #1f77b4"/>
   </g>
   <g id="patch_52">
    <path d="M 436.230543 246.90101 
L 442.827982 246.90101 
L 442.827982 120.947387 
L 436.230543 120.947387 
z
" clip-path="url(#p018a4504f3)" style="fill: #1f77b4"/>
   </g>
   <g id="patch_53">
    <path d="M 443.561031 246.90101 
L 450.15847 246.90101 
L 450.15847 85.133098 
L 443.561031 85.133098 
z
" clip-path="url(#p018a4504f3)" style="fill: #1f77b4"/>
   </g>
   <g id="patch_54">
    <path d="M 450.891519 246.90101 
L 457.488958 246.90101 
L 457.488958 71.451235 
L 450.891519 71.451235 
z
" clip-path="url(#p018a4504f3)" style="fill: #1f77b4"/>
   </g>
   <g id="patch_55">
    <path d="M 458.222007 246.90101 
L 464.819446 246.90101 
L 464.819446 49.318809 
L 458.222007 49.318809 
z
" clip-path="url(#p018a4504f3)" style="fill: #1f77b4"/>
   </g>
   <g id="patch_56">
    <path d="M 465.552495 246.90101 
L 472.149934 246.90101 
L 472.149934 36.844169 
L 465.552495 36.844169 
z
" clip-path="url(#p018a4504f3)" style="fill: #1f77b4"/>
   </g>
   <g id="patch_57">
    <path d="M 472.882983 246.90101 
L 479.480422 246.90101 
L 479.480422 31.612868 
L 472.882983 31.612868 
z
" clip-path="url(#p018a4504f3)" style="fill: #1f77b4"/>
   </g>
   <g id="patch_58">
    <path d="M 480.213471 246.90101 
L 486.81091 246.90101 
L 486.81091 58.574187 
L 480.213471 58.574187 
z
" clip-path="url(#p018a4504f3)" style="fill: #1f77b4"/>
   </g>
   <g id="patch_59">
    <path d="M 487.543959 246.90101 
L 494.141398 246.90101 
L 494.141398 110.887193 
L 487.543959 110.887193 
z
" clip-path="url(#p018a4504f3)" style="fill: #1f77b4"/>
   </g>
   <g id="patch_60">
    <path d="M 494.874447 246.90101 
L 501.471886 246.90101 
L 501.471886 139.055735 
L 494.874447 139.055735 
z
" clip-path="url(#p018a4504f3)" style="fill: #1f77b4"/>
   </g>
   <g id="patch_61">
    <path d="M 502.204935 246.90101 
L 508.802374 246.90101 
L 508.802374 156.761676 
L 502.204935 156.761676 
z
" clip-path="url(#p018a4504f3)" style="fill: #1f77b4"/>
   </g>
   <g id="patch_62">
    <path d="M 509.535423 246.90101 
L 516.132862 246.90101 
L 516.132862 194.588004 
L 509.535423 194.588004 
z
" clip-path="url(#p018a4504f3)" style="fill: #1f77b4"/>
   </g>
   <g id="patch_63">
    <path d="M 516.865911 246.90101 
L 523.46335 246.90101 
L 523.46335 208.672275 
L 516.865911 208.672275 
z
" clip-path="url(#p018a4504f3)" style="fill: #1f77b4"/>
   </g>
   <g id="patch_64">
    <path d="M 524.196399 246.90101 
L 530.793838 246.90101 
L 530.793838 224.768584 
L 524.196399 224.768584 
z
" clip-path="url(#p018a4504f3)" style="fill: #1f77b4"/>
   </g>
   <g id="patch_65">
    <path d="M 531.526887 246.90101 
L 538.124326 246.90101 
L 538.124326 236.840816 
L 531.526887 236.840816 
z
" clip-path="url(#p018a4504f3)" style="fill: #1f77b4"/>
   </g>
   <g id="patch_66">
    <path d="M 538.857375 246.90101 
L 545.454814 246.90101 
L 545.454814 241.267302 
L 538.857375 241.267302 
z
" clip-path="url(#p018a4504f3)" style="fill: #1f77b4"/>
   </g>
   <g id="patch_67">
    <path d="M 546.187863 246.90101 
L 552.785302 246.90101 
L 552.785302 243.27934 
L 546.187863 243.27934 
z
" clip-path="url(#p018a4504f3)" style="fill: #1f77b4"/>
   </g>
   <g id="patch_68">
    <path d="M 553.518351 246.90101 
L 560.11579 246.90101 
L 560.11579 245.693787 
L 553.518351 245.693787 
z
" clip-path="url(#p018a4504f3)" style="fill: #1f77b4"/>
   </g>
   <g id="patch_69">
    <path d="M 560.848839 246.90101 
L 567.446278 246.90101 
L 567.446278 245.291379 
L 560.848839 245.291379 
z
" clip-path="url(#p018a4504f3)" style="fill: #1f77b4"/>
   </g>
   <g id="matplotlib.axis_3">
    <g id="xtick_6">
     <g id="line2d_14">
      <g>
       <use xlink:href="#m0bec683254" x="362.490278" y="246.90101" style="stroke: #000000; stroke-width: 0.8"/>
      </g>
     </g>
     <g id="text_18">
      <!-- 8800 -->
      <g transform="translate(344.675278 264.538822) scale(0.14 -0.14)">
       <defs>
        <path id="DejaVuSans-38" d="M 2034 2216 
Q 1584 2216 1326 1975 
Q 1069 1734 1069 1313 
Q 1069 891 1326 650 
Q 1584 409 2034 409 
Q 2484 409 2743 651 
Q 3003 894 3003 1313 
Q 3003 1734 2745 1975 
Q 2488 2216 2034 2216 
z
M 1403 2484 
Q 997 2584 770 2862 
Q 544 3141 544 3541 
Q 544 4100 942 4425 
Q 1341 4750 2034 4750 
Q 2731 4750 3128 4425 
Q 3525 4100 3525 3541 
Q 3525 3141 3298 2862 
Q 3072 2584 2669 2484 
Q 3125 2378 3379 2068 
Q 3634 1759 3634 1313 
Q 3634 634 3220 271 
Q 2806 -91 2034 -91 
Q 1263 -91 848 271 
Q 434 634 434 1313 
Q 434 1759 690 2068 
Q 947 2378 1403 2484 
z
M 1172 3481 
Q 1172 3119 1398 2916 
Q 1625 2713 2034 2713 
Q 2441 2713 2670 2916 
Q 2900 3119 2900 3481 
Q 2900 3844 2670 4047 
Q 2441 4250 2034 4250 
Q 1625 4250 1398 4047 
Q 1172 3844 1172 3481 
z
" transform="scale(0.015625)"/>
       </defs>
       <use xlink:href="#DejaVuSans-38"/>
       <use xlink:href="#DejaVuSans-38" x="63.623047"/>
       <use xlink:href="#DejaVuSans-30" x="127.246094"/>
       <use xlink:href="#DejaVuSans-30" x="190.869141"/>
      </g>
     </g>
    </g>
    <g id="xtick_7">
     <g id="line2d_15">
      <g>
       <use xlink:href="#m0bec683254" x="416.12859" y="246.90101" style="stroke: #000000; stroke-width: 0.8"/>
      </g>
     </g>
     <g id="text_19">
      <!-- 9000 -->
      <g transform="translate(398.31359 264.538822) scale(0.14 -0.14)">
       <defs>
        <path id="DejaVuSans-39" d="M 703 97 
L 703 672 
Q 941 559 1184 500 
Q 1428 441 1663 441 
Q 2288 441 2617 861 
Q 2947 1281 2994 2138 
Q 2813 1869 2534 1725 
Q 2256 1581 1919 1581 
Q 1219 1581 811 2004 
Q 403 2428 403 3163 
Q 403 3881 828 4315 
Q 1253 4750 1959 4750 
Q 2769 4750 3195 4129 
Q 3622 3509 3622 2328 
Q 3622 1225 3098 567 
Q 2575 -91 1691 -91 
Q 1453 -91 1209 -44 
Q 966 3 703 97 
z
M 1959 2075 
Q 2384 2075 2632 2365 
Q 2881 2656 2881 3163 
Q 2881 3666 2632 3958 
Q 2384 4250 1959 4250 
Q 1534 4250 1286 3958 
Q 1038 3666 1038 3163 
Q 1038 2656 1286 2365 
Q 1534 2075 1959 2075 
z
" transform="scale(0.015625)"/>
       </defs>
       <use xlink:href="#DejaVuSans-39"/>
       <use xlink:href="#DejaVuSans-30" x="63.623047"/>
       <use xlink:href="#DejaVuSans-30" x="127.246094"/>
       <use xlink:href="#DejaVuSans-30" x="190.869141"/>
      </g>
     </g>
    </g>
    <g id="xtick_8">
     <g id="line2d_16">
      <g>
       <use xlink:href="#m0bec683254" x="469.766902" y="246.90101" style="stroke: #000000; stroke-width: 0.8"/>
      </g>
     </g>
     <g id="text_20">
      <!-- 9200 -->
      <g transform="translate(451.951902 264.538822) scale(0.14 -0.14)">
       <use xlink:href="#DejaVuSans-39"/>
       <use xlink:href="#DejaVuSans-32" x="63.623047"/>
       <use xlink:href="#DejaVuSans-30" x="127.246094"/>
       <use xlink:href="#DejaVuSans-30" x="190.869141"/>
      </g>
     </g>
    </g>
    <g id="xtick_9">
     <g id="line2d_17">
      <g>
       <use xlink:href="#m0bec683254" x="523.405214" y="246.90101" style="stroke: #000000; stroke-width: 0.8"/>
      </g>
     </g>
     <g id="text_21">
      <!-- 9400 -->
      <g transform="translate(505.590214 264.538822) scale(0.14 -0.14)">
       <use xlink:href="#DejaVuSans-39"/>
       <use xlink:href="#DejaVuSans-34" x="63.623047"/>
       <use xlink:href="#DejaVuSans-30" x="127.246094"/>
       <use xlink:href="#DejaVuSans-30" x="190.869141"/>
      </g>
     </g>
    </g>
    <g id="xtick_10">
     <g id="line2d_18">
      <g>
       <use xlink:href="#m0bec683254" x="577.043525" y="246.90101" style="stroke: #000000; stroke-width: 0.8"/>
      </g>
     </g>
     <g id="text_22">
      <!-- 9600 -->
      <g transform="translate(559.228525 264.538822) scale(0.14 -0.14)">
       <defs>
        <path id="DejaVuSans-36" d="M 2113 2584 
Q 1688 2584 1439 2293 
Q 1191 2003 1191 1497 
Q 1191 994 1439 701 
Q 1688 409 2113 409 
Q 2538 409 2786 701 
Q 3034 994 3034 1497 
Q 3034 2003 2786 2293 
Q 2538 2584 2113 2584 
z
M 3366 4563 
L 3366 3988 
Q 3128 4100 2886 4159 
Q 2644 4219 2406 4219 
Q 1781 4219 1451 3797 
Q 1122 3375 1075 2522 
Q 1259 2794 1537 2939 
Q 1816 3084 2150 3084 
Q 2853 3084 3261 2657 
Q 3669 2231 3669 1497 
Q 3669 778 3244 343 
Q 2819 -91 2113 -91 
Q 1303 -91 875 529 
Q 447 1150 447 2328 
Q 447 3434 972 4092 
Q 1497 4750 2381 4750 
Q 2619 4750 2861 4703 
Q 3103 4656 3366 4563 
z
" transform="scale(0.015625)"/>
       </defs>
       <use xlink:href="#DejaVuSans-39"/>
       <use xlink:href="#DejaVuSans-36" x="63.623047"/>
       <use xlink:href="#DejaVuSans-30" x="127.246094"/>
       <use xlink:href="#DejaVuSans-30" x="190.869141"/>
      </g>
     </g>
    </g>
    <g id="text_23">
     <!-- $E_2$ [MPa] -->
     <g transform="translate(427.825483 282.088197) scale(0.14 -0.14)">
      <use xlink:href="#DejaVuSans-Oblique-45" transform="translate(0 0.015625)"/>
      <use xlink:href="#DejaVuSans-32" transform="translate(63.183594 -16.390625) scale(0.7)"/>
      <use xlink:href="#DejaVuSans-20" transform="translate(110.454102 0.015625)"/>
      <use xlink:href="#DejaVuSans-5b" transform="translate(142.241211 0.015625)"/>
      <use xlink:href="#DejaVuSans-4d" transform="translate(181.254883 0.015625)"/>
      <use xlink:href="#DejaVuSans-50" transform="translate(267.53418 0.015625)"/>
      <use xlink:href="#DejaVuSans-61" transform="translate(327.836914 0.015625)"/>
      <use xlink:href="#DejaVuSans-5d" transform="translate(389.116211 0.015625)"/>
     </g>
    </g>
   </g>
   <g id="matplotlib.axis_4">
    <g id="ytick_7">
     <g id="line2d_19">
      <g>
       <use xlink:href="#m251cee5ad3" x="337.305608" y="246.90101" style="stroke: #000000; stroke-width: 0.8"/>
      </g>
     </g>
     <g id="text_24">
      <!-- 0.000 -->
      <g transform="translate(290.226233 252.219916) scale(0.14 -0.14)">
       <use xlink:href="#DejaVuSans-30"/>
       <use xlink:href="#DejaVuSans-2e" x="63.623047"/>
       <use xlink:href="#DejaVuSans-30" x="95.410156"/>
       <use xlink:href="#DejaVuSans-30" x="159.033203"/>
       <use xlink:href="#DejaVuSans-30" x="222.65625"/>
      </g>
     </g>
    </g>
    <g id="ytick_8">
     <g id="line2d_20">
      <g>
       <use xlink:href="#m251cee5ad3" x="337.305608" y="191.905895" style="stroke: #000000; stroke-width: 0.8"/>
      </g>
     </g>
     <g id="text_25">
      <!-- 0.001 -->
      <g transform="translate(290.226233 197.224801) scale(0.14 -0.14)">
       <use xlink:href="#DejaVuSans-30"/>
       <use xlink:href="#DejaVuSans-2e" x="63.623047"/>
       <use xlink:href="#DejaVuSans-30" x="95.410156"/>
       <use xlink:href="#DejaVuSans-30" x="159.033203"/>
       <use xlink:href="#DejaVuSans-31" x="222.65625"/>
      </g>
     </g>
    </g>
    <g id="ytick_9">
     <g id="line2d_21">
      <g>
       <use xlink:href="#m251cee5ad3" x="337.305608" y="136.91078" style="stroke: #000000; stroke-width: 0.8"/>
      </g>
     </g>
     <g id="text_26">
      <!-- 0.002 -->
      <g transform="translate(290.226233 142.229686) scale(0.14 -0.14)">
       <use xlink:href="#DejaVuSans-30"/>
       <use xlink:href="#DejaVuSans-2e" x="63.623047"/>
       <use xlink:href="#DejaVuSans-30" x="95.410156"/>
       <use xlink:href="#DejaVuSans-30" x="159.033203"/>
       <use xlink:href="#DejaVuSans-32" x="222.65625"/>
      </g>
     </g>
    </g>
    <g id="ytick_10">
     <g id="line2d_22">
      <g>
       <use xlink:href="#m251cee5ad3" x="337.305608" y="81.915665" style="stroke: #000000; stroke-width: 0.8"/>
      </g>
     </g>
     <g id="text_27">
      <!-- 0.003 -->
      <g transform="translate(290.226233 87.234571) scale(0.14 -0.14)">
       <use xlink:href="#DejaVuSans-30"/>
       <use xlink:href="#DejaVuSans-2e" x="63.623047"/>
       <use xlink:href="#DejaVuSans-30" x="95.410156"/>
       <use xlink:href="#DejaVuSans-30" x="159.033203"/>
       <use xlink:href="#DejaVuSans-33" x="222.65625"/>
      </g>
     </g>
    </g>
    <g id="ytick_11">
     <g id="line2d_23">
      <g>
       <use xlink:href="#m251cee5ad3" x="337.305608" y="26.92055" style="stroke: #000000; stroke-width: 0.8"/>
      </g>
     </g>
     <g id="text_28">
      <!-- 0.004 -->
      <g transform="translate(290.226233 32.239456) scale(0.14 -0.14)">
       <use xlink:href="#DejaVuSans-30"/>
       <use xlink:href="#DejaVuSans-2e" x="63.623047"/>
       <use xlink:href="#DejaVuSans-30" x="95.410156"/>
       <use xlink:href="#DejaVuSans-30" x="159.033203"/>
       <use xlink:href="#DejaVuSans-34" x="222.65625"/>
      </g>
     </g>
    </g>
   </g>
   <g id="line2d_24">
    <path d="M 386.627519 244.46371 
L 388.252922 243.983086 
L 389.878325 243.420492 
L 391.503729 242.764648 
L 393.129132 242.003245 
L 394.754536 241.122949 
L 396.379939 240.109425 
L 398.005342 238.947388 
L 399.630746 237.620678 
L 401.256149 236.112365 
L 402.881553 234.404892 
L 404.506956 232.480252 
L 406.132359 230.320195 
L 407.757763 227.906485 
L 409.383166 225.221183 
L 411.008569 222.246977 
L 412.633973 218.967537 
L 414.259376 215.367908 
L 415.88478 211.434926 
L 417.510183 207.157649 
L 419.135586 202.527812 
L 420.76099 197.540269 
L 422.386393 192.193443 
L 424.011797 186.489745 
L 425.6372 180.435973 
L 427.262603 174.043661 
L 428.888007 167.329375 
L 430.51341 160.314948 
L 432.138813 153.027622 
L 433.764217 145.500114 
L 435.38962 137.770575 
L 437.015024 129.882443 
L 438.640427 121.884187 
L 440.26583 113.828932 
L 441.891234 105.773976 
L 443.516637 97.780189 
L 445.142041 89.911313 
L 446.767444 82.233161 
L 448.392847 74.81274 
L 450.018251 67.717302 
L 451.643654 61.013347 
L 453.269058 54.765601 
L 454.894461 49.035979 
L 456.519864 43.882573 
L 458.145268 39.35867 
L 459.770671 35.511841 
L 461.396074 32.383103 
L 463.021478 30.006197 
L 464.646881 28.40698 
L 466.272285 27.602955 
L 467.897688 27.602955 
L 469.523091 28.40698 
L 471.148495 30.006197 
L 472.773898 32.383103 
L 474.399302 35.511841 
L 476.024705 39.35867 
L 477.650108 43.882573 
L 479.275512 49.035979 
L 480.900915 54.765601 
L 482.526318 61.013347 
L 484.151722 67.717302 
L 485.777125 74.81274 
L 487.402529 82.233161 
L 489.027932 89.911313 
L 490.653335 97.780189 
L 492.278739 105.773976 
L 493.904142 113.828932 
L 495.529546 121.884187 
L 497.154949 129.882443 
L 498.780352 137.770575 
L 500.405756 145.500114 
L 502.031159 153.027622 
L 503.656562 160.314948 
L 505.281966 167.329375 
L 506.907369 174.043661 
L 508.532773 180.435973 
L 510.158176 186.489745 
L 511.783579 192.193443 
L 513.408983 197.540269 
L 515.034386 202.527812 
L 516.65979 207.157649 
L 518.285193 211.434926 
L 519.910596 215.367908 
L 521.536 218.967537 
L 523.161403 222.246977 
L 524.786806 225.221183 
L 526.41221 227.906485 
L 528.037613 230.320195 
L 529.663017 232.480252 
L 531.28842 234.404892 
L 532.913823 236.112365 
L 534.539227 237.620678 
L 536.16463 238.947388 
L 537.790034 240.109425 
L 539.415437 241.122949 
L 541.04084 242.003245 
L 542.666244 242.764648 
L 544.291647 243.420492 
L 545.91705 243.983086 
L 547.542454 244.46371 
" clip-path="url(#p018a4504f3)" style="fill: none; stroke: #2ca02c; stroke-width: 1.5; stroke-linecap: square"/>
   </g>
   <g id="patch_70">
    <path d="M 337.305608 246.90101 
L 337.305608 16.638052 
" style="fill: none; stroke: #000000; stroke-width: 0.8; stroke-linejoin: miter; stroke-linecap: square"/>
   </g>
   <g id="patch_71">
    <path d="M 578.405358 246.90101 
L 578.405358 16.638052 
" style="fill: none; stroke: #000000; stroke-width: 0.8; stroke-linejoin: miter; stroke-linecap: square"/>
   </g>
   <g id="patch_72">
    <path d="M 337.305608 246.90101 
L 578.405358 246.90101 
" style="fill: none; stroke: #000000; stroke-width: 0.8; stroke-linejoin: miter; stroke-linecap: square"/>
   </g>
   <g id="patch_73">
    <path d="M 337.305608 16.638052 
L 578.405358 16.638052 
" style="fill: none; stroke: #000000; stroke-width: 0.8; stroke-linejoin: miter; stroke-linecap: square"/>
   </g>
  </g>
  <g id="axes_3">
   <g id="patch_74">
    <path d="M 625.673999 246.90101 
L 866.773749 246.90101 
L 866.773749 16.638052 
L 625.673999 16.638052 
z
" style="fill: #ffffff"/>
   </g>
   <g id="patch_75">
    <path d="M 636.633079 246.90101 
L 643.230518 246.90101 
L 643.230518 245.617614 
L 636.633079 245.617614 
z
" clip-path="url(#paadaf91b10)" style="fill: #1f77b4"/>
   </g>
   <g id="patch_76">
    <path d="M 643.963567 246.90101 
L 650.561006 246.90101 
L 650.561006 245.617614 
L 643.963567 245.617614 
z
" clip-path="url(#paadaf91b10)" style="fill: #1f77b4"/>
   </g>
   <g id="patch_77">
    <path d="M 651.294055 246.90101 
L 657.891494 246.90101 
L 657.891494 245.296765 
L 651.294055 245.296765 
z
" clip-path="url(#paadaf91b10)" style="fill: #1f77b4"/>
   </g>
   <g id="patch_78">
    <path d="M 658.624543 246.90101 
L 665.221982 246.90101 
L 665.221982 246.580161 
L 658.624543 246.580161 
z
" clip-path="url(#paadaf91b10)" style="fill: #1f77b4"/>
   </g>
   <g id="patch_79">
    <path d="M 665.955031 246.90101 
L 672.55247 246.90101 
L 672.55247 243.371672 
L 665.955031 243.371672 
z
" clip-path="url(#paadaf91b10)" style="fill: #1f77b4"/>
   </g>
   <g id="patch_80">
    <path d="M 673.285519 246.90101 
L 679.882958 246.90101 
L 679.882958 241.125729 
L 673.285519 241.125729 
z
" clip-path="url(#paadaf91b10)" style="fill: #1f77b4"/>
   </g>
   <g id="patch_81">
    <path d="M 680.616007 246.90101 
L 687.213446 246.90101 
L 687.213446 238.558938 
L 680.616007 238.558938 
z
" clip-path="url(#paadaf91b10)" style="fill: #1f77b4"/>
   </g>
   <g id="patch_82">
    <path d="M 687.946495 246.90101 
L 694.543934 246.90101 
L 694.543934 227.970924 
L 687.946495 227.970924 
z
" clip-path="url(#paadaf91b10)" style="fill: #1f77b4"/>
   </g>
   <g id="patch_83">
    <path d="M 695.276983 246.90101 
L 701.874422 246.90101 
L 701.874422 221.233096 
L 695.276983 221.233096 
z
" clip-path="url(#paadaf91b10)" style="fill: #1f77b4"/>
   </g>
   <g id="patch_84">
    <path d="M 702.607471 246.90101 
L 709.20491 246.90101 
L 709.20491 216.099513 
L 702.607471 216.099513 
z
" clip-path="url(#paadaf91b10)" style="fill: #1f77b4"/>
   </g>
   <g id="patch_85">
    <path d="M 709.937959 246.90101 
L 716.535398 246.90101 
L 716.535398 192.356693 
L 709.937959 192.356693 
z
" clip-path="url(#paadaf91b10)" style="fill: #1f77b4"/>
   </g>
   <g id="patch_86">
    <path d="M 717.268447 246.90101 
L 723.865886 246.90101 
L 723.865886 173.747456 
L 717.268447 173.747456 
z
" clip-path="url(#paadaf91b10)" style="fill: #1f77b4"/>
   </g>
   <g id="patch_87">
    <path d="M 724.598935 246.90101 
L 731.196374 246.90101 
L 731.196374 151.288031 
L 724.598935 151.288031 
z
" clip-path="url(#paadaf91b10)" style="fill: #1f77b4"/>
   </g>
   <g id="patch_88">
    <path d="M 731.929423 246.90101 
L 738.526862 246.90101 
L 738.526862 104.444088 
L 731.929423 104.444088 
z
" clip-path="url(#paadaf91b10)" style="fill: #1f77b4"/>
   </g>
   <g id="patch_89">
    <path d="M 739.259911 246.90101 
L 745.85735 246.90101 
L 745.85735 88.722491 
L 739.259911 88.722491 
z
" clip-path="url(#paadaf91b10)" style="fill: #1f77b4"/>
   </g>
   <g id="patch_90">
    <path d="M 746.590399 246.90101 
L 753.187838 246.90101 
L 753.187838 81.663815 
L 746.590399 81.663815 
z
" clip-path="url(#paadaf91b10)" style="fill: #1f77b4"/>
   </g>
   <g id="patch_91">
    <path d="M 753.920887 246.90101 
L 760.518326 246.90101 
L 760.518326 69.471555 
L 753.920887 69.471555 
z
" clip-path="url(#paadaf91b10)" style="fill: #1f77b4"/>
   </g>
   <g id="patch_92">
    <path d="M 761.251375 246.90101 
L 767.848814 246.90101 
L 767.848814 85.193153 
L 761.251375 85.193153 
z
" clip-path="url(#paadaf91b10)" style="fill: #1f77b4"/>
   </g>
   <g id="patch_93">
    <path d="M 768.581863 246.90101 
L 775.179302 246.90101 
L 775.179302 110.540218 
L 768.581863 110.540218 
z
" clip-path="url(#paadaf91b10)" style="fill: #1f77b4"/>
   </g>
   <g id="patch_94">
    <path d="M 775.912351 246.90101 
L 782.50979 246.90101 
L 782.50979 135.245585 
L 775.912351 135.245585 
z
" clip-path="url(#paadaf91b10)" style="fill: #1f77b4"/>
   </g>
   <g id="patch_95">
    <path d="M 783.242839 246.90101 
L 789.840278 246.90101 
L 789.840278 160.271801 
L 783.242839 160.271801 
z
" clip-path="url(#paadaf91b10)" style="fill: #1f77b4"/>
   </g>
   <g id="patch_96">
    <path d="M 790.573327 246.90101 
L 797.170766 246.90101 
L 797.170766 193.960938 
L 790.573327 193.960938 
z
" clip-path="url(#paadaf91b10)" style="fill: #1f77b4"/>
   </g>
   <g id="patch_97">
    <path d="M 797.903815 246.90101 
L 804.501254 246.90101 
L 804.501254 207.115744 
L 797.903815 207.115744 
z
" clip-path="url(#paadaf91b10)" style="fill: #1f77b4"/>
   </g>
   <g id="patch_98">
    <path d="M 805.234303 246.90101 
L 811.831742 246.90101 
L 811.831742 223.479039 
L 805.234303 223.479039 
z
" clip-path="url(#paadaf91b10)" style="fill: #1f77b4"/>
   </g>
   <g id="patch_99">
    <path d="M 812.564791 246.90101 
L 819.16223 246.90101 
L 819.16223 234.387902 
L 812.564791 234.387902 
z
" clip-path="url(#paadaf91b10)" style="fill: #1f77b4"/>
   </g>
   <g id="patch_100">
    <path d="M 819.895279 246.90101 
L 826.492718 246.90101 
L 826.492718 240.163183 
L 819.895279 240.163183 
z
" clip-path="url(#paadaf91b10)" style="fill: #1f77b4"/>
   </g>
   <g id="patch_101">
    <path d="M 827.225767 246.90101 
L 833.823206 246.90101 
L 833.823206 241.446578 
L 827.225767 241.446578 
z
" clip-path="url(#paadaf91b10)" style="fill: #1f77b4"/>
   </g>
   <g id="patch_102">
    <path d="M 834.556255 246.90101 
L 841.153694 246.90101 
L 841.153694 245.938463 
L 834.556255 245.938463 
z
" clip-path="url(#paadaf91b10)" style="fill: #1f77b4"/>
   </g>
   <g id="patch_103">
    <path d="M 841.886743 246.90101 
L 848.484182 246.90101 
L 848.484182 245.296765 
L 841.886743 245.296765 
z
" clip-path="url(#paadaf91b10)" style="fill: #1f77b4"/>
   </g>
   <g id="patch_104">
    <path d="M 849.217231 246.90101 
L 855.81467 246.90101 
L 855.81467 246.580161 
L 849.217231 246.580161 
z
" clip-path="url(#paadaf91b10)" style="fill: #1f77b4"/>
   </g>
   <g id="matplotlib.axis_5">
    <g id="xtick_11">
     <g id="line2d_25">
      <g>
       <use xlink:href="#m0bec683254" x="661.330553" y="246.90101" style="stroke: #000000; stroke-width: 0.8"/>
      </g>
     </g>
     <g id="text_29">
      <!-- 0.300 -->
      <g transform="translate(641.290866 264.538822) scale(0.14 -0.14)">
       <use xlink:href="#DejaVuSans-30"/>
       <use xlink:href="#DejaVuSans-2e" x="63.623047"/>
       <use xlink:href="#DejaVuSans-33" x="95.410156"/>
       <use xlink:href="#DejaVuSans-30" x="159.033203"/>
       <use xlink:href="#DejaVuSans-30" x="222.65625"/>
      </g>
     </g>
    </g>
    <g id="xtick_12">
     <g id="line2d_26">
      <g>
       <use xlink:href="#m0bec683254" x="714.789374" y="246.90101" style="stroke: #000000; stroke-width: 0.8"/>
      </g>
     </g>
     <g id="text_30">
      <!-- 0.325 -->
      <g transform="translate(694.749686 264.538822) scale(0.14 -0.14)">
       <use xlink:href="#DejaVuSans-30"/>
       <use xlink:href="#DejaVuSans-2e" x="63.623047"/>
       <use xlink:href="#DejaVuSans-33" x="95.410156"/>
       <use xlink:href="#DejaVuSans-32" x="159.033203"/>
       <use xlink:href="#DejaVuSans-35" x="222.65625"/>
      </g>
     </g>
    </g>
    <g id="xtick_13">
     <g id="line2d_27">
      <g>
       <use xlink:href="#m0bec683254" x="768.248194" y="246.90101" style="stroke: #000000; stroke-width: 0.8"/>
      </g>
     </g>
     <g id="text_31">
      <!-- 0.350 -->
      <g transform="translate(748.208507 264.538822) scale(0.14 -0.14)">
       <use xlink:href="#DejaVuSans-30"/>
       <use xlink:href="#DejaVuSans-2e" x="63.623047"/>
       <use xlink:href="#DejaVuSans-33" x="95.410156"/>
       <use xlink:href="#DejaVuSans-35" x="159.033203"/>
       <use xlink:href="#DejaVuSans-30" x="222.65625"/>
      </g>
     </g>
    </g>
    <g id="xtick_14">
     <g id="line2d_28">
      <g>
       <use xlink:href="#m0bec683254" x="821.707015" y="246.90101" style="stroke: #000000; stroke-width: 0.8"/>
      </g>
     </g>
     <g id="text_32">
      <!-- 0.375 -->
      <g transform="translate(801.667327 264.538822) scale(0.14 -0.14)">
       <defs>
        <path id="DejaVuSans-37" d="M 525 4666 
L 3525 4666 
L 3525 4397 
L 1831 0 
L 1172 0 
L 2766 4134 
L 525 4134 
L 525 4666 
z
" transform="scale(0.015625)"/>
       </defs>
       <use xlink:href="#DejaVuSans-30"/>
       <use xlink:href="#DejaVuSans-2e" x="63.623047"/>
       <use xlink:href="#DejaVuSans-33" x="95.410156"/>
       <use xlink:href="#DejaVuSans-37" x="159.033203"/>
       <use xlink:href="#DejaVuSans-35" x="222.65625"/>
      </g>
     </g>
    </g>
    <g id="text_33">
     <!-- $\nu_{12}$ [-] -->
     <g transform="translate(725.643874 282.088197) scale(0.14 -0.14)">
      <defs>
       <path id="DejaVuSans-Oblique-3bd" d="M 959 0 
L 572 3500 
L 1191 3500 
L 1522 563 
Q 1972 950 2391 1488 
Q 2706 1891 2788 2241 
Q 2825 2406 2809 2719 
Q 2794 3091 2544 3500 
L 3125 3500 
L 3125 3500 
Q 3288 3222 3353 2834 
Q 3416 2478 3369 2234 
Q 3250 1622 2719 1075 
Q 2025 363 1572 0 
L 959 0 
z
" transform="scale(0.015625)"/>
       <path id="DejaVuSans-2d" d="M 313 2009 
L 1997 2009 
L 1997 1497 
L 313 1497 
L 313 2009 
z
" transform="scale(0.015625)"/>
      </defs>
      <use xlink:href="#DejaVuSans-Oblique-3bd" transform="translate(0 0.015625)"/>
      <use xlink:href="#DejaVuSans-31" transform="translate(55.859375 -16.390625) scale(0.7)"/>
      <use xlink:href="#DejaVuSans-32" transform="translate(100.395508 -16.390625) scale(0.7)"/>
      <use xlink:href="#DejaVuSans-20" transform="translate(147.666016 0.015625)"/>
      <use xlink:href="#DejaVuSans-5b" transform="translate(179.453125 0.015625)"/>
      <use xlink:href="#DejaVuSans-2d" transform="translate(218.466797 0.015625)"/>
      <use xlink:href="#DejaVuSans-5d" transform="translate(254.550781 0.015625)"/>
     </g>
    </g>
   </g>
   <g id="matplotlib.axis_6">
    <g id="ytick_12">
     <g id="line2d_29">
      <g>
       <use xlink:href="#m251cee5ad3" x="625.673999" y="246.90101" style="stroke: #000000; stroke-width: 0.8"/>
      </g>
     </g>
     <g id="text_34">
      <!-- 0 -->
      <g transform="translate(609.766499 252.219916) scale(0.14 -0.14)">
       <use xlink:href="#DejaVuSans-30"/>
      </g>
     </g>
    </g>
    <g id="ytick_13">
     <g id="line2d_30">
      <g>
       <use xlink:href="#m251cee5ad3" x="625.673999" y="191.905895" style="stroke: #000000; stroke-width: 0.8"/>
      </g>
     </g>
     <g id="text_35">
      <!-- 10 -->
      <g transform="translate(600.858999 197.224801) scale(0.14 -0.14)">
       <use xlink:href="#DejaVuSans-31"/>
       <use xlink:href="#DejaVuSans-30" x="63.623047"/>
      </g>
     </g>
    </g>
    <g id="ytick_14">
     <g id="line2d_31">
      <g>
       <use xlink:href="#m251cee5ad3" x="625.673999" y="136.91078" style="stroke: #000000; stroke-width: 0.8"/>
      </g>
     </g>
     <g id="text_36">
      <!-- 20 -->
      <g transform="translate(600.858999 142.229686) scale(0.14 -0.14)">
       <use xlink:href="#DejaVuSans-32"/>
       <use xlink:href="#DejaVuSans-30" x="63.623047"/>
      </g>
     </g>
    </g>
    <g id="ytick_15">
     <g id="line2d_32">
      <g>
       <use xlink:href="#m251cee5ad3" x="625.673999" y="81.915665" style="stroke: #000000; stroke-width: 0.8"/>
      </g>
     </g>
     <g id="text_37">
      <!-- 30 -->
      <g transform="translate(600.858999 87.234571) scale(0.14 -0.14)">
       <use xlink:href="#DejaVuSans-33"/>
       <use xlink:href="#DejaVuSans-30" x="63.623047"/>
      </g>
     </g>
    </g>
    <g id="ytick_16">
     <g id="line2d_33">
      <g>
       <use xlink:href="#m251cee5ad3" x="625.673999" y="26.92055" style="stroke: #000000; stroke-width: 0.8"/>
      </g>
     </g>
     <g id="text_38">
      <!-- 40 -->
      <g transform="translate(600.858999 32.239456) scale(0.14 -0.14)">
       <use xlink:href="#DejaVuSans-34"/>
       <use xlink:href="#DejaVuSans-30" x="63.623047"/>
      </g>
     </g>
    </g>
   </g>
   <g id="line2d_34">
    <path d="M 682.714082 244.46371 
L 684.010053 243.983086 
L 685.306024 243.420492 
L 686.601996 242.764648 
L 687.897967 242.003245 
L 689.193939 241.122949 
L 690.48991 240.109425 
L 691.785881 238.947388 
L 693.081853 237.620678 
L 694.377824 236.112365 
L 695.673796 234.404892 
L 696.969767 232.480252 
L 698.265738 230.320195 
L 699.56171 227.906485 
L 700.857681 225.221183 
L 702.153653 222.246977 
L 703.449624 218.967537 
L 704.745595 215.367908 
L 706.041567 211.434926 
L 707.337538 207.157649 
L 708.63351 202.527812 
L 709.929481 197.540269 
L 711.225452 192.193443 
L 712.521424 186.489745 
L 713.817395 180.435973 
L 715.113367 174.043661 
L 716.409338 167.329375 
L 717.70531 160.314948 
L 719.001281 153.027622 
L 720.297252 145.500114 
L 721.593224 137.770575 
L 722.889195 129.882443 
L 724.185167 121.884187 
L 725.481138 113.828932 
L 726.777109 105.773976 
L 728.073081 97.780189 
L 729.369052 89.911313 
L 730.665024 82.233161 
L 731.960995 74.81274 
L 733.256966 67.717302 
L 734.552938 61.013347 
L 735.848909 54.765601 
L 737.144881 49.035979 
L 738.440852 43.882573 
L 739.736823 39.35867 
L 741.032795 35.511841 
L 742.328766 32.383103 
L 743.624738 30.006197 
L 744.920709 28.40698 
L 746.21668 27.602955 
L 747.512652 27.602955 
L 748.808623 28.40698 
L 750.104595 30.006197 
L 751.400566 32.383103 
L 752.696537 35.511841 
L 753.992509 39.35867 
L 755.28848 43.882573 
L 756.584452 49.035979 
L 757.880423 54.765601 
L 759.176394 61.013347 
L 760.472366 67.717302 
L 761.768337 74.81274 
L 763.064309 82.233161 
L 764.36028 89.911313 
L 765.656251 97.780189 
L 766.952223 105.773976 
L 768.248194 113.828932 
L 769.544166 121.884187 
L 770.840137 129.882443 
L 772.136108 137.770575 
L 773.43208 145.500114 
L 774.728051 153.027622 
L 776.024023 160.314948 
L 777.319994 167.329375 
L 778.615965 174.043661 
L 779.911937 180.435973 
L 781.207908 186.489745 
L 782.50388 192.193443 
L 783.799851 197.540269 
L 785.095822 202.527812 
L 786.391794 207.157649 
L 787.687765 211.434926 
L 788.983737 215.367908 
L 790.279708 218.967537 
L 791.575679 222.246977 
L 792.871651 225.221183 
L 794.167622 227.906485 
L 795.463594 230.320195 
L 796.759565 232.480252 
L 798.055537 234.404892 
L 799.351508 236.112365 
L 800.647479 237.620678 
L 801.943451 238.947388 
L 803.239422 240.109425 
L 804.535394 241.122949 
L 805.831365 242.003245 
L 807.127336 242.764648 
L 808.423308 243.420492 
L 809.719279 243.983086 
L 811.015251 244.46371 
" clip-path="url(#paadaf91b10)" style="fill: none; stroke: #2ca02c; stroke-width: 1.5; stroke-linecap: square"/>
   </g>
   <g id="patch_105">
    <path d="M 625.673999 246.90101 
L 625.673999 16.638052 
" style="fill: none; stroke: #000000; stroke-width: 0.8; stroke-linejoin: miter; stroke-linecap: square"/>
   </g>
   <g id="patch_106">
    <path d="M 866.773749 246.90101 
L 866.773749 16.638052 
" style="fill: none; stroke: #000000; stroke-width: 0.8; stroke-linejoin: miter; stroke-linecap: square"/>
   </g>
   <g id="patch_107">
    <path d="M 625.673999 246.90101 
L 866.773749 246.90101 
" style="fill: none; stroke: #000000; stroke-width: 0.8; stroke-linejoin: miter; stroke-linecap: square"/>
   </g>
   <g id="patch_108">
    <path d="M 625.673999 16.638052 
L 866.773749 16.638052 
" style="fill: none; stroke: #000000; stroke-width: 0.8; stroke-linejoin: miter; stroke-linecap: square"/>
   </g>
  </g>
  <g id="axes_4">
   <g id="patch_109">
    <path d="M 897.589229 246.90101 
L 1138.688979 246.90101 
L 1138.688979 16.638052 
L 897.589229 16.638052 
z
" style="fill: #ffffff"/>
   </g>
   <g id="patch_110">
    <path d="M 908.548309 246.90101 
L 915.145748 246.90101 
L 915.145748 245.685447 
L 908.548309 245.685447 
z
" clip-path="url(#p3e2cdef40b)" style="fill: #1f77b4"/>
   </g>
   <g id="patch_111">
    <path d="M 915.878797 246.90101 
L 922.476236 246.90101 
L 922.476236 245.28026 
L 915.878797 245.28026 
z
" clip-path="url(#p3e2cdef40b)" style="fill: #1f77b4"/>
   </g>
   <g id="patch_112">
    <path d="M 923.209285 246.90101 
L 929.806724 246.90101 
L 929.806724 244.875072 
L 923.209285 244.875072 
z
" clip-path="url(#p3e2cdef40b)" style="fill: #1f77b4"/>
   </g>
   <g id="patch_113">
    <path d="M 930.539773 246.90101 
L 937.137212 246.90101 
L 937.137212 243.65951 
L 930.539773 243.65951 
z
" clip-path="url(#p3e2cdef40b)" style="fill: #1f77b4"/>
   </g>
   <g id="patch_114">
    <path d="M 937.870261 246.90101 
L 944.4677 246.90101 
L 944.4677 237.581697 
L 937.870261 237.581697 
z
" clip-path="url(#p3e2cdef40b)" style="fill: #1f77b4"/>
   </g>
   <g id="patch_115">
    <path d="M 945.200749 246.90101 
L 951.798188 246.90101 
L 951.798188 235.150571 
L 945.200749 235.150571 
z
" clip-path="url(#p3e2cdef40b)" style="fill: #1f77b4"/>
   </g>
   <g id="patch_116">
    <path d="M 952.531237 246.90101 
L 959.128676 246.90101 
L 959.128676 232.314259 
L 952.531237 232.314259 
z
" clip-path="url(#p3e2cdef40b)" style="fill: #1f77b4"/>
   </g>
   <g id="patch_117">
    <path d="M 959.861725 246.90101 
L 966.459164 246.90101 
L 966.459164 222.18457 
L 959.861725 222.18457 
z
" clip-path="url(#p3e2cdef40b)" style="fill: #1f77b4"/>
   </g>
   <g id="patch_118">
    <path d="M 967.192213 246.90101 
L 973.789652 246.90101 
L 973.789652 210.434131 
L 967.192213 210.434131 
z
" clip-path="url(#p3e2cdef40b)" style="fill: #1f77b4"/>
   </g>
   <g id="patch_119">
    <path d="M 974.522701 246.90101 
L 981.12014 246.90101 
L 981.12014 186.122879 
L 974.522701 186.122879 
z
" clip-path="url(#p3e2cdef40b)" style="fill: #1f77b4"/>
   </g>
   <g id="patch_120">
    <path d="M 981.853189 246.90101 
L 988.450628 246.90101 
L 988.450628 167.889439 
L 981.853189 167.889439 
z
" clip-path="url(#p3e2cdef40b)" style="fill: #1f77b4"/>
   </g>
   <g id="patch_121">
    <path d="M 989.183677 246.90101 
L 995.781116 246.90101 
L 995.781116 144.79375 
L 989.183677 144.79375 
z
" clip-path="url(#p3e2cdef40b)" style="fill: #1f77b4"/>
   </g>
   <g id="patch_122">
    <path d="M 996.514165 246.90101 
L 1003.111604 246.90101 
L 1003.111604 117.240997 
L 996.514165 117.240997 
z
" clip-path="url(#p3e2cdef40b)" style="fill: #1f77b4"/>
   </g>
   <g id="patch_123">
    <path d="M 1003.844653 246.90101 
L 1010.442092 246.90101 
L 1010.442092 84.420806 
L 1003.844653 84.420806 
z
" clip-path="url(#p3e2cdef40b)" style="fill: #1f77b4"/>
   </g>
   <g id="patch_124">
    <path d="M 1011.175141 246.90101 
L 1017.77258 246.90101 
L 1017.77258 75.101492 
L 1011.175141 75.101492 
z
" clip-path="url(#p3e2cdef40b)" style="fill: #1f77b4"/>
   </g>
   <g id="patch_125">
    <path d="M 1018.505629 246.90101 
L 1025.103068 246.90101 
L 1025.103068 64.566616 
L 1018.505629 64.566616 
z
" clip-path="url(#p3e2cdef40b)" style="fill: #1f77b4"/>
   </g>
   <g id="patch_126">
    <path d="M 1025.836117 246.90101 
L 1032.433556 246.90101 
L 1032.433556 59.704366 
L 1025.836117 59.704366 
z
" clip-path="url(#p3e2cdef40b)" style="fill: #1f77b4"/>
   </g>
   <g id="patch_127">
    <path d="M 1033.166605 246.90101 
L 1039.764044 246.90101 
L 1039.764044 77.937805 
L 1033.166605 77.937805 
z
" clip-path="url(#p3e2cdef40b)" style="fill: #1f77b4"/>
   </g>
   <g id="patch_128">
    <path d="M 1040.497093 246.90101 
L 1047.094532 246.90101 
L 1047.094532 97.791995 
L 1040.497093 97.791995 
z
" clip-path="url(#p3e2cdef40b)" style="fill: #1f77b4"/>
   </g>
   <g id="patch_129">
    <path d="M 1047.827581 246.90101 
L 1054.42502 246.90101 
L 1054.42502 111.973559 
L 1047.827581 111.973559 
z
" clip-path="url(#p3e2cdef40b)" style="fill: #1f77b4"/>
   </g>
   <g id="patch_130">
    <path d="M 1055.158069 246.90101 
L 1061.755508 246.90101 
L 1061.755508 130.612186 
L 1055.158069 130.612186 
z
" clip-path="url(#p3e2cdef40b)" style="fill: #1f77b4"/>
   </g>
   <g id="patch_131">
    <path d="M 1062.488557 246.90101 
L 1069.085996 246.90101 
L 1069.085996 158.975313 
L 1062.488557 158.975313 
z
" clip-path="url(#p3e2cdef40b)" style="fill: #1f77b4"/>
   </g>
   <g id="patch_132">
    <path d="M 1069.819045 246.90101 
L 1076.416484 246.90101 
L 1076.416484 182.881378 
L 1069.819045 182.881378 
z
" clip-path="url(#p3e2cdef40b)" style="fill: #1f77b4"/>
   </g>
   <g id="patch_133">
    <path d="M 1077.149533 246.90101 
L 1083.746972 246.90101 
L 1083.746972 201.520005 
L 1077.149533 201.520005 
z
" clip-path="url(#p3e2cdef40b)" style="fill: #1f77b4"/>
   </g>
   <g id="patch_134">
    <path d="M 1084.480021 246.90101 
L 1091.07746 246.90101 
L 1091.07746 216.511944 
L 1084.480021 216.511944 
z
" clip-path="url(#p3e2cdef40b)" style="fill: #1f77b4"/>
   </g>
   <g id="patch_135">
    <path d="M 1091.810509 246.90101 
L 1098.407948 246.90101 
L 1098.407948 222.589758 
L 1091.810509 222.589758 
z
" clip-path="url(#p3e2cdef40b)" style="fill: #1f77b4"/>
   </g>
   <g id="patch_136">
    <path d="M 1099.140997 246.90101 
L 1105.738436 246.90101 
L 1105.738436 237.176509 
L 1099.140997 237.176509 
z
" clip-path="url(#p3e2cdef40b)" style="fill: #1f77b4"/>
   </g>
   <g id="patch_137">
    <path d="M 1106.471485 246.90101 
L 1113.068924 246.90101 
L 1113.068924 240.418009 
L 1106.471485 240.418009 
z
" clip-path="url(#p3e2cdef40b)" style="fill: #1f77b4"/>
   </g>
   <g id="patch_138">
    <path d="M 1113.801973 246.90101 
L 1120.399412 246.90101 
L 1120.399412 241.633572 
L 1113.801973 241.633572 
z
" clip-path="url(#p3e2cdef40b)" style="fill: #1f77b4"/>
   </g>
   <g id="patch_139">
    <path d="M 1121.132461 246.90101 
L 1127.7299 246.90101 
L 1127.7299 244.064697 
L 1121.132461 244.064697 
z
" clip-path="url(#p3e2cdef40b)" style="fill: #1f77b4"/>
   </g>
   <g id="matplotlib.axis_7">
    <g id="xtick_15">
     <g id="line2d_35">
      <g>
       <use xlink:href="#m0bec683254" x="911.198904" y="246.90101" style="stroke: #000000; stroke-width: 0.8"/>
      </g>
     </g>
     <g id="text_39">
      <!-- 0.40 -->
      <g transform="translate(895.612966 264.538822) scale(0.14 -0.14)">
       <use xlink:href="#DejaVuSans-30"/>
       <use xlink:href="#DejaVuSans-2e" x="63.623047"/>
       <use xlink:href="#DejaVuSans-34" x="95.410156"/>
       <use xlink:href="#DejaVuSans-30" x="159.033203"/>
      </g>
     </g>
    </g>
    <g id="xtick_16">
     <g id="line2d_36">
      <g>
       <use xlink:href="#m0bec683254" x="965.207745" y="246.90101" style="stroke: #000000; stroke-width: 0.8"/>
      </g>
     </g>
     <g id="text_40">
      <!-- 0.42 -->
      <g transform="translate(949.621807 264.538822) scale(0.14 -0.14)">
       <use xlink:href="#DejaVuSans-30"/>
       <use xlink:href="#DejaVuSans-2e" x="63.623047"/>
       <use xlink:href="#DejaVuSans-34" x="95.410156"/>
       <use xlink:href="#DejaVuSans-32" x="159.033203"/>
      </g>
     </g>
    </g>
    <g id="xtick_17">
     <g id="line2d_37">
      <g>
       <use xlink:href="#m0bec683254" x="1019.216585" y="246.90101" style="stroke: #000000; stroke-width: 0.8"/>
      </g>
     </g>
     <g id="text_41">
      <!-- 0.44 -->
      <g transform="translate(1003.630648 264.538822) scale(0.14 -0.14)">
       <use xlink:href="#DejaVuSans-30"/>
       <use xlink:href="#DejaVuSans-2e" x="63.623047"/>
       <use xlink:href="#DejaVuSans-34" x="95.410156"/>
       <use xlink:href="#DejaVuSans-34" x="159.033203"/>
      </g>
     </g>
    </g>
    <g id="xtick_18">
     <g id="line2d_38">
      <g>
       <use xlink:href="#m0bec683254" x="1073.225426" y="246.90101" style="stroke: #000000; stroke-width: 0.8"/>
      </g>
     </g>
     <g id="text_42">
      <!-- 0.46 -->
      <g transform="translate(1057.639489 264.538822) scale(0.14 -0.14)">
       <use xlink:href="#DejaVuSans-30"/>
       <use xlink:href="#DejaVuSans-2e" x="63.623047"/>
       <use xlink:href="#DejaVuSans-34" x="95.410156"/>
       <use xlink:href="#DejaVuSans-36" x="159.033203"/>
      </g>
     </g>
    </g>
    <g id="xtick_19">
     <g id="line2d_39">
      <g>
       <use xlink:href="#m0bec683254" x="1127.234267" y="246.90101" style="stroke: #000000; stroke-width: 0.8"/>
      </g>
     </g>
     <g id="text_43">
      <!-- 0.48 -->
      <g transform="translate(1111.648329 264.538822) scale(0.14 -0.14)">
       <use xlink:href="#DejaVuSans-30"/>
       <use xlink:href="#DejaVuSans-2e" x="63.623047"/>
       <use xlink:href="#DejaVuSans-34" x="95.410156"/>
       <use xlink:href="#DejaVuSans-38" x="159.033203"/>
      </g>
     </g>
    </g>
    <g id="text_44">
     <!-- $\nu_{23}$ [-] -->
     <g transform="translate(997.559104 282.088197) scale(0.14 -0.14)">
      <use xlink:href="#DejaVuSans-Oblique-3bd" transform="translate(0 0.015625)"/>
      <use xlink:href="#DejaVuSans-32" transform="translate(55.859375 -16.390625) scale(0.7)"/>
      <use xlink:href="#DejaVuSans-33" transform="translate(100.395508 -16.390625) scale(0.7)"/>
      <use xlink:href="#DejaVuSans-20" transform="translate(147.666016 0.015625)"/>
      <use xlink:href="#DejaVuSans-5b" transform="translate(179.453125 0.015625)"/>
      <use xlink:href="#DejaVuSans-2d" transform="translate(218.466797 0.015625)"/>
      <use xlink:href="#DejaVuSans-5d" transform="translate(254.550781 0.015625)"/>
     </g>
    </g>
   </g>
   <g id="matplotlib.axis_8">
    <g id="ytick_17">
     <g id="line2d_40">
      <g>
       <use xlink:href="#m251cee5ad3" x="897.589229" y="246.90101" style="stroke: #000000; stroke-width: 0.8"/>
      </g>
     </g>
     <g id="text_45">
      <!-- 0 -->
      <g transform="translate(881.681729 252.219916) scale(0.14 -0.14)">
       <use xlink:href="#DejaVuSans-30"/>
      </g>
     </g>
    </g>
    <g id="ytick_18">
     <g id="line2d_41">
      <g>
       <use xlink:href="#m251cee5ad3" x="897.589229" y="191.905895" style="stroke: #000000; stroke-width: 0.8"/>
      </g>
     </g>
     <g id="text_46">
      <!-- 10 -->
      <g transform="translate(872.774229 197.224801) scale(0.14 -0.14)">
       <use xlink:href="#DejaVuSans-31"/>
       <use xlink:href="#DejaVuSans-30" x="63.623047"/>
      </g>
     </g>
    </g>
    <g id="ytick_19">
     <g id="line2d_42">
      <g>
       <use xlink:href="#m251cee5ad3" x="897.589229" y="136.91078" style="stroke: #000000; stroke-width: 0.8"/>
      </g>
     </g>
     <g id="text_47">
      <!-- 20 -->
      <g transform="translate(872.774229 142.229686) scale(0.14 -0.14)">
       <use xlink:href="#DejaVuSans-32"/>
       <use xlink:href="#DejaVuSans-30" x="63.623047"/>
      </g>
     </g>
    </g>
    <g id="ytick_20">
     <g id="line2d_43">
      <g>
       <use xlink:href="#m251cee5ad3" x="897.589229" y="81.915665" style="stroke: #000000; stroke-width: 0.8"/>
      </g>
     </g>
     <g id="text_48">
      <!-- 30 -->
      <g transform="translate(872.774229 87.234571) scale(0.14 -0.14)">
       <use xlink:href="#DejaVuSans-33"/>
       <use xlink:href="#DejaVuSans-30" x="63.623047"/>
      </g>
     </g>
    </g>
    <g id="ytick_21">
     <g id="line2d_44">
      <g>
       <use xlink:href="#m251cee5ad3" x="897.589229" y="26.92055" style="stroke: #000000; stroke-width: 0.8"/>
      </g>
     </g>
     <g id="text_49">
      <!-- 40 -->
      <g transform="translate(872.774229 32.239456) scale(0.14 -0.14)">
       <use xlink:href="#DejaVuSans-34"/>
       <use xlink:href="#DejaVuSans-30" x="63.623047"/>
      </g>
     </g>
    </g>
   </g>
   <g id="line2d_45">
    <path d="M 938.203324 244.46371 
L 939.839956 243.983086 
L 941.476587 243.420492 
L 943.113219 242.764648 
L 944.74985 242.003245 
L 946.386482 241.122949 
L 948.023113 240.109425 
L 949.659745 238.947388 
L 951.296376 237.620678 
L 952.933008 236.112365 
L 954.56964 234.404892 
L 956.206271 232.480252 
L 957.842903 230.320195 
L 959.479534 227.906485 
L 961.116166 225.221183 
L 962.752797 222.246977 
L 964.389429 218.967537 
L 966.02606 215.367908 
L 967.662692 211.434926 
L 969.299323 207.157649 
L 970.935955 202.527812 
L 972.572586 197.540269 
L 974.209218 192.193443 
L 975.84585 186.489745 
L 977.482481 180.435973 
L 979.119113 174.043661 
L 980.755744 167.329375 
L 982.392376 160.314948 
L 984.029007 153.027622 
L 985.665639 145.500114 
L 987.30227 137.770575 
L 988.938902 129.882443 
L 990.575533 121.884187 
L 992.212165 113.828932 
L 993.848796 105.773976 
L 995.485428 97.780189 
L 997.12206 89.911313 
L 998.758691 82.233161 
L 1000.395323 74.81274 
L 1002.031954 67.717302 
L 1003.668586 61.013347 
L 1005.305217 54.765601 
L 1006.941849 49.035979 
L 1008.57848 43.882573 
L 1010.215112 39.35867 
L 1011.851743 35.511841 
L 1013.488375 32.383103 
L 1015.125006 30.006197 
L 1016.761638 28.40698 
L 1018.39827 27.602955 
L 1020.034901 27.602955 
L 1021.671533 28.40698 
L 1023.308164 30.006197 
L 1024.944796 32.383103 
L 1026.581427 35.511841 
L 1028.218059 39.35867 
L 1029.85469 43.882573 
L 1031.491322 49.035979 
L 1033.127953 54.765601 
L 1034.764585 61.013347 
L 1036.401216 67.717302 
L 1038.037848 74.81274 
L 1039.67448 82.233161 
L 1041.311111 89.911313 
L 1042.947743 97.780189 
L 1044.584374 105.773976 
L 1046.221006 113.828932 
L 1047.857637 121.884187 
L 1049.494269 129.882443 
L 1051.1309 137.770575 
L 1052.767532 145.500114 
L 1054.404163 153.027622 
L 1056.040795 160.314948 
L 1057.677426 167.329375 
L 1059.314058 174.043661 
L 1060.95069 180.435973 
L 1062.587321 186.489745 
L 1064.223953 192.193443 
L 1065.860584 197.540269 
L 1067.497216 202.527812 
L 1069.133847 207.157649 
L 1070.770479 211.434926 
L 1072.40711 215.367908 
L 1074.043742 218.967537 
L 1075.680373 222.246977 
L 1077.317005 225.221183 
L 1078.953636 227.906485 
L 1080.590268 230.320195 
L 1082.2269 232.480252 
L 1083.863531 234.404892 
L 1085.500163 236.112365 
L 1087.136794 237.620678 
L 1088.773426 238.947388 
L 1090.410057 240.109425 
L 1092.046689 241.122949 
L 1093.68332 242.003245 
L 1095.319952 242.764648 
L 1096.956583 243.420492 
L 1098.593215 243.983086 
L 1100.229846 244.46371 
" clip-path="url(#p3e2cdef40b)" style="fill: none; stroke: #2ca02c; stroke-width: 1.5; stroke-linecap: square"/>
   </g>
   <g id="patch_140">
    <path d="M 897.589229 246.90101 
L 897.589229 16.638052 
" style="fill: none; stroke: #000000; stroke-width: 0.8; stroke-linejoin: miter; stroke-linecap: square"/>
   </g>
   <g id="patch_141">
    <path d="M 1138.688979 246.90101 
L 1138.688979 16.638052 
" style="fill: none; stroke: #000000; stroke-width: 0.8; stroke-linejoin: miter; stroke-linecap: square"/>
   </g>
   <g id="patch_142">
    <path d="M 897.589229 246.90101 
L 1138.688979 246.90101 
" style="fill: none; stroke: #000000; stroke-width: 0.8; stroke-linejoin: miter; stroke-linecap: square"/>
   </g>
   <g id="patch_143">
    <path d="M 897.589229 16.638052 
L 1138.688979 16.638052 
" style="fill: none; stroke: #000000; stroke-width: 0.8; stroke-linejoin: miter; stroke-linecap: square"/>
   </g>
  </g>
  <g id="axes_5">
   <g id="patch_144">
    <path d="M 1195.90001 246.90101 
L 1436.99976 246.90101 
L 1436.99976 16.638052 
L 1195.90001 16.638052 
z
" style="fill: #ffffff"/>
   </g>
   <g id="patch_145">
    <path d="M 1206.85909 246.90101 
L 1213.456529 246.90101 
L 1213.456529 246.104329 
L 1206.85909 246.104329 
z
" clip-path="url(#p89ad9db168)" style="fill: #1f77b4"/>
   </g>
   <g id="patch_146">
    <path d="M 1214.189578 246.90101 
L 1220.787017 246.90101 
L 1220.787017 246.50267 
L 1214.189578 246.50267 
z
" clip-path="url(#p89ad9db168)" style="fill: #1f77b4"/>
   </g>
   <g id="patch_147">
    <path d="M 1221.520066 246.90101 
L 1228.117505 246.90101 
L 1228.117505 245.705989 
L 1221.520066 245.705989 
z
" clip-path="url(#p89ad9db168)" style="fill: #1f77b4"/>
   </g>
   <g id="patch_148">
    <path d="M 1228.850554 246.90101 
L 1235.447993 246.90101 
L 1235.447993 246.104329 
L 1228.850554 246.104329 
z
" clip-path="url(#p89ad9db168)" style="fill: #1f77b4"/>
   </g>
   <g id="patch_149">
    <path d="M 1236.181042 246.90101 
L 1242.778481 246.90101 
L 1242.778481 245.705989 
L 1236.181042 245.705989 
z
" clip-path="url(#p89ad9db168)" style="fill: #1f77b4"/>
   </g>
   <g id="patch_150">
    <path d="M 1243.51153 246.90101 
L 1250.108969 246.90101 
L 1250.108969 241.722587 
L 1243.51153 241.722587 
z
" clip-path="url(#p89ad9db168)" style="fill: #1f77b4"/>
   </g>
   <g id="patch_151">
    <path d="M 1250.842018 246.90101 
L 1257.439457 246.90101 
L 1257.439457 234.154122 
L 1250.842018 234.154122 
z
" clip-path="url(#p89ad9db168)" style="fill: #1f77b4"/>
   </g>
   <g id="patch_152">
    <path d="M 1258.172506 246.90101 
L 1264.769945 246.90101 
L 1264.769945 232.162421 
L 1258.172506 232.162421 
z
" clip-path="url(#p89ad9db168)" style="fill: #1f77b4"/>
   </g>
   <g id="patch_153">
    <path d="M 1265.502993 246.90101 
L 1272.100433 246.90101 
L 1272.100433 215.83047 
L 1265.502993 215.83047 
z
" clip-path="url(#p89ad9db168)" style="fill: #1f77b4"/>
   </g>
   <g id="patch_154">
    <path d="M 1272.833481 246.90101 
L 1279.430921 246.90101 
L 1279.430921 200.693541 
L 1272.833481 200.693541 
z
" clip-path="url(#p89ad9db168)" style="fill: #1f77b4"/>
   </g>
   <g id="patch_155">
    <path d="M 1280.163969 246.90101 
L 1286.761409 246.90101 
L 1286.761409 181.971549 
L 1280.163969 181.971549 
z
" clip-path="url(#p89ad9db168)" style="fill: #1f77b4"/>
   </g>
   <g id="patch_156">
    <path d="M 1287.494457 246.90101 
L 1294.091897 246.90101 
L 1294.091897 156.876113 
L 1287.494457 156.876113 
z
" clip-path="url(#p89ad9db168)" style="fill: #1f77b4"/>
   </g>
   <g id="patch_157">
    <path d="M 1294.824945 246.90101 
L 1301.422385 246.90101 
L 1301.422385 126.602254 
L 1294.824945 126.602254 
z
" clip-path="url(#p89ad9db168)" style="fill: #1f77b4"/>
   </g>
   <g id="patch_158">
    <path d="M 1302.155433 246.90101 
L 1308.752873 246.90101 
L 1308.752873 121.025491 
L 1302.155433 121.025491 
z
" clip-path="url(#p89ad9db168)" style="fill: #1f77b4"/>
   </g>
   <g id="patch_159">
    <path d="M 1309.485921 246.90101 
L 1316.083361 246.90101 
L 1316.083361 85.573209 
L 1309.485921 85.573209 
z
" clip-path="url(#p89ad9db168)" style="fill: #1f77b4"/>
   </g>
   <g id="patch_160">
    <path d="M 1316.816409 246.90101 
L 1323.413849 246.90101 
L 1323.413849 70.834619 
L 1316.816409 70.834619 
z
" clip-path="url(#p89ad9db168)" style="fill: #1f77b4"/>
   </g>
   <g id="patch_161">
    <path d="M 1324.146897 246.90101 
L 1330.744337 246.90101 
L 1330.744337 54.502669 
L 1324.146897 54.502669 
z
" clip-path="url(#p89ad9db168)" style="fill: #1f77b4"/>
   </g>
   <g id="patch_162">
    <path d="M 1331.477385 246.90101 
L 1338.074825 246.90101 
L 1338.074825 58.486072 
L 1331.477385 58.486072 
z
" clip-path="url(#p89ad9db168)" style="fill: #1f77b4"/>
   </g>
   <g id="patch_163">
    <path d="M 1338.807873 246.90101 
L 1345.405313 246.90101 
L 1345.405313 72.42798 
L 1338.807873 72.42798 
z
" clip-path="url(#p89ad9db168)" style="fill: #1f77b4"/>
   </g>
   <g id="patch_164">
    <path d="M 1346.138361 246.90101 
L 1352.735801 246.90101 
L 1352.735801 87.56491 
L 1346.138361 87.56491 
z
" clip-path="url(#p89ad9db168)" style="fill: #1f77b4"/>
   </g>
   <g id="patch_165">
    <path d="M 1353.468849 246.90101 
L 1360.066289 246.90101 
L 1360.066289 109.871964 
L 1353.468849 109.871964 
z
" clip-path="url(#p89ad9db168)" style="fill: #1f77b4"/>
   </g>
   <g id="patch_166">
    <path d="M 1360.799337 246.90101 
L 1367.396777 246.90101 
L 1367.396777 148.112628 
L 1360.799337 148.112628 
z
" clip-path="url(#p89ad9db168)" style="fill: #1f77b4"/>
   </g>
   <g id="patch_167">
    <path d="M 1368.129825 246.90101 
L 1374.727265 246.90101 
L 1374.727265 172.411383 
L 1368.129825 172.411383 
z
" clip-path="url(#p89ad9db168)" style="fill: #1f77b4"/>
   </g>
   <g id="patch_168">
    <path d="M 1375.460313 246.90101 
L 1382.057753 246.90101 
L 1382.057753 196.710138 
L 1375.460313 196.710138 
z
" clip-path="url(#p89ad9db168)" style="fill: #1f77b4"/>
   </g>
   <g id="patch_169">
    <path d="M 1382.790801 246.90101 
L 1389.388241 246.90101 
L 1389.388241 224.593956 
L 1382.790801 224.593956 
z
" clip-path="url(#p89ad9db168)" style="fill: #1f77b4"/>
   </g>
   <g id="patch_170">
    <path d="M 1390.121289 246.90101 
L 1396.718729 246.90101 
L 1396.718729 230.170719 
L 1390.121289 230.170719 
z
" clip-path="url(#p89ad9db168)" style="fill: #1f77b4"/>
   </g>
   <g id="patch_171">
    <path d="M 1397.451777 246.90101 
L 1404.049216 246.90101 
L 1404.049216 234.950802 
L 1397.451777 234.950802 
z
" clip-path="url(#p89ad9db168)" style="fill: #1f77b4"/>
   </g>
   <g id="patch_172">
    <path d="M 1404.782265 246.90101 
L 1411.379704 246.90101 
L 1411.379704 240.129226 
L 1404.782265 240.129226 
z
" clip-path="url(#p89ad9db168)" style="fill: #1f77b4"/>
   </g>
   <g id="patch_173">
    <path d="M 1412.112753 246.90101 
L 1418.710192 246.90101 
L 1418.710192 243.315948 
L 1412.112753 243.315948 
z
" clip-path="url(#p89ad9db168)" style="fill: #1f77b4"/>
   </g>
   <g id="patch_174">
    <path d="M 1419.443241 246.90101 
L 1426.04068 246.90101 
L 1426.04068 244.510968 
L 1419.443241 244.510968 
z
" clip-path="url(#p89ad9db168)" style="fill: #1f77b4"/>
   </g>
   <g id="matplotlib.axis_9">
    <g id="xtick_20">
     <g id="line2d_46">
      <g>
       <use xlink:href="#m0bec683254" x="1235.928911" y="246.90101" style="stroke: #000000; stroke-width: 0.8"/>
      </g>
     </g>
     <g id="text_50">
      <!-- 4800 -->
      <g transform="translate(1218.113911 264.538822) scale(0.14 -0.14)">
       <use xlink:href="#DejaVuSans-34"/>
       <use xlink:href="#DejaVuSans-38" x="63.623047"/>
       <use xlink:href="#DejaVuSans-30" x="127.246094"/>
       <use xlink:href="#DejaVuSans-30" x="190.869141"/>
      </g>
     </g>
    </g>
    <g id="xtick_21">
     <g id="line2d_47">
      <g>
       <use xlink:href="#m0bec683254" x="1311.780542" y="246.90101" style="stroke: #000000; stroke-width: 0.8"/>
      </g>
     </g>
     <g id="text_51">
      <!-- 5000 -->
      <g transform="translate(1293.965542 264.538822) scale(0.14 -0.14)">
       <use xlink:href="#DejaVuSans-35"/>
       <use xlink:href="#DejaVuSans-30" x="63.623047"/>
       <use xlink:href="#DejaVuSans-30" x="127.246094"/>
       <use xlink:href="#DejaVuSans-30" x="190.869141"/>
      </g>
     </g>
    </g>
    <g id="xtick_22">
     <g id="line2d_48">
      <g>
       <use xlink:href="#m0bec683254" x="1387.632174" y="246.90101" style="stroke: #000000; stroke-width: 0.8"/>
      </g>
     </g>
     <g id="text_52">
      <!-- 5200 -->
      <g transform="translate(1369.817174 264.538822) scale(0.14 -0.14)">
       <use xlink:href="#DejaVuSans-35"/>
       <use xlink:href="#DejaVuSans-32" x="63.623047"/>
       <use xlink:href="#DejaVuSans-30" x="127.246094"/>
       <use xlink:href="#DejaVuSans-30" x="190.869141"/>
      </g>
     </g>
    </g>
    <g id="text_53">
     <!-- $G_{12}$ [MPa] -->
     <g transform="translate(1282.359885 282.088197) scale(0.14 -0.14)">
      <defs>
       <path id="DejaVuSans-Oblique-47" d="M 3494 697 
L 3738 1919 
L 2700 1919 
L 2797 2438 
L 4453 2438 
L 4050 384 
Q 3634 156 3143 32 
Q 2653 -91 2156 -91 
Q 1278 -91 783 396 
Q 288 884 288 1753 
Q 288 2475 589 3126 
Q 891 3778 1422 4213 
Q 1756 4484 2153 4617 
Q 2550 4750 3034 4750 
Q 3472 4750 3873 4639 
Q 4275 4528 4641 4306 
L 4513 3634 
Q 4231 3928 3853 4083 
Q 3475 4238 3047 4238 
Q 2550 4238 2172 4048 
Q 1794 3859 1497 3463 
Q 1244 3125 1098 2667 
Q 953 2209 953 1734 
Q 953 1081 1287 751 
Q 1622 422 2284 422 
Q 2616 422 2925 492 
Q 3234 563 3494 697 
z
" transform="scale(0.015625)"/>
      </defs>
      <use xlink:href="#DejaVuSans-Oblique-47" transform="translate(0 0.015625)"/>
      <use xlink:href="#DejaVuSans-31" transform="translate(77.490234 -16.390625) scale(0.7)"/>
      <use xlink:href="#DejaVuSans-32" transform="translate(122.026367 -16.390625) scale(0.7)"/>
      <use xlink:href="#DejaVuSans-20" transform="translate(169.296875 0.015625)"/>
      <use xlink:href="#DejaVuSans-5b" transform="translate(201.083984 0.015625)"/>
      <use xlink:href="#DejaVuSans-4d" transform="translate(240.097656 0.015625)"/>
      <use xlink:href="#DejaVuSans-50" transform="translate(326.376953 0.015625)"/>
      <use xlink:href="#DejaVuSans-61" transform="translate(386.679688 0.015625)"/>
      <use xlink:href="#DejaVuSans-5d" transform="translate(447.958984 0.015625)"/>
     </g>
    </g>
   </g>
   <g id="matplotlib.axis_10">
    <g id="ytick_22">
     <g id="line2d_49">
      <g>
       <use xlink:href="#m251cee5ad3" x="1195.90001" y="246.90101" style="stroke: #000000; stroke-width: 0.8"/>
      </g>
     </g>
     <g id="text_54">
      <!-- 0.000 -->
      <g transform="translate(1148.820635 252.219916) scale(0.14 -0.14)">
       <use xlink:href="#DejaVuSans-30"/>
       <use xlink:href="#DejaVuSans-2e" x="63.623047"/>
       <use xlink:href="#DejaVuSans-30" x="95.410156"/>
       <use xlink:href="#DejaVuSans-30" x="159.033203"/>
       <use xlink:href="#DejaVuSans-30" x="222.65625"/>
      </g>
     </g>
    </g>
    <g id="ytick_23">
     <g id="line2d_50">
      <g>
       <use xlink:href="#m251cee5ad3" x="1195.90001" y="208.40443" style="stroke: #000000; stroke-width: 0.8"/>
      </g>
     </g>
     <g id="text_55">
      <!-- 0.001 -->
      <g transform="translate(1148.820635 213.723336) scale(0.14 -0.14)">
       <use xlink:href="#DejaVuSans-30"/>
       <use xlink:href="#DejaVuSans-2e" x="63.623047"/>
       <use xlink:href="#DejaVuSans-30" x="95.410156"/>
       <use xlink:href="#DejaVuSans-30" x="159.033203"/>
       <use xlink:href="#DejaVuSans-31" x="222.65625"/>
      </g>
     </g>
    </g>
    <g id="ytick_24">
     <g id="line2d_51">
      <g>
       <use xlink:href="#m251cee5ad3" x="1195.90001" y="169.907849" style="stroke: #000000; stroke-width: 0.8"/>
      </g>
     </g>
     <g id="text_56">
      <!-- 0.002 -->
      <g transform="translate(1148.820635 175.226755) scale(0.14 -0.14)">
       <use xlink:href="#DejaVuSans-30"/>
       <use xlink:href="#DejaVuSans-2e" x="63.623047"/>
       <use xlink:href="#DejaVuSans-30" x="95.410156"/>
       <use xlink:href="#DejaVuSans-30" x="159.033203"/>
       <use xlink:href="#DejaVuSans-32" x="222.65625"/>
      </g>
     </g>
    </g>
    <g id="ytick_25">
     <g id="line2d_52">
      <g>
       <use xlink:href="#m251cee5ad3" x="1195.90001" y="131.411269" style="stroke: #000000; stroke-width: 0.8"/>
      </g>
     </g>
     <g id="text_57">
      <!-- 0.003 -->
      <g transform="translate(1148.820635 136.730175) scale(0.14 -0.14)">
       <use xlink:href="#DejaVuSans-30"/>
       <use xlink:href="#DejaVuSans-2e" x="63.623047"/>
       <use xlink:href="#DejaVuSans-30" x="95.410156"/>
       <use xlink:href="#DejaVuSans-30" x="159.033203"/>
       <use xlink:href="#DejaVuSans-33" x="222.65625"/>
      </g>
     </g>
    </g>
    <g id="ytick_26">
     <g id="line2d_53">
      <g>
       <use xlink:href="#m251cee5ad3" x="1195.90001" y="92.914688" style="stroke: #000000; stroke-width: 0.8"/>
      </g>
     </g>
     <g id="text_58">
      <!-- 0.004 -->
      <g transform="translate(1148.820635 98.233594) scale(0.14 -0.14)">
       <use xlink:href="#DejaVuSans-30"/>
       <use xlink:href="#DejaVuSans-2e" x="63.623047"/>
       <use xlink:href="#DejaVuSans-30" x="95.410156"/>
       <use xlink:href="#DejaVuSans-30" x="159.033203"/>
       <use xlink:href="#DejaVuSans-34" x="222.65625"/>
      </g>
     </g>
    </g>
    <g id="ytick_27">
     <g id="line2d_54">
      <g>
       <use xlink:href="#m251cee5ad3" x="1195.90001" y="54.418108" style="stroke: #000000; stroke-width: 0.8"/>
      </g>
     </g>
     <g id="text_59">
      <!-- 0.005 -->
      <g transform="translate(1148.820635 59.737014) scale(0.14 -0.14)">
       <use xlink:href="#DejaVuSans-30"/>
       <use xlink:href="#DejaVuSans-2e" x="63.623047"/>
       <use xlink:href="#DejaVuSans-30" x="95.410156"/>
       <use xlink:href="#DejaVuSans-30" x="159.033203"/>
       <use xlink:href="#DejaVuSans-35" x="222.65625"/>
      </g>
     </g>
    </g>
   </g>
   <g id="line2d_55">
    <path d="M 1254.891819 244.46371 
L 1256.500793 243.983086 
L 1258.109767 243.420492 
L 1259.718741 242.764648 
L 1261.327715 242.003245 
L 1262.936689 241.122949 
L 1264.545663 240.109425 
L 1266.154637 238.947388 
L 1267.763611 237.620678 
L 1269.372585 236.112365 
L 1270.981559 234.404892 
L 1272.590533 232.480252 
L 1274.199507 230.320195 
L 1275.808481 227.906485 
L 1277.417455 225.221183 
L 1279.026429 222.246977 
L 1280.635403 218.967537 
L 1282.244377 215.367908 
L 1283.853351 211.434926 
L 1285.462325 207.157649 
L 1287.071299 202.527812 
L 1288.680273 197.540269 
L 1290.289247 192.193443 
L 1291.898221 186.489745 
L 1293.507195 180.435973 
L 1295.116169 174.043661 
L 1296.725143 167.329375 
L 1298.334117 160.314948 
L 1299.943091 153.027622 
L 1301.552065 145.500114 
L 1303.161039 137.770575 
L 1304.770013 129.882443 
L 1306.378987 121.884187 
L 1307.987961 113.828932 
L 1309.596935 105.773976 
L 1311.205909 97.780189 
L 1312.814883 89.911313 
L 1314.423857 82.233161 
L 1316.032831 74.81274 
L 1317.641805 67.717302 
L 1319.250779 61.013347 
L 1320.859753 54.765601 
L 1322.468727 49.035979 
L 1324.077701 43.882573 
L 1325.686675 39.35867 
L 1327.295649 35.511841 
L 1328.904623 32.383103 
L 1330.513597 30.006197 
L 1332.122571 28.40698 
L 1333.731545 27.602955 
L 1335.340519 27.602955 
L 1336.949493 28.40698 
L 1338.558467 30.006197 
L 1340.167441 32.383103 
L 1341.776415 35.511841 
L 1343.385389 39.35867 
L 1344.994363 43.882573 
L 1346.603337 49.035979 
L 1348.212311 54.765601 
L 1349.821285 61.013347 
L 1351.430259 67.717302 
L 1353.039233 74.81274 
L 1354.648207 82.233161 
L 1356.257181 89.911313 
L 1357.866155 97.780189 
L 1359.475129 105.773976 
L 1361.084103 113.828932 
L 1362.693077 121.884187 
L 1364.302051 129.882443 
L 1365.911025 137.770575 
L 1367.519999 145.500114 
L 1369.128973 153.027622 
L 1370.737947 160.314948 
L 1372.346921 167.329375 
L 1373.955895 174.043661 
L 1375.564869 180.435973 
L 1377.173843 186.489745 
L 1378.782817 192.193443 
L 1380.391791 197.540269 
L 1382.000765 202.527812 
L 1383.609739 207.157649 
L 1385.218713 211.434926 
L 1386.827687 215.367908 
L 1388.436661 218.967537 
L 1390.045635 222.246977 
L 1391.654609 225.221183 
L 1393.263583 227.906485 
L 1394.872557 230.320195 
L 1396.481531 232.480252 
L 1398.090505 234.404892 
L 1399.699479 236.112365 
L 1401.308453 237.620678 
L 1402.917427 238.947388 
L 1404.526401 240.109425 
L 1406.135375 241.122949 
L 1407.744349 242.003245 
L 1409.353323 242.764648 
L 1410.962297 243.420492 
L 1412.571271 243.983086 
L 1414.180245 244.46371 
" clip-path="url(#p89ad9db168)" style="fill: none; stroke: #2ca02c; stroke-width: 1.5; stroke-linecap: square"/>
   </g>
   <g id="patch_175">
    <path d="M 1195.90001 246.90101 
L 1195.90001 16.638052 
" style="fill: none; stroke: #000000; stroke-width: 0.8; stroke-linejoin: miter; stroke-linecap: square"/>
   </g>
   <g id="patch_176">
    <path d="M 1436.99976 246.90101 
L 1436.99976 16.638052 
" style="fill: none; stroke: #000000; stroke-width: 0.8; stroke-linejoin: miter; stroke-linecap: square"/>
   </g>
   <g id="patch_177">
    <path d="M 1195.90001 246.90101 
L 1436.99976 246.90101 
" style="fill: none; stroke: #000000; stroke-width: 0.8; stroke-linejoin: miter; stroke-linecap: square"/>
   </g>
   <g id="patch_178">
    <path d="M 1195.90001 16.638052 
L 1436.99976 16.638052 
" style="fill: none; stroke: #000000; stroke-width: 0.8; stroke-linejoin: miter; stroke-linecap: square"/>
   </g>
  </g>
 </g>
 <defs>
  <clipPath id="pe87a786886">
   <rect x="36.457115" y="16.638052" width="241.09975" height="230.262958"/>
  </clipPath>
  <clipPath id="p018a4504f3">
   <rect x="337.305608" y="16.638052" width="241.09975" height="230.262958"/>
  </clipPath>
  <clipPath id="paadaf91b10">
   <rect x="625.673999" y="16.638052" width="241.09975" height="230.262958"/>
  </clipPath>
  <clipPath id="p3e2cdef40b">
   <rect x="897.589229" y="16.638052" width="241.09975" height="230.262958"/>
  </clipPath>
  <clipPath id="p89ad9db168">
   <rect x="1195.90001" y="16.638052" width="241.09975" height="230.262958"/>
  </clipPath>
 </defs>
</svg>
