<?xml version="1.0" encoding="utf-8" standalone="no"?>
<!DOCTYPE svg PUBLIC "-//W3C//DTD SVG 1.1//EN"
  "http://www.w3.org/Graphics/SVG/1.1/DTD/svg11.dtd">
<svg xmlns:xlink="http://www.w3.org/1999/xlink" width="1440pt" height="288pt" viewBox="0 0 1440 288" xmlns="http://www.w3.org/2000/svg" version="1.1">
 <metadata>
  <rdf:RDF xmlns:dc="http://purl.org/dc/elements/1.1/" xmlns:cc="http://creativecommons.org/ns#" xmlns:rdf="http://www.w3.org/1999/02/22-rdf-syntax-ns#">
   <cc:Work>
    <dc:type rdf:resource="http://purl.org/dc/dcmitype/StillImage"/>
    <dc:date>2024-11-23T23:43:50.912408</dc:date>
    <dc:format>image/svg+xml</dc:format>
    <dc:creator>
     <cc:Agent>
      <dc:title>Matplotlib v3.9.2, https://matplotlib.org/</dc:title>
     </cc:Agent>
    </dc:creator>
   </cc:Work>
  </rdf:RDF>
 </metadata>
 <defs>
  <style type="text/css">*{stroke-linejoin: round; stroke-linecap: butt}</style>
 </defs>
 <g id="figure_1">
  <g id="patch_1">
   <path d="M 0 288 
L 1440 288 
L 1440 0 
L 0 0 
z
" style="fill: #ffffff"/>
  </g>
  <g id="axes_1">
   <g id="patch_2">
    <path d="M 36.457115 246.90101 
L 281.365001 246.90101 
L 281.365001 16.638052 
L 36.457115 16.638052 
z
" style="fill: #ffffff"/>
   </g>
   <g id="patch_3">
    <path d="M 47.589292 246.90101 
L 49.616386 246.90101 
L 49.616386 246.524856 
L 47.589292 246.524856 
z
" clip-path="url(#p2a427c1a11)" style="fill: #1f77b4"/>
   </g>
   <g id="patch_4">
    <path d="M 49.841619 246.90101 
L 51.868713 246.90101 
L 51.868713 246.524856 
L 49.841619 246.524856 
z
" clip-path="url(#p2a427c1a11)" style="fill: #1f77b4"/>
   </g>
   <g id="patch_5">
    <path d="M 52.093946 246.90101 
L 54.12104 246.90101 
L 54.12104 244.267929 
L 52.093946 244.267929 
z
" clip-path="url(#p2a427c1a11)" style="fill: #1f77b4"/>
   </g>
   <g id="patch_6">
    <path d="M 54.346273 246.90101 
L 56.373367 246.90101 
L 56.373367 245.772547 
L 54.346273 245.772547 
z
" clip-path="url(#p2a427c1a11)" style="fill: #1f77b4"/>
   </g>
   <g id="patch_7">
    <path d="M 56.5986 246.90101 
L 58.625694 246.90101 
L 58.625694 242.763311 
L 56.5986 242.763311 
z
" clip-path="url(#p2a427c1a11)" style="fill: #1f77b4"/>
   </g>
   <g id="patch_8">
    <path d="M 58.850927 246.90101 
L 60.878021 246.90101 
L 60.878021 241.634847 
L 58.850927 241.634847 
z
" clip-path="url(#p2a427c1a11)" style="fill: #1f77b4"/>
   </g>
   <g id="patch_9">
    <path d="M 61.103254 246.90101 
L 63.130348 246.90101 
L 63.130348 230.726368 
L 61.103254 230.726368 
z
" clip-path="url(#p2a427c1a11)" style="fill: #1f77b4"/>
   </g>
   <g id="patch_10">
    <path d="M 63.35558 246.90101 
L 65.382675 246.90101 
L 65.382675 221.698661 
L 63.35558 221.698661 
z
" clip-path="url(#p2a427c1a11)" style="fill: #1f77b4"/>
   </g>
   <g id="patch_11">
    <path d="M 65.607907 246.90101 
L 67.635002 246.90101 
L 67.635002 208.909409 
L 65.607907 208.909409 
z
" clip-path="url(#p2a427c1a11)" style="fill: #1f77b4"/>
   </g>
   <g id="patch_12">
    <path d="M 67.860234 246.90101 
L 69.887329 246.90101 
L 69.887329 180.321669 
L 67.860234 180.321669 
z
" clip-path="url(#p2a427c1a11)" style="fill: #1f77b4"/>
   </g>
   <g id="patch_13">
    <path d="M 70.112561 246.90101 
L 72.139656 246.90101 
L 72.139656 155.871629 
L 70.112561 155.871629 
z
" clip-path="url(#p2a427c1a11)" style="fill: #1f77b4"/>
   </g>
   <g id="patch_14">
    <path d="M 72.364888 246.90101 
L 74.391983 246.90101 
L 74.391983 125.779271 
L 72.364888 125.779271 
z
" clip-path="url(#p2a427c1a11)" style="fill: #1f77b4"/>
   </g>
   <g id="patch_15">
    <path d="M 74.617215 246.90101 
L 76.64431 246.90101 
L 76.64431 97.191532 
L 74.617215 97.191532 
z
" clip-path="url(#p2a427c1a11)" style="fill: #1f77b4"/>
   </g>
   <g id="patch_16">
    <path d="M 76.869542 246.90101 
L 78.896637 246.90101 
L 78.896637 79.512272 
L 76.869542 79.512272 
z
" clip-path="url(#p2a427c1a11)" style="fill: #1f77b4"/>
   </g>
   <g id="patch_17">
    <path d="M 79.121869 246.90101 
L 81.148964 246.90101 
L 81.148964 27.602955 
L 79.121869 27.602955 
z
" clip-path="url(#p2a427c1a11)" style="fill: #1f77b4"/>
   </g>
   <g id="patch_18">
    <path d="M 81.374196 246.90101 
L 83.401291 246.90101 
L 83.401291 47.162988 
L 81.374196 47.162988 
z
" clip-path="url(#p2a427c1a11)" style="fill: #1f77b4"/>
   </g>
   <g id="patch_19">
    <path d="M 83.626523 246.90101 
L 85.653618 246.90101 
L 85.653618 64.466093 
L 83.626523 64.466093 
z
" clip-path="url(#p2a427c1a11)" style="fill: #1f77b4"/>
   </g>
   <g id="patch_20">
    <path d="M 85.87885 246.90101 
L 87.905945 246.90101 
L 87.905945 77.631499 
L 85.87885 77.631499 
z
" clip-path="url(#p2a427c1a11)" style="fill: #1f77b4"/>
   </g>
   <g id="patch_21">
    <path d="M 88.131177 246.90101 
L 90.158272 246.90101 
L 90.158272 111.109247 
L 88.131177 111.109247 
z
" clip-path="url(#p2a427c1a11)" style="fill: #1f77b4"/>
   </g>
   <g id="patch_22">
    <path d="M 90.383504 246.90101 
L 92.410599 246.90101 
L 92.410599 140.449296 
L 90.383504 140.449296 
z
" clip-path="url(#p2a427c1a11)" style="fill: #1f77b4"/>
   </g>
   <g id="patch_23">
    <path d="M 92.635831 246.90101 
L 94.662925 246.90101 
L 94.662925 176.560125 
L 92.635831 176.560125 
z
" clip-path="url(#p2a427c1a11)" style="fill: #1f77b4"/>
   </g>
   <g id="patch_24">
    <path d="M 94.888158 246.90101 
L 96.915252 246.90101 
L 96.915252 201.386319 
L 94.888158 201.386319 
z
" clip-path="url(#p2a427c1a11)" style="fill: #1f77b4"/>
   </g>
   <g id="patch_25">
    <path d="M 97.140485 246.90101 
L 99.167579 246.90101 
L 99.167579 217.937116 
L 97.140485 217.937116 
z
" clip-path="url(#p2a427c1a11)" style="fill: #1f77b4"/>
   </g>
   <g id="patch_26">
    <path d="M 99.392812 246.90101 
L 101.419906 246.90101 
L 101.419906 230.350213 
L 99.392812 230.350213 
z
" clip-path="url(#p2a427c1a11)" style="fill: #1f77b4"/>
   </g>
   <g id="patch_27">
    <path d="M 101.645139 246.90101 
L 103.672233 246.90101 
L 103.672233 239.001766 
L 101.645139 239.001766 
z
" clip-path="url(#p2a427c1a11)" style="fill: #1f77b4"/>
   </g>
   <g id="patch_28">
    <path d="M 103.897466 246.90101 
L 105.92456 246.90101 
L 105.92456 242.763311 
L 103.897466 242.763311 
z
" clip-path="url(#p2a427c1a11)" style="fill: #1f77b4"/>
   </g>
   <g id="patch_29">
    <path d="M 106.149793 246.90101 
L 108.176887 246.90101 
L 108.176887 243.51562 
L 106.149793 243.51562 
z
" clip-path="url(#p2a427c1a11)" style="fill: #1f77b4"/>
   </g>
   <g id="patch_30">
    <path d="M 108.40212 246.90101 
L 110.429214 246.90101 
L 110.429214 245.772547 
L 108.40212 245.772547 
z
" clip-path="url(#p2a427c1a11)" style="fill: #1f77b4"/>
   </g>
   <g id="patch_31">
    <path d="M 110.654447 246.90101 
L 112.681541 246.90101 
L 112.681541 246.90101 
L 110.654447 246.90101 
z
" clip-path="url(#p2a427c1a11)" style="fill: #1f77b4"/>
   </g>
   <g id="patch_32">
    <path d="M 112.906774 246.90101 
L 114.933868 246.90101 
L 114.933868 246.148701 
L 112.906774 246.148701 
z
" clip-path="url(#p2a427c1a11)" style="fill: #1f77b4"/>
   </g>
   <g id="matplotlib.axis_1">
    <g id="xtick_1">
     <g id="line2d_1">
      <defs>
       <path id="md1b004db7f" d="M 0 0 
L 0 3.5 
" style="stroke: #000000; stroke-width: 0.8"/>
      </defs>
      <g>
       <use xlink:href="#md1b004db7f" x="81.734218" y="246.90101" style="stroke: #000000; stroke-width: 0.8"/>
      </g>
     </g>
     <g id="text_1">
      <!-- 1.35 -->
      <g transform="translate(66.14828 264.538822) scale(0.14 -0.14)">
       <defs>
        <path id="DejaVuSans-31" d="M 794 531 
L 1825 531 
L 1825 4091 
L 703 3866 
L 703 4441 
L 1819 4666 
L 2450 4666 
L 2450 531 
L 3481 531 
L 3481 0 
L 794 0 
L 794 531 
z
" transform="scale(0.015625)"/>
        <path id="DejaVuSans-2e" d="M 684 794 
L 1344 794 
L 1344 0 
L 684 0 
L 684 794 
z
" transform="scale(0.015625)"/>
        <path id="DejaVuSans-33" d="M 2597 2516 
Q 3050 2419 3304 2112 
Q 3559 1806 3559 1356 
Q 3559 666 3084 287 
Q 2609 -91 1734 -91 
Q 1441 -91 1130 -33 
Q 819 25 488 141 
L 488 750 
Q 750 597 1062 519 
Q 1375 441 1716 441 
Q 2309 441 2620 675 
Q 2931 909 2931 1356 
Q 2931 1769 2642 2001 
Q 2353 2234 1838 2234 
L 1294 2234 
L 1294 2753 
L 1863 2753 
Q 2328 2753 2575 2939 
Q 2822 3125 2822 3475 
Q 2822 3834 2567 4026 
Q 2313 4219 1838 4219 
Q 1578 4219 1281 4162 
Q 984 4106 628 3988 
L 628 4550 
Q 988 4650 1302 4700 
Q 1616 4750 1894 4750 
Q 2613 4750 3031 4423 
Q 3450 4097 3450 3541 
Q 3450 3153 3228 2886 
Q 3006 2619 2597 2516 
z
" transform="scale(0.015625)"/>
        <path id="DejaVuSans-35" d="M 691 4666 
L 3169 4666 
L 3169 4134 
L 1269 4134 
L 1269 2991 
Q 1406 3038 1543 3061 
Q 1681 3084 1819 3084 
Q 2600 3084 3056 2656 
Q 3513 2228 3513 1497 
Q 3513 744 3044 326 
Q 2575 -91 1722 -91 
Q 1428 -91 1123 -41 
Q 819 9 494 109 
L 494 744 
Q 775 591 1075 516 
Q 1375 441 1709 441 
Q 2250 441 2565 725 
Q 2881 1009 2881 1497 
Q 2881 1984 2565 2268 
Q 2250 2553 1709 2553 
Q 1456 2553 1204 2497 
Q 953 2441 691 2322 
L 691 4666 
z
" transform="scale(0.015625)"/>
       </defs>
       <use xlink:href="#DejaVuSans-31"/>
       <use xlink:href="#DejaVuSans-2e" x="63.623047"/>
       <use xlink:href="#DejaVuSans-33" x="95.410156"/>
       <use xlink:href="#DejaVuSans-35" x="159.033203"/>
      </g>
     </g>
    </g>
    <g id="xtick_2">
     <g id="line2d_2">
      <g>
       <use xlink:href="#md1b004db7f" x="129.334876" y="246.90101" style="stroke: #000000; stroke-width: 0.8"/>
      </g>
     </g>
     <g id="text_2">
      <!-- 1.40 -->
      <g transform="translate(113.748939 264.538822) scale(0.14 -0.14)">
       <defs>
        <path id="DejaVuSans-34" d="M 2419 4116 
L 825 1625 
L 2419 1625 
L 2419 4116 
z
M 2253 4666 
L 3047 4666 
L 3047 1625 
L 3713 1625 
L 3713 1100 
L 3047 1100 
L 3047 0 
L 2419 0 
L 2419 1100 
L 313 1100 
L 313 1709 
L 2253 4666 
z
" transform="scale(0.015625)"/>
        <path id="DejaVuSans-30" d="M 2034 4250 
Q 1547 4250 1301 3770 
Q 1056 3291 1056 2328 
Q 1056 1369 1301 889 
Q 1547 409 2034 409 
Q 2525 409 2770 889 
Q 3016 1369 3016 2328 
Q 3016 3291 2770 3770 
Q 2525 4250 2034 4250 
z
M 2034 4750 
Q 2819 4750 3233 4129 
Q 3647 3509 3647 2328 
Q 3647 1150 3233 529 
Q 2819 -91 2034 -91 
Q 1250 -91 836 529 
Q 422 1150 422 2328 
Q 422 3509 836 4129 
Q 1250 4750 2034 4750 
z
" transform="scale(0.015625)"/>
       </defs>
       <use xlink:href="#DejaVuSans-31"/>
       <use xlink:href="#DejaVuSans-2e" x="63.623047"/>
       <use xlink:href="#DejaVuSans-34" x="95.410156"/>
       <use xlink:href="#DejaVuSans-30" x="159.033203"/>
      </g>
     </g>
    </g>
    <g id="xtick_3">
     <g id="line2d_3">
      <g>
       <use xlink:href="#md1b004db7f" x="176.935534" y="246.90101" style="stroke: #000000; stroke-width: 0.8"/>
      </g>
     </g>
     <g id="text_3">
      <!-- 1.45 -->
      <g transform="translate(161.349597 264.538822) scale(0.14 -0.14)">
       <use xlink:href="#DejaVuSans-31"/>
       <use xlink:href="#DejaVuSans-2e" x="63.623047"/>
       <use xlink:href="#DejaVuSans-34" x="95.410156"/>
       <use xlink:href="#DejaVuSans-35" x="159.033203"/>
      </g>
     </g>
    </g>
    <g id="xtick_4">
     <g id="line2d_4">
      <g>
       <use xlink:href="#md1b004db7f" x="224.536193" y="246.90101" style="stroke: #000000; stroke-width: 0.8"/>
      </g>
     </g>
     <g id="text_4">
      <!-- 1.50 -->
      <g transform="translate(208.950255 264.538822) scale(0.14 -0.14)">
       <use xlink:href="#DejaVuSans-31"/>
       <use xlink:href="#DejaVuSans-2e" x="63.623047"/>
       <use xlink:href="#DejaVuSans-35" x="95.410156"/>
       <use xlink:href="#DejaVuSans-30" x="159.033203"/>
      </g>
     </g>
    </g>
    <g id="xtick_5">
     <g id="line2d_5">
      <g>
       <use xlink:href="#md1b004db7f" x="272.136851" y="246.90101" style="stroke: #000000; stroke-width: 0.8"/>
      </g>
     </g>
     <g id="text_5">
      <!-- 1.55 -->
      <g transform="translate(256.550913 264.538822) scale(0.14 -0.14)">
       <use xlink:href="#DejaVuSans-31"/>
       <use xlink:href="#DejaVuSans-2e" x="63.623047"/>
       <use xlink:href="#DejaVuSans-35" x="95.410156"/>
       <use xlink:href="#DejaVuSans-35" x="159.033203"/>
      </g>
     </g>
    </g>
    <g id="text_6">
     <!-- $E_1$ [MPa] -->
     <g transform="translate(128.881058 282.088197) scale(0.14 -0.14)">
      <defs>
       <path id="DejaVuSans-Oblique-45" d="M 1081 4666 
L 4031 4666 
L 3928 4134 
L 1606 4134 
L 1338 2753 
L 3566 2753 
L 3463 2222 
L 1234 2222 
L 909 531 
L 3284 531 
L 3181 0 
L 172 0 
L 1081 4666 
z
" transform="scale(0.015625)"/>
       <path id="DejaVuSans-20" transform="scale(0.015625)"/>
       <path id="DejaVuSans-5b" d="M 550 4863 
L 1875 4863 
L 1875 4416 
L 1125 4416 
L 1125 -397 
L 1875 -397 
L 1875 -844 
L 550 -844 
L 550 4863 
z
" transform="scale(0.015625)"/>
       <path id="DejaVuSans-4d" d="M 628 4666 
L 1569 4666 
L 2759 1491 
L 3956 4666 
L 4897 4666 
L 4897 0 
L 4281 0 
L 4281 4097 
L 3078 897 
L 2444 897 
L 1241 4097 
L 1241 0 
L 628 0 
L 628 4666 
z
" transform="scale(0.015625)"/>
       <path id="DejaVuSans-50" d="M 1259 4147 
L 1259 2394 
L 2053 2394 
Q 2494 2394 2734 2622 
Q 2975 2850 2975 3272 
Q 2975 3691 2734 3919 
Q 2494 4147 2053 4147 
L 1259 4147 
z
M 628 4666 
L 2053 4666 
Q 2838 4666 3239 4311 
Q 3641 3956 3641 3272 
Q 3641 2581 3239 2228 
Q 2838 1875 2053 1875 
L 1259 1875 
L 1259 0 
L 628 0 
L 628 4666 
z
" transform="scale(0.015625)"/>
       <path id="DejaVuSans-61" d="M 2194 1759 
Q 1497 1759 1228 1600 
Q 959 1441 959 1056 
Q 959 750 1161 570 
Q 1363 391 1709 391 
Q 2188 391 2477 730 
Q 2766 1069 2766 1631 
L 2766 1759 
L 2194 1759 
z
M 3341 1997 
L 3341 0 
L 2766 0 
L 2766 531 
Q 2569 213 2275 61 
Q 1981 -91 1556 -91 
Q 1019 -91 701 211 
Q 384 513 384 1019 
Q 384 1609 779 1909 
Q 1175 2209 1959 2209 
L 2766 2209 
L 2766 2266 
Q 2766 2663 2505 2880 
Q 2244 3097 1772 3097 
Q 1472 3097 1187 3025 
Q 903 2953 641 2809 
L 641 3341 
Q 956 3463 1253 3523 
Q 1550 3584 1831 3584 
Q 2591 3584 2966 3190 
Q 3341 2797 3341 1997 
z
" transform="scale(0.015625)"/>
       <path id="DejaVuSans-5d" d="M 1947 4863 
L 1947 -844 
L 622 -844 
L 622 -397 
L 1369 -397 
L 1369 4416 
L 622 4416 
L 622 4863 
L 1947 4863 
z
" transform="scale(0.015625)"/>
      </defs>
      <use xlink:href="#DejaVuSans-Oblique-45" transform="translate(0 0.015625)"/>
      <use xlink:href="#DejaVuSans-31" transform="translate(63.183594 -16.390625) scale(0.7)"/>
      <use xlink:href="#DejaVuSans-20" transform="translate(110.454102 0.015625)"/>
      <use xlink:href="#DejaVuSans-5b" transform="translate(142.241211 0.015625)"/>
      <use xlink:href="#DejaVuSans-4d" transform="translate(181.254883 0.015625)"/>
      <use xlink:href="#DejaVuSans-50" transform="translate(267.53418 0.015625)"/>
      <use xlink:href="#DejaVuSans-61" transform="translate(327.836914 0.015625)"/>
      <use xlink:href="#DejaVuSans-5d" transform="translate(389.116211 0.015625)"/>
     </g>
    </g>
    <g id="text_7">
     <!-- 1e5 -->
     <g transform="translate(254.935626 281.088197) scale(0.14 -0.14)">
      <defs>
       <path id="DejaVuSans-65" d="M 3597 1894 
L 3597 1613 
L 953 1613 
Q 991 1019 1311 708 
Q 1631 397 2203 397 
Q 2534 397 2845 478 
Q 3156 559 3463 722 
L 3463 178 
Q 3153 47 2828 -22 
Q 2503 -91 2169 -91 
Q 1331 -91 842 396 
Q 353 884 353 1716 
Q 353 2575 817 3079 
Q 1281 3584 2069 3584 
Q 2775 3584 3186 3129 
Q 3597 2675 3597 1894 
z
M 3022 2063 
Q 3016 2534 2758 2815 
Q 2500 3097 2075 3097 
Q 1594 3097 1305 2825 
Q 1016 2553 972 2059 
L 3022 2063 
z
" transform="scale(0.015625)"/>
      </defs>
      <use xlink:href="#DejaVuSans-31"/>
      <use xlink:href="#DejaVuSans-65" x="63.623047"/>
      <use xlink:href="#DejaVuSans-35" x="125.146484"/>
     </g>
    </g>
   </g>
   <g id="matplotlib.axis_2">
    <g id="ytick_1">
     <g id="line2d_6">
      <defs>
       <path id="m8d3a4aa12d" d="M 0 0 
L -3.5 0 
" style="stroke: #000000; stroke-width: 0.8"/>
      </defs>
      <g>
       <use xlink:href="#m8d3a4aa12d" x="36.457115" y="246.90101" style="stroke: #000000; stroke-width: 0.8"/>
      </g>
     </g>
     <g id="text_8">
      <!-- 0 -->
      <g transform="translate(20.549615 252.219916) scale(0.14 -0.14)">
       <use xlink:href="#DejaVuSans-30"/>
      </g>
     </g>
    </g>
    <g id="ytick_2">
     <g id="line2d_7">
      <g>
       <use xlink:href="#m8d3a4aa12d" x="36.457115" y="202.404627" style="stroke: #000000; stroke-width: 0.8"/>
      </g>
     </g>
     <g id="text_9">
      <!-- 1 -->
      <g transform="translate(20.549615 207.723533) scale(0.14 -0.14)">
       <use xlink:href="#DejaVuSans-31"/>
      </g>
     </g>
    </g>
    <g id="ytick_3">
     <g id="line2d_8">
      <g>
       <use xlink:href="#m8d3a4aa12d" x="36.457115" y="157.908243" style="stroke: #000000; stroke-width: 0.8"/>
      </g>
     </g>
     <g id="text_10">
      <!-- 2 -->
      <g transform="translate(20.549615 163.227149) scale(0.14 -0.14)">
       <defs>
        <path id="DejaVuSans-32" d="M 1228 531 
L 3431 531 
L 3431 0 
L 469 0 
L 469 531 
Q 828 903 1448 1529 
Q 2069 2156 2228 2338 
Q 2531 2678 2651 2914 
Q 2772 3150 2772 3378 
Q 2772 3750 2511 3984 
Q 2250 4219 1831 4219 
Q 1534 4219 1204 4116 
Q 875 4013 500 3803 
L 500 4441 
Q 881 4594 1212 4672 
Q 1544 4750 1819 4750 
Q 2544 4750 2975 4387 
Q 3406 4025 3406 3419 
Q 3406 3131 3298 2873 
Q 3191 2616 2906 2266 
Q 2828 2175 2409 1742 
Q 1991 1309 1228 531 
z
" transform="scale(0.015625)"/>
       </defs>
       <use xlink:href="#DejaVuSans-32"/>
      </g>
     </g>
    </g>
    <g id="ytick_4">
     <g id="line2d_9">
      <g>
       <use xlink:href="#m8d3a4aa12d" x="36.457115" y="113.41186" style="stroke: #000000; stroke-width: 0.8"/>
      </g>
     </g>
     <g id="text_11">
      <!-- 3 -->
      <g transform="translate(20.549615 118.730766) scale(0.14 -0.14)">
       <use xlink:href="#DejaVuSans-33"/>
      </g>
     </g>
    </g>
    <g id="ytick_5">
     <g id="line2d_10">
      <g>
       <use xlink:href="#m8d3a4aa12d" x="36.457115" y="68.915476" style="stroke: #000000; stroke-width: 0.8"/>
      </g>
     </g>
     <g id="text_12">
      <!-- 4 -->
      <g transform="translate(20.549615 74.234382) scale(0.14 -0.14)">
       <use xlink:href="#DejaVuSans-34"/>
      </g>
     </g>
    </g>
    <g id="ytick_6">
     <g id="line2d_11">
      <g>
       <use xlink:href="#m8d3a4aa12d" x="36.457115" y="24.419093" style="stroke: #000000; stroke-width: 0.8"/>
      </g>
     </g>
     <g id="text_13">
      <!-- 5 -->
      <g transform="translate(20.549615 29.737999) scale(0.14 -0.14)">
       <use xlink:href="#DejaVuSans-35"/>
      </g>
     </g>
    </g>
    <g id="text_14">
     <!-- PDF -->
     <g transform="translate(13.638053 145.406406) rotate(-90) scale(0.14 -0.14)">
      <defs>
       <path id="DejaVuSans-44" d="M 1259 4147 
L 1259 519 
L 2022 519 
Q 2988 519 3436 956 
Q 3884 1394 3884 2338 
Q 3884 3275 3436 3711 
Q 2988 4147 2022 4147 
L 1259 4147 
z
M 628 4666 
L 1925 4666 
Q 3281 4666 3915 4102 
Q 4550 3538 4550 2338 
Q 4550 1131 3912 565 
Q 3275 0 1925 0 
L 628 0 
L 628 4666 
z
" transform="scale(0.015625)"/>
       <path id="DejaVuSans-46" d="M 628 4666 
L 3309 4666 
L 3309 4134 
L 1259 4134 
L 1259 2759 
L 3109 2759 
L 3109 2228 
L 1259 2228 
L 1259 0 
L 628 0 
L 628 4666 
z
" transform="scale(0.015625)"/>
      </defs>
      <use xlink:href="#DejaVuSans-50"/>
      <use xlink:href="#DejaVuSans-44" x="60.302734"/>
      <use xlink:href="#DejaVuSans-46" x="137.304688"/>
     </g>
    </g>
    <g id="text_15">
     <!-- 1e−4 -->
     <g transform="translate(36.457115 13.638052) scale(0.14 -0.14)">
      <defs>
       <path id="DejaVuSans-2212" d="M 678 2272 
L 4684 2272 
L 4684 1741 
L 678 1741 
L 678 2272 
z
" transform="scale(0.015625)"/>
      </defs>
      <use xlink:href="#DejaVuSans-31"/>
      <use xlink:href="#DejaVuSans-65" x="63.623047"/>
      <use xlink:href="#DejaVuSans-2212" x="125.146484"/>
      <use xlink:href="#DejaVuSans-34" x="208.935547"/>
     </g>
    </g>
   </g>
   <g id="line2d_12">
    <path d="M 155.991245 245.915004 
L 157.1452 245.720568 
L 158.299155 245.492972 
L 159.453111 245.227651 
L 160.607066 244.919627 
L 161.761021 244.563504 
L 162.914977 244.153485 
L 164.068932 243.683384 
L 165.222888 243.146665 
L 166.376843 242.53648 
L 167.530798 241.845724 
L 168.684754 241.067114 
L 169.838709 240.193266 
L 170.992664 239.216803 
L 172.14662 238.130468 
L 173.300575 236.927258 
L 174.45453 235.600565 
L 175.608486 234.144341 
L 176.762441 232.553258 
L 177.916396 230.822893 
L 179.070352 228.949899 
L 180.224307 226.932196 
L 181.378262 224.769145 
L 182.532218 222.461723 
L 183.686173 220.012679 
L 184.840128 217.426678 
L 185.994084 214.710424 
L 187.148039 211.872748 
L 188.301995 208.924671 
L 189.45595 205.879429 
L 190.609905 202.752455 
L 191.763861 199.561323 
L 192.917816 196.325641 
L 194.071771 193.066899 
L 195.225727 189.808279 
L 196.379682 186.574404 
L 197.533637 183.391062 
L 198.687593 180.284877 
L 199.841548 177.282957 
L 200.995503 174.412508 
L 202.149459 171.700433 
L 203.303414 169.172917 
L 204.457369 166.855007 
L 205.611325 164.770204 
L 206.76528 162.940066 
L 207.919235 161.383837 
L 209.073191 160.118111 
L 210.227146 159.156537 
L 211.381102 158.509576 
L 212.535057 158.184309 
L 213.689012 158.184309 
L 214.842968 158.509576 
L 215.996923 159.156537 
L 217.150878 160.118111 
L 218.304834 161.383837 
L 219.458789 162.940066 
L 220.612744 164.770204 
L 221.7667 166.855007 
L 222.920655 169.172917 
L 224.07461 171.700433 
L 225.228566 174.412508 
L 226.382521 177.282957 
L 227.536476 180.284877 
L 228.690432 183.391062 
L 229.844387 186.574404 
L 230.998342 189.808279 
L 232.152298 193.066899 
L 233.306253 196.325641 
L 234.460209 199.561323 
L 235.614164 202.752455 
L 236.768119 205.879429 
L 237.922075 208.924671 
L 239.07603 211.872748 
L 240.229985 214.710424 
L 241.383941 217.426678 
L 242.537896 220.012679 
L 243.691851 222.461723 
L 244.845807 224.769145 
L 245.999762 226.932196 
L 247.153717 228.949899 
L 248.307673 230.822893 
L 249.461628 232.553258 
L 250.615583 234.144341 
L 251.769539 235.600565 
L 252.923494 236.927258 
L 254.077449 238.130468 
L 255.231405 239.216803 
L 256.38536 240.193266 
L 257.539316 241.067114 
L 258.693271 241.845724 
L 259.847226 242.53648 
L 261.001182 243.146665 
L 262.155137 243.683384 
L 263.309092 244.153485 
L 264.463048 244.563504 
L 265.617003 244.919627 
L 266.770958 245.227651 
L 267.924914 245.492972 
L 269.078869 245.720568 
L 270.232824 245.915004 
" clip-path="url(#p2a427c1a11)" style="fill: none; stroke: #2ca02c; stroke-width: 1.5; stroke-linecap: square"/>
   </g>
   <g id="patch_33">
    <path d="M 36.457115 246.90101 
L 36.457115 16.638052 
" style="fill: none; stroke: #000000; stroke-width: 0.8; stroke-linejoin: miter; stroke-linecap: square"/>
   </g>
   <g id="patch_34">
    <path d="M 281.365001 246.90101 
L 281.365001 16.638052 
" style="fill: none; stroke: #000000; stroke-width: 0.8; stroke-linejoin: miter; stroke-linecap: square"/>
   </g>
   <g id="patch_35">
    <path d="M 36.457115 246.90101 
L 281.365001 246.90101 
" style="fill: none; stroke: #000000; stroke-width: 0.8; stroke-linejoin: miter; stroke-linecap: square"/>
   </g>
   <g id="patch_36">
    <path d="M 36.457115 16.638052 
L 281.365001 16.638052 
" style="fill: none; stroke: #000000; stroke-width: 0.8; stroke-linejoin: miter; stroke-linecap: square"/>
   </g>
   <g id="legend_1">
    <g id="patch_37">
     <path d="M 164.902501 68.936802 
L 271.565001 68.936802 
Q 274.365001 68.936802 274.365001 66.136802 
L 274.365001 26.438053 
Q 274.365001 23.638053 271.565001 23.638053 
L 164.902501 23.638053 
Q 162.102501 23.638053 162.102501 26.438053 
L 162.102501 66.136802 
Q 162.102501 68.936802 164.902501 68.936802 
z
" style="fill: #ffffff; opacity: 0.8; stroke: #cccccc; stroke-linejoin: miter"/>
    </g>
    <g id="line2d_13">
     <path d="M 167.702501 34.975865 
L 181.702501 34.975865 
L 195.702501 34.975865 
" style="fill: none; stroke: #2ca02c; stroke-width: 1.5; stroke-linecap: square"/>
    </g>
    <g id="text_16">
     <!-- Prior -->
     <g transform="translate(206.902501 39.875865) scale(0.14 -0.14)">
      <defs>
       <path id="DejaVuSans-72" d="M 2631 2963 
Q 2534 3019 2420 3045 
Q 2306 3072 2169 3072 
Q 1681 3072 1420 2755 
Q 1159 2438 1159 1844 
L 1159 0 
L 581 0 
L 581 3500 
L 1159 3500 
L 1159 2956 
Q 1341 3275 1631 3429 
Q 1922 3584 2338 3584 
Q 2397 3584 2469 3576 
Q 2541 3569 2628 3553 
L 2631 2963 
z
" transform="scale(0.015625)"/>
       <path id="DejaVuSans-69" d="M 603 3500 
L 1178 3500 
L 1178 0 
L 603 0 
L 603 3500 
z
M 603 4863 
L 1178 4863 
L 1178 4134 
L 603 4134 
L 603 4863 
z
" transform="scale(0.015625)"/>
       <path id="DejaVuSans-6f" d="M 1959 3097 
Q 1497 3097 1228 2736 
Q 959 2375 959 1747 
Q 959 1119 1226 758 
Q 1494 397 1959 397 
Q 2419 397 2687 759 
Q 2956 1122 2956 1747 
Q 2956 2369 2687 2733 
Q 2419 3097 1959 3097 
z
M 1959 3584 
Q 2709 3584 3137 3096 
Q 3566 2609 3566 1747 
Q 3566 888 3137 398 
Q 2709 -91 1959 -91 
Q 1206 -91 779 398 
Q 353 888 353 1747 
Q 353 2609 779 3096 
Q 1206 3584 1959 3584 
z
" transform="scale(0.015625)"/>
      </defs>
      <use xlink:href="#DejaVuSans-50"/>
      <use xlink:href="#DejaVuSans-72" x="58.552734"/>
      <use xlink:href="#DejaVuSans-69" x="99.666016"/>
      <use xlink:href="#DejaVuSans-6f" x="127.449219"/>
      <use xlink:href="#DejaVuSans-72" x="188.630859"/>
     </g>
    </g>
    <g id="patch_38">
     <path d="M 167.702501 60.42524 
L 195.702501 60.42524 
L 195.702501 50.62524 
L 167.702501 50.62524 
z
" style="fill: #1f77b4"/>
    </g>
    <g id="text_17">
     <!-- Posterior -->
     <g transform="translate(206.902501 60.42524) scale(0.14 -0.14)">
      <defs>
       <path id="DejaVuSans-73" d="M 2834 3397 
L 2834 2853 
Q 2591 2978 2328 3040 
Q 2066 3103 1784 3103 
Q 1356 3103 1142 2972 
Q 928 2841 928 2578 
Q 928 2378 1081 2264 
Q 1234 2150 1697 2047 
L 1894 2003 
Q 2506 1872 2764 1633 
Q 3022 1394 3022 966 
Q 3022 478 2636 193 
Q 2250 -91 1575 -91 
Q 1294 -91 989 -36 
Q 684 19 347 128 
L 347 722 
Q 666 556 975 473 
Q 1284 391 1588 391 
Q 1994 391 2212 530 
Q 2431 669 2431 922 
Q 2431 1156 2273 1281 
Q 2116 1406 1581 1522 
L 1381 1569 
Q 847 1681 609 1914 
Q 372 2147 372 2553 
Q 372 3047 722 3315 
Q 1072 3584 1716 3584 
Q 2034 3584 2315 3537 
Q 2597 3491 2834 3397 
z
" transform="scale(0.015625)"/>
       <path id="DejaVuSans-74" d="M 1172 4494 
L 1172 3500 
L 2356 3500 
L 2356 3053 
L 1172 3053 
L 1172 1153 
Q 1172 725 1289 603 
Q 1406 481 1766 481 
L 2356 481 
L 2356 0 
L 1766 0 
Q 1100 0 847 248 
Q 594 497 594 1153 
L 594 3053 
L 172 3053 
L 172 3500 
L 594 3500 
L 594 4494 
L 1172 4494 
z
" transform="scale(0.015625)"/>
      </defs>
      <use xlink:href="#DejaVuSans-50"/>
      <use xlink:href="#DejaVuSans-6f" x="56.677734"/>
      <use xlink:href="#DejaVuSans-73" x="117.859375"/>
      <use xlink:href="#DejaVuSans-74" x="169.958984"/>
      <use xlink:href="#DejaVuSans-65" x="209.167969"/>
      <use xlink:href="#DejaVuSans-72" x="270.691406"/>
      <use xlink:href="#DejaVuSans-69" x="311.804688"/>
      <use xlink:href="#DejaVuSans-6f" x="339.587891"/>
      <use xlink:href="#DejaVuSans-72" x="400.769531"/>
     </g>
    </g>
   </g>
  </g>
  <g id="axes_2">
   <g id="patch_39">
    <path d="M 340.802664 246.90101 
L 585.71055 246.90101 
L 585.71055 16.638052 
L 340.802664 16.638052 
z
" style="fill: #ffffff"/>
   </g>
   <g id="patch_40">
    <path d="M 351.93484 246.90101 
L 358.636485 246.90101 
L 358.636485 246.020295 
L 351.93484 246.020295 
z
" clip-path="url(#p61ddb8065b)" style="fill: #1f77b4"/>
   </g>
   <g id="patch_41">
    <path d="M 359.381112 246.90101 
L 366.082757 246.90101 
L 366.082757 246.020295 
L 359.381112 246.020295 
z
" clip-path="url(#p61ddb8065b)" style="fill: #1f77b4"/>
   </g>
   <g id="patch_42">
    <path d="M 366.827384 246.90101 
L 373.529029 246.90101 
L 373.529029 245.13958 
L 366.827384 245.13958 
z
" clip-path="url(#p61ddb8065b)" style="fill: #1f77b4"/>
   </g>
   <g id="patch_43">
    <path d="M 374.273656 246.90101 
L 380.975301 246.90101 
L 380.975301 242.937792 
L 374.273656 242.937792 
z
" clip-path="url(#p61ddb8065b)" style="fill: #1f77b4"/>
   </g>
   <g id="patch_44">
    <path d="M 381.719928 246.90101 
L 388.421573 246.90101 
L 388.421573 237.653502 
L 381.719928 237.653502 
z
" clip-path="url(#p61ddb8065b)" style="fill: #1f77b4"/>
   </g>
   <g id="patch_45">
    <path d="M 389.1662 246.90101 
L 395.867845 246.90101 
L 395.867845 230.607781 
L 389.1662 230.607781 
z
" clip-path="url(#p61ddb8065b)" style="fill: #1f77b4"/>
   </g>
   <g id="patch_46">
    <path d="M 396.612472 246.90101 
L 403.314117 246.90101 
L 403.314117 218.718127 
L 396.612472 218.718127 
z
" clip-path="url(#p61ddb8065b)" style="fill: #1f77b4"/>
   </g>
   <g id="patch_47">
    <path d="M 404.058744 246.90101 
L 410.760389 246.90101 
L 410.760389 209.030262 
L 404.058744 209.030262 
z
" clip-path="url(#p61ddb8065b)" style="fill: #1f77b4"/>
   </g>
   <g id="patch_48">
    <path d="M 411.505016 246.90101 
L 418.206661 246.90101 
L 418.206661 187.012385 
L 411.505016 187.012385 
z
" clip-path="url(#p61ddb8065b)" style="fill: #1f77b4"/>
   </g>
   <g id="patch_49">
    <path d="M 418.951288 246.90101 
L 425.652933 246.90101 
L 425.652933 164.113793 
L 418.951288 164.113793 
z
" clip-path="url(#p61ddb8065b)" style="fill: #1f77b4"/>
   </g>
   <g id="patch_50">
    <path d="M 426.39756 246.90101 
L 433.099205 246.90101 
L 433.099205 146.939848 
L 426.39756 146.939848 
z
" clip-path="url(#p61ddb8065b)" style="fill: #1f77b4"/>
   </g>
   <g id="patch_51">
    <path d="M 433.843832 246.90101 
L 440.545477 246.90101 
L 440.545477 122.720184 
L 433.843832 122.720184 
z
" clip-path="url(#p61ddb8065b)" style="fill: #1f77b4"/>
   </g>
   <g id="patch_52">
    <path d="M 441.290104 246.90101 
L 447.991749 246.90101 
L 447.991749 109.949815 
L 441.290104 109.949815 
z
" clip-path="url(#p61ddb8065b)" style="fill: #1f77b4"/>
   </g>
   <g id="patch_53">
    <path d="M 448.736376 246.90101 
L 455.438021 246.90101 
L 455.438021 61.510486 
L 448.736376 61.510486 
z
" clip-path="url(#p61ddb8065b)" style="fill: #1f77b4"/>
   </g>
   <g id="patch_54">
    <path d="M 456.182648 246.90101 
L 462.884293 246.90101 
L 462.884293 27.602955 
L 456.182648 27.602955 
z
" clip-path="url(#p61ddb8065b)" style="fill: #1f77b4"/>
   </g>
   <g id="patch_55">
    <path d="M 463.62892 246.90101 
L 470.330565 246.90101 
L 470.330565 46.538329 
L 463.62892 46.538329 
z
" clip-path="url(#p61ddb8065b)" style="fill: #1f77b4"/>
   </g>
   <g id="patch_56">
    <path d="M 471.075192 246.90101 
L 477.776837 246.90101 
L 477.776837 30.2451 
L 471.075192 30.2451 
z
" clip-path="url(#p61ddb8065b)" style="fill: #1f77b4"/>
   </g>
   <g id="patch_57">
    <path d="M 478.521464 246.90101 
L 485.223109 246.90101 
L 485.223109 66.794776 
L 478.521464 66.794776 
z
" clip-path="url(#p61ddb8065b)" style="fill: #1f77b4"/>
   </g>
   <g id="patch_58">
    <path d="M 485.967736 246.90101 
L 492.669381 246.90101 
L 492.669381 82.20729 
L 485.967736 82.20729 
z
" clip-path="url(#p61ddb8065b)" style="fill: #1f77b4"/>
   </g>
   <g id="patch_59">
    <path d="M 493.414008 246.90101 
L 500.115653 246.90101 
L 500.115653 109.509458 
L 493.414008 109.509458 
z
" clip-path="url(#p61ddb8065b)" style="fill: #1f77b4"/>
   </g>
   <g id="patch_60">
    <path d="M 500.86028 246.90101 
L 507.561925 246.90101 
L 507.561925 141.655558 
L 500.86028 141.655558 
z
" clip-path="url(#p61ddb8065b)" style="fill: #1f77b4"/>
   </g>
   <g id="patch_61">
    <path d="M 508.306552 246.90101 
L 515.008197 246.90101 
L 515.008197 178.645591 
L 508.306552 178.645591 
z
" clip-path="url(#p61ddb8065b)" style="fill: #1f77b4"/>
   </g>
   <g id="patch_62">
    <path d="M 515.752824 246.90101 
L 522.454469 246.90101 
L 522.454469 200.223111 
L 515.752824 200.223111 
z
" clip-path="url(#p61ddb8065b)" style="fill: #1f77b4"/>
   </g>
   <g id="patch_63">
    <path d="M 523.199096 246.90101 
L 529.900741 246.90101 
L 529.900741 215.195267 
L 523.199096 215.195267 
z
" clip-path="url(#p61ddb8065b)" style="fill: #1f77b4"/>
   </g>
   <g id="patch_64">
    <path d="M 530.645368 246.90101 
L 537.347013 246.90101 
L 537.347013 232.369211 
L 530.645368 232.369211 
z
" clip-path="url(#p61ddb8065b)" style="fill: #1f77b4"/>
   </g>
   <g id="patch_65">
    <path d="M 538.09164 246.90101 
L 544.793285 246.90101 
L 544.793285 234.130641 
L 538.09164 234.130641 
z
" clip-path="url(#p61ddb8065b)" style="fill: #1f77b4"/>
   </g>
   <g id="patch_66">
    <path d="M 545.537912 246.90101 
L 552.239557 246.90101 
L 552.239557 238.974574 
L 545.537912 238.974574 
z
" clip-path="url(#p61ddb8065b)" style="fill: #1f77b4"/>
   </g>
   <g id="patch_67">
    <path d="M 552.984184 246.90101 
L 559.685829 246.90101 
L 559.685829 242.937792 
L 552.984184 242.937792 
z
" clip-path="url(#p61ddb8065b)" style="fill: #1f77b4"/>
   </g>
   <g id="patch_68">
    <path d="M 560.430456 246.90101 
L 567.132101 246.90101 
L 567.132101 244.699222 
L 560.430456 244.699222 
z
" clip-path="url(#p61ddb8065b)" style="fill: #1f77b4"/>
   </g>
   <g id="patch_69">
    <path d="M 567.876728 246.90101 
L 574.578373 246.90101 
L 574.578373 245.13958 
L 567.876728 245.13958 
z
" clip-path="url(#p61ddb8065b)" style="fill: #1f77b4"/>
   </g>
   <g id="matplotlib.axis_3">
    <g id="xtick_6">
     <g id="line2d_14">
      <g>
       <use xlink:href="#md1b004db7f" x="347.75564" y="246.90101" style="stroke: #000000; stroke-width: 0.8"/>
      </g>
     </g>
     <g id="text_18">
      <!-- 8800 -->
      <g transform="translate(329.94064 264.538822) scale(0.14 -0.14)">
       <defs>
        <path id="DejaVuSans-38" d="M 2034 2216 
Q 1584 2216 1326 1975 
Q 1069 1734 1069 1313 
Q 1069 891 1326 650 
Q 1584 409 2034 409 
Q 2484 409 2743 651 
Q 3003 894 3003 1313 
Q 3003 1734 2745 1975 
Q 2488 2216 2034 2216 
z
M 1403 2484 
Q 997 2584 770 2862 
Q 544 3141 544 3541 
Q 544 4100 942 4425 
Q 1341 4750 2034 4750 
Q 2731 4750 3128 4425 
Q 3525 4100 3525 3541 
Q 3525 3141 3298 2862 
Q 3072 2584 2669 2484 
Q 3125 2378 3379 2068 
Q 3634 1759 3634 1313 
Q 3634 634 3220 271 
Q 2806 -91 2034 -91 
Q 1263 -91 848 271 
Q 434 634 434 1313 
Q 434 1759 690 2068 
Q 947 2378 1403 2484 
z
M 1172 3481 
Q 1172 3119 1398 2916 
Q 1625 2713 2034 2713 
Q 2441 2713 2670 2916 
Q 2900 3119 2900 3481 
Q 2900 3844 2670 4047 
Q 2441 4250 2034 4250 
Q 1625 4250 1398 4047 
Q 1172 3844 1172 3481 
z
" transform="scale(0.015625)"/>
       </defs>
       <use xlink:href="#DejaVuSans-38"/>
       <use xlink:href="#DejaVuSans-38" x="63.623047"/>
       <use xlink:href="#DejaVuSans-30" x="127.246094"/>
       <use xlink:href="#DejaVuSans-30" x="190.869141"/>
      </g>
     </g>
    </g>
    <g id="xtick_7">
     <g id="line2d_15">
      <g>
       <use xlink:href="#md1b004db7f" x="408.955128" y="246.90101" style="stroke: #000000; stroke-width: 0.8"/>
      </g>
     </g>
     <g id="text_19">
      <!-- 9000 -->
      <g transform="translate(391.140128 264.538822) scale(0.14 -0.14)">
       <defs>
        <path id="DejaVuSans-39" d="M 703 97 
L 703 672 
Q 941 559 1184 500 
Q 1428 441 1663 441 
Q 2288 441 2617 861 
Q 2947 1281 2994 2138 
Q 2813 1869 2534 1725 
Q 2256 1581 1919 1581 
Q 1219 1581 811 2004 
Q 403 2428 403 3163 
Q 403 3881 828 4315 
Q 1253 4750 1959 4750 
Q 2769 4750 3195 4129 
Q 3622 3509 3622 2328 
Q 3622 1225 3098 567 
Q 2575 -91 1691 -91 
Q 1453 -91 1209 -44 
Q 966 3 703 97 
z
M 1959 2075 
Q 2384 2075 2632 2365 
Q 2881 2656 2881 3163 
Q 2881 3666 2632 3958 
Q 2384 4250 1959 4250 
Q 1534 4250 1286 3958 
Q 1038 3666 1038 3163 
Q 1038 2656 1286 2365 
Q 1534 2075 1959 2075 
z
" transform="scale(0.015625)"/>
       </defs>
       <use xlink:href="#DejaVuSans-39"/>
       <use xlink:href="#DejaVuSans-30" x="63.623047"/>
       <use xlink:href="#DejaVuSans-30" x="127.246094"/>
       <use xlink:href="#DejaVuSans-30" x="190.869141"/>
      </g>
     </g>
    </g>
    <g id="xtick_8">
     <g id="line2d_16">
      <g>
       <use xlink:href="#md1b004db7f" x="470.154616" y="246.90101" style="stroke: #000000; stroke-width: 0.8"/>
      </g>
     </g>
     <g id="text_20">
      <!-- 9200 -->
      <g transform="translate(452.339616 264.538822) scale(0.14 -0.14)">
       <use xlink:href="#DejaVuSans-39"/>
       <use xlink:href="#DejaVuSans-32" x="63.623047"/>
       <use xlink:href="#DejaVuSans-30" x="127.246094"/>
       <use xlink:href="#DejaVuSans-30" x="190.869141"/>
      </g>
     </g>
    </g>
    <g id="xtick_9">
     <g id="line2d_17">
      <g>
       <use xlink:href="#md1b004db7f" x="531.354104" y="246.90101" style="stroke: #000000; stroke-width: 0.8"/>
      </g>
     </g>
     <g id="text_21">
      <!-- 9400 -->
      <g transform="translate(513.539104 264.538822) scale(0.14 -0.14)">
       <use xlink:href="#DejaVuSans-39"/>
       <use xlink:href="#DejaVuSans-34" x="63.623047"/>
       <use xlink:href="#DejaVuSans-30" x="127.246094"/>
       <use xlink:href="#DejaVuSans-30" x="190.869141"/>
      </g>
     </g>
    </g>
    <g id="text_22">
     <!-- $E_2$ [MPa] -->
     <g transform="translate(433.226607 282.088197) scale(0.14 -0.14)">
      <use xlink:href="#DejaVuSans-Oblique-45" transform="translate(0 0.015625)"/>
      <use xlink:href="#DejaVuSans-32" transform="translate(63.183594 -16.390625) scale(0.7)"/>
      <use xlink:href="#DejaVuSans-20" transform="translate(110.454102 0.015625)"/>
      <use xlink:href="#DejaVuSans-5b" transform="translate(142.241211 0.015625)"/>
      <use xlink:href="#DejaVuSans-4d" transform="translate(181.254883 0.015625)"/>
      <use xlink:href="#DejaVuSans-50" transform="translate(267.53418 0.015625)"/>
      <use xlink:href="#DejaVuSans-61" transform="translate(327.836914 0.015625)"/>
      <use xlink:href="#DejaVuSans-5d" transform="translate(389.116211 0.015625)"/>
     </g>
    </g>
   </g>
   <g id="matplotlib.axis_4">
    <g id="ytick_7">
     <g id="line2d_18">
      <g>
       <use xlink:href="#m8d3a4aa12d" x="340.802664" y="246.90101" style="stroke: #000000; stroke-width: 0.8"/>
      </g>
     </g>
     <g id="text_23">
      <!-- 0.000 -->
      <g transform="translate(293.723289 252.219916) scale(0.14 -0.14)">
       <use xlink:href="#DejaVuSans-30"/>
       <use xlink:href="#DejaVuSans-2e" x="63.623047"/>
       <use xlink:href="#DejaVuSans-30" x="95.410156"/>
       <use xlink:href="#DejaVuSans-30" x="159.033203"/>
       <use xlink:href="#DejaVuSans-30" x="222.65625"/>
      </g>
     </g>
    </g>
    <g id="ytick_8">
     <g id="line2d_19">
      <g>
       <use xlink:href="#m8d3a4aa12d" x="340.802664" y="193.321771" style="stroke: #000000; stroke-width: 0.8"/>
      </g>
     </g>
     <g id="text_24">
      <!-- 0.001 -->
      <g transform="translate(293.723289 198.640677) scale(0.14 -0.14)">
       <use xlink:href="#DejaVuSans-30"/>
       <use xlink:href="#DejaVuSans-2e" x="63.623047"/>
       <use xlink:href="#DejaVuSans-30" x="95.410156"/>
       <use xlink:href="#DejaVuSans-30" x="159.033203"/>
       <use xlink:href="#DejaVuSans-31" x="222.65625"/>
      </g>
     </g>
    </g>
    <g id="ytick_9">
     <g id="line2d_20">
      <g>
       <use xlink:href="#m8d3a4aa12d" x="340.802664" y="139.742532" style="stroke: #000000; stroke-width: 0.8"/>
      </g>
     </g>
     <g id="text_25">
      <!-- 0.002 -->
      <g transform="translate(293.723289 145.061438) scale(0.14 -0.14)">
       <use xlink:href="#DejaVuSans-30"/>
       <use xlink:href="#DejaVuSans-2e" x="63.623047"/>
       <use xlink:href="#DejaVuSans-30" x="95.410156"/>
       <use xlink:href="#DejaVuSans-30" x="159.033203"/>
       <use xlink:href="#DejaVuSans-32" x="222.65625"/>
      </g>
     </g>
    </g>
    <g id="ytick_10">
     <g id="line2d_21">
      <g>
       <use xlink:href="#m8d3a4aa12d" x="340.802664" y="86.163292" style="stroke: #000000; stroke-width: 0.8"/>
      </g>
     </g>
     <g id="text_26">
      <!-- 0.003 -->
      <g transform="translate(293.723289 91.482199) scale(0.14 -0.14)">
       <use xlink:href="#DejaVuSans-30"/>
       <use xlink:href="#DejaVuSans-2e" x="63.623047"/>
       <use xlink:href="#DejaVuSans-30" x="95.410156"/>
       <use xlink:href="#DejaVuSans-30" x="159.033203"/>
       <use xlink:href="#DejaVuSans-33" x="222.65625"/>
      </g>
     </g>
    </g>
    <g id="ytick_11">
     <g id="line2d_22">
      <g>
       <use xlink:href="#m8d3a4aa12d" x="340.802664" y="32.584053" style="stroke: #000000; stroke-width: 0.8"/>
      </g>
     </g>
     <g id="text_27">
      <!-- 0.004 -->
      <g transform="translate(293.723289 37.902959) scale(0.14 -0.14)">
       <use xlink:href="#DejaVuSans-30"/>
       <use xlink:href="#DejaVuSans-2e" x="63.623047"/>
       <use xlink:href="#DejaVuSans-30" x="95.410156"/>
       <use xlink:href="#DejaVuSans-30" x="159.033203"/>
       <use xlink:href="#DejaVuSans-34" x="222.65625"/>
      </g>
     </g>
    </g>
   </g>
   <g id="line2d_23">
    <path d="M 375.295409 244.526459 
L 377.149939 244.058209 
L 379.004469 243.5101 
L 380.858999 242.871141 
L 382.713529 242.129341 
L 384.568059 241.271708 
L 386.422589 240.284278 
L 388.277119 239.152158 
L 390.131649 237.859604 
L 391.986179 236.390123 
L 393.840709 234.726611 
L 395.695239 232.851521 
L 397.549769 230.747076 
L 399.404299 228.395508 
L 401.258829 225.779341 
L 403.113358 222.881707 
L 404.967888 219.686698 
L 406.822418 216.179743 
L 408.676948 212.348017 
L 410.531478 208.180861 
L 412.386008 203.670221 
L 414.240538 198.811085 
L 416.095068 193.601916 
L 417.949598 188.045063 
L 419.804128 182.147148 
L 421.658658 175.919408 
L 423.513188 169.377985 
L 425.367718 162.544148 
L 427.222248 155.444438 
L 429.076778 148.110729 
L 430.931308 140.580191 
L 432.785838 132.895143 
L 434.640368 125.102805 
L 436.494897 117.254937 
L 438.349427 109.40736 
L 440.203957 101.619377 
L 442.058487 93.953089 
L 443.913017 86.472614 
L 445.767547 79.243236 
L 447.622077 72.330473 
L 449.476607 65.799115 
L 451.331137 59.712219 
L 453.185667 54.13011 
L 455.040197 49.10938 
L 456.894727 44.701948 
L 458.749257 40.954157 
L 460.603787 37.90597 
L 462.458317 35.590259 
L 464.312847 34.032214 
L 466.167377 33.248889 
L 468.021907 33.248889 
L 469.876436 34.032214 
L 471.730966 35.590259 
L 473.585496 37.90597 
L 475.440026 40.954157 
L 477.294556 44.701948 
L 479.149086 49.10938 
L 481.003616 54.13011 
L 482.858146 59.712219 
L 484.712676 65.799115 
L 486.567206 72.330473 
L 488.421736 79.243236 
L 490.276266 86.472614 
L 492.130796 93.953089 
L 493.985326 101.619377 
L 495.839856 109.40736 
L 497.694386 117.254937 
L 499.548916 125.102805 
L 501.403446 132.895143 
L 503.257975 140.580191 
L 505.112505 148.110729 
L 506.967035 155.444438 
L 508.821565 162.544148 
L 510.676095 169.377985 
L 512.530625 175.919408 
L 514.385155 182.147148 
L 516.239685 188.045063 
L 518.094215 193.601916 
L 519.948745 198.811085 
L 521.803275 203.670221 
L 523.657805 208.180861 
L 525.512335 212.348017 
L 527.366865 216.179743 
L 529.221395 219.686698 
L 531.075925 222.881707 
L 532.930455 225.779341 
L 534.784985 228.395508 
L 536.639515 230.747076 
L 538.494044 232.851521 
L 540.348574 234.726611 
L 542.203104 236.390123 
L 544.057634 237.859604 
L 545.912164 239.152158 
L 547.766694 240.284278 
L 549.621224 241.271708 
L 551.475754 242.129341 
L 553.330284 242.871141 
L 555.184814 243.5101 
L 557.039344 244.058209 
L 558.893874 244.526459 
" clip-path="url(#p61ddb8065b)" style="fill: none; stroke: #2ca02c; stroke-width: 1.5; stroke-linecap: square"/>
   </g>
   <g id="patch_70">
    <path d="M 340.802664 246.90101 
L 340.802664 16.638052 
" style="fill: none; stroke: #000000; stroke-width: 0.8; stroke-linejoin: miter; stroke-linecap: square"/>
   </g>
   <g id="patch_71">
    <path d="M 585.71055 246.90101 
L 585.71055 16.638052 
" style="fill: none; stroke: #000000; stroke-width: 0.8; stroke-linejoin: miter; stroke-linecap: square"/>
   </g>
   <g id="patch_72">
    <path d="M 340.802664 246.90101 
L 585.71055 246.90101 
" style="fill: none; stroke: #000000; stroke-width: 0.8; stroke-linejoin: miter; stroke-linecap: square"/>
   </g>
   <g id="patch_73">
    <path d="M 340.802664 16.638052 
L 585.71055 16.638052 
" style="fill: none; stroke: #000000; stroke-width: 0.8; stroke-linejoin: miter; stroke-linecap: square"/>
   </g>
  </g>
  <g id="axes_3">
   <g id="patch_74">
    <path d="M 616.52603 246.90101 
L 861.433916 246.90101 
L 861.433916 16.638052 
L 616.52603 16.638052 
z
" style="fill: #ffffff"/>
   </g>
   <g id="patch_75">
    <path d="M 627.658206 246.90101 
L 634.359851 246.90101 
L 634.359851 244.248873 
L 627.658206 244.248873 
z
" clip-path="url(#p070f02b1f6)" style="fill: #1f77b4"/>
   </g>
   <g id="patch_76">
    <path d="M 635.104478 246.90101 
L 641.806123 246.90101 
L 641.806123 243.49112 
L 635.104478 243.49112 
z
" clip-path="url(#p070f02b1f6)" style="fill: #1f77b4"/>
   </g>
   <g id="patch_77">
    <path d="M 642.55075 246.90101 
L 649.252395 246.90101 
L 649.252395 240.081229 
L 642.55075 240.081229 
z
" clip-path="url(#p070f02b1f6)" style="fill: #1f77b4"/>
   </g>
   <g id="patch_78">
    <path d="M 649.997022 246.90101 
L 656.698667 246.90101 
L 656.698667 235.913585 
L 649.997022 235.913585 
z
" clip-path="url(#p070f02b1f6)" style="fill: #1f77b4"/>
   </g>
   <g id="patch_79">
    <path d="M 657.443294 246.90101 
L 664.144939 246.90101 
L 664.144939 231.367065 
L 657.443294 231.367065 
z
" clip-path="url(#p070f02b1f6)" style="fill: #1f77b4"/>
   </g>
   <g id="patch_80">
    <path d="M 664.889566 246.90101 
L 671.591211 246.90101 
L 671.591211 220.000763 
L 664.889566 220.000763 
z
" clip-path="url(#p070f02b1f6)" style="fill: #1f77b4"/>
   </g>
   <g id="patch_81">
    <path d="M 672.335838 246.90101 
L 679.037483 246.90101 
L 679.037483 208.255585 
L 672.335838 208.255585 
z
" clip-path="url(#p070f02b1f6)" style="fill: #1f77b4"/>
   </g>
   <g id="patch_82">
    <path d="M 679.78211 246.90101 
L 686.483755 246.90101 
L 686.483755 196.889283 
L 679.78211 196.889283 
z
" clip-path="url(#p070f02b1f6)" style="fill: #1f77b4"/>
   </g>
   <g id="patch_83">
    <path d="M 687.228382 246.90101 
L 693.930027 246.90101 
L 693.930027 176.808817 
L 687.228382 176.808817 
z
" clip-path="url(#p070f02b1f6)" style="fill: #1f77b4"/>
   </g>
   <g id="patch_84">
    <path d="M 694.674654 246.90101 
L 701.376299 246.90101 
L 701.376299 131.343611 
L 694.674654 131.343611 
z
" clip-path="url(#p070f02b1f6)" style="fill: #1f77b4"/>
   </g>
   <g id="patch_85">
    <path d="M 702.120926 246.90101 
L 708.822571 246.90101 
L 708.822571 112.778651 
L 702.120926 112.778651 
z
" clip-path="url(#p070f02b1f6)" style="fill: #1f77b4"/>
   </g>
   <g id="patch_86">
    <path d="M 709.567198 246.90101 
L 716.268843 246.90101 
L 716.268843 84.741774 
L 709.567198 84.741774 
z
" clip-path="url(#p070f02b1f6)" style="fill: #1f77b4"/>
   </g>
   <g id="patch_87">
    <path d="M 717.01347 246.90101 
L 723.715115 246.90101 
L 723.715115 63.903555 
L 717.01347 63.903555 
z
" clip-path="url(#p070f02b1f6)" style="fill: #1f77b4"/>
   </g>
   <g id="patch_88">
    <path d="M 724.459742 246.90101 
L 731.161387 246.90101 
L 731.161387 71.859966 
L 724.459742 71.859966 
z
" clip-path="url(#p070f02b1f6)" style="fill: #1f77b4"/>
   </g>
   <g id="patch_89">
    <path d="M 731.906014 246.90101 
L 738.607659 246.90101 
L 738.607659 77.16424 
L 731.906014 77.16424 
z
" clip-path="url(#p070f02b1f6)" style="fill: #1f77b4"/>
   </g>
   <g id="patch_90">
    <path d="M 739.352286 246.90101 
L 746.053931 246.90101 
L 746.053931 77.543117 
L 739.352286 77.543117 
z
" clip-path="url(#p070f02b1f6)" style="fill: #1f77b4"/>
   </g>
   <g id="patch_91">
    <path d="M 746.798558 246.90101 
L 753.500203 246.90101 
L 753.500203 105.95887 
L 746.798558 105.95887 
z
" clip-path="url(#p070f02b1f6)" style="fill: #1f77b4"/>
   </g>
   <g id="patch_92">
    <path d="M 754.24483 246.90101 
L 760.946475 246.90101 
L 760.946475 112.399775 
L 754.24483 112.399775 
z
" clip-path="url(#p070f02b1f6)" style="fill: #1f77b4"/>
   </g>
   <g id="patch_93">
    <path d="M 761.691102 246.90101 
L 768.392747 246.90101 
L 768.392747 151.0452 
L 761.691102 151.0452 
z
" clip-path="url(#p070f02b1f6)" style="fill: #1f77b4"/>
   </g>
   <g id="patch_94">
    <path d="M 769.137374 246.90101 
L 775.839019 246.90101 
L 775.839019 180.976461 
L 769.137374 180.976461 
z
" clip-path="url(#p070f02b1f6)" style="fill: #1f77b4"/>
   </g>
   <g id="patch_95">
    <path d="M 776.583646 246.90101 
L 783.285291 246.90101 
L 783.285291 199.920297 
L 776.583646 199.920297 
z
" clip-path="url(#p070f02b1f6)" style="fill: #1f77b4"/>
   </g>
   <g id="patch_96">
    <path d="M 784.029918 246.90101 
L 790.731563 246.90101 
L 790.731563 210.907722 
L 784.029918 210.907722 
z
" clip-path="url(#p070f02b1f6)" style="fill: #1f77b4"/>
   </g>
   <g id="patch_97">
    <path d="M 791.47619 246.90101 
L 798.177835 246.90101 
L 798.177835 230.988188 
L 791.47619 230.988188 
z
" clip-path="url(#p070f02b1f6)" style="fill: #1f77b4"/>
   </g>
   <g id="patch_98">
    <path d="M 798.922462 246.90101 
L 805.624107 246.90101 
L 805.624107 235.155832 
L 798.922462 235.155832 
z
" clip-path="url(#p070f02b1f6)" style="fill: #1f77b4"/>
   </g>
   <g id="patch_99">
    <path d="M 806.368734 246.90101 
L 813.070379 246.90101 
L 813.070379 240.838982 
L 806.368734 240.838982 
z
" clip-path="url(#p070f02b1f6)" style="fill: #1f77b4"/>
   </g>
   <g id="patch_100">
    <path d="M 813.815006 246.90101 
L 820.516651 246.90101 
L 820.516651 243.49112 
L 813.815006 243.49112 
z
" clip-path="url(#p070f02b1f6)" style="fill: #1f77b4"/>
   </g>
   <g id="patch_101">
    <path d="M 821.261278 246.90101 
L 827.962923 246.90101 
L 827.962923 245.385503 
L 821.261278 245.385503 
z
" clip-path="url(#p070f02b1f6)" style="fill: #1f77b4"/>
   </g>
   <g id="patch_102">
    <path d="M 828.70755 246.90101 
L 835.409195 246.90101 
L 835.409195 246.522133 
L 828.70755 246.522133 
z
" clip-path="url(#p070f02b1f6)" style="fill: #1f77b4"/>
   </g>
   <g id="patch_103">
    <path d="M 836.153822 246.90101 
L 842.855467 246.90101 
L 842.855467 246.522133 
L 836.153822 246.522133 
z
" clip-path="url(#p070f02b1f6)" style="fill: #1f77b4"/>
   </g>
   <g id="patch_104">
    <path d="M 843.600094 246.90101 
L 850.301739 246.90101 
L 850.301739 246.143257 
L 843.600094 246.143257 
z
" clip-path="url(#p070f02b1f6)" style="fill: #1f77b4"/>
   </g>
   <g id="matplotlib.axis_5">
    <g id="xtick_10">
     <g id="line2d_24">
      <g>
       <use xlink:href="#md1b004db7f" x="621.893832" y="246.90101" style="stroke: #000000; stroke-width: 0.8"/>
      </g>
     </g>
     <g id="text_28">
      <!-- 0.30 -->
      <g transform="translate(606.307894 264.538822) scale(0.14 -0.14)">
       <use xlink:href="#DejaVuSans-30"/>
       <use xlink:href="#DejaVuSans-2e" x="63.623047"/>
       <use xlink:href="#DejaVuSans-33" x="95.410156"/>
       <use xlink:href="#DejaVuSans-30" x="159.033203"/>
      </g>
     </g>
    </g>
    <g id="xtick_11">
     <g id="line2d_25">
      <g>
       <use xlink:href="#md1b004db7f" x="673.193281" y="246.90101" style="stroke: #000000; stroke-width: 0.8"/>
      </g>
     </g>
     <g id="text_29">
      <!-- 0.32 -->
      <g transform="translate(657.607344 264.538822) scale(0.14 -0.14)">
       <use xlink:href="#DejaVuSans-30"/>
       <use xlink:href="#DejaVuSans-2e" x="63.623047"/>
       <use xlink:href="#DejaVuSans-33" x="95.410156"/>
       <use xlink:href="#DejaVuSans-32" x="159.033203"/>
      </g>
     </g>
    </g>
    <g id="xtick_12">
     <g id="line2d_26">
      <g>
       <use xlink:href="#md1b004db7f" x="724.49273" y="246.90101" style="stroke: #000000; stroke-width: 0.8"/>
      </g>
     </g>
     <g id="text_30">
      <!-- 0.34 -->
      <g transform="translate(708.906793 264.538822) scale(0.14 -0.14)">
       <use xlink:href="#DejaVuSans-30"/>
       <use xlink:href="#DejaVuSans-2e" x="63.623047"/>
       <use xlink:href="#DejaVuSans-33" x="95.410156"/>
       <use xlink:href="#DejaVuSans-34" x="159.033203"/>
      </g>
     </g>
    </g>
    <g id="xtick_13">
     <g id="line2d_27">
      <g>
       <use xlink:href="#md1b004db7f" x="775.792179" y="246.90101" style="stroke: #000000; stroke-width: 0.8"/>
      </g>
     </g>
     <g id="text_31">
      <!-- 0.36 -->
      <g transform="translate(760.206242 264.538822) scale(0.14 -0.14)">
       <defs>
        <path id="DejaVuSans-36" d="M 2113 2584 
Q 1688 2584 1439 2293 
Q 1191 2003 1191 1497 
Q 1191 994 1439 701 
Q 1688 409 2113 409 
Q 2538 409 2786 701 
Q 3034 994 3034 1497 
Q 3034 2003 2786 2293 
Q 2538 2584 2113 2584 
z
M 3366 4563 
L 3366 3988 
Q 3128 4100 2886 4159 
Q 2644 4219 2406 4219 
Q 1781 4219 1451 3797 
Q 1122 3375 1075 2522 
Q 1259 2794 1537 2939 
Q 1816 3084 2150 3084 
Q 2853 3084 3261 2657 
Q 3669 2231 3669 1497 
Q 3669 778 3244 343 
Q 2819 -91 2113 -91 
Q 1303 -91 875 529 
Q 447 1150 447 2328 
Q 447 3434 972 4092 
Q 1497 4750 2381 4750 
Q 2619 4750 2861 4703 
Q 3103 4656 3366 4563 
z
" transform="scale(0.015625)"/>
       </defs>
       <use xlink:href="#DejaVuSans-30"/>
       <use xlink:href="#DejaVuSans-2e" x="63.623047"/>
       <use xlink:href="#DejaVuSans-33" x="95.410156"/>
       <use xlink:href="#DejaVuSans-36" x="159.033203"/>
      </g>
     </g>
    </g>
    <g id="xtick_14">
     <g id="line2d_28">
      <g>
       <use xlink:href="#md1b004db7f" x="827.091629" y="246.90101" style="stroke: #000000; stroke-width: 0.8"/>
      </g>
     </g>
     <g id="text_32">
      <!-- 0.38 -->
      <g transform="translate(811.505691 264.538822) scale(0.14 -0.14)">
       <use xlink:href="#DejaVuSans-30"/>
       <use xlink:href="#DejaVuSans-2e" x="63.623047"/>
       <use xlink:href="#DejaVuSans-33" x="95.410156"/>
       <use xlink:href="#DejaVuSans-38" x="159.033203"/>
      </g>
     </g>
    </g>
    <g id="text_33">
     <!-- $\nu_{12}$ [-] -->
     <g transform="translate(718.399973 282.088197) scale(0.14 -0.14)">
      <defs>
       <path id="DejaVuSans-Oblique-3bd" d="M 959 0 
L 572 3500 
L 1191 3500 
L 1522 563 
Q 1972 950 2391 1488 
Q 2706 1891 2788 2241 
Q 2825 2406 2809 2719 
Q 2794 3091 2544 3500 
L 3125 3500 
L 3125 3500 
Q 3288 3222 3353 2834 
Q 3416 2478 3369 2234 
Q 3250 1622 2719 1075 
Q 2025 363 1572 0 
L 959 0 
z
" transform="scale(0.015625)"/>
       <path id="DejaVuSans-2d" d="M 313 2009 
L 1997 2009 
L 1997 1497 
L 313 1497 
L 313 2009 
z
" transform="scale(0.015625)"/>
      </defs>
      <use xlink:href="#DejaVuSans-Oblique-3bd" transform="translate(0 0.015625)"/>
      <use xlink:href="#DejaVuSans-31" transform="translate(55.859375 -16.390625) scale(0.7)"/>
      <use xlink:href="#DejaVuSans-32" transform="translate(100.395508 -16.390625) scale(0.7)"/>
      <use xlink:href="#DejaVuSans-20" transform="translate(147.666016 0.015625)"/>
      <use xlink:href="#DejaVuSans-5b" transform="translate(179.453125 0.015625)"/>
      <use xlink:href="#DejaVuSans-2d" transform="translate(218.466797 0.015625)"/>
      <use xlink:href="#DejaVuSans-5d" transform="translate(254.550781 0.015625)"/>
     </g>
    </g>
   </g>
   <g id="matplotlib.axis_6">
    <g id="ytick_12">
     <g id="line2d_29">
      <g>
       <use xlink:href="#m8d3a4aa12d" x="616.52603" y="246.90101" style="stroke: #000000; stroke-width: 0.8"/>
      </g>
     </g>
     <g id="text_34">
      <!-- 0 -->
      <g transform="translate(600.61853 252.219916) scale(0.14 -0.14)">
       <use xlink:href="#DejaVuSans-30"/>
      </g>
     </g>
    </g>
    <g id="ytick_13">
     <g id="line2d_30">
      <g>
       <use xlink:href="#m8d3a4aa12d" x="616.52603" y="191.905895" style="stroke: #000000; stroke-width: 0.8"/>
      </g>
     </g>
     <g id="text_35">
      <!-- 10 -->
      <g transform="translate(591.71103 197.224801) scale(0.14 -0.14)">
       <use xlink:href="#DejaVuSans-31"/>
       <use xlink:href="#DejaVuSans-30" x="63.623047"/>
      </g>
     </g>
    </g>
    <g id="ytick_14">
     <g id="line2d_31">
      <g>
       <use xlink:href="#m8d3a4aa12d" x="616.52603" y="136.91078" style="stroke: #000000; stroke-width: 0.8"/>
      </g>
     </g>
     <g id="text_36">
      <!-- 20 -->
      <g transform="translate(591.71103 142.229686) scale(0.14 -0.14)">
       <use xlink:href="#DejaVuSans-32"/>
       <use xlink:href="#DejaVuSans-30" x="63.623047"/>
      </g>
     </g>
    </g>
    <g id="ytick_15">
     <g id="line2d_32">
      <g>
       <use xlink:href="#m8d3a4aa12d" x="616.52603" y="81.915665" style="stroke: #000000; stroke-width: 0.8"/>
      </g>
     </g>
     <g id="text_37">
      <!-- 30 -->
      <g transform="translate(591.71103 87.234571) scale(0.14 -0.14)">
       <use xlink:href="#DejaVuSans-33"/>
       <use xlink:href="#DejaVuSans-30" x="63.623047"/>
      </g>
     </g>
    </g>
    <g id="ytick_16">
     <g id="line2d_33">
      <g>
       <use xlink:href="#m8d3a4aa12d" x="616.52603" y="26.92055" style="stroke: #000000; stroke-width: 0.8"/>
      </g>
     </g>
     <g id="text_38">
      <!-- 40 -->
      <g transform="translate(591.71103 32.239456) scale(0.14 -0.14)">
       <use xlink:href="#DejaVuSans-34"/>
       <use xlink:href="#DejaVuSans-30" x="63.623047"/>
      </g>
     </g>
    </g>
   </g>
   <g id="line2d_34">
    <path d="M 647.543556 244.46371 
L 649.098085 243.983086 
L 650.652614 243.420492 
L 652.207143 242.764648 
L 653.761671 242.003245 
L 655.3162 241.122949 
L 656.870729 240.109425 
L 658.425258 238.947388 
L 659.979787 237.620678 
L 661.534315 236.112365 
L 663.088844 234.404892 
L 664.643373 232.480252 
L 666.197902 230.320195 
L 667.75243 227.906485 
L 669.306959 225.221183 
L 670.861488 222.246977 
L 672.416017 218.967537 
L 673.970545 215.367908 
L 675.525074 211.434926 
L 677.079603 207.157649 
L 678.634132 202.527812 
L 680.18866 197.540269 
L 681.743189 192.193443 
L 683.297718 186.489745 
L 684.852247 180.435973 
L 686.406776 174.043661 
L 687.961304 167.329375 
L 689.515833 160.314948 
L 691.070362 153.027622 
L 692.624891 145.500114 
L 694.179419 137.770575 
L 695.733948 129.882443 
L 697.288477 121.884187 
L 698.843006 113.828932 
L 700.397534 105.773976 
L 701.952063 97.780189 
L 703.506592 89.911313 
L 705.061121 82.233161 
L 706.615649 74.81274 
L 708.170178 67.717302 
L 709.724707 61.013347 
L 711.279236 54.765601 
L 712.833764 49.035979 
L 714.388293 43.882573 
L 715.942822 39.35867 
L 717.497351 35.511841 
L 719.05188 32.383103 
L 720.606408 30.006197 
L 722.160937 28.40698 
L 723.715466 27.602955 
L 725.269995 27.602955 
L 726.824523 28.40698 
L 728.379052 30.006197 
L 729.933581 32.383103 
L 731.48811 35.511841 
L 733.042638 39.35867 
L 734.597167 43.882573 
L 736.151696 49.035979 
L 737.706225 54.765601 
L 739.260753 61.013347 
L 740.815282 67.717302 
L 742.369811 74.81274 
L 743.92434 82.233161 
L 745.478869 89.911313 
L 747.033397 97.780189 
L 748.587926 105.773976 
L 750.142455 113.828932 
L 751.696984 121.884187 
L 753.251512 129.882443 
L 754.806041 137.770575 
L 756.36057 145.500114 
L 757.915099 153.027622 
L 759.469627 160.314948 
L 761.024156 167.329375 
L 762.578685 174.043661 
L 764.133214 180.435973 
L 765.687742 186.489745 
L 767.242271 192.193443 
L 768.7968 197.540269 
L 770.351329 202.527812 
L 771.905857 207.157649 
L 773.460386 211.434926 
L 775.014915 215.367908 
L 776.569444 218.967537 
L 778.123973 222.246977 
L 779.678501 225.221183 
L 781.23303 227.906485 
L 782.787559 230.320195 
L 784.342088 232.480252 
L 785.896616 234.404892 
L 787.451145 236.112365 
L 789.005674 237.620678 
L 790.560203 238.947388 
L 792.114731 240.109425 
L 793.66926 241.122949 
L 795.223789 242.003245 
L 796.778318 242.764648 
L 798.332846 243.420492 
L 799.887375 243.983086 
L 801.441904 244.46371 
" clip-path="url(#p070f02b1f6)" style="fill: none; stroke: #2ca02c; stroke-width: 1.5; stroke-linecap: square"/>
   </g>
   <g id="patch_105">
    <path d="M 616.52603 246.90101 
L 616.52603 16.638052 
" style="fill: none; stroke: #000000; stroke-width: 0.8; stroke-linejoin: miter; stroke-linecap: square"/>
   </g>
   <g id="patch_106">
    <path d="M 861.433916 246.90101 
L 861.433916 16.638052 
" style="fill: none; stroke: #000000; stroke-width: 0.8; stroke-linejoin: miter; stroke-linecap: square"/>
   </g>
   <g id="patch_107">
    <path d="M 616.52603 246.90101 
L 861.433916 246.90101 
" style="fill: none; stroke: #000000; stroke-width: 0.8; stroke-linejoin: miter; stroke-linecap: square"/>
   </g>
   <g id="patch_108">
    <path d="M 616.52603 16.638052 
L 861.433916 16.638052 
" style="fill: none; stroke: #000000; stroke-width: 0.8; stroke-linejoin: miter; stroke-linecap: square"/>
   </g>
  </g>
  <g id="axes_4">
   <g id="patch_109">
    <path d="M 892.249396 246.90101 
L 1137.157282 246.90101 
L 1137.157282 16.638052 
L 892.249396 16.638052 
z
" style="fill: #ffffff"/>
   </g>
   <g id="patch_110">
    <path d="M 903.381572 246.90101 
L 910.083217 246.90101 
L 910.083217 246.097351 
L 903.381572 246.097351 
z
" clip-path="url(#p51341dacab)" style="fill: #1f77b4"/>
   </g>
   <g id="patch_111">
    <path d="M 910.827844 246.90101 
L 917.529489 246.90101 
L 917.529489 245.695521 
L 910.827844 245.695521 
z
" clip-path="url(#p51341dacab)" style="fill: #1f77b4"/>
   </g>
   <g id="patch_112">
    <path d="M 918.274116 246.90101 
L 924.975761 246.90101 
L 924.975761 245.695521 
L 918.274116 245.695521 
z
" clip-path="url(#p51341dacab)" style="fill: #1f77b4"/>
   </g>
   <g id="patch_113">
    <path d="M 925.720388 246.90101 
L 932.422033 246.90101 
L 932.422033 245.293691 
L 925.720388 245.293691 
z
" clip-path="url(#p51341dacab)" style="fill: #1f77b4"/>
   </g>
   <g id="patch_114">
    <path d="M 933.16666 246.90101 
L 939.868305 246.90101 
L 939.868305 245.695521 
L 933.16666 245.695521 
z
" clip-path="url(#p51341dacab)" style="fill: #1f77b4"/>
   </g>
   <g id="patch_115">
    <path d="M 940.612932 246.90101 
L 947.314577 246.90101 
L 947.314577 239.668076 
L 940.612932 239.668076 
z
" clip-path="url(#p51341dacab)" style="fill: #1f77b4"/>
   </g>
   <g id="patch_116">
    <path d="M 948.059204 246.90101 
L 954.760849 246.90101 
L 954.760849 237.658928 
L 948.059204 237.658928 
z
" clip-path="url(#p51341dacab)" style="fill: #1f77b4"/>
   </g>
   <g id="patch_117">
    <path d="M 955.505476 246.90101 
L 962.207121 246.90101 
L 962.207121 224.80038 
L 955.505476 224.80038 
z
" clip-path="url(#p51341dacab)" style="fill: #1f77b4"/>
   </g>
   <g id="patch_118">
    <path d="M 962.951748 246.90101 
L 969.653393 246.90101 
L 969.653393 208.325364 
L 962.951748 208.325364 
z
" clip-path="url(#p51341dacab)" style="fill: #1f77b4"/>
   </g>
   <g id="patch_119">
    <path d="M 970.39802 246.90101 
L 977.099665 246.90101 
L 977.099665 193.457667 
L 970.39802 193.457667 
z
" clip-path="url(#p51341dacab)" style="fill: #1f77b4"/>
   </g>
   <g id="patch_120">
    <path d="M 977.844292 246.90101 
L 984.545937 246.90101 
L 984.545937 173.768015 
L 977.844292 173.768015 
z
" clip-path="url(#p51341dacab)" style="fill: #1f77b4"/>
   </g>
   <g id="patch_121">
    <path d="M 985.290564 246.90101 
L 991.992209 246.90101 
L 991.992209 138.808836 
L 985.290564 138.808836 
z
" clip-path="url(#p51341dacab)" style="fill: #1f77b4"/>
   </g>
   <g id="patch_122">
    <path d="M 992.736836 246.90101 
L 999.438481 246.90101 
L 999.438481 121.530161 
L 992.736836 121.530161 
z
" clip-path="url(#p51341dacab)" style="fill: #1f77b4"/>
   </g>
   <g id="patch_123">
    <path d="M 1000.183108 246.90101 
L 1006.884753 246.90101 
L 1006.884753 88.58013 
L 1000.183108 88.58013 
z
" clip-path="url(#p51341dacab)" style="fill: #1f77b4"/>
   </g>
   <g id="patch_124">
    <path d="M 1007.62938 246.90101 
L 1014.331025 246.90101 
L 1014.331025 55.22827 
L 1007.62938 55.22827 
z
" clip-path="url(#p51341dacab)" style="fill: #1f77b4"/>
   </g>
   <g id="patch_125">
    <path d="M 1015.075652 246.90101 
L 1021.777297 246.90101 
L 1021.777297 54.022781 
L 1015.075652 54.022781 
z
" clip-path="url(#p51341dacab)" style="fill: #1f77b4"/>
   </g>
   <g id="patch_126">
    <path d="M 1022.521924 246.90101 
L 1029.223569 246.90101 
L 1029.223569 60.050226 
L 1022.521924 60.050226 
z
" clip-path="url(#p51341dacab)" style="fill: #1f77b4"/>
   </g>
   <g id="patch_127">
    <path d="M 1029.968196 246.90101 
L 1036.669841 246.90101 
L 1036.669841 61.657544 
L 1029.968196 61.657544 
z
" clip-path="url(#p51341dacab)" style="fill: #1f77b4"/>
   </g>
   <g id="patch_128">
    <path d="M 1037.414468 246.90101 
L 1044.116113 246.90101 
L 1044.116113 75.721582 
L 1037.414468 75.721582 
z
" clip-path="url(#p51341dacab)" style="fill: #1f77b4"/>
   </g>
   <g id="patch_129">
    <path d="M 1044.86074 246.90101 
L 1051.562385 246.90101 
L 1051.562385 117.913694 
L 1044.86074 117.913694 
z
" clip-path="url(#p51341dacab)" style="fill: #1f77b4"/>
   </g>
   <g id="patch_130">
    <path d="M 1052.307012 246.90101 
L 1059.008657 246.90101 
L 1059.008657 134.38871 
L 1052.307012 134.38871 
z
" clip-path="url(#p51341dacab)" style="fill: #1f77b4"/>
   </g>
   <g id="patch_131">
    <path d="M 1059.753284 246.90101 
L 1066.454929 246.90101 
L 1066.454929 160.507637 
L 1059.753284 160.507637 
z
" clip-path="url(#p51341dacab)" style="fill: #1f77b4"/>
   </g>
   <g id="patch_132">
    <path d="M 1067.199556 246.90101 
L 1073.901201 246.90101 
L 1073.901201 185.421075 
L 1067.199556 185.421075 
z
" clip-path="url(#p51341dacab)" style="fill: #1f77b4"/>
   </g>
   <g id="patch_133">
    <path d="M 1074.645828 246.90101 
L 1081.347473 246.90101 
L 1081.347473 211.941831 
L 1074.645828 211.941831 
z
" clip-path="url(#p51341dacab)" style="fill: #1f77b4"/>
   </g>
   <g id="patch_134">
    <path d="M 1082.0921 246.90101 
L 1088.793745 246.90101 
L 1088.793745 219.576594 
L 1082.0921 219.576594 
z
" clip-path="url(#p51341dacab)" style="fill: #1f77b4"/>
   </g>
   <g id="patch_135">
    <path d="M 1089.538372 246.90101 
L 1096.240017 246.90101 
L 1096.240017 230.827824 
L 1089.538372 230.827824 
z
" clip-path="url(#p51341dacab)" style="fill: #1f77b4"/>
   </g>
   <g id="patch_136">
    <path d="M 1096.984644 246.90101 
L 1103.686289 246.90101 
L 1103.686289 240.873565 
L 1096.984644 240.873565 
z
" clip-path="url(#p51341dacab)" style="fill: #1f77b4"/>
   </g>
   <g id="patch_137">
    <path d="M 1104.430916 246.90101 
L 1111.132561 246.90101 
L 1111.132561 243.686373 
L 1104.430916 243.686373 
z
" clip-path="url(#p51341dacab)" style="fill: #1f77b4"/>
   </g>
   <g id="patch_138">
    <path d="M 1111.877188 246.90101 
L 1118.578833 246.90101 
L 1118.578833 244.891862 
L 1111.877188 244.891862 
z
" clip-path="url(#p51341dacab)" style="fill: #1f77b4"/>
   </g>
   <g id="patch_139">
    <path d="M 1119.32346 246.90101 
L 1126.025105 246.90101 
L 1126.025105 246.097351 
L 1119.32346 246.097351 
z
" clip-path="url(#p51341dacab)" style="fill: #1f77b4"/>
   </g>
   <g id="matplotlib.axis_7">
    <g id="xtick_15">
     <g id="line2d_35">
      <g>
       <use xlink:href="#md1b004db7f" x="905.797062" y="246.90101" style="stroke: #000000; stroke-width: 0.8"/>
      </g>
     </g>
     <g id="text_39">
      <!-- 0.40 -->
      <g transform="translate(890.211124 264.538822) scale(0.14 -0.14)">
       <use xlink:href="#DejaVuSans-30"/>
       <use xlink:href="#DejaVuSans-2e" x="63.623047"/>
       <use xlink:href="#DejaVuSans-34" x="95.410156"/>
       <use xlink:href="#DejaVuSans-30" x="159.033203"/>
      </g>
     </g>
    </g>
    <g id="xtick_16">
     <g id="line2d_36">
      <g>
       <use xlink:href="#md1b004db7f" x="960.204309" y="246.90101" style="stroke: #000000; stroke-width: 0.8"/>
      </g>
     </g>
     <g id="text_40">
      <!-- 0.42 -->
      <g transform="translate(944.618371 264.538822) scale(0.14 -0.14)">
       <use xlink:href="#DejaVuSans-30"/>
       <use xlink:href="#DejaVuSans-2e" x="63.623047"/>
       <use xlink:href="#DejaVuSans-34" x="95.410156"/>
       <use xlink:href="#DejaVuSans-32" x="159.033203"/>
      </g>
     </g>
    </g>
    <g id="xtick_17">
     <g id="line2d_37">
      <g>
       <use xlink:href="#md1b004db7f" x="1014.611556" y="246.90101" style="stroke: #000000; stroke-width: 0.8"/>
      </g>
     </g>
     <g id="text_41">
      <!-- 0.44 -->
      <g transform="translate(999.025619 264.538822) scale(0.14 -0.14)">
       <use xlink:href="#DejaVuSans-30"/>
       <use xlink:href="#DejaVuSans-2e" x="63.623047"/>
       <use xlink:href="#DejaVuSans-34" x="95.410156"/>
       <use xlink:href="#DejaVuSans-34" x="159.033203"/>
      </g>
     </g>
    </g>
    <g id="xtick_18">
     <g id="line2d_38">
      <g>
       <use xlink:href="#md1b004db7f" x="1069.018804" y="246.90101" style="stroke: #000000; stroke-width: 0.8"/>
      </g>
     </g>
     <g id="text_42">
      <!-- 0.46 -->
      <g transform="translate(1053.432866 264.538822) scale(0.14 -0.14)">
       <use xlink:href="#DejaVuSans-30"/>
       <use xlink:href="#DejaVuSans-2e" x="63.623047"/>
       <use xlink:href="#DejaVuSans-34" x="95.410156"/>
       <use xlink:href="#DejaVuSans-36" x="159.033203"/>
      </g>
     </g>
    </g>
    <g id="xtick_19">
     <g id="line2d_39">
      <g>
       <use xlink:href="#md1b004db7f" x="1123.426051" y="246.90101" style="stroke: #000000; stroke-width: 0.8"/>
      </g>
     </g>
     <g id="text_43">
      <!-- 0.48 -->
      <g transform="translate(1107.840114 264.538822) scale(0.14 -0.14)">
       <use xlink:href="#DejaVuSans-30"/>
       <use xlink:href="#DejaVuSans-2e" x="63.623047"/>
       <use xlink:href="#DejaVuSans-34" x="95.410156"/>
       <use xlink:href="#DejaVuSans-38" x="159.033203"/>
      </g>
     </g>
    </g>
    <g id="text_44">
     <!-- $\nu_{23}$ [-] -->
     <g transform="translate(994.123339 282.088197) scale(0.14 -0.14)">
      <use xlink:href="#DejaVuSans-Oblique-3bd" transform="translate(0 0.015625)"/>
      <use xlink:href="#DejaVuSans-32" transform="translate(55.859375 -16.390625) scale(0.7)"/>
      <use xlink:href="#DejaVuSans-33" transform="translate(100.395508 -16.390625) scale(0.7)"/>
      <use xlink:href="#DejaVuSans-20" transform="translate(147.666016 0.015625)"/>
      <use xlink:href="#DejaVuSans-5b" transform="translate(179.453125 0.015625)"/>
      <use xlink:href="#DejaVuSans-2d" transform="translate(218.466797 0.015625)"/>
      <use xlink:href="#DejaVuSans-5d" transform="translate(254.550781 0.015625)"/>
     </g>
    </g>
   </g>
   <g id="matplotlib.axis_8">
    <g id="ytick_17">
     <g id="line2d_40">
      <g>
       <use xlink:href="#m8d3a4aa12d" x="892.249396" y="246.90101" style="stroke: #000000; stroke-width: 0.8"/>
      </g>
     </g>
     <g id="text_45">
      <!-- 0 -->
      <g transform="translate(876.341896 252.219916) scale(0.14 -0.14)">
       <use xlink:href="#DejaVuSans-30"/>
      </g>
     </g>
    </g>
    <g id="ytick_18">
     <g id="line2d_41">
      <g>
       <use xlink:href="#m8d3a4aa12d" x="892.249396" y="191.905895" style="stroke: #000000; stroke-width: 0.8"/>
      </g>
     </g>
     <g id="text_46">
      <!-- 10 -->
      <g transform="translate(867.434396 197.224801) scale(0.14 -0.14)">
       <use xlink:href="#DejaVuSans-31"/>
       <use xlink:href="#DejaVuSans-30" x="63.623047"/>
      </g>
     </g>
    </g>
    <g id="ytick_19">
     <g id="line2d_42">
      <g>
       <use xlink:href="#m8d3a4aa12d" x="892.249396" y="136.91078" style="stroke: #000000; stroke-width: 0.8"/>
      </g>
     </g>
     <g id="text_47">
      <!-- 20 -->
      <g transform="translate(867.434396 142.229686) scale(0.14 -0.14)">
       <use xlink:href="#DejaVuSans-32"/>
       <use xlink:href="#DejaVuSans-30" x="63.623047"/>
      </g>
     </g>
    </g>
    <g id="ytick_20">
     <g id="line2d_43">
      <g>
       <use xlink:href="#m8d3a4aa12d" x="892.249396" y="81.915665" style="stroke: #000000; stroke-width: 0.8"/>
      </g>
     </g>
     <g id="text_48">
      <!-- 30 -->
      <g transform="translate(867.434396 87.234571) scale(0.14 -0.14)">
       <use xlink:href="#DejaVuSans-33"/>
       <use xlink:href="#DejaVuSans-30" x="63.623047"/>
      </g>
     </g>
    </g>
    <g id="ytick_21">
     <g id="line2d_44">
      <g>
       <use xlink:href="#m8d3a4aa12d" x="892.249396" y="26.92055" style="stroke: #000000; stroke-width: 0.8"/>
      </g>
     </g>
     <g id="text_49">
      <!-- 40 -->
      <g transform="translate(867.434396 32.239456) scale(0.14 -0.14)">
       <use xlink:href="#DejaVuSans-34"/>
       <use xlink:href="#DejaVuSans-30" x="63.623047"/>
      </g>
     </g>
    </g>
   </g>
   <g id="line2d_45">
    <path d="M 933.000685 244.46371 
L 934.64939 243.983086 
L 936.298094 243.420492 
L 937.946799 242.764648 
L 939.595503 242.003245 
L 941.244208 241.122949 
L 942.892912 240.109425 
L 944.541616 238.947388 
L 946.190321 237.620678 
L 947.839025 236.112365 
L 949.48773 234.404892 
L 951.136434 232.480252 
L 952.785139 230.320195 
L 954.433843 227.906485 
L 956.082548 225.221183 
L 957.731252 222.246977 
L 959.379957 218.967537 
L 961.028661 215.367908 
L 962.677366 211.434926 
L 964.32607 207.157649 
L 965.974775 202.527812 
L 967.623479 197.540269 
L 969.272183 192.193443 
L 970.920888 186.489745 
L 972.569592 180.435973 
L 974.218297 174.043661 
L 975.867001 167.329375 
L 977.515706 160.314948 
L 979.16441 153.027622 
L 980.813115 145.500114 
L 982.461819 137.770575 
L 984.110524 129.882443 
L 985.759228 121.884187 
L 987.407933 113.828932 
L 989.056637 105.773976 
L 990.705342 97.780189 
L 992.354046 89.911313 
L 994.00275 82.233161 
L 995.651455 74.81274 
L 997.300159 67.717302 
L 998.948864 61.013347 
L 1000.597568 54.765601 
L 1002.246273 49.035979 
L 1003.894977 43.882573 
L 1005.543682 39.35867 
L 1007.192386 35.511841 
L 1008.841091 32.383103 
L 1010.489795 30.006197 
L 1012.1385 28.40698 
L 1013.787204 27.602955 
L 1015.435909 27.602955 
L 1017.084613 28.40698 
L 1018.733317 30.006197 
L 1020.382022 32.383103 
L 1022.030726 35.511841 
L 1023.679431 39.35867 
L 1025.328135 43.882573 
L 1026.97684 49.035979 
L 1028.625544 54.765601 
L 1030.274249 61.013347 
L 1031.922953 67.717302 
L 1033.571658 74.81274 
L 1035.220362 82.233161 
L 1036.869067 89.911313 
L 1038.517771 97.780189 
L 1040.166476 105.773976 
L 1041.81518 113.828932 
L 1043.463884 121.884187 
L 1045.112589 129.882443 
L 1046.761293 137.770575 
L 1048.409998 145.500114 
L 1050.058702 153.027622 
L 1051.707407 160.314948 
L 1053.356111 167.329375 
L 1055.004816 174.043661 
L 1056.65352 180.435973 
L 1058.302225 186.489745 
L 1059.950929 192.193443 
L 1061.599634 197.540269 
L 1063.248338 202.527812 
L 1064.897043 207.157649 
L 1066.545747 211.434926 
L 1068.194451 215.367908 
L 1069.843156 218.967537 
L 1071.49186 222.246977 
L 1073.140565 225.221183 
L 1074.789269 227.906485 
L 1076.437974 230.320195 
L 1078.086678 232.480252 
L 1079.735383 234.404892 
L 1081.384087 236.112365 
L 1083.032792 237.620678 
L 1084.681496 238.947388 
L 1086.330201 240.109425 
L 1087.978905 241.122949 
L 1089.62761 242.003245 
L 1091.276314 242.764648 
L 1092.925018 243.420492 
L 1094.573723 243.983086 
L 1096.222427 244.46371 
" clip-path="url(#p51341dacab)" style="fill: none; stroke: #2ca02c; stroke-width: 1.5; stroke-linecap: square"/>
   </g>
   <g id="patch_140">
    <path d="M 892.249396 246.90101 
L 892.249396 16.638052 
" style="fill: none; stroke: #000000; stroke-width: 0.8; stroke-linejoin: miter; stroke-linecap: square"/>
   </g>
   <g id="patch_141">
    <path d="M 1137.157282 246.90101 
L 1137.157282 16.638052 
" style="fill: none; stroke: #000000; stroke-width: 0.8; stroke-linejoin: miter; stroke-linecap: square"/>
   </g>
   <g id="patch_142">
    <path d="M 892.249396 246.90101 
L 1137.157282 246.90101 
" style="fill: none; stroke: #000000; stroke-width: 0.8; stroke-linejoin: miter; stroke-linecap: square"/>
   </g>
   <g id="patch_143">
    <path d="M 892.249396 16.638052 
L 1137.157282 16.638052 
" style="fill: none; stroke: #000000; stroke-width: 0.8; stroke-linejoin: miter; stroke-linecap: square"/>
   </g>
  </g>
  <g id="axes_5">
   <g id="patch_144">
    <path d="M 1192.091874 246.90101 
L 1436.99976 246.90101 
L 1436.99976 16.638052 
L 1192.091874 16.638052 
z
" style="fill: #ffffff"/>
   </g>
   <g id="patch_145">
    <path d="M 1203.224051 246.90101 
L 1209.925695 246.90101 
L 1209.925695 246.01278 
L 1203.224051 246.01278 
z
" clip-path="url(#p226329e92e)" style="fill: #1f77b4"/>
   </g>
   <g id="patch_146">
    <path d="M 1210.670323 246.90101 
L 1217.371967 246.90101 
L 1217.371967 245.124551 
L 1210.670323 245.124551 
z
" clip-path="url(#p226329e92e)" style="fill: #1f77b4"/>
   </g>
   <g id="patch_147">
    <path d="M 1218.116595 246.90101 
L 1224.818239 246.90101 
L 1224.818239 244.236321 
L 1218.116595 244.236321 
z
" clip-path="url(#p226329e92e)" style="fill: #1f77b4"/>
   </g>
   <g id="patch_148">
    <path d="M 1225.562867 246.90101 
L 1232.264511 246.90101 
L 1232.264511 242.459862 
L 1225.562867 242.459862 
z
" clip-path="url(#p226329e92e)" style="fill: #1f77b4"/>
   </g>
   <g id="patch_149">
    <path d="M 1233.009139 246.90101 
L 1239.710783 246.90101 
L 1239.710783 241.571633 
L 1233.009139 241.571633 
z
" clip-path="url(#p226329e92e)" style="fill: #1f77b4"/>
   </g>
   <g id="patch_150">
    <path d="M 1240.455411 246.90101 
L 1247.157055 246.90101 
L 1247.157055 231.356994 
L 1240.455411 231.356994 
z
" clip-path="url(#p226329e92e)" style="fill: #1f77b4"/>
   </g>
   <g id="patch_151">
    <path d="M 1247.901683 246.90101 
L 1254.603327 246.90101 
L 1254.603327 224.251158 
L 1247.901683 224.251158 
z
" clip-path="url(#p226329e92e)" style="fill: #1f77b4"/>
   </g>
   <g id="patch_152">
    <path d="M 1255.347955 246.90101 
L 1262.049599 246.90101 
L 1262.049599 218.477666 
L 1255.347955 218.477666 
z
" clip-path="url(#p226329e92e)" style="fill: #1f77b4"/>
   </g>
   <g id="patch_153">
    <path d="M 1262.794227 246.90101 
L 1269.495871 246.90101 
L 1269.495871 199.380731 
L 1262.794227 199.380731 
z
" clip-path="url(#p226329e92e)" style="fill: #1f77b4"/>
   </g>
   <g id="patch_154">
    <path d="M 1270.240499 246.90101 
L 1276.942143 246.90101 
L 1276.942143 175.398535 
L 1270.240499 175.398535 
z
" clip-path="url(#p226329e92e)" style="fill: #1f77b4"/>
   </g>
   <g id="patch_155">
    <path d="M 1277.686771 246.90101 
L 1284.388415 246.90101 
L 1284.388415 150.528109 
L 1277.686771 150.528109 
z
" clip-path="url(#p226329e92e)" style="fill: #1f77b4"/>
   </g>
   <g id="patch_156">
    <path d="M 1285.133043 246.90101 
L 1291.834687 246.90101 
L 1291.834687 129.654715 
L 1285.133043 129.654715 
z
" clip-path="url(#p226329e92e)" style="fill: #1f77b4"/>
   </g>
   <g id="patch_157">
    <path d="M 1292.579315 246.90101 
L 1299.280959 246.90101 
L 1299.280959 104.340174 
L 1292.579315 104.340174 
z
" clip-path="url(#p226329e92e)" style="fill: #1f77b4"/>
   </g>
   <g id="patch_158">
    <path d="M 1300.025587 246.90101 
L 1306.727231 246.90101 
L 1306.727231 79.469748 
L 1300.025587 79.469748 
z
" clip-path="url(#p226329e92e)" style="fill: #1f77b4"/>
   </g>
   <g id="patch_159">
    <path d="M 1307.471859 246.90101 
L 1314.173503 246.90101 
L 1314.173503 44.828797 
L 1307.471859 44.828797 
z
" clip-path="url(#p226329e92e)" style="fill: #1f77b4"/>
   </g>
   <g id="patch_160">
    <path d="M 1314.918131 246.90101 
L 1321.619775 246.90101 
L 1321.619775 43.052338 
L 1314.918131 43.052338 
z
" clip-path="url(#p226329e92e)" style="fill: #1f77b4"/>
   </g>
   <g id="patch_161">
    <path d="M 1322.364403 246.90101 
L 1329.066047 246.90101 
L 1329.066047 45.717027 
L 1322.364403 45.717027 
z
" clip-path="url(#p226329e92e)" style="fill: #1f77b4"/>
   </g>
   <g id="patch_162">
    <path d="M 1329.810675 246.90101 
L 1336.512319 246.90101 
L 1336.512319 54.155207 
L 1329.810675 54.155207 
z
" clip-path="url(#p226329e92e)" style="fill: #1f77b4"/>
   </g>
   <g id="patch_163">
    <path d="M 1337.256947 246.90101 
L 1343.958591 246.90101 
L 1343.958591 73.696256 
L 1337.256947 73.696256 
z
" clip-path="url(#p226329e92e)" style="fill: #1f77b4"/>
   </g>
   <g id="patch_164">
    <path d="M 1344.703219 246.90101 
L 1351.404863 246.90101 
L 1351.404863 95.457879 
L 1344.703219 95.457879 
z
" clip-path="url(#p226329e92e)" style="fill: #1f77b4"/>
   </g>
   <g id="patch_165">
    <path d="M 1352.149491 246.90101 
L 1358.851135 246.90101 
L 1358.851135 131.431174 
L 1352.149491 131.431174 
z
" clip-path="url(#p226329e92e)" style="fill: #1f77b4"/>
   </g>
   <g id="patch_166">
    <path d="M 1359.595763 246.90101 
L 1366.297407 246.90101 
L 1366.297407 159.854518 
L 1359.595763 159.854518 
z
" clip-path="url(#p226329e92e)" style="fill: #1f77b4"/>
   </g>
   <g id="patch_167">
    <path d="M 1367.042035 246.90101 
L 1373.743679 246.90101 
L 1373.743679 185.169059 
L 1367.042035 185.169059 
z
" clip-path="url(#p226329e92e)" style="fill: #1f77b4"/>
   </g>
   <g id="patch_168">
    <path d="M 1374.488307 246.90101 
L 1381.189951 246.90101 
L 1381.189951 211.37183 
L 1374.488307 211.37183 
z
" clip-path="url(#p226329e92e)" style="fill: #1f77b4"/>
   </g>
   <g id="patch_169">
    <path d="M 1381.934579 246.90101 
L 1388.636223 246.90101 
L 1388.636223 216.701207 
L 1381.934579 216.701207 
z
" clip-path="url(#p226329e92e)" style="fill: #1f77b4"/>
   </g>
   <g id="patch_170">
    <path d="M 1389.380851 246.90101 
L 1396.082495 246.90101 
L 1396.082495 224.695272 
L 1389.380851 224.695272 
z
" clip-path="url(#p226329e92e)" style="fill: #1f77b4"/>
   </g>
   <g id="patch_171">
    <path d="M 1396.827123 246.90101 
L 1403.528767 246.90101 
L 1403.528767 234.909912 
L 1396.827123 234.909912 
z
" clip-path="url(#p226329e92e)" style="fill: #1f77b4"/>
   </g>
   <g id="patch_172">
    <path d="M 1404.273395 246.90101 
L 1410.975039 246.90101 
L 1410.975039 243.348092 
L 1404.273395 243.348092 
z
" clip-path="url(#p226329e92e)" style="fill: #1f77b4"/>
   </g>
   <g id="patch_173">
    <path d="M 1411.719667 246.90101 
L 1418.421311 246.90101 
L 1418.421311 244.236321 
L 1411.719667 244.236321 
z
" clip-path="url(#p226329e92e)" style="fill: #1f77b4"/>
   </g>
   <g id="patch_174">
    <path d="M 1419.165939 246.90101 
L 1425.867583 246.90101 
L 1425.867583 245.568666 
L 1419.165939 245.568666 
z
" clip-path="url(#p226329e92e)" style="fill: #1f77b4"/>
   </g>
   <g id="matplotlib.axis_9">
    <g id="xtick_20">
     <g id="line2d_46">
      <g>
       <use xlink:href="#md1b004db7f" x="1223.723492" y="246.90101" style="stroke: #000000; stroke-width: 0.8"/>
      </g>
     </g>
     <g id="text_50">
      <!-- 4800 -->
      <g transform="translate(1205.908492 264.538822) scale(0.14 -0.14)">
       <use xlink:href="#DejaVuSans-34"/>
       <use xlink:href="#DejaVuSans-38" x="63.623047"/>
       <use xlink:href="#DejaVuSans-30" x="127.246094"/>
       <use xlink:href="#DejaVuSans-30" x="190.869141"/>
      </g>
     </g>
    </g>
    <g id="xtick_21">
     <g id="line2d_47">
      <g>
       <use xlink:href="#md1b004db7f" x="1309.627206" y="246.90101" style="stroke: #000000; stroke-width: 0.8"/>
      </g>
     </g>
     <g id="text_51">
      <!-- 5000 -->
      <g transform="translate(1291.812206 264.538822) scale(0.14 -0.14)">
       <use xlink:href="#DejaVuSans-35"/>
       <use xlink:href="#DejaVuSans-30" x="63.623047"/>
       <use xlink:href="#DejaVuSans-30" x="127.246094"/>
       <use xlink:href="#DejaVuSans-30" x="190.869141"/>
      </g>
     </g>
    </g>
    <g id="xtick_22">
     <g id="line2d_48">
      <g>
       <use xlink:href="#md1b004db7f" x="1395.530921" y="246.90101" style="stroke: #000000; stroke-width: 0.8"/>
      </g>
     </g>
     <g id="text_52">
      <!-- 5200 -->
      <g transform="translate(1377.715921 264.538822) scale(0.14 -0.14)">
       <use xlink:href="#DejaVuSans-35"/>
       <use xlink:href="#DejaVuSans-32" x="63.623047"/>
       <use xlink:href="#DejaVuSans-30" x="127.246094"/>
       <use xlink:href="#DejaVuSans-30" x="190.869141"/>
      </g>
     </g>
    </g>
    <g id="text_53">
     <!-- $G_{12}$ [MPa] -->
     <g transform="translate(1280.455817 282.088197) scale(0.14 -0.14)">
      <defs>
       <path id="DejaVuSans-Oblique-47" d="M 3494 697 
L 3738 1919 
L 2700 1919 
L 2797 2438 
L 4453 2438 
L 4050 384 
Q 3634 156 3143 32 
Q 2653 -91 2156 -91 
Q 1278 -91 783 396 
Q 288 884 288 1753 
Q 288 2475 589 3126 
Q 891 3778 1422 4213 
Q 1756 4484 2153 4617 
Q 2550 4750 3034 4750 
Q 3472 4750 3873 4639 
Q 4275 4528 4641 4306 
L 4513 3634 
Q 4231 3928 3853 4083 
Q 3475 4238 3047 4238 
Q 2550 4238 2172 4048 
Q 1794 3859 1497 3463 
Q 1244 3125 1098 2667 
Q 953 2209 953 1734 
Q 953 1081 1287 751 
Q 1622 422 2284 422 
Q 2616 422 2925 492 
Q 3234 563 3494 697 
z
" transform="scale(0.015625)"/>
      </defs>
      <use xlink:href="#DejaVuSans-Oblique-47" transform="translate(0 0.015625)"/>
      <use xlink:href="#DejaVuSans-31" transform="translate(77.490234 -16.390625) scale(0.7)"/>
      <use xlink:href="#DejaVuSans-32" transform="translate(122.026367 -16.390625) scale(0.7)"/>
      <use xlink:href="#DejaVuSans-20" transform="translate(169.296875 0.015625)"/>
      <use xlink:href="#DejaVuSans-5b" transform="translate(201.083984 0.015625)"/>
      <use xlink:href="#DejaVuSans-4d" transform="translate(240.097656 0.015625)"/>
      <use xlink:href="#DejaVuSans-50" transform="translate(326.376953 0.015625)"/>
      <use xlink:href="#DejaVuSans-61" transform="translate(386.679688 0.015625)"/>
      <use xlink:href="#DejaVuSans-5d" transform="translate(447.958984 0.015625)"/>
     </g>
    </g>
   </g>
   <g id="matplotlib.axis_10">
    <g id="ytick_22">
     <g id="line2d_49">
      <g>
       <use xlink:href="#m8d3a4aa12d" x="1192.091874" y="246.90101" style="stroke: #000000; stroke-width: 0.8"/>
      </g>
     </g>
     <g id="text_54">
      <!-- 0.000 -->
      <g transform="translate(1145.012499 252.219916) scale(0.14 -0.14)">
       <use xlink:href="#DejaVuSans-30"/>
       <use xlink:href="#DejaVuSans-2e" x="63.623047"/>
       <use xlink:href="#DejaVuSans-30" x="95.410156"/>
       <use xlink:href="#DejaVuSans-30" x="159.033203"/>
       <use xlink:href="#DejaVuSans-30" x="222.65625"/>
      </g>
     </g>
    </g>
    <g id="ytick_23">
     <g id="line2d_50">
      <g>
       <use xlink:href="#m8d3a4aa12d" x="1192.091874" y="208.40443" style="stroke: #000000; stroke-width: 0.8"/>
      </g>
     </g>
     <g id="text_55">
      <!-- 0.001 -->
      <g transform="translate(1145.012499 213.723336) scale(0.14 -0.14)">
       <use xlink:href="#DejaVuSans-30"/>
       <use xlink:href="#DejaVuSans-2e" x="63.623047"/>
       <use xlink:href="#DejaVuSans-30" x="95.410156"/>
       <use xlink:href="#DejaVuSans-30" x="159.033203"/>
       <use xlink:href="#DejaVuSans-31" x="222.65625"/>
      </g>
     </g>
    </g>
    <g id="ytick_24">
     <g id="line2d_51">
      <g>
       <use xlink:href="#m8d3a4aa12d" x="1192.091874" y="169.907849" style="stroke: #000000; stroke-width: 0.8"/>
      </g>
     </g>
     <g id="text_56">
      <!-- 0.002 -->
      <g transform="translate(1145.012499 175.226755) scale(0.14 -0.14)">
       <use xlink:href="#DejaVuSans-30"/>
       <use xlink:href="#DejaVuSans-2e" x="63.623047"/>
       <use xlink:href="#DejaVuSans-30" x="95.410156"/>
       <use xlink:href="#DejaVuSans-30" x="159.033203"/>
       <use xlink:href="#DejaVuSans-32" x="222.65625"/>
      </g>
     </g>
    </g>
    <g id="ytick_25">
     <g id="line2d_52">
      <g>
       <use xlink:href="#m8d3a4aa12d" x="1192.091874" y="131.411269" style="stroke: #000000; stroke-width: 0.8"/>
      </g>
     </g>
     <g id="text_57">
      <!-- 0.003 -->
      <g transform="translate(1145.012499 136.730175) scale(0.14 -0.14)">
       <use xlink:href="#DejaVuSans-30"/>
       <use xlink:href="#DejaVuSans-2e" x="63.623047"/>
       <use xlink:href="#DejaVuSans-30" x="95.410156"/>
       <use xlink:href="#DejaVuSans-30" x="159.033203"/>
       <use xlink:href="#DejaVuSans-33" x="222.65625"/>
      </g>
     </g>
    </g>
    <g id="ytick_26">
     <g id="line2d_53">
      <g>
       <use xlink:href="#m8d3a4aa12d" x="1192.091874" y="92.914688" style="stroke: #000000; stroke-width: 0.8"/>
      </g>
     </g>
     <g id="text_58">
      <!-- 0.004 -->
      <g transform="translate(1145.012499 98.233594) scale(0.14 -0.14)">
       <use xlink:href="#DejaVuSans-30"/>
       <use xlink:href="#DejaVuSans-2e" x="63.623047"/>
       <use xlink:href="#DejaVuSans-30" x="95.410156"/>
       <use xlink:href="#DejaVuSans-30" x="159.033203"/>
       <use xlink:href="#DejaVuSans-34" x="222.65625"/>
      </g>
     </g>
    </g>
    <g id="ytick_27">
     <g id="line2d_54">
      <g>
       <use xlink:href="#m8d3a4aa12d" x="1192.091874" y="54.418108" style="stroke: #000000; stroke-width: 0.8"/>
      </g>
     </g>
     <g id="text_59">
      <!-- 0.005 -->
      <g transform="translate(1145.012499 59.737014) scale(0.14 -0.14)">
       <use xlink:href="#DejaVuSans-30"/>
       <use xlink:href="#DejaVuSans-2e" x="63.623047"/>
       <use xlink:href="#DejaVuSans-30" x="95.410156"/>
       <use xlink:href="#DejaVuSans-30" x="159.033203"/>
       <use xlink:href="#DejaVuSans-35" x="222.65625"/>
      </g>
     </g>
    </g>
   </g>
   <g id="line2d_55">
    <path d="M 1245.199421 244.46371 
L 1247.021621 243.983086 
L 1248.843821 243.420492 
L 1250.666021 242.764648 
L 1252.488221 242.003245 
L 1254.310421 241.122949 
L 1256.132621 240.109425 
L 1257.954821 238.947388 
L 1259.777021 237.620678 
L 1261.599221 236.112365 
L 1263.421421 234.404892 
L 1265.243621 232.480252 
L 1267.065821 230.320195 
L 1268.888021 227.906485 
L 1270.710221 225.221183 
L 1272.532421 222.246977 
L 1274.354621 218.967537 
L 1276.176821 215.367908 
L 1277.999021 211.434926 
L 1279.821221 207.157649 
L 1281.643421 202.527812 
L 1283.465621 197.540269 
L 1285.287821 192.193443 
L 1287.110021 186.489745 
L 1288.932221 180.435973 
L 1290.754421 174.043661 
L 1292.576621 167.329375 
L 1294.398821 160.314948 
L 1296.221021 153.027622 
L 1298.043221 145.500114 
L 1299.865421 137.770575 
L 1301.687621 129.882443 
L 1303.509821 121.884187 
L 1305.332021 113.828932 
L 1307.154221 105.773976 
L 1308.976421 97.780189 
L 1310.798621 89.911313 
L 1312.620821 82.233161 
L 1314.443021 74.81274 
L 1316.265221 67.717302 
L 1318.087421 61.013347 
L 1319.909621 54.765601 
L 1321.731821 49.035979 
L 1323.554021 43.882573 
L 1325.376221 39.35867 
L 1327.198421 35.511841 
L 1329.020621 32.383103 
L 1330.842821 30.006197 
L 1332.665021 28.40698 
L 1334.487221 27.602955 
L 1336.309421 27.602955 
L 1338.131621 28.40698 
L 1339.953821 30.006197 
L 1341.776021 32.383103 
L 1343.598221 35.511841 
L 1345.420421 39.35867 
L 1347.242621 43.882573 
L 1349.064821 49.035979 
L 1350.887021 54.765601 
L 1352.709221 61.013347 
L 1354.531421 67.717302 
L 1356.353621 74.81274 
L 1358.175821 82.233161 
L 1359.998021 89.911313 
L 1361.820221 97.780189 
L 1363.642421 105.773976 
L 1365.464621 113.828932 
L 1367.286821 121.884187 
L 1369.109021 129.882443 
L 1370.931221 137.770575 
L 1372.753421 145.500114 
L 1374.575621 153.027622 
L 1376.397821 160.314948 
L 1378.220021 167.329375 
L 1380.042221 174.043661 
L 1381.864421 180.435973 
L 1383.686621 186.489745 
L 1385.508821 192.193443 
L 1387.331021 197.540269 
L 1389.153221 202.527812 
L 1390.975421 207.157649 
L 1392.797621 211.434926 
L 1394.619821 215.367908 
L 1396.442021 218.967537 
L 1398.264221 222.246977 
L 1400.086421 225.221183 
L 1401.908621 227.906485 
L 1403.730821 230.320195 
L 1405.553021 232.480252 
L 1407.375221 234.404892 
L 1409.197421 236.112365 
L 1411.019621 237.620678 
L 1412.841821 238.947388 
L 1414.664021 240.109425 
L 1416.486221 241.122949 
L 1418.308421 242.003245 
L 1420.130621 242.764648 
L 1421.952821 243.420492 
L 1423.775021 243.983086 
L 1425.597221 244.46371 
" clip-path="url(#p226329e92e)" style="fill: none; stroke: #2ca02c; stroke-width: 1.5; stroke-linecap: square"/>
   </g>
   <g id="patch_175">
    <path d="M 1192.091874 246.90101 
L 1192.091874 16.638052 
" style="fill: none; stroke: #000000; stroke-width: 0.8; stroke-linejoin: miter; stroke-linecap: square"/>
   </g>
   <g id="patch_176">
    <path d="M 1436.99976 246.90101 
L 1436.99976 16.638052 
" style="fill: none; stroke: #000000; stroke-width: 0.8; stroke-linejoin: miter; stroke-linecap: square"/>
   </g>
   <g id="patch_177">
    <path d="M 1192.091874 246.90101 
L 1436.99976 246.90101 
" style="fill: none; stroke: #000000; stroke-width: 0.8; stroke-linejoin: miter; stroke-linecap: square"/>
   </g>
   <g id="patch_178">
    <path d="M 1192.091874 16.638052 
L 1436.99976 16.638052 
" style="fill: none; stroke: #000000; stroke-width: 0.8; stroke-linejoin: miter; stroke-linecap: square"/>
   </g>
  </g>
 </g>
 <defs>
  <clipPath id="p2a427c1a11">
   <rect x="36.457115" y="16.638052" width="244.907886" height="230.262958"/>
  </clipPath>
  <clipPath id="p61ddb8065b">
   <rect x="340.802664" y="16.638052" width="244.907886" height="230.262958"/>
  </clipPath>
  <clipPath id="p070f02b1f6">
   <rect x="616.52603" y="16.638052" width="244.907886" height="230.262958"/>
  </clipPath>
  <clipPath id="p51341dacab">
   <rect x="892.249396" y="16.638052" width="244.907886" height="230.262958"/>
  </clipPath>
  <clipPath id="p226329e92e">
   <rect x="1192.091874" y="16.638052" width="244.907886" height="230.262958"/>
  </clipPath>
 </defs>
</svg>
