<?xml version="1.0" encoding="utf-8" standalone="no"?>
<!DOCTYPE svg PUBLIC "-//W3C//DTD SVG 1.1//EN"
  "http://www.w3.org/Graphics/SVG/1.1/DTD/svg11.dtd">
<svg xmlns:xlink="http://www.w3.org/1999/xlink" width="1440pt" height="288pt" viewBox="0 0 1440 288" xmlns="http://www.w3.org/2000/svg" version="1.1">
 <metadata>
  <rdf:RDF xmlns:dc="http://purl.org/dc/elements/1.1/" xmlns:cc="http://creativecommons.org/ns#" xmlns:rdf="http://www.w3.org/1999/02/22-rdf-syntax-ns#">
   <cc:Work>
    <dc:type rdf:resource="http://purl.org/dc/dcmitype/StillImage"/>
    <dc:date>2024-08-27T19:35:06.883632</dc:date>
    <dc:format>image/svg+xml</dc:format>
    <dc:creator>
     <cc:Agent>
      <dc:title>Matplotlib v3.9.1, https://matplotlib.org/</dc:title>
     </cc:Agent>
    </dc:creator>
   </cc:Work>
  </rdf:RDF>
 </metadata>
 <defs>
  <style type="text/css">*{stroke-linejoin: round; stroke-linecap: butt}</style>
 </defs>
 <g id="figure_1">
  <g id="patch_1">
   <path d="M 0 288 
L 1440 288 
L 1440 0 
L 0 0 
z
" style="fill: #ffffff"/>
  </g>
  <g id="axes_1">
   <g id="patch_2">
    <path d="M 36.457115 246.90101 
L 281.364998 246.90101 
L 281.364998 16.638052 
L 36.457115 16.638052 
z
" style="fill: #ffffff"/>
   </g>
   <g id="patch_3">
    <path d="M 47.589291 246.90101 
L 49.616386 246.90101 
L 49.616386 246.524856 
L 47.589291 246.524856 
z
" clip-path="url(#pf077f1884f)" style="fill: #1f77b4"/>
   </g>
   <g id="patch_4">
    <path d="M 49.841618 246.90101 
L 51.868713 246.90101 
L 51.868713 246.524856 
L 49.841618 246.524856 
z
" clip-path="url(#pf077f1884f)" style="fill: #1f77b4"/>
   </g>
   <g id="patch_5">
    <path d="M 52.093945 246.90101 
L 54.12104 246.90101 
L 54.12104 244.267929 
L 52.093945 244.267929 
z
" clip-path="url(#pf077f1884f)" style="fill: #1f77b4"/>
   </g>
   <g id="patch_6">
    <path d="M 54.346272 246.90101 
L 56.373367 246.90101 
L 56.373367 245.772547 
L 54.346272 245.772547 
z
" clip-path="url(#pf077f1884f)" style="fill: #1f77b4"/>
   </g>
   <g id="patch_7">
    <path d="M 56.598599 246.90101 
L 58.625694 246.90101 
L 58.625694 242.763311 
L 56.598599 242.763311 
z
" clip-path="url(#pf077f1884f)" style="fill: #1f77b4"/>
   </g>
   <g id="patch_8">
    <path d="M 58.850926 246.90101 
L 60.87802 246.90101 
L 60.87802 241.634847 
L 58.850926 241.634847 
z
" clip-path="url(#pf077f1884f)" style="fill: #1f77b4"/>
   </g>
   <g id="patch_9">
    <path d="M 61.103253 246.90101 
L 63.130347 246.90101 
L 63.130347 230.726368 
L 61.103253 230.726368 
z
" clip-path="url(#pf077f1884f)" style="fill: #1f77b4"/>
   </g>
   <g id="patch_10">
    <path d="M 63.35558 246.90101 
L 65.382674 246.90101 
L 65.382674 221.698661 
L 63.35558 221.698661 
z
" clip-path="url(#pf077f1884f)" style="fill: #1f77b4"/>
   </g>
   <g id="patch_11">
    <path d="M 65.607907 246.90101 
L 67.635001 246.90101 
L 67.635001 208.909409 
L 65.607907 208.909409 
z
" clip-path="url(#pf077f1884f)" style="fill: #1f77b4"/>
   </g>
   <g id="patch_12">
    <path d="M 67.860234 246.90101 
L 69.887328 246.90101 
L 69.887328 180.321669 
L 67.860234 180.321669 
z
" clip-path="url(#pf077f1884f)" style="fill: #1f77b4"/>
   </g>
   <g id="patch_13">
    <path d="M 70.112561 246.90101 
L 72.139655 246.90101 
L 72.139655 155.871629 
L 70.112561 155.871629 
z
" clip-path="url(#pf077f1884f)" style="fill: #1f77b4"/>
   </g>
   <g id="patch_14">
    <path d="M 72.364888 246.90101 
L 74.391982 246.90101 
L 74.391982 125.779271 
L 72.364888 125.779271 
z
" clip-path="url(#pf077f1884f)" style="fill: #1f77b4"/>
   </g>
   <g id="patch_15">
    <path d="M 74.617215 246.90101 
L 76.644309 246.90101 
L 76.644309 97.191532 
L 74.617215 97.191532 
z
" clip-path="url(#pf077f1884f)" style="fill: #1f77b4"/>
   </g>
   <g id="patch_16">
    <path d="M 76.869542 246.90101 
L 78.896636 246.90101 
L 78.896636 79.512272 
L 76.869542 79.512272 
z
" clip-path="url(#pf077f1884f)" style="fill: #1f77b4"/>
   </g>
   <g id="patch_17">
    <path d="M 79.121869 246.90101 
L 81.148963 246.90101 
L 81.148963 27.602955 
L 79.121869 27.602955 
z
" clip-path="url(#pf077f1884f)" style="fill: #1f77b4"/>
   </g>
   <g id="patch_18">
    <path d="M 81.374196 246.90101 
L 83.40129 246.90101 
L 83.40129 47.162988 
L 81.374196 47.162988 
z
" clip-path="url(#pf077f1884f)" style="fill: #1f77b4"/>
   </g>
   <g id="patch_19">
    <path d="M 83.626523 246.90101 
L 85.653617 246.90101 
L 85.653617 64.466093 
L 83.626523 64.466093 
z
" clip-path="url(#pf077f1884f)" style="fill: #1f77b4"/>
   </g>
   <g id="patch_20">
    <path d="M 85.87885 246.90101 
L 87.905944 246.90101 
L 87.905944 77.631499 
L 85.87885 77.631499 
z
" clip-path="url(#pf077f1884f)" style="fill: #1f77b4"/>
   </g>
   <g id="patch_21">
    <path d="M 88.131177 246.90101 
L 90.158271 246.90101 
L 90.158271 111.109247 
L 88.131177 111.109247 
z
" clip-path="url(#pf077f1884f)" style="fill: #1f77b4"/>
   </g>
   <g id="patch_22">
    <path d="M 90.383504 246.90101 
L 92.410598 246.90101 
L 92.410598 140.449296 
L 90.383504 140.449296 
z
" clip-path="url(#pf077f1884f)" style="fill: #1f77b4"/>
   </g>
   <g id="patch_23">
    <path d="M 92.63583 246.90101 
L 94.662925 246.90101 
L 94.662925 176.560125 
L 92.63583 176.560125 
z
" clip-path="url(#pf077f1884f)" style="fill: #1f77b4"/>
   </g>
   <g id="patch_24">
    <path d="M 94.888157 246.90101 
L 96.915252 246.90101 
L 96.915252 201.386319 
L 94.888157 201.386319 
z
" clip-path="url(#pf077f1884f)" style="fill: #1f77b4"/>
   </g>
   <g id="patch_25">
    <path d="M 97.140484 246.90101 
L 99.167579 246.90101 
L 99.167579 217.937116 
L 97.140484 217.937116 
z
" clip-path="url(#pf077f1884f)" style="fill: #1f77b4"/>
   </g>
   <g id="patch_26">
    <path d="M 99.392811 246.90101 
L 101.419906 246.90101 
L 101.419906 230.350213 
L 99.392811 230.350213 
z
" clip-path="url(#pf077f1884f)" style="fill: #1f77b4"/>
   </g>
   <g id="patch_27">
    <path d="M 101.645138 246.90101 
L 103.672233 246.90101 
L 103.672233 239.001766 
L 101.645138 239.001766 
z
" clip-path="url(#pf077f1884f)" style="fill: #1f77b4"/>
   </g>
   <g id="patch_28">
    <path d="M 103.897465 246.90101 
L 105.924559 246.90101 
L 105.924559 242.763311 
L 103.897465 242.763311 
z
" clip-path="url(#pf077f1884f)" style="fill: #1f77b4"/>
   </g>
   <g id="patch_29">
    <path d="M 106.149792 246.90101 
L 108.176886 246.90101 
L 108.176886 243.51562 
L 106.149792 243.51562 
z
" clip-path="url(#pf077f1884f)" style="fill: #1f77b4"/>
   </g>
   <g id="patch_30">
    <path d="M 108.402119 246.90101 
L 110.429213 246.90101 
L 110.429213 245.772547 
L 108.402119 245.772547 
z
" clip-path="url(#pf077f1884f)" style="fill: #1f77b4"/>
   </g>
   <g id="patch_31">
    <path d="M 110.654446 246.90101 
L 112.68154 246.90101 
L 112.68154 246.90101 
L 110.654446 246.90101 
z
" clip-path="url(#pf077f1884f)" style="fill: #1f77b4"/>
   </g>
   <g id="patch_32">
    <path d="M 112.906773 246.90101 
L 114.933867 246.90101 
L 114.933867 246.148701 
L 112.906773 246.148701 
z
" clip-path="url(#pf077f1884f)" style="fill: #1f77b4"/>
   </g>
   <g id="matplotlib.axis_1">
    <g id="xtick_1">
     <g id="line2d_1">
      <defs>
       <path id="m5eb891e1ee" d="M 0 0 
L 0 3.5 
" style="stroke: #000000; stroke-width: 0.8"/>
      </defs>
      <g>
       <use xlink:href="#m5eb891e1ee" x="81.734217" y="246.90101" style="stroke: #000000; stroke-width: 0.8"/>
      </g>
     </g>
     <g id="text_1">
      <!-- 1.35 -->
      <g transform="translate(66.14828 264.538822) scale(0.14 -0.14)">
       <defs>
        <path id="DejaVuSans-31" d="M 794 531 
L 1825 531 
L 1825 4091 
L 703 3866 
L 703 4441 
L 1819 4666 
L 2450 4666 
L 2450 531 
L 3481 531 
L 3481 0 
L 794 0 
L 794 531 
z
" transform="scale(0.015625)"/>
        <path id="DejaVuSans-2e" d="M 684 794 
L 1344 794 
L 1344 0 
L 684 0 
L 684 794 
z
" transform="scale(0.015625)"/>
        <path id="DejaVuSans-33" d="M 2597 2516 
Q 3050 2419 3304 2112 
Q 3559 1806 3559 1356 
Q 3559 666 3084 287 
Q 2609 -91 1734 -91 
Q 1441 -91 1130 -33 
Q 819 25 488 141 
L 488 750 
Q 750 597 1062 519 
Q 1375 441 1716 441 
Q 2309 441 2620 675 
Q 2931 909 2931 1356 
Q 2931 1769 2642 2001 
Q 2353 2234 1838 2234 
L 1294 2234 
L 1294 2753 
L 1863 2753 
Q 2328 2753 2575 2939 
Q 2822 3125 2822 3475 
Q 2822 3834 2567 4026 
Q 2313 4219 1838 4219 
Q 1578 4219 1281 4162 
Q 984 4106 628 3988 
L 628 4550 
Q 988 4650 1302 4700 
Q 1616 4750 1894 4750 
Q 2613 4750 3031 4423 
Q 3450 4097 3450 3541 
Q 3450 3153 3228 2886 
Q 3006 2619 2597 2516 
z
" transform="scale(0.015625)"/>
        <path id="DejaVuSans-35" d="M 691 4666 
L 3169 4666 
L 3169 4134 
L 1269 4134 
L 1269 2991 
Q 1406 3038 1543 3061 
Q 1681 3084 1819 3084 
Q 2600 3084 3056 2656 
Q 3513 2228 3513 1497 
Q 3513 744 3044 326 
Q 2575 -91 1722 -91 
Q 1428 -91 1123 -41 
Q 819 9 494 109 
L 494 744 
Q 775 591 1075 516 
Q 1375 441 1709 441 
Q 2250 441 2565 725 
Q 2881 1009 2881 1497 
Q 2881 1984 2565 2268 
Q 2250 2553 1709 2553 
Q 1456 2553 1204 2497 
Q 953 2441 691 2322 
L 691 4666 
z
" transform="scale(0.015625)"/>
       </defs>
       <use xlink:href="#DejaVuSans-31"/>
       <use xlink:href="#DejaVuSans-2e" x="63.623047"/>
       <use xlink:href="#DejaVuSans-33" x="95.410156"/>
       <use xlink:href="#DejaVuSans-35" x="159.033203"/>
      </g>
     </g>
    </g>
    <g id="xtick_2">
     <g id="line2d_2">
      <g>
       <use xlink:href="#m5eb891e1ee" x="129.334875" y="246.90101" style="stroke: #000000; stroke-width: 0.8"/>
      </g>
     </g>
     <g id="text_2">
      <!-- 1.40 -->
      <g transform="translate(113.748937 264.538822) scale(0.14 -0.14)">
       <defs>
        <path id="DejaVuSans-34" d="M 2419 4116 
L 825 1625 
L 2419 1625 
L 2419 4116 
z
M 2253 4666 
L 3047 4666 
L 3047 1625 
L 3713 1625 
L 3713 1100 
L 3047 1100 
L 3047 0 
L 2419 0 
L 2419 1100 
L 313 1100 
L 313 1709 
L 2253 4666 
z
" transform="scale(0.015625)"/>
        <path id="DejaVuSans-30" d="M 2034 4250 
Q 1547 4250 1301 3770 
Q 1056 3291 1056 2328 
Q 1056 1369 1301 889 
Q 1547 409 2034 409 
Q 2525 409 2770 889 
Q 3016 1369 3016 2328 
Q 3016 3291 2770 3770 
Q 2525 4250 2034 4250 
z
M 2034 4750 
Q 2819 4750 3233 4129 
Q 3647 3509 3647 2328 
Q 3647 1150 3233 529 
Q 2819 -91 2034 -91 
Q 1250 -91 836 529 
Q 422 1150 422 2328 
Q 422 3509 836 4129 
Q 1250 4750 2034 4750 
z
" transform="scale(0.015625)"/>
       </defs>
       <use xlink:href="#DejaVuSans-31"/>
       <use xlink:href="#DejaVuSans-2e" x="63.623047"/>
       <use xlink:href="#DejaVuSans-34" x="95.410156"/>
       <use xlink:href="#DejaVuSans-30" x="159.033203"/>
      </g>
     </g>
    </g>
    <g id="xtick_3">
     <g id="line2d_3">
      <g>
       <use xlink:href="#m5eb891e1ee" x="176.935532" y="246.90101" style="stroke: #000000; stroke-width: 0.8"/>
      </g>
     </g>
     <g id="text_3">
      <!-- 1.45 -->
      <g transform="translate(161.349595 264.538822) scale(0.14 -0.14)">
       <use xlink:href="#DejaVuSans-31"/>
       <use xlink:href="#DejaVuSans-2e" x="63.623047"/>
       <use xlink:href="#DejaVuSans-34" x="95.410156"/>
       <use xlink:href="#DejaVuSans-35" x="159.033203"/>
      </g>
     </g>
    </g>
    <g id="xtick_4">
     <g id="line2d_4">
      <g>
       <use xlink:href="#m5eb891e1ee" x="224.53619" y="246.90101" style="stroke: #000000; stroke-width: 0.8"/>
      </g>
     </g>
     <g id="text_4">
      <!-- 1.50 -->
      <g transform="translate(208.950253 264.538822) scale(0.14 -0.14)">
       <use xlink:href="#DejaVuSans-31"/>
       <use xlink:href="#DejaVuSans-2e" x="63.623047"/>
       <use xlink:href="#DejaVuSans-35" x="95.410156"/>
       <use xlink:href="#DejaVuSans-30" x="159.033203"/>
      </g>
     </g>
    </g>
    <g id="xtick_5">
     <g id="line2d_5">
      <g>
       <use xlink:href="#m5eb891e1ee" x="272.136848" y="246.90101" style="stroke: #000000; stroke-width: 0.8"/>
      </g>
     </g>
     <g id="text_5">
      <!-- 1.55 -->
      <g transform="translate(256.55091 264.538822) scale(0.14 -0.14)">
       <use xlink:href="#DejaVuSans-31"/>
       <use xlink:href="#DejaVuSans-2e" x="63.623047"/>
       <use xlink:href="#DejaVuSans-35" x="95.410156"/>
       <use xlink:href="#DejaVuSans-35" x="159.033203"/>
      </g>
     </g>
    </g>
    <g id="text_6">
     <!-- $E_1$ [MPa] -->
     <g transform="translate(128.881056 282.088197) scale(0.14 -0.14)">
      <defs>
       <path id="DejaVuSans-Oblique-45" d="M 1081 4666 
L 4031 4666 
L 3928 4134 
L 1606 4134 
L 1338 2753 
L 3566 2753 
L 3463 2222 
L 1234 2222 
L 909 531 
L 3284 531 
L 3181 0 
L 172 0 
L 1081 4666 
z
" transform="scale(0.015625)"/>
       <path id="DejaVuSans-20" transform="scale(0.015625)"/>
       <path id="DejaVuSans-5b" d="M 550 4863 
L 1875 4863 
L 1875 4416 
L 1125 4416 
L 1125 -397 
L 1875 -397 
L 1875 -844 
L 550 -844 
L 550 4863 
z
" transform="scale(0.015625)"/>
       <path id="DejaVuSans-4d" d="M 628 4666 
L 1569 4666 
L 2759 1491 
L 3956 4666 
L 4897 4666 
L 4897 0 
L 4281 0 
L 4281 4097 
L 3078 897 
L 2444 897 
L 1241 4097 
L 1241 0 
L 628 0 
L 628 4666 
z
" transform="scale(0.015625)"/>
       <path id="DejaVuSans-50" d="M 1259 4147 
L 1259 2394 
L 2053 2394 
Q 2494 2394 2734 2622 
Q 2975 2850 2975 3272 
Q 2975 3691 2734 3919 
Q 2494 4147 2053 4147 
L 1259 4147 
z
M 628 4666 
L 2053 4666 
Q 2838 4666 3239 4311 
Q 3641 3956 3641 3272 
Q 3641 2581 3239 2228 
Q 2838 1875 2053 1875 
L 1259 1875 
L 1259 0 
L 628 0 
L 628 4666 
z
" transform="scale(0.015625)"/>
       <path id="DejaVuSans-61" d="M 2194 1759 
Q 1497 1759 1228 1600 
Q 959 1441 959 1056 
Q 959 750 1161 570 
Q 1363 391 1709 391 
Q 2188 391 2477 730 
Q 2766 1069 2766 1631 
L 2766 1759 
L 2194 1759 
z
M 3341 1997 
L 3341 0 
L 2766 0 
L 2766 531 
Q 2569 213 2275 61 
Q 1981 -91 1556 -91 
Q 1019 -91 701 211 
Q 384 513 384 1019 
Q 384 1609 779 1909 
Q 1175 2209 1959 2209 
L 2766 2209 
L 2766 2266 
Q 2766 2663 2505 2880 
Q 2244 3097 1772 3097 
Q 1472 3097 1187 3025 
Q 903 2953 641 2809 
L 641 3341 
Q 956 3463 1253 3523 
Q 1550 3584 1831 3584 
Q 2591 3584 2966 3190 
Q 3341 2797 3341 1997 
z
" transform="scale(0.015625)"/>
       <path id="DejaVuSans-5d" d="M 1947 4863 
L 1947 -844 
L 622 -844 
L 622 -397 
L 1369 -397 
L 1369 4416 
L 622 4416 
L 622 4863 
L 1947 4863 
z
" transform="scale(0.015625)"/>
      </defs>
      <use xlink:href="#DejaVuSans-Oblique-45" transform="translate(0 0.015625)"/>
      <use xlink:href="#DejaVuSans-31" transform="translate(63.183594 -16.390625) scale(0.7)"/>
      <use xlink:href="#DejaVuSans-20" transform="translate(110.454102 0.015625)"/>
      <use xlink:href="#DejaVuSans-5b" transform="translate(142.241211 0.015625)"/>
      <use xlink:href="#DejaVuSans-4d" transform="translate(181.254883 0.015625)"/>
      <use xlink:href="#DejaVuSans-50" transform="translate(267.53418 0.015625)"/>
      <use xlink:href="#DejaVuSans-61" transform="translate(327.836914 0.015625)"/>
      <use xlink:href="#DejaVuSans-5d" transform="translate(389.116211 0.015625)"/>
     </g>
    </g>
    <g id="text_7">
     <!-- 1e5 -->
     <g transform="translate(254.935623 281.088197) scale(0.14 -0.14)">
      <defs>
       <path id="DejaVuSans-65" d="M 3597 1894 
L 3597 1613 
L 953 1613 
Q 991 1019 1311 708 
Q 1631 397 2203 397 
Q 2534 397 2845 478 
Q 3156 559 3463 722 
L 3463 178 
Q 3153 47 2828 -22 
Q 2503 -91 2169 -91 
Q 1331 -91 842 396 
Q 353 884 353 1716 
Q 353 2575 817 3079 
Q 1281 3584 2069 3584 
Q 2775 3584 3186 3129 
Q 3597 2675 3597 1894 
z
M 3022 2063 
Q 3016 2534 2758 2815 
Q 2500 3097 2075 3097 
Q 1594 3097 1305 2825 
Q 1016 2553 972 2059 
L 3022 2063 
z
" transform="scale(0.015625)"/>
      </defs>
      <use xlink:href="#DejaVuSans-31"/>
      <use xlink:href="#DejaVuSans-65" x="63.623047"/>
      <use xlink:href="#DejaVuSans-35" x="125.146484"/>
     </g>
    </g>
   </g>
   <g id="matplotlib.axis_2">
    <g id="ytick_1">
     <g id="line2d_6">
      <defs>
       <path id="m9fefe8f967" d="M 0 0 
L -3.5 0 
" style="stroke: #000000; stroke-width: 0.8"/>
      </defs>
      <g>
       <use xlink:href="#m9fefe8f967" x="36.457115" y="246.90101" style="stroke: #000000; stroke-width: 0.8"/>
      </g>
     </g>
     <g id="text_8">
      <!-- 0 -->
      <g transform="translate(20.549615 252.219916) scale(0.14 -0.14)">
       <use xlink:href="#DejaVuSans-30"/>
      </g>
     </g>
    </g>
    <g id="ytick_2">
     <g id="line2d_7">
      <g>
       <use xlink:href="#m9fefe8f967" x="36.457115" y="202.404627" style="stroke: #000000; stroke-width: 0.8"/>
      </g>
     </g>
     <g id="text_9">
      <!-- 1 -->
      <g transform="translate(20.549615 207.723533) scale(0.14 -0.14)">
       <use xlink:href="#DejaVuSans-31"/>
      </g>
     </g>
    </g>
    <g id="ytick_3">
     <g id="line2d_8">
      <g>
       <use xlink:href="#m9fefe8f967" x="36.457115" y="157.908243" style="stroke: #000000; stroke-width: 0.8"/>
      </g>
     </g>
     <g id="text_10">
      <!-- 2 -->
      <g transform="translate(20.549615 163.227149) scale(0.14 -0.14)">
       <defs>
        <path id="DejaVuSans-32" d="M 1228 531 
L 3431 531 
L 3431 0 
L 469 0 
L 469 531 
Q 828 903 1448 1529 
Q 2069 2156 2228 2338 
Q 2531 2678 2651 2914 
Q 2772 3150 2772 3378 
Q 2772 3750 2511 3984 
Q 2250 4219 1831 4219 
Q 1534 4219 1204 4116 
Q 875 4013 500 3803 
L 500 4441 
Q 881 4594 1212 4672 
Q 1544 4750 1819 4750 
Q 2544 4750 2975 4387 
Q 3406 4025 3406 3419 
Q 3406 3131 3298 2873 
Q 3191 2616 2906 2266 
Q 2828 2175 2409 1742 
Q 1991 1309 1228 531 
z
" transform="scale(0.015625)"/>
       </defs>
       <use xlink:href="#DejaVuSans-32"/>
      </g>
     </g>
    </g>
    <g id="ytick_4">
     <g id="line2d_9">
      <g>
       <use xlink:href="#m9fefe8f967" x="36.457115" y="113.41186" style="stroke: #000000; stroke-width: 0.8"/>
      </g>
     </g>
     <g id="text_11">
      <!-- 3 -->
      <g transform="translate(20.549615 118.730766) scale(0.14 -0.14)">
       <use xlink:href="#DejaVuSans-33"/>
      </g>
     </g>
    </g>
    <g id="ytick_5">
     <g id="line2d_10">
      <g>
       <use xlink:href="#m9fefe8f967" x="36.457115" y="68.915476" style="stroke: #000000; stroke-width: 0.8"/>
      </g>
     </g>
     <g id="text_12">
      <!-- 4 -->
      <g transform="translate(20.549615 74.234382) scale(0.14 -0.14)">
       <use xlink:href="#DejaVuSans-34"/>
      </g>
     </g>
    </g>
    <g id="ytick_6">
     <g id="line2d_11">
      <g>
       <use xlink:href="#m9fefe8f967" x="36.457115" y="24.419093" style="stroke: #000000; stroke-width: 0.8"/>
      </g>
     </g>
     <g id="text_13">
      <!-- 5 -->
      <g transform="translate(20.549615 29.737999) scale(0.14 -0.14)">
       <use xlink:href="#DejaVuSans-35"/>
      </g>
     </g>
    </g>
    <g id="text_14">
     <!-- PDF -->
     <g transform="translate(13.638053 145.406406) rotate(-90) scale(0.14 -0.14)">
      <defs>
       <path id="DejaVuSans-44" d="M 1259 4147 
L 1259 519 
L 2022 519 
Q 2988 519 3436 956 
Q 3884 1394 3884 2338 
Q 3884 3275 3436 3711 
Q 2988 4147 2022 4147 
L 1259 4147 
z
M 628 4666 
L 1925 4666 
Q 3281 4666 3915 4102 
Q 4550 3538 4550 2338 
Q 4550 1131 3912 565 
Q 3275 0 1925 0 
L 628 0 
L 628 4666 
z
" transform="scale(0.015625)"/>
       <path id="DejaVuSans-46" d="M 628 4666 
L 3309 4666 
L 3309 4134 
L 1259 4134 
L 1259 2759 
L 3109 2759 
L 3109 2228 
L 1259 2228 
L 1259 0 
L 628 0 
L 628 4666 
z
" transform="scale(0.015625)"/>
      </defs>
      <use xlink:href="#DejaVuSans-50"/>
      <use xlink:href="#DejaVuSans-44" x="60.302734"/>
      <use xlink:href="#DejaVuSans-46" x="137.304688"/>
     </g>
    </g>
    <g id="text_15">
     <!-- 1e−4 -->
     <g transform="translate(36.457115 13.638052) scale(0.14 -0.14)">
      <defs>
       <path id="DejaVuSans-2212" d="M 678 2272 
L 4684 2272 
L 4684 1741 
L 678 1741 
L 678 2272 
z
" transform="scale(0.015625)"/>
      </defs>
      <use xlink:href="#DejaVuSans-31"/>
      <use xlink:href="#DejaVuSans-65" x="63.623047"/>
      <use xlink:href="#DejaVuSans-2212" x="125.146484"/>
      <use xlink:href="#DejaVuSans-34" x="208.935547"/>
     </g>
    </g>
   </g>
   <g id="line2d_12">
    <path d="M 155.991243 245.915004 
L 157.145198 245.720568 
L 158.299154 245.492972 
L 159.453109 245.227651 
L 160.607064 244.919627 
L 161.76102 244.563504 
L 162.914975 244.153485 
L 164.06893 243.683384 
L 165.222886 243.146665 
L 166.376841 242.53648 
L 167.530796 241.845724 
L 168.684752 241.067114 
L 169.838707 240.193266 
L 170.992662 239.216803 
L 172.146618 238.130468 
L 173.300573 236.927258 
L 174.454529 235.600565 
L 175.608484 234.144341 
L 176.762439 232.553258 
L 177.916395 230.822893 
L 179.07035 228.949899 
L 180.224305 226.932196 
L 181.378261 224.769145 
L 182.532216 222.461723 
L 183.686171 220.012679 
L 184.840127 217.426678 
L 185.994082 214.710424 
L 187.148037 211.872748 
L 188.301993 208.924671 
L 189.455948 205.879429 
L 190.609903 202.752455 
L 191.763859 199.561323 
L 192.917814 196.325641 
L 194.071769 193.066899 
L 195.225725 189.808279 
L 196.37968 186.574404 
L 197.533635 183.391062 
L 198.687591 180.284877 
L 199.841546 177.282957 
L 200.995501 174.412508 
L 202.149457 171.700433 
L 203.303412 169.172917 
L 204.457367 166.855007 
L 205.611323 164.770204 
L 206.765278 162.940066 
L 207.919233 161.383837 
L 209.073189 160.118111 
L 210.227144 159.156537 
L 211.381099 158.509576 
L 212.535055 158.184309 
L 213.68901 158.184309 
L 214.842965 158.509576 
L 215.996921 159.156537 
L 217.150876 160.118111 
L 218.304831 161.383837 
L 219.458787 162.940066 
L 220.612742 164.770204 
L 221.766697 166.855007 
L 222.920653 169.172917 
L 224.074608 171.700433 
L 225.228563 174.412508 
L 226.382519 177.282957 
L 227.536474 180.284877 
L 228.690429 183.391062 
L 229.844385 186.574404 
L 230.99834 189.808279 
L 232.152295 193.066899 
L 233.306251 196.325641 
L 234.460206 199.561323 
L 235.614161 202.752455 
L 236.768117 205.879429 
L 237.922072 208.924671 
L 239.076027 211.872748 
L 240.229983 214.710424 
L 241.383938 217.426678 
L 242.537893 220.012679 
L 243.691849 222.461723 
L 244.845804 224.769145 
L 245.999759 226.932196 
L 247.153715 228.949899 
L 248.30767 230.822893 
L 249.461625 232.553258 
L 250.615581 234.144341 
L 251.769536 235.600565 
L 252.923491 236.927258 
L 254.077447 238.130468 
L 255.231402 239.216803 
L 256.385357 240.193266 
L 257.539313 241.067114 
L 258.693268 241.845724 
L 259.847223 242.53648 
L 261.001179 243.146665 
L 262.155134 243.683384 
L 263.309089 244.153485 
L 264.463045 244.563504 
L 265.617 244.919627 
L 266.770955 245.227651 
L 267.924911 245.492972 
L 269.078866 245.720568 
L 270.232821 245.915004 
" clip-path="url(#pf077f1884f)" style="fill: none; stroke: #2ca02c; stroke-width: 1.5; stroke-linecap: square"/>
   </g>
   <g id="patch_33">
    <path d="M 36.457115 246.90101 
L 36.457115 16.638052 
" style="fill: none; stroke: #000000; stroke-width: 0.8; stroke-linejoin: miter; stroke-linecap: square"/>
   </g>
   <g id="patch_34">
    <path d="M 281.364998 246.90101 
L 281.364998 16.638052 
" style="fill: none; stroke: #000000; stroke-width: 0.8; stroke-linejoin: miter; stroke-linecap: square"/>
   </g>
   <g id="patch_35">
    <path d="M 36.457115 246.90101 
L 281.364998 246.90101 
" style="fill: none; stroke: #000000; stroke-width: 0.8; stroke-linejoin: miter; stroke-linecap: square"/>
   </g>
   <g id="patch_36">
    <path d="M 36.457115 16.638052 
L 281.364998 16.638052 
" style="fill: none; stroke: #000000; stroke-width: 0.8; stroke-linejoin: miter; stroke-linecap: square"/>
   </g>
   <g id="legend_1">
    <g id="patch_37">
     <path d="M 164.902498 68.936802 
L 271.564998 68.936802 
Q 274.364998 68.936802 274.364998 66.136802 
L 274.364998 26.438053 
Q 274.364998 23.638053 271.564998 23.638053 
L 164.902498 23.638053 
Q 162.102498 23.638053 162.102498 26.438053 
L 162.102498 66.136802 
Q 162.102498 68.936802 164.902498 68.936802 
z
" style="fill: #ffffff; opacity: 0.8; stroke: #cccccc; stroke-linejoin: miter"/>
    </g>
    <g id="line2d_13">
     <path d="M 167.702498 34.975865 
L 181.702498 34.975865 
L 195.702498 34.975865 
" style="fill: none; stroke: #2ca02c; stroke-width: 1.5; stroke-linecap: square"/>
    </g>
    <g id="text_16">
     <!-- Prior -->
     <g transform="translate(206.902498 39.875865) scale(0.14 -0.14)">
      <defs>
       <path id="DejaVuSans-72" d="M 2631 2963 
Q 2534 3019 2420 3045 
Q 2306 3072 2169 3072 
Q 1681 3072 1420 2755 
Q 1159 2438 1159 1844 
L 1159 0 
L 581 0 
L 581 3500 
L 1159 3500 
L 1159 2956 
Q 1341 3275 1631 3429 
Q 1922 3584 2338 3584 
Q 2397 3584 2469 3576 
Q 2541 3569 2628 3553 
L 2631 2963 
z
" transform="scale(0.015625)"/>
       <path id="DejaVuSans-69" d="M 603 3500 
L 1178 3500 
L 1178 0 
L 603 0 
L 603 3500 
z
M 603 4863 
L 1178 4863 
L 1178 4134 
L 603 4134 
L 603 4863 
z
" transform="scale(0.015625)"/>
       <path id="DejaVuSans-6f" d="M 1959 3097 
Q 1497 3097 1228 2736 
Q 959 2375 959 1747 
Q 959 1119 1226 758 
Q 1494 397 1959 397 
Q 2419 397 2687 759 
Q 2956 1122 2956 1747 
Q 2956 2369 2687 2733 
Q 2419 3097 1959 3097 
z
M 1959 3584 
Q 2709 3584 3137 3096 
Q 3566 2609 3566 1747 
Q 3566 888 3137 398 
Q 2709 -91 1959 -91 
Q 1206 -91 779 398 
Q 353 888 353 1747 
Q 353 2609 779 3096 
Q 1206 3584 1959 3584 
z
" transform="scale(0.015625)"/>
      </defs>
      <use xlink:href="#DejaVuSans-50"/>
      <use xlink:href="#DejaVuSans-72" x="58.552734"/>
      <use xlink:href="#DejaVuSans-69" x="99.666016"/>
      <use xlink:href="#DejaVuSans-6f" x="127.449219"/>
      <use xlink:href="#DejaVuSans-72" x="188.630859"/>
     </g>
    </g>
    <g id="patch_38">
     <path d="M 167.702498 60.42524 
L 195.702498 60.42524 
L 195.702498 50.62524 
L 167.702498 50.62524 
z
" style="fill: #1f77b4"/>
    </g>
    <g id="text_17">
     <!-- Posterior -->
     <g transform="translate(206.902498 60.42524) scale(0.14 -0.14)">
      <defs>
       <path id="DejaVuSans-73" d="M 2834 3397 
L 2834 2853 
Q 2591 2978 2328 3040 
Q 2066 3103 1784 3103 
Q 1356 3103 1142 2972 
Q 928 2841 928 2578 
Q 928 2378 1081 2264 
Q 1234 2150 1697 2047 
L 1894 2003 
Q 2506 1872 2764 1633 
Q 3022 1394 3022 966 
Q 3022 478 2636 193 
Q 2250 -91 1575 -91 
Q 1294 -91 989 -36 
Q 684 19 347 128 
L 347 722 
Q 666 556 975 473 
Q 1284 391 1588 391 
Q 1994 391 2212 530 
Q 2431 669 2431 922 
Q 2431 1156 2273 1281 
Q 2116 1406 1581 1522 
L 1381 1569 
Q 847 1681 609 1914 
Q 372 2147 372 2553 
Q 372 3047 722 3315 
Q 1072 3584 1716 3584 
Q 2034 3584 2315 3537 
Q 2597 3491 2834 3397 
z
" transform="scale(0.015625)"/>
       <path id="DejaVuSans-74" d="M 1172 4494 
L 1172 3500 
L 2356 3500 
L 2356 3053 
L 1172 3053 
L 1172 1153 
Q 1172 725 1289 603 
Q 1406 481 1766 481 
L 2356 481 
L 2356 0 
L 1766 0 
Q 1100 0 847 248 
Q 594 497 594 1153 
L 594 3053 
L 172 3053 
L 172 3500 
L 594 3500 
L 594 4494 
L 1172 4494 
z
" transform="scale(0.015625)"/>
      </defs>
      <use xlink:href="#DejaVuSans-50"/>
      <use xlink:href="#DejaVuSans-6f" x="56.677734"/>
      <use xlink:href="#DejaVuSans-73" x="117.859375"/>
      <use xlink:href="#DejaVuSans-74" x="169.958984"/>
      <use xlink:href="#DejaVuSans-65" x="209.167969"/>
      <use xlink:href="#DejaVuSans-72" x="270.691406"/>
      <use xlink:href="#DejaVuSans-69" x="311.804688"/>
      <use xlink:href="#DejaVuSans-6f" x="339.587891"/>
      <use xlink:href="#DejaVuSans-72" x="400.769531"/>
     </g>
    </g>
   </g>
  </g>
  <g id="axes_2">
   <g id="patch_39">
    <path d="M 340.802667 246.90101 
L 585.71055 246.90101 
L 585.71055 16.638052 
L 340.802667 16.638052 
z
" style="fill: #ffffff"/>
   </g>
   <g id="patch_40">
    <path d="M 351.934843 246.90101 
L 358.636488 246.90101 
L 358.636488 246.020295 
L 351.934843 246.020295 
z
" clip-path="url(#p246d3ae2ff)" style="fill: #1f77b4"/>
   </g>
   <g id="patch_41">
    <path d="M 359.381115 246.90101 
L 366.08276 246.90101 
L 366.08276 246.020295 
L 359.381115 246.020295 
z
" clip-path="url(#p246d3ae2ff)" style="fill: #1f77b4"/>
   </g>
   <g id="patch_42">
    <path d="M 366.827387 246.90101 
L 373.529032 246.90101 
L 373.529032 245.13958 
L 366.827387 245.13958 
z
" clip-path="url(#p246d3ae2ff)" style="fill: #1f77b4"/>
   </g>
   <g id="patch_43">
    <path d="M 374.273659 246.90101 
L 380.975304 246.90101 
L 380.975304 242.937792 
L 374.273659 242.937792 
z
" clip-path="url(#p246d3ae2ff)" style="fill: #1f77b4"/>
   </g>
   <g id="patch_44">
    <path d="M 381.719931 246.90101 
L 388.421576 246.90101 
L 388.421576 237.653502 
L 381.719931 237.653502 
z
" clip-path="url(#p246d3ae2ff)" style="fill: #1f77b4"/>
   </g>
   <g id="patch_45">
    <path d="M 389.166203 246.90101 
L 395.867848 246.90101 
L 395.867848 230.607781 
L 389.166203 230.607781 
z
" clip-path="url(#p246d3ae2ff)" style="fill: #1f77b4"/>
   </g>
   <g id="patch_46">
    <path d="M 396.612475 246.90101 
L 403.314119 246.90101 
L 403.314119 218.718127 
L 396.612475 218.718127 
z
" clip-path="url(#p246d3ae2ff)" style="fill: #1f77b4"/>
   </g>
   <g id="patch_47">
    <path d="M 404.058747 246.90101 
L 410.760391 246.90101 
L 410.760391 209.030262 
L 404.058747 209.030262 
z
" clip-path="url(#p246d3ae2ff)" style="fill: #1f77b4"/>
   </g>
   <g id="patch_48">
    <path d="M 411.505019 246.90101 
L 418.206663 246.90101 
L 418.206663 187.012385 
L 411.505019 187.012385 
z
" clip-path="url(#p246d3ae2ff)" style="fill: #1f77b4"/>
   </g>
   <g id="patch_49">
    <path d="M 418.95129 246.90101 
L 425.652935 246.90101 
L 425.652935 164.113793 
L 418.95129 164.113793 
z
" clip-path="url(#p246d3ae2ff)" style="fill: #1f77b4"/>
   </g>
   <g id="patch_50">
    <path d="M 426.397562 246.90101 
L 433.099207 246.90101 
L 433.099207 146.939848 
L 426.397562 146.939848 
z
" clip-path="url(#p246d3ae2ff)" style="fill: #1f77b4"/>
   </g>
   <g id="patch_51">
    <path d="M 433.843834 246.90101 
L 440.545479 246.90101 
L 440.545479 122.720184 
L 433.843834 122.720184 
z
" clip-path="url(#p246d3ae2ff)" style="fill: #1f77b4"/>
   </g>
   <g id="patch_52">
    <path d="M 441.290106 246.90101 
L 447.991751 246.90101 
L 447.991751 109.949815 
L 441.290106 109.949815 
z
" clip-path="url(#p246d3ae2ff)" style="fill: #1f77b4"/>
   </g>
   <g id="patch_53">
    <path d="M 448.736378 246.90101 
L 455.438023 246.90101 
L 455.438023 61.510486 
L 448.736378 61.510486 
z
" clip-path="url(#p246d3ae2ff)" style="fill: #1f77b4"/>
   </g>
   <g id="patch_54">
    <path d="M 456.18265 246.90101 
L 462.884295 246.90101 
L 462.884295 27.602955 
L 456.18265 27.602955 
z
" clip-path="url(#p246d3ae2ff)" style="fill: #1f77b4"/>
   </g>
   <g id="patch_55">
    <path d="M 463.628922 246.90101 
L 470.330567 246.90101 
L 470.330567 46.538329 
L 463.628922 46.538329 
z
" clip-path="url(#p246d3ae2ff)" style="fill: #1f77b4"/>
   </g>
   <g id="patch_56">
    <path d="M 471.075194 246.90101 
L 477.776838 246.90101 
L 477.776838 30.2451 
L 471.075194 30.2451 
z
" clip-path="url(#p246d3ae2ff)" style="fill: #1f77b4"/>
   </g>
   <g id="patch_57">
    <path d="M 478.521466 246.90101 
L 485.22311 246.90101 
L 485.22311 66.794776 
L 478.521466 66.794776 
z
" clip-path="url(#p246d3ae2ff)" style="fill: #1f77b4"/>
   </g>
   <g id="patch_58">
    <path d="M 485.967738 246.90101 
L 492.669382 246.90101 
L 492.669382 82.20729 
L 485.967738 82.20729 
z
" clip-path="url(#p246d3ae2ff)" style="fill: #1f77b4"/>
   </g>
   <g id="patch_59">
    <path d="M 493.414009 246.90101 
L 500.115654 246.90101 
L 500.115654 109.509458 
L 493.414009 109.509458 
z
" clip-path="url(#p246d3ae2ff)" style="fill: #1f77b4"/>
   </g>
   <g id="patch_60">
    <path d="M 500.860281 246.90101 
L 507.561926 246.90101 
L 507.561926 141.655558 
L 500.860281 141.655558 
z
" clip-path="url(#p246d3ae2ff)" style="fill: #1f77b4"/>
   </g>
   <g id="patch_61">
    <path d="M 508.306553 246.90101 
L 515.008198 246.90101 
L 515.008198 178.645591 
L 508.306553 178.645591 
z
" clip-path="url(#p246d3ae2ff)" style="fill: #1f77b4"/>
   </g>
   <g id="patch_62">
    <path d="M 515.752825 246.90101 
L 522.45447 246.90101 
L 522.45447 200.223111 
L 515.752825 200.223111 
z
" clip-path="url(#p246d3ae2ff)" style="fill: #1f77b4"/>
   </g>
   <g id="patch_63">
    <path d="M 523.199097 246.90101 
L 529.900742 246.90101 
L 529.900742 215.195267 
L 523.199097 215.195267 
z
" clip-path="url(#p246d3ae2ff)" style="fill: #1f77b4"/>
   </g>
   <g id="patch_64">
    <path d="M 530.645369 246.90101 
L 537.347014 246.90101 
L 537.347014 232.369211 
L 530.645369 232.369211 
z
" clip-path="url(#p246d3ae2ff)" style="fill: #1f77b4"/>
   </g>
   <g id="patch_65">
    <path d="M 538.091641 246.90101 
L 544.793286 246.90101 
L 544.793286 234.130641 
L 538.091641 234.130641 
z
" clip-path="url(#p246d3ae2ff)" style="fill: #1f77b4"/>
   </g>
   <g id="patch_66">
    <path d="M 545.537913 246.90101 
L 552.239558 246.90101 
L 552.239558 238.974574 
L 545.537913 238.974574 
z
" clip-path="url(#p246d3ae2ff)" style="fill: #1f77b4"/>
   </g>
   <g id="patch_67">
    <path d="M 552.984185 246.90101 
L 559.685829 246.90101 
L 559.685829 242.937792 
L 552.984185 242.937792 
z
" clip-path="url(#p246d3ae2ff)" style="fill: #1f77b4"/>
   </g>
   <g id="patch_68">
    <path d="M 560.430457 246.90101 
L 567.132101 246.90101 
L 567.132101 244.699222 
L 560.430457 244.699222 
z
" clip-path="url(#p246d3ae2ff)" style="fill: #1f77b4"/>
   </g>
   <g id="patch_69">
    <path d="M 567.876728 246.90101 
L 574.578373 246.90101 
L 574.578373 245.13958 
L 567.876728 245.13958 
z
" clip-path="url(#p246d3ae2ff)" style="fill: #1f77b4"/>
   </g>
   <g id="matplotlib.axis_3">
    <g id="xtick_6">
     <g id="line2d_14">
      <g>
       <use xlink:href="#m5eb891e1ee" x="347.755643" y="246.90101" style="stroke: #000000; stroke-width: 0.8"/>
      </g>
     </g>
     <g id="text_18">
      <!-- 8800 -->
      <g transform="translate(329.940643 264.538822) scale(0.14 -0.14)">
       <defs>
        <path id="DejaVuSans-38" d="M 2034 2216 
Q 1584 2216 1326 1975 
Q 1069 1734 1069 1313 
Q 1069 891 1326 650 
Q 1584 409 2034 409 
Q 2484 409 2743 651 
Q 3003 894 3003 1313 
Q 3003 1734 2745 1975 
Q 2488 2216 2034 2216 
z
M 1403 2484 
Q 997 2584 770 2862 
Q 544 3141 544 3541 
Q 544 4100 942 4425 
Q 1341 4750 2034 4750 
Q 2731 4750 3128 4425 
Q 3525 4100 3525 3541 
Q 3525 3141 3298 2862 
Q 3072 2584 2669 2484 
Q 3125 2378 3379 2068 
Q 3634 1759 3634 1313 
Q 3634 634 3220 271 
Q 2806 -91 2034 -91 
Q 1263 -91 848 271 
Q 434 634 434 1313 
Q 434 1759 690 2068 
Q 947 2378 1403 2484 
z
M 1172 3481 
Q 1172 3119 1398 2916 
Q 1625 2713 2034 2713 
Q 2441 2713 2670 2916 
Q 2900 3119 2900 3481 
Q 2900 3844 2670 4047 
Q 2441 4250 2034 4250 
Q 1625 4250 1398 4047 
Q 1172 3844 1172 3481 
z
" transform="scale(0.015625)"/>
       </defs>
       <use xlink:href="#DejaVuSans-38"/>
       <use xlink:href="#DejaVuSans-38" x="63.623047"/>
       <use xlink:href="#DejaVuSans-30" x="127.246094"/>
       <use xlink:href="#DejaVuSans-30" x="190.869141"/>
      </g>
     </g>
    </g>
    <g id="xtick_7">
     <g id="line2d_15">
      <g>
       <use xlink:href="#m5eb891e1ee" x="408.95513" y="246.90101" style="stroke: #000000; stroke-width: 0.8"/>
      </g>
     </g>
     <g id="text_19">
      <!-- 9000 -->
      <g transform="translate(391.14013 264.538822) scale(0.14 -0.14)">
       <defs>
        <path id="DejaVuSans-39" d="M 703 97 
L 703 672 
Q 941 559 1184 500 
Q 1428 441 1663 441 
Q 2288 441 2617 861 
Q 2947 1281 2994 2138 
Q 2813 1869 2534 1725 
Q 2256 1581 1919 1581 
Q 1219 1581 811 2004 
Q 403 2428 403 3163 
Q 403 3881 828 4315 
Q 1253 4750 1959 4750 
Q 2769 4750 3195 4129 
Q 3622 3509 3622 2328 
Q 3622 1225 3098 567 
Q 2575 -91 1691 -91 
Q 1453 -91 1209 -44 
Q 966 3 703 97 
z
M 1959 2075 
Q 2384 2075 2632 2365 
Q 2881 2656 2881 3163 
Q 2881 3666 2632 3958 
Q 2384 4250 1959 4250 
Q 1534 4250 1286 3958 
Q 1038 3666 1038 3163 
Q 1038 2656 1286 2365 
Q 1534 2075 1959 2075 
z
" transform="scale(0.015625)"/>
       </defs>
       <use xlink:href="#DejaVuSans-39"/>
       <use xlink:href="#DejaVuSans-30" x="63.623047"/>
       <use xlink:href="#DejaVuSans-30" x="127.246094"/>
       <use xlink:href="#DejaVuSans-30" x="190.869141"/>
      </g>
     </g>
    </g>
    <g id="xtick_8">
     <g id="line2d_16">
      <g>
       <use xlink:href="#m5eb891e1ee" x="470.154618" y="246.90101" style="stroke: #000000; stroke-width: 0.8"/>
      </g>
     </g>
     <g id="text_20">
      <!-- 9200 -->
      <g transform="translate(452.339618 264.538822) scale(0.14 -0.14)">
       <use xlink:href="#DejaVuSans-39"/>
       <use xlink:href="#DejaVuSans-32" x="63.623047"/>
       <use xlink:href="#DejaVuSans-30" x="127.246094"/>
       <use xlink:href="#DejaVuSans-30" x="190.869141"/>
      </g>
     </g>
    </g>
    <g id="xtick_9">
     <g id="line2d_17">
      <g>
       <use xlink:href="#m5eb891e1ee" x="531.354105" y="246.90101" style="stroke: #000000; stroke-width: 0.8"/>
      </g>
     </g>
     <g id="text_21">
      <!-- 9400 -->
      <g transform="translate(513.539105 264.538822) scale(0.14 -0.14)">
       <use xlink:href="#DejaVuSans-39"/>
       <use xlink:href="#DejaVuSans-34" x="63.623047"/>
       <use xlink:href="#DejaVuSans-30" x="127.246094"/>
       <use xlink:href="#DejaVuSans-30" x="190.869141"/>
      </g>
     </g>
    </g>
    <g id="text_22">
     <!-- $E_2$ [MPa] -->
     <g transform="translate(433.226608 282.088197) scale(0.14 -0.14)">
      <use xlink:href="#DejaVuSans-Oblique-45" transform="translate(0 0.015625)"/>
      <use xlink:href="#DejaVuSans-32" transform="translate(63.183594 -16.390625) scale(0.7)"/>
      <use xlink:href="#DejaVuSans-20" transform="translate(110.454102 0.015625)"/>
      <use xlink:href="#DejaVuSans-5b" transform="translate(142.241211 0.015625)"/>
      <use xlink:href="#DejaVuSans-4d" transform="translate(181.254883 0.015625)"/>
      <use xlink:href="#DejaVuSans-50" transform="translate(267.53418 0.015625)"/>
      <use xlink:href="#DejaVuSans-61" transform="translate(327.836914 0.015625)"/>
      <use xlink:href="#DejaVuSans-5d" transform="translate(389.116211 0.015625)"/>
     </g>
    </g>
   </g>
   <g id="matplotlib.axis_4">
    <g id="ytick_7">
     <g id="line2d_18">
      <g>
       <use xlink:href="#m9fefe8f967" x="340.802667" y="246.90101" style="stroke: #000000; stroke-width: 0.8"/>
      </g>
     </g>
     <g id="text_23">
      <!-- 0.000 -->
      <g transform="translate(293.723292 252.219916) scale(0.14 -0.14)">
       <use xlink:href="#DejaVuSans-30"/>
       <use xlink:href="#DejaVuSans-2e" x="63.623047"/>
       <use xlink:href="#DejaVuSans-30" x="95.410156"/>
       <use xlink:href="#DejaVuSans-30" x="159.033203"/>
       <use xlink:href="#DejaVuSans-30" x="222.65625"/>
      </g>
     </g>
    </g>
    <g id="ytick_8">
     <g id="line2d_19">
      <g>
       <use xlink:href="#m9fefe8f967" x="340.802667" y="193.321771" style="stroke: #000000; stroke-width: 0.8"/>
      </g>
     </g>
     <g id="text_24">
      <!-- 0.001 -->
      <g transform="translate(293.723292 198.640677) scale(0.14 -0.14)">
       <use xlink:href="#DejaVuSans-30"/>
       <use xlink:href="#DejaVuSans-2e" x="63.623047"/>
       <use xlink:href="#DejaVuSans-30" x="95.410156"/>
       <use xlink:href="#DejaVuSans-30" x="159.033203"/>
       <use xlink:href="#DejaVuSans-31" x="222.65625"/>
      </g>
     </g>
    </g>
    <g id="ytick_9">
     <g id="line2d_20">
      <g>
       <use xlink:href="#m9fefe8f967" x="340.802667" y="139.742532" style="stroke: #000000; stroke-width: 0.8"/>
      </g>
     </g>
     <g id="text_25">
      <!-- 0.002 -->
      <g transform="translate(293.723292 145.061438) scale(0.14 -0.14)">
       <use xlink:href="#DejaVuSans-30"/>
       <use xlink:href="#DejaVuSans-2e" x="63.623047"/>
       <use xlink:href="#DejaVuSans-30" x="95.410156"/>
       <use xlink:href="#DejaVuSans-30" x="159.033203"/>
       <use xlink:href="#DejaVuSans-32" x="222.65625"/>
      </g>
     </g>
    </g>
    <g id="ytick_10">
     <g id="line2d_21">
      <g>
       <use xlink:href="#m9fefe8f967" x="340.802667" y="86.163292" style="stroke: #000000; stroke-width: 0.8"/>
      </g>
     </g>
     <g id="text_26">
      <!-- 0.003 -->
      <g transform="translate(293.723292 91.482199) scale(0.14 -0.14)">
       <use xlink:href="#DejaVuSans-30"/>
       <use xlink:href="#DejaVuSans-2e" x="63.623047"/>
       <use xlink:href="#DejaVuSans-30" x="95.410156"/>
       <use xlink:href="#DejaVuSans-30" x="159.033203"/>
       <use xlink:href="#DejaVuSans-33" x="222.65625"/>
      </g>
     </g>
    </g>
    <g id="ytick_11">
     <g id="line2d_22">
      <g>
       <use xlink:href="#m9fefe8f967" x="340.802667" y="32.584053" style="stroke: #000000; stroke-width: 0.8"/>
      </g>
     </g>
     <g id="text_27">
      <!-- 0.004 -->
      <g transform="translate(293.723292 37.902959) scale(0.14 -0.14)">
       <use xlink:href="#DejaVuSans-30"/>
       <use xlink:href="#DejaVuSans-2e" x="63.623047"/>
       <use xlink:href="#DejaVuSans-30" x="95.410156"/>
       <use xlink:href="#DejaVuSans-30" x="159.033203"/>
       <use xlink:href="#DejaVuSans-34" x="222.65625"/>
      </g>
     </g>
    </g>
   </g>
   <g id="line2d_23">
    <path d="M 375.295412 244.526459 
L 377.149942 244.058209 
L 379.004472 243.5101 
L 380.859002 242.871141 
L 382.713532 242.129341 
L 384.568062 241.271708 
L 386.422592 240.284278 
L 388.277122 239.152158 
L 390.131651 237.859604 
L 391.986181 236.390123 
L 393.840711 234.726611 
L 395.695241 232.851521 
L 397.549771 230.747076 
L 399.404301 228.395508 
L 401.258831 225.779341 
L 403.113361 222.881707 
L 404.967891 219.686698 
L 406.822421 216.179743 
L 408.676951 212.348017 
L 410.531481 208.180861 
L 412.38601 203.670221 
L 414.24054 198.811085 
L 416.09507 193.601916 
L 417.9496 188.045063 
L 419.80413 182.147148 
L 421.65866 175.919408 
L 423.51319 169.377985 
L 425.36772 162.544148 
L 427.22225 155.444438 
L 429.07678 148.110729 
L 430.93131 140.580191 
L 432.78584 132.895143 
L 434.64037 125.102805 
L 436.494899 117.254937 
L 438.349429 109.40736 
L 440.203959 101.619377 
L 442.058489 93.953089 
L 443.913019 86.472614 
L 445.767549 79.243236 
L 447.622079 72.330473 
L 449.476609 65.799115 
L 451.331139 59.712219 
L 453.185669 54.13011 
L 455.040199 49.10938 
L 456.894729 44.701948 
L 458.749259 40.954157 
L 460.603788 37.90597 
L 462.458318 35.590259 
L 464.312848 34.032214 
L 466.167378 33.248889 
L 468.021908 33.248889 
L 469.876438 34.032214 
L 471.730968 35.590259 
L 473.585498 37.90597 
L 475.440028 40.954157 
L 477.294558 44.701948 
L 479.149088 49.10938 
L 481.003618 54.13011 
L 482.858147 59.712219 
L 484.712677 65.799115 
L 486.567207 72.330473 
L 488.421737 79.243236 
L 490.276267 86.472614 
L 492.130797 93.953089 
L 493.985327 101.619377 
L 495.839857 109.40736 
L 497.694387 117.254937 
L 499.548917 125.102805 
L 501.403447 132.895143 
L 503.257977 140.580191 
L 505.112507 148.110729 
L 506.967036 155.444438 
L 508.821566 162.544148 
L 510.676096 169.377985 
L 512.530626 175.919408 
L 514.385156 182.147148 
L 516.239686 188.045063 
L 518.094216 193.601916 
L 519.948746 198.811085 
L 521.803276 203.670221 
L 523.657806 208.180861 
L 525.512336 212.348017 
L 527.366866 216.179743 
L 529.221396 219.686698 
L 531.075925 222.881707 
L 532.930455 225.779341 
L 534.784985 228.395508 
L 536.639515 230.747076 
L 538.494045 232.851521 
L 540.348575 234.726611 
L 542.203105 236.390123 
L 544.057635 237.859604 
L 545.912165 239.152158 
L 547.766695 240.284278 
L 549.621225 241.271708 
L 551.475755 242.129341 
L 553.330284 242.871141 
L 555.184814 243.5101 
L 557.039344 244.058209 
L 558.893874 244.526459 
" clip-path="url(#p246d3ae2ff)" style="fill: none; stroke: #2ca02c; stroke-width: 1.5; stroke-linecap: square"/>
   </g>
   <g id="patch_70">
    <path d="M 340.802667 246.90101 
L 340.802667 16.638052 
" style="fill: none; stroke: #000000; stroke-width: 0.8; stroke-linejoin: miter; stroke-linecap: square"/>
   </g>
   <g id="patch_71">
    <path d="M 585.71055 246.90101 
L 585.71055 16.638052 
" style="fill: none; stroke: #000000; stroke-width: 0.8; stroke-linejoin: miter; stroke-linecap: square"/>
   </g>
   <g id="patch_72">
    <path d="M 340.802667 246.90101 
L 585.71055 246.90101 
" style="fill: none; stroke: #000000; stroke-width: 0.8; stroke-linejoin: miter; stroke-linecap: square"/>
   </g>
   <g id="patch_73">
    <path d="M 340.802667 16.638052 
L 585.71055 16.638052 
" style="fill: none; stroke: #000000; stroke-width: 0.8; stroke-linejoin: miter; stroke-linecap: square"/>
   </g>
  </g>
  <g id="axes_3">
   <g id="patch_74">
    <path d="M 616.52603 246.90101 
L 861.433912 246.90101 
L 861.433912 16.638052 
L 616.52603 16.638052 
z
" style="fill: #ffffff"/>
   </g>
   <g id="patch_75">
    <path d="M 627.658206 246.90101 
L 634.359851 246.90101 
L 634.359851 244.248873 
L 627.658206 244.248873 
z
" clip-path="url(#pc397cce9bc)" style="fill: #1f77b4"/>
   </g>
   <g id="patch_76">
    <path d="M 635.104478 246.90101 
L 641.806123 246.90101 
L 641.806123 243.49112 
L 635.104478 243.49112 
z
" clip-path="url(#pc397cce9bc)" style="fill: #1f77b4"/>
   </g>
   <g id="patch_77">
    <path d="M 642.55075 246.90101 
L 649.252395 246.90101 
L 649.252395 240.081229 
L 642.55075 240.081229 
z
" clip-path="url(#pc397cce9bc)" style="fill: #1f77b4"/>
   </g>
   <g id="patch_78">
    <path d="M 649.997022 246.90101 
L 656.698667 246.90101 
L 656.698667 235.913585 
L 649.997022 235.913585 
z
" clip-path="url(#pc397cce9bc)" style="fill: #1f77b4"/>
   </g>
   <g id="patch_79">
    <path d="M 657.443294 246.90101 
L 664.144938 246.90101 
L 664.144938 231.367065 
L 657.443294 231.367065 
z
" clip-path="url(#pc397cce9bc)" style="fill: #1f77b4"/>
   </g>
   <g id="patch_80">
    <path d="M 664.889566 246.90101 
L 671.59121 246.90101 
L 671.59121 220.000763 
L 664.889566 220.000763 
z
" clip-path="url(#pc397cce9bc)" style="fill: #1f77b4"/>
   </g>
   <g id="patch_81">
    <path d="M 672.335838 246.90101 
L 679.037482 246.90101 
L 679.037482 208.255585 
L 672.335838 208.255585 
z
" clip-path="url(#pc397cce9bc)" style="fill: #1f77b4"/>
   </g>
   <g id="patch_82">
    <path d="M 679.782109 246.90101 
L 686.483754 246.90101 
L 686.483754 196.889283 
L 679.782109 196.889283 
z
" clip-path="url(#pc397cce9bc)" style="fill: #1f77b4"/>
   </g>
   <g id="patch_83">
    <path d="M 687.228381 246.90101 
L 693.930026 246.90101 
L 693.930026 176.808817 
L 687.228381 176.808817 
z
" clip-path="url(#pc397cce9bc)" style="fill: #1f77b4"/>
   </g>
   <g id="patch_84">
    <path d="M 694.674653 246.90101 
L 701.376298 246.90101 
L 701.376298 131.343611 
L 694.674653 131.343611 
z
" clip-path="url(#pc397cce9bc)" style="fill: #1f77b4"/>
   </g>
   <g id="patch_85">
    <path d="M 702.120925 246.90101 
L 708.82257 246.90101 
L 708.82257 112.778651 
L 702.120925 112.778651 
z
" clip-path="url(#pc397cce9bc)" style="fill: #1f77b4"/>
   </g>
   <g id="patch_86">
    <path d="M 709.567197 246.90101 
L 716.268842 246.90101 
L 716.268842 84.741774 
L 709.567197 84.741774 
z
" clip-path="url(#pc397cce9bc)" style="fill: #1f77b4"/>
   </g>
   <g id="patch_87">
    <path d="M 717.013469 246.90101 
L 723.715114 246.90101 
L 723.715114 63.903555 
L 717.013469 63.903555 
z
" clip-path="url(#pc397cce9bc)" style="fill: #1f77b4"/>
   </g>
   <g id="patch_88">
    <path d="M 724.459741 246.90101 
L 731.161386 246.90101 
L 731.161386 71.859966 
L 724.459741 71.859966 
z
" clip-path="url(#pc397cce9bc)" style="fill: #1f77b4"/>
   </g>
   <g id="patch_89">
    <path d="M 731.906013 246.90101 
L 738.607657 246.90101 
L 738.607657 77.16424 
L 731.906013 77.16424 
z
" clip-path="url(#pc397cce9bc)" style="fill: #1f77b4"/>
   </g>
   <g id="patch_90">
    <path d="M 739.352285 246.90101 
L 746.053929 246.90101 
L 746.053929 77.543117 
L 739.352285 77.543117 
z
" clip-path="url(#pc397cce9bc)" style="fill: #1f77b4"/>
   </g>
   <g id="patch_91">
    <path d="M 746.798557 246.90101 
L 753.500201 246.90101 
L 753.500201 105.95887 
L 746.798557 105.95887 
z
" clip-path="url(#pc397cce9bc)" style="fill: #1f77b4"/>
   </g>
   <g id="patch_92">
    <path d="M 754.244828 246.90101 
L 760.946473 246.90101 
L 760.946473 112.399775 
L 754.244828 112.399775 
z
" clip-path="url(#pc397cce9bc)" style="fill: #1f77b4"/>
   </g>
   <g id="patch_93">
    <path d="M 761.6911 246.90101 
L 768.392745 246.90101 
L 768.392745 151.0452 
L 761.6911 151.0452 
z
" clip-path="url(#pc397cce9bc)" style="fill: #1f77b4"/>
   </g>
   <g id="patch_94">
    <path d="M 769.137372 246.90101 
L 775.839017 246.90101 
L 775.839017 180.976461 
L 769.137372 180.976461 
z
" clip-path="url(#pc397cce9bc)" style="fill: #1f77b4"/>
   </g>
   <g id="patch_95">
    <path d="M 776.583644 246.90101 
L 783.285289 246.90101 
L 783.285289 199.920297 
L 776.583644 199.920297 
z
" clip-path="url(#pc397cce9bc)" style="fill: #1f77b4"/>
   </g>
   <g id="patch_96">
    <path d="M 784.029916 246.90101 
L 790.731561 246.90101 
L 790.731561 210.907722 
L 784.029916 210.907722 
z
" clip-path="url(#pc397cce9bc)" style="fill: #1f77b4"/>
   </g>
   <g id="patch_97">
    <path d="M 791.476188 246.90101 
L 798.177833 246.90101 
L 798.177833 230.988188 
L 791.476188 230.988188 
z
" clip-path="url(#pc397cce9bc)" style="fill: #1f77b4"/>
   </g>
   <g id="patch_98">
    <path d="M 798.92246 246.90101 
L 805.624105 246.90101 
L 805.624105 235.155832 
L 798.92246 235.155832 
z
" clip-path="url(#pc397cce9bc)" style="fill: #1f77b4"/>
   </g>
   <g id="patch_99">
    <path d="M 806.368732 246.90101 
L 813.070376 246.90101 
L 813.070376 240.838982 
L 806.368732 240.838982 
z
" clip-path="url(#pc397cce9bc)" style="fill: #1f77b4"/>
   </g>
   <g id="patch_100">
    <path d="M 813.815004 246.90101 
L 820.516648 246.90101 
L 820.516648 243.49112 
L 813.815004 243.49112 
z
" clip-path="url(#pc397cce9bc)" style="fill: #1f77b4"/>
   </g>
   <g id="patch_101">
    <path d="M 821.261276 246.90101 
L 827.96292 246.90101 
L 827.96292 245.385503 
L 821.261276 245.385503 
z
" clip-path="url(#pc397cce9bc)" style="fill: #1f77b4"/>
   </g>
   <g id="patch_102">
    <path d="M 828.707547 246.90101 
L 835.409192 246.90101 
L 835.409192 246.522133 
L 828.707547 246.522133 
z
" clip-path="url(#pc397cce9bc)" style="fill: #1f77b4"/>
   </g>
   <g id="patch_103">
    <path d="M 836.153819 246.90101 
L 842.855464 246.90101 
L 842.855464 246.522133 
L 836.153819 246.522133 
z
" clip-path="url(#pc397cce9bc)" style="fill: #1f77b4"/>
   </g>
   <g id="patch_104">
    <path d="M 843.600091 246.90101 
L 850.301736 246.90101 
L 850.301736 246.143257 
L 843.600091 246.143257 
z
" clip-path="url(#pc397cce9bc)" style="fill: #1f77b4"/>
   </g>
   <g id="matplotlib.axis_5">
    <g id="xtick_10">
     <g id="line2d_24">
      <g>
       <use xlink:href="#m5eb891e1ee" x="621.893832" y="246.90101" style="stroke: #000000; stroke-width: 0.8"/>
      </g>
     </g>
     <g id="text_28">
      <!-- 0.30 -->
      <g transform="translate(606.307894 264.538822) scale(0.14 -0.14)">
       <use xlink:href="#DejaVuSans-30"/>
       <use xlink:href="#DejaVuSans-2e" x="63.623047"/>
       <use xlink:href="#DejaVuSans-33" x="95.410156"/>
       <use xlink:href="#DejaVuSans-30" x="159.033203"/>
      </g>
     </g>
    </g>
    <g id="xtick_11">
     <g id="line2d_25">
      <g>
       <use xlink:href="#m5eb891e1ee" x="673.19328" y="246.90101" style="stroke: #000000; stroke-width: 0.8"/>
      </g>
     </g>
     <g id="text_29">
      <!-- 0.32 -->
      <g transform="translate(657.607343 264.538822) scale(0.14 -0.14)">
       <use xlink:href="#DejaVuSans-30"/>
       <use xlink:href="#DejaVuSans-2e" x="63.623047"/>
       <use xlink:href="#DejaVuSans-33" x="95.410156"/>
       <use xlink:href="#DejaVuSans-32" x="159.033203"/>
      </g>
     </g>
    </g>
    <g id="xtick_12">
     <g id="line2d_26">
      <g>
       <use xlink:href="#m5eb891e1ee" x="724.492729" y="246.90101" style="stroke: #000000; stroke-width: 0.8"/>
      </g>
     </g>
     <g id="text_30">
      <!-- 0.34 -->
      <g transform="translate(708.906791 264.538822) scale(0.14 -0.14)">
       <use xlink:href="#DejaVuSans-30"/>
       <use xlink:href="#DejaVuSans-2e" x="63.623047"/>
       <use xlink:href="#DejaVuSans-33" x="95.410156"/>
       <use xlink:href="#DejaVuSans-34" x="159.033203"/>
      </g>
     </g>
    </g>
    <g id="xtick_13">
     <g id="line2d_27">
      <g>
       <use xlink:href="#m5eb891e1ee" x="775.792177" y="246.90101" style="stroke: #000000; stroke-width: 0.8"/>
      </g>
     </g>
     <g id="text_31">
      <!-- 0.36 -->
      <g transform="translate(760.20624 264.538822) scale(0.14 -0.14)">
       <defs>
        <path id="DejaVuSans-36" d="M 2113 2584 
Q 1688 2584 1439 2293 
Q 1191 2003 1191 1497 
Q 1191 994 1439 701 
Q 1688 409 2113 409 
Q 2538 409 2786 701 
Q 3034 994 3034 1497 
Q 3034 2003 2786 2293 
Q 2538 2584 2113 2584 
z
M 3366 4563 
L 3366 3988 
Q 3128 4100 2886 4159 
Q 2644 4219 2406 4219 
Q 1781 4219 1451 3797 
Q 1122 3375 1075 2522 
Q 1259 2794 1537 2939 
Q 1816 3084 2150 3084 
Q 2853 3084 3261 2657 
Q 3669 2231 3669 1497 
Q 3669 778 3244 343 
Q 2819 -91 2113 -91 
Q 1303 -91 875 529 
Q 447 1150 447 2328 
Q 447 3434 972 4092 
Q 1497 4750 2381 4750 
Q 2619 4750 2861 4703 
Q 3103 4656 3366 4563 
z
" transform="scale(0.015625)"/>
       </defs>
       <use xlink:href="#DejaVuSans-30"/>
       <use xlink:href="#DejaVuSans-2e" x="63.623047"/>
       <use xlink:href="#DejaVuSans-33" x="95.410156"/>
       <use xlink:href="#DejaVuSans-36" x="159.033203"/>
      </g>
     </g>
    </g>
    <g id="xtick_14">
     <g id="line2d_28">
      <g>
       <use xlink:href="#m5eb891e1ee" x="827.091626" y="246.90101" style="stroke: #000000; stroke-width: 0.8"/>
      </g>
     </g>
     <g id="text_32">
      <!-- 0.38 -->
      <g transform="translate(811.505688 264.538822) scale(0.14 -0.14)">
       <use xlink:href="#DejaVuSans-30"/>
       <use xlink:href="#DejaVuSans-2e" x="63.623047"/>
       <use xlink:href="#DejaVuSans-33" x="95.410156"/>
       <use xlink:href="#DejaVuSans-38" x="159.033203"/>
      </g>
     </g>
    </g>
    <g id="text_33">
     <!-- $\nu_{12}$ [-] -->
     <g transform="translate(718.399971 282.088197) scale(0.14 -0.14)">
      <defs>
       <path id="DejaVuSans-Oblique-3bd" d="M 959 0 
L 572 3500 
L 1191 3500 
L 1522 563 
Q 1972 950 2391 1488 
Q 2706 1891 2788 2241 
Q 2825 2406 2809 2719 
Q 2794 3091 2544 3500 
L 3125 3500 
L 3125 3500 
Q 3288 3222 3353 2834 
Q 3416 2478 3369 2234 
Q 3250 1622 2719 1075 
Q 2025 363 1572 0 
L 959 0 
z
" transform="scale(0.015625)"/>
       <path id="DejaVuSans-2d" d="M 313 2009 
L 1997 2009 
L 1997 1497 
L 313 1497 
L 313 2009 
z
" transform="scale(0.015625)"/>
      </defs>
      <use xlink:href="#DejaVuSans-Oblique-3bd" transform="translate(0 0.015625)"/>
      <use xlink:href="#DejaVuSans-31" transform="translate(55.859375 -16.390625) scale(0.7)"/>
      <use xlink:href="#DejaVuSans-32" transform="translate(100.395508 -16.390625) scale(0.7)"/>
      <use xlink:href="#DejaVuSans-20" transform="translate(147.666016 0.015625)"/>
      <use xlink:href="#DejaVuSans-5b" transform="translate(179.453125 0.015625)"/>
      <use xlink:href="#DejaVuSans-2d" transform="translate(218.466797 0.015625)"/>
      <use xlink:href="#DejaVuSans-5d" transform="translate(254.550781 0.015625)"/>
     </g>
    </g>
   </g>
   <g id="matplotlib.axis_6">
    <g id="ytick_12">
     <g id="line2d_29">
      <g>
       <use xlink:href="#m9fefe8f967" x="616.52603" y="246.90101" style="stroke: #000000; stroke-width: 0.8"/>
      </g>
     </g>
     <g id="text_34">
      <!-- 0 -->
      <g transform="translate(600.61853 252.219916) scale(0.14 -0.14)">
       <use xlink:href="#DejaVuSans-30"/>
      </g>
     </g>
    </g>
    <g id="ytick_13">
     <g id="line2d_30">
      <g>
       <use xlink:href="#m9fefe8f967" x="616.52603" y="191.905895" style="stroke: #000000; stroke-width: 0.8"/>
      </g>
     </g>
     <g id="text_35">
      <!-- 10 -->
      <g transform="translate(591.71103 197.224801) scale(0.14 -0.14)">
       <use xlink:href="#DejaVuSans-31"/>
       <use xlink:href="#DejaVuSans-30" x="63.623047"/>
      </g>
     </g>
    </g>
    <g id="ytick_14">
     <g id="line2d_31">
      <g>
       <use xlink:href="#m9fefe8f967" x="616.52603" y="136.91078" style="stroke: #000000; stroke-width: 0.8"/>
      </g>
     </g>
     <g id="text_36">
      <!-- 20 -->
      <g transform="translate(591.71103 142.229686) scale(0.14 -0.14)">
       <use xlink:href="#DejaVuSans-32"/>
       <use xlink:href="#DejaVuSans-30" x="63.623047"/>
      </g>
     </g>
    </g>
    <g id="ytick_15">
     <g id="line2d_32">
      <g>
       <use xlink:href="#m9fefe8f967" x="616.52603" y="81.915665" style="stroke: #000000; stroke-width: 0.8"/>
      </g>
     </g>
     <g id="text_37">
      <!-- 30 -->
      <g transform="translate(591.71103 87.234571) scale(0.14 -0.14)">
       <use xlink:href="#DejaVuSans-33"/>
       <use xlink:href="#DejaVuSans-30" x="63.623047"/>
      </g>
     </g>
    </g>
    <g id="ytick_16">
     <g id="line2d_33">
      <g>
       <use xlink:href="#m9fefe8f967" x="616.52603" y="26.92055" style="stroke: #000000; stroke-width: 0.8"/>
      </g>
     </g>
     <g id="text_38">
      <!-- 40 -->
      <g transform="translate(591.71103 32.239456) scale(0.14 -0.14)">
       <use xlink:href="#DejaVuSans-34"/>
       <use xlink:href="#DejaVuSans-30" x="63.623047"/>
      </g>
     </g>
    </g>
   </g>
   <g id="line2d_34">
    <path d="M 647.543556 244.46371 
L 649.098085 243.983086 
L 650.652614 243.420492 
L 652.207142 242.764648 
L 653.761671 242.003245 
L 655.3162 241.122949 
L 656.870729 240.109425 
L 658.425257 238.947388 
L 659.979786 237.620678 
L 661.534315 236.112365 
L 663.088843 234.404892 
L 664.643372 232.480252 
L 666.197901 230.320195 
L 667.75243 227.906485 
L 669.306958 225.221183 
L 670.861487 222.246977 
L 672.416016 218.967537 
L 673.970545 215.367908 
L 675.525073 211.434926 
L 677.079602 207.157649 
L 678.634131 202.527812 
L 680.18866 197.540269 
L 681.743188 192.193443 
L 683.297717 186.489745 
L 684.852246 180.435973 
L 686.406775 174.043661 
L 687.961303 167.329375 
L 689.515832 160.314948 
L 691.070361 153.027622 
L 692.62489 145.500114 
L 694.179418 137.770575 
L 695.733947 129.882443 
L 697.288476 121.884187 
L 698.843005 113.828932 
L 700.397533 105.773976 
L 701.952062 97.780189 
L 703.506591 89.911313 
L 705.06112 82.233161 
L 706.615648 74.81274 
L 708.170177 67.717302 
L 709.724706 61.013347 
L 711.279235 54.765601 
L 712.833763 49.035979 
L 714.388292 43.882573 
L 715.942821 39.35867 
L 717.497349 35.511841 
L 719.051878 32.383103 
L 720.606407 30.006197 
L 722.160936 28.40698 
L 723.715464 27.602955 
L 725.269993 27.602955 
L 726.824522 28.40698 
L 728.379051 30.006197 
L 729.933579 32.383103 
L 731.488108 35.511841 
L 733.042637 39.35867 
L 734.597166 43.882573 
L 736.151694 49.035979 
L 737.706223 54.765601 
L 739.260752 61.013347 
L 740.815281 67.717302 
L 742.369809 74.81274 
L 743.924338 82.233161 
L 745.478867 89.911313 
L 747.033396 97.780189 
L 748.587924 105.773976 
L 750.142453 113.828932 
L 751.696982 121.884187 
L 753.251511 129.882443 
L 754.806039 137.770575 
L 756.360568 145.500114 
L 757.915097 153.027622 
L 759.469626 160.314948 
L 761.024154 167.329375 
L 762.578683 174.043661 
L 764.133212 180.435973 
L 765.687741 186.489745 
L 767.242269 192.193443 
L 768.796798 197.540269 
L 770.351327 202.527812 
L 771.905855 207.157649 
L 773.460384 211.434926 
L 775.014913 215.367908 
L 776.569442 218.967537 
L 778.12397 222.246977 
L 779.678499 225.221183 
L 781.233028 227.906485 
L 782.787557 230.320195 
L 784.342085 232.480252 
L 785.896614 234.404892 
L 787.451143 236.112365 
L 789.005672 237.620678 
L 790.5602 238.947388 
L 792.114729 240.109425 
L 793.669258 241.122949 
L 795.223787 242.003245 
L 796.778315 242.764648 
L 798.332844 243.420492 
L 799.887373 243.983086 
L 801.441902 244.46371 
" clip-path="url(#pc397cce9bc)" style="fill: none; stroke: #2ca02c; stroke-width: 1.5; stroke-linecap: square"/>
   </g>
   <g id="patch_105">
    <path d="M 616.52603 246.90101 
L 616.52603 16.638052 
" style="fill: none; stroke: #000000; stroke-width: 0.8; stroke-linejoin: miter; stroke-linecap: square"/>
   </g>
   <g id="patch_106">
    <path d="M 861.433912 246.90101 
L 861.433912 16.638052 
" style="fill: none; stroke: #000000; stroke-width: 0.8; stroke-linejoin: miter; stroke-linecap: square"/>
   </g>
   <g id="patch_107">
    <path d="M 616.52603 246.90101 
L 861.433912 246.90101 
" style="fill: none; stroke: #000000; stroke-width: 0.8; stroke-linejoin: miter; stroke-linecap: square"/>
   </g>
   <g id="patch_108">
    <path d="M 616.52603 16.638052 
L 861.433912 16.638052 
" style="fill: none; stroke: #000000; stroke-width: 0.8; stroke-linejoin: miter; stroke-linecap: square"/>
   </g>
  </g>
  <g id="axes_4">
   <g id="patch_109">
    <path d="M 892.249392 246.90101 
L 1137.157275 246.90101 
L 1137.157275 16.638052 
L 892.249392 16.638052 
z
" style="fill: #ffffff"/>
   </g>
   <g id="patch_110">
    <path d="M 903.381569 246.90101 
L 910.083214 246.90101 
L 910.083214 246.097351 
L 903.381569 246.097351 
z
" clip-path="url(#p551ebc917b)" style="fill: #1f77b4"/>
   </g>
   <g id="patch_111">
    <path d="M 910.827841 246.90101 
L 917.529486 246.90101 
L 917.529486 245.695521 
L 910.827841 245.695521 
z
" clip-path="url(#p551ebc917b)" style="fill: #1f77b4"/>
   </g>
   <g id="patch_112">
    <path d="M 918.274113 246.90101 
L 924.975757 246.90101 
L 924.975757 245.695521 
L 918.274113 245.695521 
z
" clip-path="url(#p551ebc917b)" style="fill: #1f77b4"/>
   </g>
   <g id="patch_113">
    <path d="M 925.720385 246.90101 
L 932.422029 246.90101 
L 932.422029 245.293691 
L 925.720385 245.293691 
z
" clip-path="url(#p551ebc917b)" style="fill: #1f77b4"/>
   </g>
   <g id="patch_114">
    <path d="M 933.166657 246.90101 
L 939.868301 246.90101 
L 939.868301 245.695521 
L 933.166657 245.695521 
z
" clip-path="url(#p551ebc917b)" style="fill: #1f77b4"/>
   </g>
   <g id="patch_115">
    <path d="M 940.612928 246.90101 
L 947.314573 246.90101 
L 947.314573 239.668076 
L 940.612928 239.668076 
z
" clip-path="url(#p551ebc917b)" style="fill: #1f77b4"/>
   </g>
   <g id="patch_116">
    <path d="M 948.0592 246.90101 
L 954.760845 246.90101 
L 954.760845 237.658928 
L 948.0592 237.658928 
z
" clip-path="url(#p551ebc917b)" style="fill: #1f77b4"/>
   </g>
   <g id="patch_117">
    <path d="M 955.505472 246.90101 
L 962.207117 246.90101 
L 962.207117 224.80038 
L 955.505472 224.80038 
z
" clip-path="url(#p551ebc917b)" style="fill: #1f77b4"/>
   </g>
   <g id="patch_118">
    <path d="M 962.951744 246.90101 
L 969.653389 246.90101 
L 969.653389 208.325364 
L 962.951744 208.325364 
z
" clip-path="url(#p551ebc917b)" style="fill: #1f77b4"/>
   </g>
   <g id="patch_119">
    <path d="M 970.398016 246.90101 
L 977.099661 246.90101 
L 977.099661 193.457667 
L 970.398016 193.457667 
z
" clip-path="url(#p551ebc917b)" style="fill: #1f77b4"/>
   </g>
   <g id="patch_120">
    <path d="M 977.844288 246.90101 
L 984.545933 246.90101 
L 984.545933 173.768015 
L 977.844288 173.768015 
z
" clip-path="url(#p551ebc917b)" style="fill: #1f77b4"/>
   </g>
   <g id="patch_121">
    <path d="M 985.29056 246.90101 
L 991.992205 246.90101 
L 991.992205 138.808836 
L 985.29056 138.808836 
z
" clip-path="url(#p551ebc917b)" style="fill: #1f77b4"/>
   </g>
   <g id="patch_122">
    <path d="M 992.736832 246.90101 
L 999.438476 246.90101 
L 999.438476 121.530161 
L 992.736832 121.530161 
z
" clip-path="url(#p551ebc917b)" style="fill: #1f77b4"/>
   </g>
   <g id="patch_123">
    <path d="M 1000.183104 246.90101 
L 1006.884748 246.90101 
L 1006.884748 88.58013 
L 1000.183104 88.58013 
z
" clip-path="url(#p551ebc917b)" style="fill: #1f77b4"/>
   </g>
   <g id="patch_124">
    <path d="M 1007.629376 246.90101 
L 1014.33102 246.90101 
L 1014.33102 55.22827 
L 1007.629376 55.22827 
z
" clip-path="url(#p551ebc917b)" style="fill: #1f77b4"/>
   </g>
   <g id="patch_125">
    <path d="M 1015.075647 246.90101 
L 1021.777292 246.90101 
L 1021.777292 54.022781 
L 1015.075647 54.022781 
z
" clip-path="url(#p551ebc917b)" style="fill: #1f77b4"/>
   </g>
   <g id="patch_126">
    <path d="M 1022.521919 246.90101 
L 1029.223564 246.90101 
L 1029.223564 60.050226 
L 1022.521919 60.050226 
z
" clip-path="url(#p551ebc917b)" style="fill: #1f77b4"/>
   </g>
   <g id="patch_127">
    <path d="M 1029.968191 246.90101 
L 1036.669836 246.90101 
L 1036.669836 61.657544 
L 1029.968191 61.657544 
z
" clip-path="url(#p551ebc917b)" style="fill: #1f77b4"/>
   </g>
   <g id="patch_128">
    <path d="M 1037.414463 246.90101 
L 1044.116108 246.90101 
L 1044.116108 75.721582 
L 1037.414463 75.721582 
z
" clip-path="url(#p551ebc917b)" style="fill: #1f77b4"/>
   </g>
   <g id="patch_129">
    <path d="M 1044.860735 246.90101 
L 1051.56238 246.90101 
L 1051.56238 117.913694 
L 1044.860735 117.913694 
z
" clip-path="url(#p551ebc917b)" style="fill: #1f77b4"/>
   </g>
   <g id="patch_130">
    <path d="M 1052.307007 246.90101 
L 1059.008652 246.90101 
L 1059.008652 134.38871 
L 1052.307007 134.38871 
z
" clip-path="url(#p551ebc917b)" style="fill: #1f77b4"/>
   </g>
   <g id="patch_131">
    <path d="M 1059.753279 246.90101 
L 1066.454924 246.90101 
L 1066.454924 160.507637 
L 1059.753279 160.507637 
z
" clip-path="url(#p551ebc917b)" style="fill: #1f77b4"/>
   </g>
   <g id="patch_132">
    <path d="M 1067.199551 246.90101 
L 1073.901195 246.90101 
L 1073.901195 185.421075 
L 1067.199551 185.421075 
z
" clip-path="url(#p551ebc917b)" style="fill: #1f77b4"/>
   </g>
   <g id="patch_133">
    <path d="M 1074.645823 246.90101 
L 1081.347467 246.90101 
L 1081.347467 211.941831 
L 1074.645823 211.941831 
z
" clip-path="url(#p551ebc917b)" style="fill: #1f77b4"/>
   </g>
   <g id="patch_134">
    <path d="M 1082.092095 246.90101 
L 1088.793739 246.90101 
L 1088.793739 219.576594 
L 1082.092095 219.576594 
z
" clip-path="url(#p551ebc917b)" style="fill: #1f77b4"/>
   </g>
   <g id="patch_135">
    <path d="M 1089.538366 246.90101 
L 1096.240011 246.90101 
L 1096.240011 230.827824 
L 1089.538366 230.827824 
z
" clip-path="url(#p551ebc917b)" style="fill: #1f77b4"/>
   </g>
   <g id="patch_136">
    <path d="M 1096.984638 246.90101 
L 1103.686283 246.90101 
L 1103.686283 240.873565 
L 1096.984638 240.873565 
z
" clip-path="url(#p551ebc917b)" style="fill: #1f77b4"/>
   </g>
   <g id="patch_137">
    <path d="M 1104.43091 246.90101 
L 1111.132555 246.90101 
L 1111.132555 243.686373 
L 1104.43091 243.686373 
z
" clip-path="url(#p551ebc917b)" style="fill: #1f77b4"/>
   </g>
   <g id="patch_138">
    <path d="M 1111.877182 246.90101 
L 1118.578827 246.90101 
L 1118.578827 244.891862 
L 1111.877182 244.891862 
z
" clip-path="url(#p551ebc917b)" style="fill: #1f77b4"/>
   </g>
   <g id="patch_139">
    <path d="M 1119.323454 246.90101 
L 1126.025099 246.90101 
L 1126.025099 246.097351 
L 1119.323454 246.097351 
z
" clip-path="url(#p551ebc917b)" style="fill: #1f77b4"/>
   </g>
   <g id="matplotlib.axis_7">
    <g id="xtick_15">
     <g id="line2d_35">
      <g>
       <use xlink:href="#m5eb891e1ee" x="905.797058" y="246.90101" style="stroke: #000000; stroke-width: 0.8"/>
      </g>
     </g>
     <g id="text_39">
      <!-- 0.40 -->
      <g transform="translate(890.211121 264.538822) scale(0.14 -0.14)">
       <use xlink:href="#DejaVuSans-30"/>
       <use xlink:href="#DejaVuSans-2e" x="63.623047"/>
       <use xlink:href="#DejaVuSans-34" x="95.410156"/>
       <use xlink:href="#DejaVuSans-30" x="159.033203"/>
      </g>
     </g>
    </g>
    <g id="xtick_16">
     <g id="line2d_36">
      <g>
       <use xlink:href="#m5eb891e1ee" x="960.204305" y="246.90101" style="stroke: #000000; stroke-width: 0.8"/>
      </g>
     </g>
     <g id="text_40">
      <!-- 0.42 -->
      <g transform="translate(944.618367 264.538822) scale(0.14 -0.14)">
       <use xlink:href="#DejaVuSans-30"/>
       <use xlink:href="#DejaVuSans-2e" x="63.623047"/>
       <use xlink:href="#DejaVuSans-34" x="95.410156"/>
       <use xlink:href="#DejaVuSans-32" x="159.033203"/>
      </g>
     </g>
    </g>
    <g id="xtick_17">
     <g id="line2d_37">
      <g>
       <use xlink:href="#m5eb891e1ee" x="1014.611552" y="246.90101" style="stroke: #000000; stroke-width: 0.8"/>
      </g>
     </g>
     <g id="text_41">
      <!-- 0.44 -->
      <g transform="translate(999.025614 264.538822) scale(0.14 -0.14)">
       <use xlink:href="#DejaVuSans-30"/>
       <use xlink:href="#DejaVuSans-2e" x="63.623047"/>
       <use xlink:href="#DejaVuSans-34" x="95.410156"/>
       <use xlink:href="#DejaVuSans-34" x="159.033203"/>
      </g>
     </g>
    </g>
    <g id="xtick_18">
     <g id="line2d_38">
      <g>
       <use xlink:href="#m5eb891e1ee" x="1069.018798" y="246.90101" style="stroke: #000000; stroke-width: 0.8"/>
      </g>
     </g>
     <g id="text_42">
      <!-- 0.46 -->
      <g transform="translate(1053.432861 264.538822) scale(0.14 -0.14)">
       <use xlink:href="#DejaVuSans-30"/>
       <use xlink:href="#DejaVuSans-2e" x="63.623047"/>
       <use xlink:href="#DejaVuSans-34" x="95.410156"/>
       <use xlink:href="#DejaVuSans-36" x="159.033203"/>
      </g>
     </g>
    </g>
    <g id="xtick_19">
     <g id="line2d_39">
      <g>
       <use xlink:href="#m5eb891e1ee" x="1123.426045" y="246.90101" style="stroke: #000000; stroke-width: 0.8"/>
      </g>
     </g>
     <g id="text_43">
      <!-- 0.48 -->
      <g transform="translate(1107.840107 264.538822) scale(0.14 -0.14)">
       <use xlink:href="#DejaVuSans-30"/>
       <use xlink:href="#DejaVuSans-2e" x="63.623047"/>
       <use xlink:href="#DejaVuSans-34" x="95.410156"/>
       <use xlink:href="#DejaVuSans-38" x="159.033203"/>
      </g>
     </g>
    </g>
    <g id="text_44">
     <!-- $\nu_{23}$ [-] -->
     <g transform="translate(994.123334 282.088197) scale(0.14 -0.14)">
      <use xlink:href="#DejaVuSans-Oblique-3bd" transform="translate(0 0.015625)"/>
      <use xlink:href="#DejaVuSans-32" transform="translate(55.859375 -16.390625) scale(0.7)"/>
      <use xlink:href="#DejaVuSans-33" transform="translate(100.395508 -16.390625) scale(0.7)"/>
      <use xlink:href="#DejaVuSans-20" transform="translate(147.666016 0.015625)"/>
      <use xlink:href="#DejaVuSans-5b" transform="translate(179.453125 0.015625)"/>
      <use xlink:href="#DejaVuSans-2d" transform="translate(218.466797 0.015625)"/>
      <use xlink:href="#DejaVuSans-5d" transform="translate(254.550781 0.015625)"/>
     </g>
    </g>
   </g>
   <g id="matplotlib.axis_8">
    <g id="ytick_17">
     <g id="line2d_40">
      <g>
       <use xlink:href="#m9fefe8f967" x="892.249392" y="246.90101" style="stroke: #000000; stroke-width: 0.8"/>
      </g>
     </g>
     <g id="text_45">
      <!-- 0 -->
      <g transform="translate(876.341892 252.219916) scale(0.14 -0.14)">
       <use xlink:href="#DejaVuSans-30"/>
      </g>
     </g>
    </g>
    <g id="ytick_18">
     <g id="line2d_41">
      <g>
       <use xlink:href="#m9fefe8f967" x="892.249392" y="191.905895" style="stroke: #000000; stroke-width: 0.8"/>
      </g>
     </g>
     <g id="text_46">
      <!-- 10 -->
      <g transform="translate(867.434392 197.224801) scale(0.14 -0.14)">
       <use xlink:href="#DejaVuSans-31"/>
       <use xlink:href="#DejaVuSans-30" x="63.623047"/>
      </g>
     </g>
    </g>
    <g id="ytick_19">
     <g id="line2d_42">
      <g>
       <use xlink:href="#m9fefe8f967" x="892.249392" y="136.91078" style="stroke: #000000; stroke-width: 0.8"/>
      </g>
     </g>
     <g id="text_47">
      <!-- 20 -->
      <g transform="translate(867.434392 142.229686) scale(0.14 -0.14)">
       <use xlink:href="#DejaVuSans-32"/>
       <use xlink:href="#DejaVuSans-30" x="63.623047"/>
      </g>
     </g>
    </g>
    <g id="ytick_20">
     <g id="line2d_43">
      <g>
       <use xlink:href="#m9fefe8f967" x="892.249392" y="81.915665" style="stroke: #000000; stroke-width: 0.8"/>
      </g>
     </g>
     <g id="text_48">
      <!-- 30 -->
      <g transform="translate(867.434392 87.234571) scale(0.14 -0.14)">
       <use xlink:href="#DejaVuSans-33"/>
       <use xlink:href="#DejaVuSans-30" x="63.623047"/>
      </g>
     </g>
    </g>
    <g id="ytick_21">
     <g id="line2d_44">
      <g>
       <use xlink:href="#m9fefe8f967" x="892.249392" y="26.92055" style="stroke: #000000; stroke-width: 0.8"/>
      </g>
     </g>
     <g id="text_49">
      <!-- 40 -->
      <g transform="translate(867.434392 32.239456) scale(0.14 -0.14)">
       <use xlink:href="#DejaVuSans-34"/>
       <use xlink:href="#DejaVuSans-30" x="63.623047"/>
      </g>
     </g>
    </g>
   </g>
   <g id="line2d_45">
    <path d="M 933.000681 244.46371 
L 934.649386 243.983086 
L 936.29809 243.420492 
L 937.946795 242.764648 
L 939.595499 242.003245 
L 941.244204 241.122949 
L 942.892908 240.109425 
L 944.541613 238.947388 
L 946.190317 237.620678 
L 947.839021 236.112365 
L 949.487726 234.404892 
L 951.13643 232.480252 
L 952.785135 230.320195 
L 954.433839 227.906485 
L 956.082544 225.221183 
L 957.731248 222.246977 
L 959.379953 218.967537 
L 961.028657 215.367908 
L 962.677362 211.434926 
L 964.326066 207.157649 
L 965.97477 202.527812 
L 967.623475 197.540269 
L 969.272179 192.193443 
L 970.920884 186.489745 
L 972.569588 180.435973 
L 974.218293 174.043661 
L 975.866997 167.329375 
L 977.515702 160.314948 
L 979.164406 153.027622 
L 980.81311 145.500114 
L 982.461815 137.770575 
L 984.110519 129.882443 
L 985.759224 121.884187 
L 987.407928 113.828932 
L 989.056633 105.773976 
L 990.705337 97.780189 
L 992.354042 89.911313 
L 994.002746 82.233161 
L 995.65145 74.81274 
L 997.300155 67.717302 
L 998.948859 61.013347 
L 1000.597564 54.765601 
L 1002.246268 49.035979 
L 1003.894973 43.882573 
L 1005.543677 39.35867 
L 1007.192382 35.511841 
L 1008.841086 32.383103 
L 1010.48979 30.006197 
L 1012.138495 28.40698 
L 1013.787199 27.602955 
L 1015.435904 27.602955 
L 1017.084608 28.40698 
L 1018.733313 30.006197 
L 1020.382017 32.383103 
L 1022.030722 35.511841 
L 1023.679426 39.35867 
L 1025.32813 43.882573 
L 1026.976835 49.035979 
L 1028.625539 54.765601 
L 1030.274244 61.013347 
L 1031.922948 67.717302 
L 1033.571653 74.81274 
L 1035.220357 82.233161 
L 1036.869062 89.911313 
L 1038.517766 97.780189 
L 1040.16647 105.773976 
L 1041.815175 113.828932 
L 1043.463879 121.884187 
L 1045.112584 129.882443 
L 1046.761288 137.770575 
L 1048.409993 145.500114 
L 1050.058697 153.027622 
L 1051.707402 160.314948 
L 1053.356106 167.329375 
L 1055.00481 174.043661 
L 1056.653515 180.435973 
L 1058.302219 186.489745 
L 1059.950924 192.193443 
L 1061.599628 197.540269 
L 1063.248333 202.527812 
L 1064.897037 207.157649 
L 1066.545742 211.434926 
L 1068.194446 215.367908 
L 1069.84315 218.967537 
L 1071.491855 222.246977 
L 1073.140559 225.221183 
L 1074.789264 227.906485 
L 1076.437968 230.320195 
L 1078.086673 232.480252 
L 1079.735377 234.404892 
L 1081.384082 236.112365 
L 1083.032786 237.620678 
L 1084.68149 238.947388 
L 1086.330195 240.109425 
L 1087.978899 241.122949 
L 1089.627604 242.003245 
L 1091.276308 242.764648 
L 1092.925013 243.420492 
L 1094.573717 243.983086 
L 1096.222422 244.46371 
" clip-path="url(#p551ebc917b)" style="fill: none; stroke: #2ca02c; stroke-width: 1.5; stroke-linecap: square"/>
   </g>
   <g id="patch_140">
    <path d="M 892.249392 246.90101 
L 892.249392 16.638052 
" style="fill: none; stroke: #000000; stroke-width: 0.8; stroke-linejoin: miter; stroke-linecap: square"/>
   </g>
   <g id="patch_141">
    <path d="M 1137.157275 246.90101 
L 1137.157275 16.638052 
" style="fill: none; stroke: #000000; stroke-width: 0.8; stroke-linejoin: miter; stroke-linecap: square"/>
   </g>
   <g id="patch_142">
    <path d="M 892.249392 246.90101 
L 1137.157275 246.90101 
" style="fill: none; stroke: #000000; stroke-width: 0.8; stroke-linejoin: miter; stroke-linecap: square"/>
   </g>
   <g id="patch_143">
    <path d="M 892.249392 16.638052 
L 1137.157275 16.638052 
" style="fill: none; stroke: #000000; stroke-width: 0.8; stroke-linejoin: miter; stroke-linecap: square"/>
   </g>
  </g>
  <g id="axes_5">
   <g id="patch_144">
    <path d="M 1192.091877 246.90101 
L 1436.99976 246.90101 
L 1436.99976 16.638052 
L 1192.091877 16.638052 
z
" style="fill: #ffffff"/>
   </g>
   <g id="patch_145">
    <path d="M 1203.224054 246.90101 
L 1209.925698 246.90101 
L 1209.925698 246.01278 
L 1203.224054 246.01278 
z
" clip-path="url(#p2d1d8d3f8f)" style="fill: #1f77b4"/>
   </g>
   <g id="patch_146">
    <path d="M 1210.670326 246.90101 
L 1217.37197 246.90101 
L 1217.37197 245.124551 
L 1210.670326 245.124551 
z
" clip-path="url(#p2d1d8d3f8f)" style="fill: #1f77b4"/>
   </g>
   <g id="patch_147">
    <path d="M 1218.116597 246.90101 
L 1224.818242 246.90101 
L 1224.818242 244.236321 
L 1218.116597 244.236321 
z
" clip-path="url(#p2d1d8d3f8f)" style="fill: #1f77b4"/>
   </g>
   <g id="patch_148">
    <path d="M 1225.562869 246.90101 
L 1232.264514 246.90101 
L 1232.264514 242.459862 
L 1225.562869 242.459862 
z
" clip-path="url(#p2d1d8d3f8f)" style="fill: #1f77b4"/>
   </g>
   <g id="patch_149">
    <path d="M 1233.009141 246.90101 
L 1239.710786 246.90101 
L 1239.710786 241.571633 
L 1233.009141 241.571633 
z
" clip-path="url(#p2d1d8d3f8f)" style="fill: #1f77b4"/>
   </g>
   <g id="patch_150">
    <path d="M 1240.455413 246.90101 
L 1247.157058 246.90101 
L 1247.157058 231.356994 
L 1240.455413 231.356994 
z
" clip-path="url(#p2d1d8d3f8f)" style="fill: #1f77b4"/>
   </g>
   <g id="patch_151">
    <path d="M 1247.901685 246.90101 
L 1254.60333 246.90101 
L 1254.60333 224.251158 
L 1247.901685 224.251158 
z
" clip-path="url(#p2d1d8d3f8f)" style="fill: #1f77b4"/>
   </g>
   <g id="patch_152">
    <path d="M 1255.347957 246.90101 
L 1262.049602 246.90101 
L 1262.049602 218.477666 
L 1255.347957 218.477666 
z
" clip-path="url(#p2d1d8d3f8f)" style="fill: #1f77b4"/>
   </g>
   <g id="patch_153">
    <path d="M 1262.794229 246.90101 
L 1269.495874 246.90101 
L 1269.495874 199.380731 
L 1262.794229 199.380731 
z
" clip-path="url(#p2d1d8d3f8f)" style="fill: #1f77b4"/>
   </g>
   <g id="patch_154">
    <path d="M 1270.240501 246.90101 
L 1276.942146 246.90101 
L 1276.942146 175.398535 
L 1270.240501 175.398535 
z
" clip-path="url(#p2d1d8d3f8f)" style="fill: #1f77b4"/>
   </g>
   <g id="patch_155">
    <path d="M 1277.686773 246.90101 
L 1284.388417 246.90101 
L 1284.388417 150.528109 
L 1277.686773 150.528109 
z
" clip-path="url(#p2d1d8d3f8f)" style="fill: #1f77b4"/>
   </g>
   <g id="patch_156">
    <path d="M 1285.133045 246.90101 
L 1291.834689 246.90101 
L 1291.834689 129.654715 
L 1285.133045 129.654715 
z
" clip-path="url(#p2d1d8d3f8f)" style="fill: #1f77b4"/>
   </g>
   <g id="patch_157">
    <path d="M 1292.579316 246.90101 
L 1299.280961 246.90101 
L 1299.280961 104.340174 
L 1292.579316 104.340174 
z
" clip-path="url(#p2d1d8d3f8f)" style="fill: #1f77b4"/>
   </g>
   <g id="patch_158">
    <path d="M 1300.025588 246.90101 
L 1306.727233 246.90101 
L 1306.727233 79.469748 
L 1300.025588 79.469748 
z
" clip-path="url(#p2d1d8d3f8f)" style="fill: #1f77b4"/>
   </g>
   <g id="patch_159">
    <path d="M 1307.47186 246.90101 
L 1314.173505 246.90101 
L 1314.173505 44.828797 
L 1307.47186 44.828797 
z
" clip-path="url(#p2d1d8d3f8f)" style="fill: #1f77b4"/>
   </g>
   <g id="patch_160">
    <path d="M 1314.918132 246.90101 
L 1321.619777 246.90101 
L 1321.619777 43.052338 
L 1314.918132 43.052338 
z
" clip-path="url(#p2d1d8d3f8f)" style="fill: #1f77b4"/>
   </g>
   <g id="patch_161">
    <path d="M 1322.364404 246.90101 
L 1329.066049 246.90101 
L 1329.066049 45.717027 
L 1322.364404 45.717027 
z
" clip-path="url(#p2d1d8d3f8f)" style="fill: #1f77b4"/>
   </g>
   <g id="patch_162">
    <path d="M 1329.810676 246.90101 
L 1336.512321 246.90101 
L 1336.512321 54.155207 
L 1329.810676 54.155207 
z
" clip-path="url(#p2d1d8d3f8f)" style="fill: #1f77b4"/>
   </g>
   <g id="patch_163">
    <path d="M 1337.256948 246.90101 
L 1343.958593 246.90101 
L 1343.958593 73.696256 
L 1337.256948 73.696256 
z
" clip-path="url(#p2d1d8d3f8f)" style="fill: #1f77b4"/>
   </g>
   <g id="patch_164">
    <path d="M 1344.70322 246.90101 
L 1351.404865 246.90101 
L 1351.404865 95.457879 
L 1344.70322 95.457879 
z
" clip-path="url(#p2d1d8d3f8f)" style="fill: #1f77b4"/>
   </g>
   <g id="patch_165">
    <path d="M 1352.149492 246.90101 
L 1358.851136 246.90101 
L 1358.851136 131.431174 
L 1352.149492 131.431174 
z
" clip-path="url(#p2d1d8d3f8f)" style="fill: #1f77b4"/>
   </g>
   <g id="patch_166">
    <path d="M 1359.595764 246.90101 
L 1366.297408 246.90101 
L 1366.297408 159.854518 
L 1359.595764 159.854518 
z
" clip-path="url(#p2d1d8d3f8f)" style="fill: #1f77b4"/>
   </g>
   <g id="patch_167">
    <path d="M 1367.042035 246.90101 
L 1373.74368 246.90101 
L 1373.74368 185.169059 
L 1367.042035 185.169059 
z
" clip-path="url(#p2d1d8d3f8f)" style="fill: #1f77b4"/>
   </g>
   <g id="patch_168">
    <path d="M 1374.488307 246.90101 
L 1381.189952 246.90101 
L 1381.189952 211.37183 
L 1374.488307 211.37183 
z
" clip-path="url(#p2d1d8d3f8f)" style="fill: #1f77b4"/>
   </g>
   <g id="patch_169">
    <path d="M 1381.934579 246.90101 
L 1388.636224 246.90101 
L 1388.636224 216.701207 
L 1381.934579 216.701207 
z
" clip-path="url(#p2d1d8d3f8f)" style="fill: #1f77b4"/>
   </g>
   <g id="patch_170">
    <path d="M 1389.380851 246.90101 
L 1396.082496 246.90101 
L 1396.082496 224.695272 
L 1389.380851 224.695272 
z
" clip-path="url(#p2d1d8d3f8f)" style="fill: #1f77b4"/>
   </g>
   <g id="patch_171">
    <path d="M 1396.827123 246.90101 
L 1403.528768 246.90101 
L 1403.528768 234.909912 
L 1396.827123 234.909912 
z
" clip-path="url(#p2d1d8d3f8f)" style="fill: #1f77b4"/>
   </g>
   <g id="patch_172">
    <path d="M 1404.273395 246.90101 
L 1410.97504 246.90101 
L 1410.97504 243.348092 
L 1404.273395 243.348092 
z
" clip-path="url(#p2d1d8d3f8f)" style="fill: #1f77b4"/>
   </g>
   <g id="patch_173">
    <path d="M 1411.719667 246.90101 
L 1418.421312 246.90101 
L 1418.421312 244.236321 
L 1411.719667 244.236321 
z
" clip-path="url(#p2d1d8d3f8f)" style="fill: #1f77b4"/>
   </g>
   <g id="patch_174">
    <path d="M 1419.165939 246.90101 
L 1425.867584 246.90101 
L 1425.867584 245.568666 
L 1419.165939 245.568666 
z
" clip-path="url(#p2d1d8d3f8f)" style="fill: #1f77b4"/>
   </g>
   <g id="matplotlib.axis_9">
    <g id="xtick_20">
     <g id="line2d_46">
      <g>
       <use xlink:href="#m5eb891e1ee" x="1223.723495" y="246.90101" style="stroke: #000000; stroke-width: 0.8"/>
      </g>
     </g>
     <g id="text_50">
      <!-- 4800 -->
      <g transform="translate(1205.908495 264.538822) scale(0.14 -0.14)">
       <use xlink:href="#DejaVuSans-34"/>
       <use xlink:href="#DejaVuSans-38" x="63.623047"/>
       <use xlink:href="#DejaVuSans-30" x="127.246094"/>
       <use xlink:href="#DejaVuSans-30" x="190.869141"/>
      </g>
     </g>
    </g>
    <g id="xtick_21">
     <g id="line2d_47">
      <g>
       <use xlink:href="#m5eb891e1ee" x="1309.627208" y="246.90101" style="stroke: #000000; stroke-width: 0.8"/>
      </g>
     </g>
     <g id="text_51">
      <!-- 5000 -->
      <g transform="translate(1291.812208 264.538822) scale(0.14 -0.14)">
       <use xlink:href="#DejaVuSans-35"/>
       <use xlink:href="#DejaVuSans-30" x="63.623047"/>
       <use xlink:href="#DejaVuSans-30" x="127.246094"/>
       <use xlink:href="#DejaVuSans-30" x="190.869141"/>
      </g>
     </g>
    </g>
    <g id="xtick_22">
     <g id="line2d_48">
      <g>
       <use xlink:href="#m5eb891e1ee" x="1395.530921" y="246.90101" style="stroke: #000000; stroke-width: 0.8"/>
      </g>
     </g>
     <g id="text_52">
      <!-- 5200 -->
      <g transform="translate(1377.715921 264.538822) scale(0.14 -0.14)">
       <use xlink:href="#DejaVuSans-35"/>
       <use xlink:href="#DejaVuSans-32" x="63.623047"/>
       <use xlink:href="#DejaVuSans-30" x="127.246094"/>
       <use xlink:href="#DejaVuSans-30" x="190.869141"/>
      </g>
     </g>
    </g>
    <g id="text_53">
     <!-- $G_{12}$ [MPa] -->
     <g transform="translate(1280.455819 282.088197) scale(0.14 -0.14)">
      <defs>
       <path id="DejaVuSans-Oblique-47" d="M 3494 697 
L 3738 1919 
L 2700 1919 
L 2797 2438 
L 4453 2438 
L 4050 384 
Q 3634 156 3143 32 
Q 2653 -91 2156 -91 
Q 1278 -91 783 396 
Q 288 884 288 1753 
Q 288 2475 589 3126 
Q 891 3778 1422 4213 
Q 1756 4484 2153 4617 
Q 2550 4750 3034 4750 
Q 3472 4750 3873 4639 
Q 4275 4528 4641 4306 
L 4513 3634 
Q 4231 3928 3853 4083 
Q 3475 4238 3047 4238 
Q 2550 4238 2172 4048 
Q 1794 3859 1497 3463 
Q 1244 3125 1098 2667 
Q 953 2209 953 1734 
Q 953 1081 1287 751 
Q 1622 422 2284 422 
Q 2616 422 2925 492 
Q 3234 563 3494 697 
z
" transform="scale(0.015625)"/>
      </defs>
      <use xlink:href="#DejaVuSans-Oblique-47" transform="translate(0 0.015625)"/>
      <use xlink:href="#DejaVuSans-31" transform="translate(77.490234 -16.390625) scale(0.7)"/>
      <use xlink:href="#DejaVuSans-32" transform="translate(122.026367 -16.390625) scale(0.7)"/>
      <use xlink:href="#DejaVuSans-20" transform="translate(169.296875 0.015625)"/>
      <use xlink:href="#DejaVuSans-5b" transform="translate(201.083984 0.015625)"/>
      <use xlink:href="#DejaVuSans-4d" transform="translate(240.097656 0.015625)"/>
      <use xlink:href="#DejaVuSans-50" transform="translate(326.376953 0.015625)"/>
      <use xlink:href="#DejaVuSans-61" transform="translate(386.679688 0.015625)"/>
      <use xlink:href="#DejaVuSans-5d" transform="translate(447.958984 0.015625)"/>
     </g>
    </g>
   </g>
   <g id="matplotlib.axis_10">
    <g id="ytick_22">
     <g id="line2d_49">
      <g>
       <use xlink:href="#m9fefe8f967" x="1192.091877" y="246.90101" style="stroke: #000000; stroke-width: 0.8"/>
      </g>
     </g>
     <g id="text_54">
      <!-- 0.000 -->
      <g transform="translate(1145.012502 252.219916) scale(0.14 -0.14)">
       <use xlink:href="#DejaVuSans-30"/>
       <use xlink:href="#DejaVuSans-2e" x="63.623047"/>
       <use xlink:href="#DejaVuSans-30" x="95.410156"/>
       <use xlink:href="#DejaVuSans-30" x="159.033203"/>
       <use xlink:href="#DejaVuSans-30" x="222.65625"/>
      </g>
     </g>
    </g>
    <g id="ytick_23">
     <g id="line2d_50">
      <g>
       <use xlink:href="#m9fefe8f967" x="1192.091877" y="208.40443" style="stroke: #000000; stroke-width: 0.8"/>
      </g>
     </g>
     <g id="text_55">
      <!-- 0.001 -->
      <g transform="translate(1145.012502 213.723336) scale(0.14 -0.14)">
       <use xlink:href="#DejaVuSans-30"/>
       <use xlink:href="#DejaVuSans-2e" x="63.623047"/>
       <use xlink:href="#DejaVuSans-30" x="95.410156"/>
       <use xlink:href="#DejaVuSans-30" x="159.033203"/>
       <use xlink:href="#DejaVuSans-31" x="222.65625"/>
      </g>
     </g>
    </g>
    <g id="ytick_24">
     <g id="line2d_51">
      <g>
       <use xlink:href="#m9fefe8f967" x="1192.091877" y="169.907849" style="stroke: #000000; stroke-width: 0.8"/>
      </g>
     </g>
     <g id="text_56">
      <!-- 0.002 -->
      <g transform="translate(1145.012502 175.226755) scale(0.14 -0.14)">
       <use xlink:href="#DejaVuSans-30"/>
       <use xlink:href="#DejaVuSans-2e" x="63.623047"/>
       <use xlink:href="#DejaVuSans-30" x="95.410156"/>
       <use xlink:href="#DejaVuSans-30" x="159.033203"/>
       <use xlink:href="#DejaVuSans-32" x="222.65625"/>
      </g>
     </g>
    </g>
    <g id="ytick_25">
     <g id="line2d_52">
      <g>
       <use xlink:href="#m9fefe8f967" x="1192.091877" y="131.411269" style="stroke: #000000; stroke-width: 0.8"/>
      </g>
     </g>
     <g id="text_57">
      <!-- 0.003 -->
      <g transform="translate(1145.012502 136.730175) scale(0.14 -0.14)">
       <use xlink:href="#DejaVuSans-30"/>
       <use xlink:href="#DejaVuSans-2e" x="63.623047"/>
       <use xlink:href="#DejaVuSans-30" x="95.410156"/>
       <use xlink:href="#DejaVuSans-30" x="159.033203"/>
       <use xlink:href="#DejaVuSans-33" x="222.65625"/>
      </g>
     </g>
    </g>
    <g id="ytick_26">
     <g id="line2d_53">
      <g>
       <use xlink:href="#m9fefe8f967" x="1192.091877" y="92.914688" style="stroke: #000000; stroke-width: 0.8"/>
      </g>
     </g>
     <g id="text_58">
      <!-- 0.004 -->
      <g transform="translate(1145.012502 98.233594) scale(0.14 -0.14)">
       <use xlink:href="#DejaVuSans-30"/>
       <use xlink:href="#DejaVuSans-2e" x="63.623047"/>
       <use xlink:href="#DejaVuSans-30" x="95.410156"/>
       <use xlink:href="#DejaVuSans-30" x="159.033203"/>
       <use xlink:href="#DejaVuSans-34" x="222.65625"/>
      </g>
     </g>
    </g>
    <g id="ytick_27">
     <g id="line2d_54">
      <g>
       <use xlink:href="#m9fefe8f967" x="1192.091877" y="54.418108" style="stroke: #000000; stroke-width: 0.8"/>
      </g>
     </g>
     <g id="text_59">
      <!-- 0.005 -->
      <g transform="translate(1145.012502 59.737014) scale(0.14 -0.14)">
       <use xlink:href="#DejaVuSans-30"/>
       <use xlink:href="#DejaVuSans-2e" x="63.623047"/>
       <use xlink:href="#DejaVuSans-30" x="95.410156"/>
       <use xlink:href="#DejaVuSans-30" x="159.033203"/>
       <use xlink:href="#DejaVuSans-35" x="222.65625"/>
      </g>
     </g>
    </g>
   </g>
   <g id="line2d_55">
    <path d="M 1245.199423 244.46371 
L 1247.021623 243.983086 
L 1248.843823 243.420492 
L 1250.666023 242.764648 
L 1252.488223 242.003245 
L 1254.310423 241.122949 
L 1256.132623 240.109425 
L 1257.954823 238.947388 
L 1259.777023 237.620678 
L 1261.599223 236.112365 
L 1263.421423 234.404892 
L 1265.243623 232.480252 
L 1267.065823 230.320195 
L 1268.888023 227.906485 
L 1270.710223 225.221183 
L 1272.532423 222.246977 
L 1274.354623 218.967537 
L 1276.176823 215.367908 
L 1277.999023 211.434926 
L 1279.821223 207.157649 
L 1281.643423 202.527812 
L 1283.465623 197.540269 
L 1285.287823 192.193443 
L 1287.110023 186.489745 
L 1288.932223 180.435973 
L 1290.754423 174.043661 
L 1292.576623 167.329375 
L 1294.398823 160.314948 
L 1296.221023 153.027622 
L 1298.043223 145.500114 
L 1299.865423 137.770575 
L 1301.687623 129.882443 
L 1303.509822 121.884187 
L 1305.332022 113.828932 
L 1307.154222 105.773976 
L 1308.976422 97.780189 
L 1310.798622 89.911313 
L 1312.620822 82.233161 
L 1314.443022 74.81274 
L 1316.265222 67.717302 
L 1318.087422 61.013347 
L 1319.909622 54.765601 
L 1321.731822 49.035979 
L 1323.554022 43.882573 
L 1325.376222 39.35867 
L 1327.198422 35.511841 
L 1329.020622 32.383103 
L 1330.842822 30.006197 
L 1332.665022 28.40698 
L 1334.487222 27.602955 
L 1336.309422 27.602955 
L 1338.131622 28.40698 
L 1339.953822 30.006197 
L 1341.776022 32.383103 
L 1343.598222 35.511841 
L 1345.420422 39.35867 
L 1347.242622 43.882573 
L 1349.064822 49.035979 
L 1350.887022 54.765601 
L 1352.709222 61.013347 
L 1354.531422 67.717302 
L 1356.353622 74.81274 
L 1358.175822 82.233161 
L 1359.998022 89.911313 
L 1361.820222 97.780189 
L 1363.642422 105.773976 
L 1365.464622 113.828932 
L 1367.286822 121.884187 
L 1369.109022 129.882443 
L 1370.931222 137.770575 
L 1372.753422 145.500114 
L 1374.575622 153.027622 
L 1376.397822 160.314948 
L 1378.220022 167.329375 
L 1380.042221 174.043661 
L 1381.864421 180.435973 
L 1383.686621 186.489745 
L 1385.508821 192.193443 
L 1387.331021 197.540269 
L 1389.153221 202.527812 
L 1390.975421 207.157649 
L 1392.797621 211.434926 
L 1394.619821 215.367908 
L 1396.442021 218.967537 
L 1398.264221 222.246977 
L 1400.086421 225.221183 
L 1401.908621 227.906485 
L 1403.730821 230.320195 
L 1405.553021 232.480252 
L 1407.375221 234.404892 
L 1409.197421 236.112365 
L 1411.019621 237.620678 
L 1412.841821 238.947388 
L 1414.664021 240.109425 
L 1416.486221 241.122949 
L 1418.308421 242.003245 
L 1420.130621 242.764648 
L 1421.952821 243.420492 
L 1423.775021 243.983086 
L 1425.597221 244.46371 
" clip-path="url(#p2d1d8d3f8f)" style="fill: none; stroke: #2ca02c; stroke-width: 1.5; stroke-linecap: square"/>
   </g>
   <g id="patch_175">
    <path d="M 1192.091877 246.90101 
L 1192.091877 16.638052 
" style="fill: none; stroke: #000000; stroke-width: 0.8; stroke-linejoin: miter; stroke-linecap: square"/>
   </g>
   <g id="patch_176">
    <path d="M 1436.99976 246.90101 
L 1436.99976 16.638052 
" style="fill: none; stroke: #000000; stroke-width: 0.8; stroke-linejoin: miter; stroke-linecap: square"/>
   </g>
   <g id="patch_177">
    <path d="M 1192.091877 246.90101 
L 1436.99976 246.90101 
" style="fill: none; stroke: #000000; stroke-width: 0.8; stroke-linejoin: miter; stroke-linecap: square"/>
   </g>
   <g id="patch_178">
    <path d="M 1192.091877 16.638052 
L 1436.99976 16.638052 
" style="fill: none; stroke: #000000; stroke-width: 0.8; stroke-linejoin: miter; stroke-linecap: square"/>
   </g>
  </g>
 </g>
 <defs>
  <clipPath id="pf077f1884f">
   <rect x="36.457115" y="16.638052" width="244.907883" height="230.262958"/>
  </clipPath>
  <clipPath id="p246d3ae2ff">
   <rect x="340.802667" y="16.638052" width="244.907883" height="230.262958"/>
  </clipPath>
  <clipPath id="pc397cce9bc">
   <rect x="616.52603" y="16.638052" width="244.907883" height="230.262958"/>
  </clipPath>
  <clipPath id="p551ebc917b">
   <rect x="892.249392" y="16.638052" width="244.907883" height="230.262958"/>
  </clipPath>
  <clipPath id="p2d1d8d3f8f">
   <rect x="1192.091877" y="16.638052" width="244.907883" height="230.262958"/>
  </clipPath>
 </defs>
</svg>
